G75*
%MOIN*%
%OFA0B0*%
%FSLAX25Y25*%
%IPPOS*%
%LPD*%
%AMOC8*
5,1,8,0,0,1.08239X$1,22.5*
%
%ADD10C,0.04000*%
%ADD11R,0.29540X0.29540*%
%ADD12C,0.04146*%
%ADD13C,0.01075*%
%ADD14R,0.05131X0.04737*%
%ADD15C,0.06800*%
%ADD16R,0.08477X0.08477*%
%ADD17C,0.12611*%
%ADD18R,0.07887X0.07887*%
%ADD19R,0.04737X0.05131*%
%ADD20C,0.06800*%
%ADD21C,0.08200*%
%ADD22C,0.03975*%
%ADD23C,0.04800*%
%ADD24C,0.04762*%
%ADD25C,0.16611*%
D10*
X0100069Y0044894D03*
X0100069Y0056894D03*
D11*
X0046722Y0069674D03*
X0046526Y0156131D03*
X0378809Y0156131D03*
X0379006Y0069674D03*
D12*
X0038652Y0107312D03*
X0038652Y0122272D03*
D13*
X0133889Y0121279D02*
X0133889Y0118053D01*
X0133889Y0121279D02*
X0137115Y0121279D01*
X0137115Y0118053D01*
X0133889Y0118053D01*
X0133889Y0119127D02*
X0137115Y0119127D01*
X0137115Y0120201D02*
X0133889Y0120201D01*
X0133889Y0121275D02*
X0137115Y0121275D01*
X0133889Y0124053D02*
X0133889Y0127279D01*
X0137115Y0127279D01*
X0137115Y0124053D01*
X0133889Y0124053D01*
X0133889Y0125127D02*
X0137115Y0125127D01*
X0137115Y0126201D02*
X0133889Y0126201D01*
X0133889Y0127275D02*
X0137115Y0127275D01*
X0154361Y0142463D02*
X0154361Y0145689D01*
X0157587Y0145689D01*
X0157587Y0142463D01*
X0154361Y0142463D01*
X0154361Y0143537D02*
X0157587Y0143537D01*
X0157587Y0144611D02*
X0154361Y0144611D01*
X0154361Y0145685D02*
X0157587Y0145685D01*
X0154361Y0148463D02*
X0154361Y0151689D01*
X0157587Y0151689D01*
X0157587Y0148463D01*
X0154361Y0148463D01*
X0154361Y0149537D02*
X0157587Y0149537D01*
X0157587Y0150611D02*
X0154361Y0150611D01*
X0154361Y0151685D02*
X0157587Y0151685D01*
X0177983Y0151689D02*
X0177983Y0148463D01*
X0177983Y0151689D02*
X0181209Y0151689D01*
X0181209Y0148463D01*
X0177983Y0148463D01*
X0177983Y0149537D02*
X0181209Y0149537D01*
X0181209Y0150611D02*
X0177983Y0150611D01*
X0177983Y0151685D02*
X0181209Y0151685D01*
X0177983Y0145689D02*
X0177983Y0142463D01*
X0177983Y0145689D02*
X0181209Y0145689D01*
X0181209Y0142463D01*
X0177983Y0142463D01*
X0177983Y0143537D02*
X0181209Y0143537D01*
X0181209Y0144611D02*
X0177983Y0144611D01*
X0177983Y0145685D02*
X0181209Y0145685D01*
X0177590Y0128067D02*
X0177590Y0124841D01*
X0177590Y0128067D02*
X0180816Y0128067D01*
X0180816Y0124841D01*
X0177590Y0124841D01*
X0177590Y0125915D02*
X0180816Y0125915D01*
X0180816Y0126989D02*
X0177590Y0126989D01*
X0177590Y0128063D02*
X0180816Y0128063D01*
X0177590Y0122067D02*
X0177590Y0118841D01*
X0177590Y0122067D02*
X0180816Y0122067D01*
X0180816Y0118841D01*
X0177590Y0118841D01*
X0177590Y0119915D02*
X0180816Y0119915D01*
X0180816Y0120989D02*
X0177590Y0120989D01*
X0177590Y0122063D02*
X0180816Y0122063D01*
X0201606Y0121279D02*
X0201606Y0118053D01*
X0201606Y0121279D02*
X0204832Y0121279D01*
X0204832Y0118053D01*
X0201606Y0118053D01*
X0201606Y0119127D02*
X0204832Y0119127D01*
X0204832Y0120201D02*
X0201606Y0120201D01*
X0201606Y0121275D02*
X0204832Y0121275D01*
X0201606Y0124053D02*
X0201606Y0127279D01*
X0204832Y0127279D01*
X0204832Y0124053D01*
X0201606Y0124053D01*
X0201606Y0125127D02*
X0204832Y0125127D01*
X0204832Y0126201D02*
X0201606Y0126201D01*
X0201606Y0127275D02*
X0204832Y0127275D01*
X0200031Y0142069D02*
X0200031Y0145295D01*
X0203257Y0145295D01*
X0203257Y0142069D01*
X0200031Y0142069D01*
X0200031Y0143143D02*
X0203257Y0143143D01*
X0203257Y0144217D02*
X0200031Y0144217D01*
X0200031Y0145291D02*
X0203257Y0145291D01*
X0200031Y0148069D02*
X0200031Y0151295D01*
X0203257Y0151295D01*
X0203257Y0148069D01*
X0200031Y0148069D01*
X0200031Y0149143D02*
X0203257Y0149143D01*
X0203257Y0150217D02*
X0200031Y0150217D01*
X0200031Y0151291D02*
X0203257Y0151291D01*
X0155149Y0128067D02*
X0155149Y0124841D01*
X0155149Y0128067D02*
X0158375Y0128067D01*
X0158375Y0124841D01*
X0155149Y0124841D01*
X0155149Y0125915D02*
X0158375Y0125915D01*
X0158375Y0126989D02*
X0155149Y0126989D01*
X0155149Y0128063D02*
X0158375Y0128063D01*
X0155149Y0122067D02*
X0155149Y0118841D01*
X0155149Y0122067D02*
X0158375Y0122067D01*
X0158375Y0118841D01*
X0155149Y0118841D01*
X0155149Y0119915D02*
X0158375Y0119915D01*
X0158375Y0120989D02*
X0155149Y0120989D01*
X0155149Y0122063D02*
X0158375Y0122063D01*
X0133495Y0143644D02*
X0133495Y0146870D01*
X0136721Y0146870D01*
X0136721Y0143644D01*
X0133495Y0143644D01*
X0133495Y0144718D02*
X0136721Y0144718D01*
X0136721Y0145792D02*
X0133495Y0145792D01*
X0133495Y0146866D02*
X0136721Y0146866D01*
X0133495Y0149644D02*
X0133495Y0152870D01*
X0136721Y0152870D01*
X0136721Y0149644D01*
X0133495Y0149644D01*
X0133495Y0150718D02*
X0136721Y0150718D01*
X0136721Y0151792D02*
X0133495Y0151792D01*
X0133495Y0152866D02*
X0136721Y0152866D01*
X0302543Y0224673D02*
X0305769Y0224673D01*
X0305769Y0221447D01*
X0302543Y0221447D01*
X0302543Y0224673D01*
X0302543Y0222521D02*
X0305769Y0222521D01*
X0305769Y0223595D02*
X0302543Y0223595D01*
X0302543Y0224669D02*
X0305769Y0224669D01*
X0308543Y0224673D02*
X0311769Y0224673D01*
X0311769Y0221447D01*
X0308543Y0221447D01*
X0308543Y0224673D01*
X0308543Y0222521D02*
X0311769Y0222521D01*
X0311769Y0223595D02*
X0308543Y0223595D01*
X0308543Y0224669D02*
X0311769Y0224669D01*
X0321046Y0225460D02*
X0324272Y0225460D01*
X0324272Y0222234D01*
X0321046Y0222234D01*
X0321046Y0225460D01*
X0321046Y0223308D02*
X0324272Y0223308D01*
X0324272Y0224382D02*
X0321046Y0224382D01*
X0321046Y0225456D02*
X0324272Y0225456D01*
X0327046Y0225460D02*
X0330272Y0225460D01*
X0330272Y0222234D01*
X0327046Y0222234D01*
X0327046Y0225460D01*
X0327046Y0223308D02*
X0330272Y0223308D01*
X0330272Y0224382D02*
X0327046Y0224382D01*
X0327046Y0225456D02*
X0330272Y0225456D01*
X0336007Y0209636D02*
X0339233Y0209636D01*
X0336007Y0209636D02*
X0336007Y0212862D01*
X0339233Y0212862D01*
X0339233Y0209636D01*
X0339233Y0210710D02*
X0336007Y0210710D01*
X0336007Y0211784D02*
X0339233Y0211784D01*
X0339233Y0212858D02*
X0336007Y0212858D01*
X0342007Y0209636D02*
X0345233Y0209636D01*
X0342007Y0209636D02*
X0342007Y0212862D01*
X0345233Y0212862D01*
X0345233Y0209636D01*
X0345233Y0210710D02*
X0342007Y0210710D01*
X0342007Y0211784D02*
X0345233Y0211784D01*
X0345233Y0212858D02*
X0342007Y0212858D01*
X0384359Y0214904D02*
X0384359Y0218130D01*
X0384359Y0214904D02*
X0381133Y0214904D01*
X0381133Y0218130D01*
X0384359Y0218130D01*
X0384359Y0215978D02*
X0381133Y0215978D01*
X0381133Y0217052D02*
X0384359Y0217052D01*
X0384359Y0218126D02*
X0381133Y0218126D01*
X0384359Y0220904D02*
X0384359Y0224130D01*
X0384359Y0220904D02*
X0381133Y0220904D01*
X0381133Y0224130D01*
X0384359Y0224130D01*
X0384359Y0221978D02*
X0381133Y0221978D01*
X0381133Y0223052D02*
X0384359Y0223052D01*
X0384359Y0224126D02*
X0381133Y0224126D01*
X0395383Y0224130D02*
X0395383Y0220904D01*
X0392157Y0220904D01*
X0392157Y0224130D01*
X0395383Y0224130D01*
X0395383Y0221978D02*
X0392157Y0221978D01*
X0392157Y0223052D02*
X0395383Y0223052D01*
X0395383Y0224126D02*
X0392157Y0224126D01*
X0395383Y0218130D02*
X0395383Y0214904D01*
X0392157Y0214904D01*
X0392157Y0218130D01*
X0395383Y0218130D01*
X0395383Y0215978D02*
X0392157Y0215978D01*
X0392157Y0217052D02*
X0395383Y0217052D01*
X0395383Y0218126D02*
X0392157Y0218126D01*
X0350424Y0102082D02*
X0350424Y0098856D01*
X0350424Y0102082D02*
X0353650Y0102082D01*
X0353650Y0098856D01*
X0350424Y0098856D01*
X0350424Y0099930D02*
X0353650Y0099930D01*
X0353650Y0101004D02*
X0350424Y0101004D01*
X0350424Y0102078D02*
X0353650Y0102078D01*
X0350424Y0096082D02*
X0350424Y0092856D01*
X0350424Y0096082D02*
X0353650Y0096082D01*
X0353650Y0092856D01*
X0350424Y0092856D01*
X0350424Y0093930D02*
X0353650Y0093930D01*
X0353650Y0095004D02*
X0350424Y0095004D01*
X0350424Y0096078D02*
X0353650Y0096078D01*
X0331920Y0096476D02*
X0331920Y0093250D01*
X0331920Y0096476D02*
X0335146Y0096476D01*
X0335146Y0093250D01*
X0331920Y0093250D01*
X0331920Y0094324D02*
X0335146Y0094324D01*
X0335146Y0095398D02*
X0331920Y0095398D01*
X0331920Y0096472D02*
X0335146Y0096472D01*
X0331920Y0099250D02*
X0331920Y0102476D01*
X0335146Y0102476D01*
X0335146Y0099250D01*
X0331920Y0099250D01*
X0331920Y0100324D02*
X0335146Y0100324D01*
X0335146Y0101398D02*
X0331920Y0101398D01*
X0331920Y0102472D02*
X0335146Y0102472D01*
D14*
X0245935Y0132509D03*
X0239242Y0132509D03*
X0240030Y0156524D03*
X0246722Y0156524D03*
X0193967Y0236839D03*
X0187274Y0236839D03*
X0187274Y0251800D03*
X0193967Y0251800D03*
X0262864Y0250619D03*
X0269557Y0250619D03*
X0338848Y0223454D03*
X0345541Y0223454D03*
D15*
X0382896Y0126249D02*
X0388896Y0126249D01*
X0388896Y0116249D02*
X0382896Y0116249D01*
X0382896Y0106249D02*
X0388896Y0106249D01*
X0388896Y0096249D02*
X0382896Y0096249D01*
D16*
X0175659Y0298257D03*
X0175659Y0352587D03*
D17*
X0151250Y0362430D03*
X0081959Y0362430D03*
X0082352Y0288020D03*
X0151250Y0288020D03*
X0226841Y0347076D03*
X0226841Y0384871D03*
X0279990Y0383690D03*
X0279990Y0345107D03*
D18*
X0269754Y0333690D03*
X0237470Y0333690D03*
D19*
X0373297Y0222863D03*
X0373297Y0216170D03*
D20*
X0257943Y0282351D03*
X0257943Y0292351D03*
X0257943Y0302351D03*
D21*
X0241329Y0076603D03*
X0231329Y0076603D03*
X0221329Y0076603D03*
X0221329Y0059674D03*
X0231329Y0059674D03*
X0241329Y0059674D03*
D22*
X0224478Y0090383D03*
X0220541Y0094713D03*
X0217986Y0101213D03*
X0210699Y0097469D03*
X0204819Y0108526D03*
X0219754Y0119517D03*
X0224872Y0119910D03*
X0229848Y0111500D03*
X0227234Y0108493D03*
X0246919Y0101013D03*
X0246919Y0117548D03*
X0253219Y0120337D03*
X0279170Y0099865D03*
X0287110Y0109674D03*
X0287044Y0117730D03*
X0284551Y0120859D03*
X0292622Y0121482D03*
X0296094Y0119334D03*
X0300069Y0119334D03*
X0292195Y0140776D03*
X0280778Y0143926D03*
X0279990Y0139951D03*
X0272904Y0151013D03*
X0278809Y0156131D03*
X0283533Y0160855D03*
X0292195Y0150619D03*
X0271522Y0180733D03*
X0264242Y0186446D03*
X0260305Y0183690D03*
X0267760Y0194713D03*
X0247707Y0203375D03*
X0240620Y0195501D03*
X0236289Y0202981D03*
X0231962Y0192741D03*
X0235108Y0189595D03*
X0240686Y0186806D03*
X0241014Y0178965D03*
X0231204Y0160677D03*
X0251250Y0156918D03*
X0216965Y0138414D03*
X0213455Y0133690D03*
X0209911Y0141957D03*
X0216604Y0189202D03*
X0192589Y0208887D03*
X0166998Y0245501D03*
X0066604Y0123060D03*
X0066998Y0111643D03*
X0068967Y0101013D03*
X0147313Y0108887D03*
X0296919Y0074241D03*
X0299708Y0078965D03*
X0333533Y0106131D03*
X0328809Y0113578D03*
X0332746Y0116367D03*
X0336256Y0130934D03*
X0339045Y0134477D03*
X0338652Y0159280D03*
X0346919Y0101013D03*
X0342589Y0073454D03*
D23*
X0360207Y0081623D03*
X0360699Y0087036D03*
X0376939Y0103276D03*
X0358730Y0110166D03*
X0349380Y0119517D03*
X0353317Y0128375D03*
X0361191Y0125914D03*
X0361191Y0138217D03*
X0353317Y0142154D03*
X0349872Y0145599D03*
X0341998Y0144615D03*
X0340522Y0165284D03*
X0342490Y0174143D03*
X0352825Y0174143D03*
X0358238Y0184477D03*
X0359715Y0202686D03*
X0350856Y0211544D03*
X0359715Y0218926D03*
X0350856Y0223355D03*
X0338553Y0236643D03*
X0333140Y0236150D03*
X0328219Y0235658D03*
X0322313Y0236643D03*
X0310502Y0238611D03*
X0304596Y0237627D03*
X0308041Y0217942D03*
X0326250Y0214497D03*
X0339045Y0189398D03*
X0323789Y0168729D03*
X0320344Y0165284D03*
X0314439Y0169221D03*
X0317884Y0157902D03*
X0303612Y0159871D03*
X0293770Y0157410D03*
X0279498Y0163316D03*
X0268179Y0171190D03*
X0269163Y0176111D03*
X0247510Y0194320D03*
X0262274Y0205146D03*
X0262274Y0215481D03*
X0237667Y0208591D03*
X0249478Y0243532D03*
X0241112Y0246977D03*
X0233238Y0246977D03*
X0233238Y0259772D03*
X0235699Y0276013D03*
X0235207Y0281918D03*
X0235207Y0286839D03*
X0235207Y0291761D03*
X0235207Y0296682D03*
X0213061Y0277981D03*
X0207156Y0282410D03*
X0209616Y0290284D03*
X0195837Y0298158D03*
X0194360Y0258296D03*
X0211093Y0258788D03*
X0205679Y0242056D03*
X0205679Y0237135D03*
X0173691Y0215481D03*
X0159911Y0229261D03*
X0149577Y0226800D03*
X0147608Y0234674D03*
X0147608Y0239595D03*
X0138750Y0245501D03*
X0131860Y0245009D03*
X0123494Y0239595D03*
X0112667Y0244517D03*
X0113652Y0223847D03*
X0118081Y0216957D03*
X0122018Y0207115D03*
X0129400Y0208099D03*
X0144163Y0202194D03*
X0127923Y0177095D03*
X0126447Y0170698D03*
X0136289Y0172666D03*
X0116604Y0149044D03*
X0122510Y0143139D03*
X0123494Y0137725D03*
X0130384Y0144123D03*
X0128907Y0128375D03*
X0117096Y0122961D03*
X0117096Y0115087D03*
X0125463Y0108198D03*
X0100364Y0092942D03*
X0100364Y0085068D03*
X0087569Y0108198D03*
X0062963Y0093434D03*
X0049675Y0087036D03*
X0069360Y0143139D03*
X0077234Y0145107D03*
X0079203Y0166761D03*
X0083140Y0174635D03*
X0092982Y0166761D03*
X0104793Y0178572D03*
X0108730Y0174635D03*
X0094951Y0192351D03*
X0112667Y0198257D03*
X0136781Y0229261D03*
X0171230Y0236643D03*
X0148593Y0268631D03*
X0077234Y0241564D03*
X0061486Y0245501D03*
X0049675Y0255343D03*
X0043770Y0241564D03*
X0043770Y0235658D03*
X0059518Y0198257D03*
X0069360Y0184477D03*
X0033927Y0184477D03*
X0159419Y0071780D03*
X0170738Y0057509D03*
X0155482Y0042253D03*
X0150561Y0044221D03*
X0191407Y0064398D03*
X0198789Y0071780D03*
X0196329Y0091465D03*
X0175167Y0091465D03*
X0199774Y0112627D03*
X0205187Y0113119D03*
X0206663Y0129851D03*
X0198297Y0157410D03*
X0191407Y0168729D03*
X0183041Y0179556D03*
X0242589Y0127391D03*
X0253415Y0130343D03*
X0256860Y0133788D03*
X0256860Y0143631D03*
X0268179Y0130343D03*
X0272608Y0146583D03*
X0301644Y0131820D03*
X0314439Y0132804D03*
X0314439Y0120009D03*
X0327234Y0105737D03*
X0328711Y0093926D03*
X0341998Y0110166D03*
X0269656Y0064398D03*
X0239144Y0090973D03*
X0245541Y0107213D03*
X0246033Y0112135D03*
X0238159Y0117056D03*
X0234715Y0112135D03*
X0257844Y0250422D03*
X0256368Y0274536D03*
X0354793Y0262233D03*
X0359715Y0262233D03*
X0373494Y0262233D03*
X0386781Y0262233D03*
X0379400Y0240580D03*
X0377923Y0235658D03*
D24*
X0355581Y0195107D03*
X0333533Y0195107D03*
X0322116Y0206131D03*
X0374872Y0176603D03*
X0247313Y0220304D03*
X0185108Y0268335D03*
X0113061Y0217548D03*
X0104400Y0215973D03*
X0087470Y0216367D03*
X0078022Y0206918D03*
X0085896Y0241170D03*
X0026129Y0203769D03*
X0079990Y0140514D03*
X0080778Y0133296D03*
X0119754Y0176209D03*
X0131368Y0164005D03*
D25*
X0032352Y0022272D03*
X0394557Y0023454D03*
X0394557Y0385265D03*
X0033140Y0383690D03*
M02*
