G75*
%MOIN*%
%OFA0B0*%
%FSLAX25Y25*%
%IPPOS*%
%LPD*%
%AMOC8*
5,1,8,0,0,1.08239X$1,22.5*
%
%ADD10C,0.00000*%
%ADD11C,0.00600*%
%ADD12C,0.00800*%
%ADD13C,0.03482*%
%ADD14C,0.00400*%
%ADD15C,0.00500*%
%ADD16C,0.00787*%
%ADD17C,0.02559*%
%ADD18C,0.00100*%
%ADD19R,0.01800X0.03000*%
%ADD20C,0.02200*%
%ADD21C,0.01200*%
%ADD22C,0.00394*%
%ADD23C,0.01000*%
%ADD24R,0.00787X0.04724*%
%ADD25R,0.04724X0.00787*%
%ADD26C,0.02000*%
%ADD27C,0.02600*%
D10*
X0020148Y0017154D02*
X0020148Y0389202D01*
X0020150Y0389392D01*
X0020157Y0389582D01*
X0020169Y0389772D01*
X0020185Y0389962D01*
X0020205Y0390151D01*
X0020231Y0390340D01*
X0020260Y0390528D01*
X0020295Y0390715D01*
X0020334Y0390901D01*
X0020377Y0391086D01*
X0020425Y0391271D01*
X0020477Y0391454D01*
X0020533Y0391635D01*
X0020594Y0391815D01*
X0020660Y0391994D01*
X0020729Y0392171D01*
X0020803Y0392347D01*
X0020881Y0392520D01*
X0020964Y0392692D01*
X0021050Y0392861D01*
X0021140Y0393029D01*
X0021235Y0393194D01*
X0021333Y0393357D01*
X0021436Y0393517D01*
X0021542Y0393675D01*
X0021652Y0393830D01*
X0021765Y0393983D01*
X0021883Y0394133D01*
X0022004Y0394279D01*
X0022128Y0394423D01*
X0022256Y0394564D01*
X0022387Y0394702D01*
X0022522Y0394837D01*
X0022660Y0394968D01*
X0022801Y0395096D01*
X0022945Y0395220D01*
X0023091Y0395341D01*
X0023241Y0395459D01*
X0023394Y0395572D01*
X0023549Y0395682D01*
X0023707Y0395788D01*
X0023867Y0395891D01*
X0024030Y0395989D01*
X0024195Y0396084D01*
X0024363Y0396174D01*
X0024532Y0396260D01*
X0024704Y0396343D01*
X0024877Y0396421D01*
X0025053Y0396495D01*
X0025230Y0396564D01*
X0025409Y0396630D01*
X0025589Y0396691D01*
X0025770Y0396747D01*
X0025953Y0396799D01*
X0026138Y0396847D01*
X0026323Y0396890D01*
X0026509Y0396929D01*
X0026696Y0396964D01*
X0026884Y0396993D01*
X0027073Y0397019D01*
X0027262Y0397039D01*
X0027452Y0397055D01*
X0027642Y0397067D01*
X0027832Y0397074D01*
X0028022Y0397076D01*
X0399281Y0397076D01*
X0399471Y0397074D01*
X0399661Y0397067D01*
X0399851Y0397055D01*
X0400041Y0397039D01*
X0400230Y0397019D01*
X0400419Y0396993D01*
X0400607Y0396964D01*
X0400794Y0396929D01*
X0400980Y0396890D01*
X0401165Y0396847D01*
X0401350Y0396799D01*
X0401533Y0396747D01*
X0401714Y0396691D01*
X0401894Y0396630D01*
X0402073Y0396564D01*
X0402250Y0396495D01*
X0402426Y0396421D01*
X0402599Y0396343D01*
X0402771Y0396260D01*
X0402940Y0396174D01*
X0403108Y0396084D01*
X0403273Y0395989D01*
X0403436Y0395891D01*
X0403596Y0395788D01*
X0403754Y0395682D01*
X0403909Y0395572D01*
X0404062Y0395459D01*
X0404212Y0395341D01*
X0404358Y0395220D01*
X0404502Y0395096D01*
X0404643Y0394968D01*
X0404781Y0394837D01*
X0404916Y0394702D01*
X0405047Y0394564D01*
X0405175Y0394423D01*
X0405299Y0394279D01*
X0405420Y0394133D01*
X0405538Y0393983D01*
X0405651Y0393830D01*
X0405761Y0393675D01*
X0405867Y0393517D01*
X0405970Y0393357D01*
X0406068Y0393194D01*
X0406163Y0393029D01*
X0406253Y0392861D01*
X0406339Y0392692D01*
X0406422Y0392520D01*
X0406500Y0392347D01*
X0406574Y0392171D01*
X0406643Y0391994D01*
X0406709Y0391815D01*
X0406770Y0391635D01*
X0406826Y0391454D01*
X0406878Y0391271D01*
X0406926Y0391086D01*
X0406969Y0390901D01*
X0407008Y0390715D01*
X0407043Y0390528D01*
X0407072Y0390340D01*
X0407098Y0390151D01*
X0407118Y0389962D01*
X0407134Y0389772D01*
X0407146Y0389582D01*
X0407153Y0389392D01*
X0407155Y0389202D01*
X0407156Y0389202D02*
X0407156Y0017154D01*
X0407155Y0017154D02*
X0407153Y0016964D01*
X0407146Y0016774D01*
X0407134Y0016584D01*
X0407118Y0016394D01*
X0407098Y0016205D01*
X0407072Y0016016D01*
X0407043Y0015828D01*
X0407008Y0015641D01*
X0406969Y0015455D01*
X0406926Y0015270D01*
X0406878Y0015085D01*
X0406826Y0014902D01*
X0406770Y0014721D01*
X0406709Y0014541D01*
X0406643Y0014362D01*
X0406574Y0014185D01*
X0406500Y0014009D01*
X0406422Y0013836D01*
X0406339Y0013664D01*
X0406253Y0013495D01*
X0406163Y0013327D01*
X0406068Y0013162D01*
X0405970Y0012999D01*
X0405867Y0012839D01*
X0405761Y0012681D01*
X0405651Y0012526D01*
X0405538Y0012373D01*
X0405420Y0012223D01*
X0405299Y0012077D01*
X0405175Y0011933D01*
X0405047Y0011792D01*
X0404916Y0011654D01*
X0404781Y0011519D01*
X0404643Y0011388D01*
X0404502Y0011260D01*
X0404358Y0011136D01*
X0404212Y0011015D01*
X0404062Y0010897D01*
X0403909Y0010784D01*
X0403754Y0010674D01*
X0403596Y0010568D01*
X0403436Y0010465D01*
X0403273Y0010367D01*
X0403108Y0010272D01*
X0402940Y0010182D01*
X0402771Y0010096D01*
X0402599Y0010013D01*
X0402426Y0009935D01*
X0402250Y0009861D01*
X0402073Y0009792D01*
X0401894Y0009726D01*
X0401714Y0009665D01*
X0401533Y0009609D01*
X0401350Y0009557D01*
X0401165Y0009509D01*
X0400980Y0009466D01*
X0400794Y0009427D01*
X0400607Y0009392D01*
X0400419Y0009363D01*
X0400230Y0009337D01*
X0400041Y0009317D01*
X0399851Y0009301D01*
X0399661Y0009289D01*
X0399471Y0009282D01*
X0399281Y0009280D01*
X0028022Y0009280D01*
X0027832Y0009282D01*
X0027642Y0009289D01*
X0027452Y0009301D01*
X0027262Y0009317D01*
X0027073Y0009337D01*
X0026884Y0009363D01*
X0026696Y0009392D01*
X0026509Y0009427D01*
X0026323Y0009466D01*
X0026138Y0009509D01*
X0025953Y0009557D01*
X0025770Y0009609D01*
X0025589Y0009665D01*
X0025409Y0009726D01*
X0025230Y0009792D01*
X0025053Y0009861D01*
X0024877Y0009935D01*
X0024704Y0010013D01*
X0024532Y0010096D01*
X0024363Y0010182D01*
X0024195Y0010272D01*
X0024030Y0010367D01*
X0023867Y0010465D01*
X0023707Y0010568D01*
X0023549Y0010674D01*
X0023394Y0010784D01*
X0023241Y0010897D01*
X0023091Y0011015D01*
X0022945Y0011136D01*
X0022801Y0011260D01*
X0022660Y0011388D01*
X0022522Y0011519D01*
X0022387Y0011654D01*
X0022256Y0011792D01*
X0022128Y0011933D01*
X0022004Y0012077D01*
X0021883Y0012223D01*
X0021765Y0012373D01*
X0021652Y0012526D01*
X0021542Y0012681D01*
X0021436Y0012839D01*
X0021333Y0012999D01*
X0021235Y0013162D01*
X0021140Y0013327D01*
X0021050Y0013495D01*
X0020964Y0013664D01*
X0020881Y0013836D01*
X0020803Y0014009D01*
X0020729Y0014185D01*
X0020660Y0014362D01*
X0020594Y0014541D01*
X0020533Y0014721D01*
X0020477Y0014902D01*
X0020425Y0015085D01*
X0020377Y0015270D01*
X0020334Y0015455D01*
X0020295Y0015641D01*
X0020260Y0015828D01*
X0020231Y0016016D01*
X0020205Y0016205D01*
X0020185Y0016394D01*
X0020169Y0016584D01*
X0020157Y0016774D01*
X0020150Y0016964D01*
X0020148Y0017154D01*
X0098469Y0044894D02*
X0098471Y0044974D01*
X0098477Y0045053D01*
X0098487Y0045132D01*
X0098501Y0045211D01*
X0098518Y0045289D01*
X0098540Y0045366D01*
X0098565Y0045441D01*
X0098595Y0045515D01*
X0098627Y0045588D01*
X0098664Y0045659D01*
X0098704Y0045728D01*
X0098747Y0045795D01*
X0098794Y0045860D01*
X0098843Y0045922D01*
X0098896Y0045982D01*
X0098952Y0046039D01*
X0099010Y0046094D01*
X0099071Y0046145D01*
X0099135Y0046193D01*
X0099201Y0046238D01*
X0099269Y0046280D01*
X0099339Y0046318D01*
X0099411Y0046352D01*
X0099484Y0046383D01*
X0099559Y0046411D01*
X0099636Y0046434D01*
X0099713Y0046454D01*
X0099791Y0046470D01*
X0099870Y0046482D01*
X0099949Y0046490D01*
X0100029Y0046494D01*
X0100109Y0046494D01*
X0100189Y0046490D01*
X0100268Y0046482D01*
X0100347Y0046470D01*
X0100425Y0046454D01*
X0100502Y0046434D01*
X0100579Y0046411D01*
X0100654Y0046383D01*
X0100727Y0046352D01*
X0100799Y0046318D01*
X0100869Y0046280D01*
X0100937Y0046238D01*
X0101003Y0046193D01*
X0101067Y0046145D01*
X0101128Y0046094D01*
X0101186Y0046039D01*
X0101242Y0045982D01*
X0101295Y0045922D01*
X0101344Y0045860D01*
X0101391Y0045795D01*
X0101434Y0045728D01*
X0101474Y0045659D01*
X0101511Y0045588D01*
X0101543Y0045515D01*
X0101573Y0045441D01*
X0101598Y0045366D01*
X0101620Y0045289D01*
X0101637Y0045211D01*
X0101651Y0045132D01*
X0101661Y0045053D01*
X0101667Y0044974D01*
X0101669Y0044894D01*
X0101667Y0044814D01*
X0101661Y0044735D01*
X0101651Y0044656D01*
X0101637Y0044577D01*
X0101620Y0044499D01*
X0101598Y0044422D01*
X0101573Y0044347D01*
X0101543Y0044273D01*
X0101511Y0044200D01*
X0101474Y0044129D01*
X0101434Y0044060D01*
X0101391Y0043993D01*
X0101344Y0043928D01*
X0101295Y0043866D01*
X0101242Y0043806D01*
X0101186Y0043749D01*
X0101128Y0043694D01*
X0101067Y0043643D01*
X0101003Y0043595D01*
X0100937Y0043550D01*
X0100869Y0043508D01*
X0100799Y0043470D01*
X0100727Y0043436D01*
X0100654Y0043405D01*
X0100579Y0043377D01*
X0100502Y0043354D01*
X0100425Y0043334D01*
X0100347Y0043318D01*
X0100268Y0043306D01*
X0100189Y0043298D01*
X0100109Y0043294D01*
X0100029Y0043294D01*
X0099949Y0043298D01*
X0099870Y0043306D01*
X0099791Y0043318D01*
X0099713Y0043334D01*
X0099636Y0043354D01*
X0099559Y0043377D01*
X0099484Y0043405D01*
X0099411Y0043436D01*
X0099339Y0043470D01*
X0099269Y0043508D01*
X0099201Y0043550D01*
X0099135Y0043595D01*
X0099071Y0043643D01*
X0099010Y0043694D01*
X0098952Y0043749D01*
X0098896Y0043806D01*
X0098843Y0043866D01*
X0098794Y0043928D01*
X0098747Y0043993D01*
X0098704Y0044060D01*
X0098664Y0044129D01*
X0098627Y0044200D01*
X0098595Y0044273D01*
X0098565Y0044347D01*
X0098540Y0044422D01*
X0098518Y0044499D01*
X0098501Y0044577D01*
X0098487Y0044656D01*
X0098477Y0044735D01*
X0098471Y0044814D01*
X0098469Y0044894D01*
X0098469Y0056894D02*
X0098471Y0056974D01*
X0098477Y0057053D01*
X0098487Y0057132D01*
X0098501Y0057211D01*
X0098518Y0057289D01*
X0098540Y0057366D01*
X0098565Y0057441D01*
X0098595Y0057515D01*
X0098627Y0057588D01*
X0098664Y0057659D01*
X0098704Y0057728D01*
X0098747Y0057795D01*
X0098794Y0057860D01*
X0098843Y0057922D01*
X0098896Y0057982D01*
X0098952Y0058039D01*
X0099010Y0058094D01*
X0099071Y0058145D01*
X0099135Y0058193D01*
X0099201Y0058238D01*
X0099269Y0058280D01*
X0099339Y0058318D01*
X0099411Y0058352D01*
X0099484Y0058383D01*
X0099559Y0058411D01*
X0099636Y0058434D01*
X0099713Y0058454D01*
X0099791Y0058470D01*
X0099870Y0058482D01*
X0099949Y0058490D01*
X0100029Y0058494D01*
X0100109Y0058494D01*
X0100189Y0058490D01*
X0100268Y0058482D01*
X0100347Y0058470D01*
X0100425Y0058454D01*
X0100502Y0058434D01*
X0100579Y0058411D01*
X0100654Y0058383D01*
X0100727Y0058352D01*
X0100799Y0058318D01*
X0100869Y0058280D01*
X0100937Y0058238D01*
X0101003Y0058193D01*
X0101067Y0058145D01*
X0101128Y0058094D01*
X0101186Y0058039D01*
X0101242Y0057982D01*
X0101295Y0057922D01*
X0101344Y0057860D01*
X0101391Y0057795D01*
X0101434Y0057728D01*
X0101474Y0057659D01*
X0101511Y0057588D01*
X0101543Y0057515D01*
X0101573Y0057441D01*
X0101598Y0057366D01*
X0101620Y0057289D01*
X0101637Y0057211D01*
X0101651Y0057132D01*
X0101661Y0057053D01*
X0101667Y0056974D01*
X0101669Y0056894D01*
X0101667Y0056814D01*
X0101661Y0056735D01*
X0101651Y0056656D01*
X0101637Y0056577D01*
X0101620Y0056499D01*
X0101598Y0056422D01*
X0101573Y0056347D01*
X0101543Y0056273D01*
X0101511Y0056200D01*
X0101474Y0056129D01*
X0101434Y0056060D01*
X0101391Y0055993D01*
X0101344Y0055928D01*
X0101295Y0055866D01*
X0101242Y0055806D01*
X0101186Y0055749D01*
X0101128Y0055694D01*
X0101067Y0055643D01*
X0101003Y0055595D01*
X0100937Y0055550D01*
X0100869Y0055508D01*
X0100799Y0055470D01*
X0100727Y0055436D01*
X0100654Y0055405D01*
X0100579Y0055377D01*
X0100502Y0055354D01*
X0100425Y0055334D01*
X0100347Y0055318D01*
X0100268Y0055306D01*
X0100189Y0055298D01*
X0100109Y0055294D01*
X0100029Y0055294D01*
X0099949Y0055298D01*
X0099870Y0055306D01*
X0099791Y0055318D01*
X0099713Y0055334D01*
X0099636Y0055354D01*
X0099559Y0055377D01*
X0099484Y0055405D01*
X0099411Y0055436D01*
X0099339Y0055470D01*
X0099269Y0055508D01*
X0099201Y0055550D01*
X0099135Y0055595D01*
X0099071Y0055643D01*
X0099010Y0055694D01*
X0098952Y0055749D01*
X0098896Y0055806D01*
X0098843Y0055866D01*
X0098794Y0055928D01*
X0098747Y0055993D01*
X0098704Y0056060D01*
X0098664Y0056129D01*
X0098627Y0056200D01*
X0098595Y0056273D01*
X0098565Y0056347D01*
X0098540Y0056422D01*
X0098518Y0056499D01*
X0098501Y0056577D01*
X0098487Y0056656D01*
X0098477Y0056735D01*
X0098471Y0056814D01*
X0098469Y0056894D01*
X0036979Y0107312D02*
X0036981Y0107393D01*
X0036987Y0107475D01*
X0036997Y0107556D01*
X0037011Y0107636D01*
X0037028Y0107715D01*
X0037050Y0107794D01*
X0037075Y0107871D01*
X0037104Y0107948D01*
X0037137Y0108022D01*
X0037174Y0108095D01*
X0037213Y0108166D01*
X0037257Y0108235D01*
X0037303Y0108302D01*
X0037353Y0108366D01*
X0037406Y0108428D01*
X0037462Y0108488D01*
X0037520Y0108544D01*
X0037582Y0108598D01*
X0037646Y0108649D01*
X0037712Y0108696D01*
X0037780Y0108740D01*
X0037851Y0108781D01*
X0037923Y0108818D01*
X0037998Y0108852D01*
X0038073Y0108882D01*
X0038151Y0108908D01*
X0038229Y0108931D01*
X0038308Y0108949D01*
X0038388Y0108964D01*
X0038469Y0108975D01*
X0038550Y0108982D01*
X0038632Y0108985D01*
X0038713Y0108984D01*
X0038794Y0108979D01*
X0038875Y0108970D01*
X0038956Y0108957D01*
X0039036Y0108940D01*
X0039114Y0108920D01*
X0039192Y0108895D01*
X0039269Y0108867D01*
X0039344Y0108835D01*
X0039417Y0108800D01*
X0039488Y0108761D01*
X0039558Y0108718D01*
X0039625Y0108673D01*
X0039691Y0108624D01*
X0039753Y0108572D01*
X0039813Y0108516D01*
X0039870Y0108458D01*
X0039925Y0108398D01*
X0039976Y0108334D01*
X0040024Y0108269D01*
X0040069Y0108201D01*
X0040111Y0108131D01*
X0040149Y0108059D01*
X0040184Y0107985D01*
X0040215Y0107910D01*
X0040242Y0107833D01*
X0040265Y0107755D01*
X0040285Y0107676D01*
X0040301Y0107596D01*
X0040313Y0107515D01*
X0040321Y0107434D01*
X0040325Y0107353D01*
X0040325Y0107271D01*
X0040321Y0107190D01*
X0040313Y0107109D01*
X0040301Y0107028D01*
X0040285Y0106948D01*
X0040265Y0106869D01*
X0040242Y0106791D01*
X0040215Y0106714D01*
X0040184Y0106639D01*
X0040149Y0106565D01*
X0040111Y0106493D01*
X0040069Y0106423D01*
X0040024Y0106355D01*
X0039976Y0106290D01*
X0039925Y0106226D01*
X0039870Y0106166D01*
X0039813Y0106108D01*
X0039753Y0106052D01*
X0039691Y0106000D01*
X0039625Y0105951D01*
X0039558Y0105906D01*
X0039489Y0105863D01*
X0039417Y0105824D01*
X0039344Y0105789D01*
X0039269Y0105757D01*
X0039192Y0105729D01*
X0039114Y0105704D01*
X0039036Y0105684D01*
X0038956Y0105667D01*
X0038875Y0105654D01*
X0038794Y0105645D01*
X0038713Y0105640D01*
X0038632Y0105639D01*
X0038550Y0105642D01*
X0038469Y0105649D01*
X0038388Y0105660D01*
X0038308Y0105675D01*
X0038229Y0105693D01*
X0038151Y0105716D01*
X0038073Y0105742D01*
X0037998Y0105772D01*
X0037923Y0105806D01*
X0037851Y0105843D01*
X0037780Y0105884D01*
X0037712Y0105928D01*
X0037646Y0105975D01*
X0037582Y0106026D01*
X0037520Y0106080D01*
X0037462Y0106136D01*
X0037406Y0106196D01*
X0037353Y0106258D01*
X0037303Y0106322D01*
X0037257Y0106389D01*
X0037213Y0106458D01*
X0037174Y0106529D01*
X0037137Y0106602D01*
X0037104Y0106676D01*
X0037075Y0106753D01*
X0037050Y0106830D01*
X0037028Y0106909D01*
X0037011Y0106988D01*
X0036997Y0107068D01*
X0036987Y0107149D01*
X0036981Y0107231D01*
X0036979Y0107312D01*
X0037470Y0121092D02*
X0039830Y0121092D01*
X0036979Y0122272D02*
X0036981Y0122353D01*
X0036987Y0122435D01*
X0036997Y0122516D01*
X0037011Y0122596D01*
X0037028Y0122675D01*
X0037050Y0122754D01*
X0037075Y0122831D01*
X0037104Y0122908D01*
X0037137Y0122982D01*
X0037174Y0123055D01*
X0037213Y0123126D01*
X0037257Y0123195D01*
X0037303Y0123262D01*
X0037353Y0123326D01*
X0037406Y0123388D01*
X0037462Y0123448D01*
X0037520Y0123504D01*
X0037582Y0123558D01*
X0037646Y0123609D01*
X0037712Y0123656D01*
X0037780Y0123700D01*
X0037851Y0123741D01*
X0037923Y0123778D01*
X0037998Y0123812D01*
X0038073Y0123842D01*
X0038151Y0123868D01*
X0038229Y0123891D01*
X0038308Y0123909D01*
X0038388Y0123924D01*
X0038469Y0123935D01*
X0038550Y0123942D01*
X0038632Y0123945D01*
X0038713Y0123944D01*
X0038794Y0123939D01*
X0038875Y0123930D01*
X0038956Y0123917D01*
X0039036Y0123900D01*
X0039114Y0123880D01*
X0039192Y0123855D01*
X0039269Y0123827D01*
X0039344Y0123795D01*
X0039417Y0123760D01*
X0039488Y0123721D01*
X0039558Y0123678D01*
X0039625Y0123633D01*
X0039691Y0123584D01*
X0039753Y0123532D01*
X0039813Y0123476D01*
X0039870Y0123418D01*
X0039925Y0123358D01*
X0039976Y0123294D01*
X0040024Y0123229D01*
X0040069Y0123161D01*
X0040111Y0123091D01*
X0040149Y0123019D01*
X0040184Y0122945D01*
X0040215Y0122870D01*
X0040242Y0122793D01*
X0040265Y0122715D01*
X0040285Y0122636D01*
X0040301Y0122556D01*
X0040313Y0122475D01*
X0040321Y0122394D01*
X0040325Y0122313D01*
X0040325Y0122231D01*
X0040321Y0122150D01*
X0040313Y0122069D01*
X0040301Y0121988D01*
X0040285Y0121908D01*
X0040265Y0121829D01*
X0040242Y0121751D01*
X0040215Y0121674D01*
X0040184Y0121599D01*
X0040149Y0121525D01*
X0040111Y0121453D01*
X0040069Y0121383D01*
X0040024Y0121315D01*
X0039976Y0121250D01*
X0039925Y0121186D01*
X0039870Y0121126D01*
X0039813Y0121068D01*
X0039753Y0121012D01*
X0039691Y0120960D01*
X0039625Y0120911D01*
X0039558Y0120866D01*
X0039489Y0120823D01*
X0039417Y0120784D01*
X0039344Y0120749D01*
X0039269Y0120717D01*
X0039192Y0120689D01*
X0039114Y0120664D01*
X0039036Y0120644D01*
X0038956Y0120627D01*
X0038875Y0120614D01*
X0038794Y0120605D01*
X0038713Y0120600D01*
X0038632Y0120599D01*
X0038550Y0120602D01*
X0038469Y0120609D01*
X0038388Y0120620D01*
X0038308Y0120635D01*
X0038229Y0120653D01*
X0038151Y0120676D01*
X0038073Y0120702D01*
X0037998Y0120732D01*
X0037923Y0120766D01*
X0037851Y0120803D01*
X0037780Y0120844D01*
X0037712Y0120888D01*
X0037646Y0120935D01*
X0037582Y0120986D01*
X0037520Y0121040D01*
X0037462Y0121096D01*
X0037406Y0121156D01*
X0037353Y0121218D01*
X0037303Y0121282D01*
X0037257Y0121349D01*
X0037213Y0121418D01*
X0037174Y0121489D01*
X0037137Y0121562D01*
X0037104Y0121636D01*
X0037075Y0121713D01*
X0037050Y0121790D01*
X0037028Y0121869D01*
X0037011Y0121948D01*
X0036997Y0122028D01*
X0036987Y0122109D01*
X0036981Y0122191D01*
X0036979Y0122272D01*
X0076446Y0288020D02*
X0076448Y0288173D01*
X0076454Y0288327D01*
X0076464Y0288480D01*
X0076478Y0288632D01*
X0076496Y0288785D01*
X0076518Y0288936D01*
X0076543Y0289087D01*
X0076573Y0289238D01*
X0076607Y0289388D01*
X0076644Y0289536D01*
X0076685Y0289684D01*
X0076730Y0289830D01*
X0076779Y0289976D01*
X0076832Y0290120D01*
X0076888Y0290262D01*
X0076948Y0290403D01*
X0077012Y0290543D01*
X0077079Y0290681D01*
X0077150Y0290817D01*
X0077225Y0290951D01*
X0077302Y0291083D01*
X0077384Y0291213D01*
X0077468Y0291341D01*
X0077556Y0291467D01*
X0077647Y0291590D01*
X0077741Y0291711D01*
X0077839Y0291829D01*
X0077939Y0291945D01*
X0078043Y0292058D01*
X0078149Y0292169D01*
X0078258Y0292277D01*
X0078370Y0292382D01*
X0078484Y0292483D01*
X0078602Y0292582D01*
X0078721Y0292678D01*
X0078843Y0292771D01*
X0078968Y0292860D01*
X0079095Y0292947D01*
X0079224Y0293029D01*
X0079355Y0293109D01*
X0079488Y0293185D01*
X0079623Y0293258D01*
X0079760Y0293327D01*
X0079899Y0293392D01*
X0080039Y0293454D01*
X0080181Y0293512D01*
X0080324Y0293567D01*
X0080469Y0293618D01*
X0080615Y0293665D01*
X0080762Y0293708D01*
X0080910Y0293747D01*
X0081059Y0293783D01*
X0081209Y0293814D01*
X0081360Y0293842D01*
X0081511Y0293866D01*
X0081664Y0293886D01*
X0081816Y0293902D01*
X0081969Y0293914D01*
X0082122Y0293922D01*
X0082275Y0293926D01*
X0082429Y0293926D01*
X0082582Y0293922D01*
X0082735Y0293914D01*
X0082888Y0293902D01*
X0083040Y0293886D01*
X0083193Y0293866D01*
X0083344Y0293842D01*
X0083495Y0293814D01*
X0083645Y0293783D01*
X0083794Y0293747D01*
X0083942Y0293708D01*
X0084089Y0293665D01*
X0084235Y0293618D01*
X0084380Y0293567D01*
X0084523Y0293512D01*
X0084665Y0293454D01*
X0084805Y0293392D01*
X0084944Y0293327D01*
X0085081Y0293258D01*
X0085216Y0293185D01*
X0085349Y0293109D01*
X0085480Y0293029D01*
X0085609Y0292947D01*
X0085736Y0292860D01*
X0085861Y0292771D01*
X0085983Y0292678D01*
X0086102Y0292582D01*
X0086220Y0292483D01*
X0086334Y0292382D01*
X0086446Y0292277D01*
X0086555Y0292169D01*
X0086661Y0292058D01*
X0086765Y0291945D01*
X0086865Y0291829D01*
X0086963Y0291711D01*
X0087057Y0291590D01*
X0087148Y0291467D01*
X0087236Y0291341D01*
X0087320Y0291213D01*
X0087402Y0291083D01*
X0087479Y0290951D01*
X0087554Y0290817D01*
X0087625Y0290681D01*
X0087692Y0290543D01*
X0087756Y0290403D01*
X0087816Y0290262D01*
X0087872Y0290120D01*
X0087925Y0289976D01*
X0087974Y0289830D01*
X0088019Y0289684D01*
X0088060Y0289536D01*
X0088097Y0289388D01*
X0088131Y0289238D01*
X0088161Y0289087D01*
X0088186Y0288936D01*
X0088208Y0288785D01*
X0088226Y0288632D01*
X0088240Y0288480D01*
X0088250Y0288327D01*
X0088256Y0288173D01*
X0088258Y0288020D01*
X0088256Y0287867D01*
X0088250Y0287713D01*
X0088240Y0287560D01*
X0088226Y0287408D01*
X0088208Y0287255D01*
X0088186Y0287104D01*
X0088161Y0286953D01*
X0088131Y0286802D01*
X0088097Y0286652D01*
X0088060Y0286504D01*
X0088019Y0286356D01*
X0087974Y0286210D01*
X0087925Y0286064D01*
X0087872Y0285920D01*
X0087816Y0285778D01*
X0087756Y0285637D01*
X0087692Y0285497D01*
X0087625Y0285359D01*
X0087554Y0285223D01*
X0087479Y0285089D01*
X0087402Y0284957D01*
X0087320Y0284827D01*
X0087236Y0284699D01*
X0087148Y0284573D01*
X0087057Y0284450D01*
X0086963Y0284329D01*
X0086865Y0284211D01*
X0086765Y0284095D01*
X0086661Y0283982D01*
X0086555Y0283871D01*
X0086446Y0283763D01*
X0086334Y0283658D01*
X0086220Y0283557D01*
X0086102Y0283458D01*
X0085983Y0283362D01*
X0085861Y0283269D01*
X0085736Y0283180D01*
X0085609Y0283093D01*
X0085480Y0283011D01*
X0085349Y0282931D01*
X0085216Y0282855D01*
X0085081Y0282782D01*
X0084944Y0282713D01*
X0084805Y0282648D01*
X0084665Y0282586D01*
X0084523Y0282528D01*
X0084380Y0282473D01*
X0084235Y0282422D01*
X0084089Y0282375D01*
X0083942Y0282332D01*
X0083794Y0282293D01*
X0083645Y0282257D01*
X0083495Y0282226D01*
X0083344Y0282198D01*
X0083193Y0282174D01*
X0083040Y0282154D01*
X0082888Y0282138D01*
X0082735Y0282126D01*
X0082582Y0282118D01*
X0082429Y0282114D01*
X0082275Y0282114D01*
X0082122Y0282118D01*
X0081969Y0282126D01*
X0081816Y0282138D01*
X0081664Y0282154D01*
X0081511Y0282174D01*
X0081360Y0282198D01*
X0081209Y0282226D01*
X0081059Y0282257D01*
X0080910Y0282293D01*
X0080762Y0282332D01*
X0080615Y0282375D01*
X0080469Y0282422D01*
X0080324Y0282473D01*
X0080181Y0282528D01*
X0080039Y0282586D01*
X0079899Y0282648D01*
X0079760Y0282713D01*
X0079623Y0282782D01*
X0079488Y0282855D01*
X0079355Y0282931D01*
X0079224Y0283011D01*
X0079095Y0283093D01*
X0078968Y0283180D01*
X0078843Y0283269D01*
X0078721Y0283362D01*
X0078602Y0283458D01*
X0078484Y0283557D01*
X0078370Y0283658D01*
X0078258Y0283763D01*
X0078149Y0283871D01*
X0078043Y0283982D01*
X0077939Y0284095D01*
X0077839Y0284211D01*
X0077741Y0284329D01*
X0077647Y0284450D01*
X0077556Y0284573D01*
X0077468Y0284699D01*
X0077384Y0284827D01*
X0077302Y0284957D01*
X0077225Y0285089D01*
X0077150Y0285223D01*
X0077079Y0285359D01*
X0077012Y0285497D01*
X0076948Y0285637D01*
X0076888Y0285778D01*
X0076832Y0285920D01*
X0076779Y0286064D01*
X0076730Y0286210D01*
X0076685Y0286356D01*
X0076644Y0286504D01*
X0076607Y0286652D01*
X0076573Y0286802D01*
X0076543Y0286953D01*
X0076518Y0287104D01*
X0076496Y0287255D01*
X0076478Y0287408D01*
X0076464Y0287560D01*
X0076454Y0287713D01*
X0076448Y0287867D01*
X0076446Y0288020D01*
X0145344Y0288020D02*
X0145346Y0288173D01*
X0145352Y0288327D01*
X0145362Y0288480D01*
X0145376Y0288632D01*
X0145394Y0288785D01*
X0145416Y0288936D01*
X0145441Y0289087D01*
X0145471Y0289238D01*
X0145505Y0289388D01*
X0145542Y0289536D01*
X0145583Y0289684D01*
X0145628Y0289830D01*
X0145677Y0289976D01*
X0145730Y0290120D01*
X0145786Y0290262D01*
X0145846Y0290403D01*
X0145910Y0290543D01*
X0145977Y0290681D01*
X0146048Y0290817D01*
X0146123Y0290951D01*
X0146200Y0291083D01*
X0146282Y0291213D01*
X0146366Y0291341D01*
X0146454Y0291467D01*
X0146545Y0291590D01*
X0146639Y0291711D01*
X0146737Y0291829D01*
X0146837Y0291945D01*
X0146941Y0292058D01*
X0147047Y0292169D01*
X0147156Y0292277D01*
X0147268Y0292382D01*
X0147382Y0292483D01*
X0147500Y0292582D01*
X0147619Y0292678D01*
X0147741Y0292771D01*
X0147866Y0292860D01*
X0147993Y0292947D01*
X0148122Y0293029D01*
X0148253Y0293109D01*
X0148386Y0293185D01*
X0148521Y0293258D01*
X0148658Y0293327D01*
X0148797Y0293392D01*
X0148937Y0293454D01*
X0149079Y0293512D01*
X0149222Y0293567D01*
X0149367Y0293618D01*
X0149513Y0293665D01*
X0149660Y0293708D01*
X0149808Y0293747D01*
X0149957Y0293783D01*
X0150107Y0293814D01*
X0150258Y0293842D01*
X0150409Y0293866D01*
X0150562Y0293886D01*
X0150714Y0293902D01*
X0150867Y0293914D01*
X0151020Y0293922D01*
X0151173Y0293926D01*
X0151327Y0293926D01*
X0151480Y0293922D01*
X0151633Y0293914D01*
X0151786Y0293902D01*
X0151938Y0293886D01*
X0152091Y0293866D01*
X0152242Y0293842D01*
X0152393Y0293814D01*
X0152543Y0293783D01*
X0152692Y0293747D01*
X0152840Y0293708D01*
X0152987Y0293665D01*
X0153133Y0293618D01*
X0153278Y0293567D01*
X0153421Y0293512D01*
X0153563Y0293454D01*
X0153703Y0293392D01*
X0153842Y0293327D01*
X0153979Y0293258D01*
X0154114Y0293185D01*
X0154247Y0293109D01*
X0154378Y0293029D01*
X0154507Y0292947D01*
X0154634Y0292860D01*
X0154759Y0292771D01*
X0154881Y0292678D01*
X0155000Y0292582D01*
X0155118Y0292483D01*
X0155232Y0292382D01*
X0155344Y0292277D01*
X0155453Y0292169D01*
X0155559Y0292058D01*
X0155663Y0291945D01*
X0155763Y0291829D01*
X0155861Y0291711D01*
X0155955Y0291590D01*
X0156046Y0291467D01*
X0156134Y0291341D01*
X0156218Y0291213D01*
X0156300Y0291083D01*
X0156377Y0290951D01*
X0156452Y0290817D01*
X0156523Y0290681D01*
X0156590Y0290543D01*
X0156654Y0290403D01*
X0156714Y0290262D01*
X0156770Y0290120D01*
X0156823Y0289976D01*
X0156872Y0289830D01*
X0156917Y0289684D01*
X0156958Y0289536D01*
X0156995Y0289388D01*
X0157029Y0289238D01*
X0157059Y0289087D01*
X0157084Y0288936D01*
X0157106Y0288785D01*
X0157124Y0288632D01*
X0157138Y0288480D01*
X0157148Y0288327D01*
X0157154Y0288173D01*
X0157156Y0288020D01*
X0157154Y0287867D01*
X0157148Y0287713D01*
X0157138Y0287560D01*
X0157124Y0287408D01*
X0157106Y0287255D01*
X0157084Y0287104D01*
X0157059Y0286953D01*
X0157029Y0286802D01*
X0156995Y0286652D01*
X0156958Y0286504D01*
X0156917Y0286356D01*
X0156872Y0286210D01*
X0156823Y0286064D01*
X0156770Y0285920D01*
X0156714Y0285778D01*
X0156654Y0285637D01*
X0156590Y0285497D01*
X0156523Y0285359D01*
X0156452Y0285223D01*
X0156377Y0285089D01*
X0156300Y0284957D01*
X0156218Y0284827D01*
X0156134Y0284699D01*
X0156046Y0284573D01*
X0155955Y0284450D01*
X0155861Y0284329D01*
X0155763Y0284211D01*
X0155663Y0284095D01*
X0155559Y0283982D01*
X0155453Y0283871D01*
X0155344Y0283763D01*
X0155232Y0283658D01*
X0155118Y0283557D01*
X0155000Y0283458D01*
X0154881Y0283362D01*
X0154759Y0283269D01*
X0154634Y0283180D01*
X0154507Y0283093D01*
X0154378Y0283011D01*
X0154247Y0282931D01*
X0154114Y0282855D01*
X0153979Y0282782D01*
X0153842Y0282713D01*
X0153703Y0282648D01*
X0153563Y0282586D01*
X0153421Y0282528D01*
X0153278Y0282473D01*
X0153133Y0282422D01*
X0152987Y0282375D01*
X0152840Y0282332D01*
X0152692Y0282293D01*
X0152543Y0282257D01*
X0152393Y0282226D01*
X0152242Y0282198D01*
X0152091Y0282174D01*
X0151938Y0282154D01*
X0151786Y0282138D01*
X0151633Y0282126D01*
X0151480Y0282118D01*
X0151327Y0282114D01*
X0151173Y0282114D01*
X0151020Y0282118D01*
X0150867Y0282126D01*
X0150714Y0282138D01*
X0150562Y0282154D01*
X0150409Y0282174D01*
X0150258Y0282198D01*
X0150107Y0282226D01*
X0149957Y0282257D01*
X0149808Y0282293D01*
X0149660Y0282332D01*
X0149513Y0282375D01*
X0149367Y0282422D01*
X0149222Y0282473D01*
X0149079Y0282528D01*
X0148937Y0282586D01*
X0148797Y0282648D01*
X0148658Y0282713D01*
X0148521Y0282782D01*
X0148386Y0282855D01*
X0148253Y0282931D01*
X0148122Y0283011D01*
X0147993Y0283093D01*
X0147866Y0283180D01*
X0147741Y0283269D01*
X0147619Y0283362D01*
X0147500Y0283458D01*
X0147382Y0283557D01*
X0147268Y0283658D01*
X0147156Y0283763D01*
X0147047Y0283871D01*
X0146941Y0283982D01*
X0146837Y0284095D01*
X0146737Y0284211D01*
X0146639Y0284329D01*
X0146545Y0284450D01*
X0146454Y0284573D01*
X0146366Y0284699D01*
X0146282Y0284827D01*
X0146200Y0284957D01*
X0146123Y0285089D01*
X0146048Y0285223D01*
X0145977Y0285359D01*
X0145910Y0285497D01*
X0145846Y0285637D01*
X0145786Y0285778D01*
X0145730Y0285920D01*
X0145677Y0286064D01*
X0145628Y0286210D01*
X0145583Y0286356D01*
X0145542Y0286504D01*
X0145505Y0286652D01*
X0145471Y0286802D01*
X0145441Y0286953D01*
X0145416Y0287104D01*
X0145394Y0287255D01*
X0145376Y0287408D01*
X0145362Y0287560D01*
X0145352Y0287713D01*
X0145346Y0287867D01*
X0145344Y0288020D01*
X0145344Y0362430D02*
X0145346Y0362583D01*
X0145352Y0362737D01*
X0145362Y0362890D01*
X0145376Y0363042D01*
X0145394Y0363195D01*
X0145416Y0363346D01*
X0145441Y0363497D01*
X0145471Y0363648D01*
X0145505Y0363798D01*
X0145542Y0363946D01*
X0145583Y0364094D01*
X0145628Y0364240D01*
X0145677Y0364386D01*
X0145730Y0364530D01*
X0145786Y0364672D01*
X0145846Y0364813D01*
X0145910Y0364953D01*
X0145977Y0365091D01*
X0146048Y0365227D01*
X0146123Y0365361D01*
X0146200Y0365493D01*
X0146282Y0365623D01*
X0146366Y0365751D01*
X0146454Y0365877D01*
X0146545Y0366000D01*
X0146639Y0366121D01*
X0146737Y0366239D01*
X0146837Y0366355D01*
X0146941Y0366468D01*
X0147047Y0366579D01*
X0147156Y0366687D01*
X0147268Y0366792D01*
X0147382Y0366893D01*
X0147500Y0366992D01*
X0147619Y0367088D01*
X0147741Y0367181D01*
X0147866Y0367270D01*
X0147993Y0367357D01*
X0148122Y0367439D01*
X0148253Y0367519D01*
X0148386Y0367595D01*
X0148521Y0367668D01*
X0148658Y0367737D01*
X0148797Y0367802D01*
X0148937Y0367864D01*
X0149079Y0367922D01*
X0149222Y0367977D01*
X0149367Y0368028D01*
X0149513Y0368075D01*
X0149660Y0368118D01*
X0149808Y0368157D01*
X0149957Y0368193D01*
X0150107Y0368224D01*
X0150258Y0368252D01*
X0150409Y0368276D01*
X0150562Y0368296D01*
X0150714Y0368312D01*
X0150867Y0368324D01*
X0151020Y0368332D01*
X0151173Y0368336D01*
X0151327Y0368336D01*
X0151480Y0368332D01*
X0151633Y0368324D01*
X0151786Y0368312D01*
X0151938Y0368296D01*
X0152091Y0368276D01*
X0152242Y0368252D01*
X0152393Y0368224D01*
X0152543Y0368193D01*
X0152692Y0368157D01*
X0152840Y0368118D01*
X0152987Y0368075D01*
X0153133Y0368028D01*
X0153278Y0367977D01*
X0153421Y0367922D01*
X0153563Y0367864D01*
X0153703Y0367802D01*
X0153842Y0367737D01*
X0153979Y0367668D01*
X0154114Y0367595D01*
X0154247Y0367519D01*
X0154378Y0367439D01*
X0154507Y0367357D01*
X0154634Y0367270D01*
X0154759Y0367181D01*
X0154881Y0367088D01*
X0155000Y0366992D01*
X0155118Y0366893D01*
X0155232Y0366792D01*
X0155344Y0366687D01*
X0155453Y0366579D01*
X0155559Y0366468D01*
X0155663Y0366355D01*
X0155763Y0366239D01*
X0155861Y0366121D01*
X0155955Y0366000D01*
X0156046Y0365877D01*
X0156134Y0365751D01*
X0156218Y0365623D01*
X0156300Y0365493D01*
X0156377Y0365361D01*
X0156452Y0365227D01*
X0156523Y0365091D01*
X0156590Y0364953D01*
X0156654Y0364813D01*
X0156714Y0364672D01*
X0156770Y0364530D01*
X0156823Y0364386D01*
X0156872Y0364240D01*
X0156917Y0364094D01*
X0156958Y0363946D01*
X0156995Y0363798D01*
X0157029Y0363648D01*
X0157059Y0363497D01*
X0157084Y0363346D01*
X0157106Y0363195D01*
X0157124Y0363042D01*
X0157138Y0362890D01*
X0157148Y0362737D01*
X0157154Y0362583D01*
X0157156Y0362430D01*
X0157154Y0362277D01*
X0157148Y0362123D01*
X0157138Y0361970D01*
X0157124Y0361818D01*
X0157106Y0361665D01*
X0157084Y0361514D01*
X0157059Y0361363D01*
X0157029Y0361212D01*
X0156995Y0361062D01*
X0156958Y0360914D01*
X0156917Y0360766D01*
X0156872Y0360620D01*
X0156823Y0360474D01*
X0156770Y0360330D01*
X0156714Y0360188D01*
X0156654Y0360047D01*
X0156590Y0359907D01*
X0156523Y0359769D01*
X0156452Y0359633D01*
X0156377Y0359499D01*
X0156300Y0359367D01*
X0156218Y0359237D01*
X0156134Y0359109D01*
X0156046Y0358983D01*
X0155955Y0358860D01*
X0155861Y0358739D01*
X0155763Y0358621D01*
X0155663Y0358505D01*
X0155559Y0358392D01*
X0155453Y0358281D01*
X0155344Y0358173D01*
X0155232Y0358068D01*
X0155118Y0357967D01*
X0155000Y0357868D01*
X0154881Y0357772D01*
X0154759Y0357679D01*
X0154634Y0357590D01*
X0154507Y0357503D01*
X0154378Y0357421D01*
X0154247Y0357341D01*
X0154114Y0357265D01*
X0153979Y0357192D01*
X0153842Y0357123D01*
X0153703Y0357058D01*
X0153563Y0356996D01*
X0153421Y0356938D01*
X0153278Y0356883D01*
X0153133Y0356832D01*
X0152987Y0356785D01*
X0152840Y0356742D01*
X0152692Y0356703D01*
X0152543Y0356667D01*
X0152393Y0356636D01*
X0152242Y0356608D01*
X0152091Y0356584D01*
X0151938Y0356564D01*
X0151786Y0356548D01*
X0151633Y0356536D01*
X0151480Y0356528D01*
X0151327Y0356524D01*
X0151173Y0356524D01*
X0151020Y0356528D01*
X0150867Y0356536D01*
X0150714Y0356548D01*
X0150562Y0356564D01*
X0150409Y0356584D01*
X0150258Y0356608D01*
X0150107Y0356636D01*
X0149957Y0356667D01*
X0149808Y0356703D01*
X0149660Y0356742D01*
X0149513Y0356785D01*
X0149367Y0356832D01*
X0149222Y0356883D01*
X0149079Y0356938D01*
X0148937Y0356996D01*
X0148797Y0357058D01*
X0148658Y0357123D01*
X0148521Y0357192D01*
X0148386Y0357265D01*
X0148253Y0357341D01*
X0148122Y0357421D01*
X0147993Y0357503D01*
X0147866Y0357590D01*
X0147741Y0357679D01*
X0147619Y0357772D01*
X0147500Y0357868D01*
X0147382Y0357967D01*
X0147268Y0358068D01*
X0147156Y0358173D01*
X0147047Y0358281D01*
X0146941Y0358392D01*
X0146837Y0358505D01*
X0146737Y0358621D01*
X0146639Y0358739D01*
X0146545Y0358860D01*
X0146454Y0358983D01*
X0146366Y0359109D01*
X0146282Y0359237D01*
X0146200Y0359367D01*
X0146123Y0359499D01*
X0146048Y0359633D01*
X0145977Y0359769D01*
X0145910Y0359907D01*
X0145846Y0360047D01*
X0145786Y0360188D01*
X0145730Y0360330D01*
X0145677Y0360474D01*
X0145628Y0360620D01*
X0145583Y0360766D01*
X0145542Y0360914D01*
X0145505Y0361062D01*
X0145471Y0361212D01*
X0145441Y0361363D01*
X0145416Y0361514D01*
X0145394Y0361665D01*
X0145376Y0361818D01*
X0145362Y0361970D01*
X0145352Y0362123D01*
X0145346Y0362277D01*
X0145344Y0362430D01*
X0076053Y0362430D02*
X0076055Y0362583D01*
X0076061Y0362737D01*
X0076071Y0362890D01*
X0076085Y0363042D01*
X0076103Y0363195D01*
X0076125Y0363346D01*
X0076150Y0363497D01*
X0076180Y0363648D01*
X0076214Y0363798D01*
X0076251Y0363946D01*
X0076292Y0364094D01*
X0076337Y0364240D01*
X0076386Y0364386D01*
X0076439Y0364530D01*
X0076495Y0364672D01*
X0076555Y0364813D01*
X0076619Y0364953D01*
X0076686Y0365091D01*
X0076757Y0365227D01*
X0076832Y0365361D01*
X0076909Y0365493D01*
X0076991Y0365623D01*
X0077075Y0365751D01*
X0077163Y0365877D01*
X0077254Y0366000D01*
X0077348Y0366121D01*
X0077446Y0366239D01*
X0077546Y0366355D01*
X0077650Y0366468D01*
X0077756Y0366579D01*
X0077865Y0366687D01*
X0077977Y0366792D01*
X0078091Y0366893D01*
X0078209Y0366992D01*
X0078328Y0367088D01*
X0078450Y0367181D01*
X0078575Y0367270D01*
X0078702Y0367357D01*
X0078831Y0367439D01*
X0078962Y0367519D01*
X0079095Y0367595D01*
X0079230Y0367668D01*
X0079367Y0367737D01*
X0079506Y0367802D01*
X0079646Y0367864D01*
X0079788Y0367922D01*
X0079931Y0367977D01*
X0080076Y0368028D01*
X0080222Y0368075D01*
X0080369Y0368118D01*
X0080517Y0368157D01*
X0080666Y0368193D01*
X0080816Y0368224D01*
X0080967Y0368252D01*
X0081118Y0368276D01*
X0081271Y0368296D01*
X0081423Y0368312D01*
X0081576Y0368324D01*
X0081729Y0368332D01*
X0081882Y0368336D01*
X0082036Y0368336D01*
X0082189Y0368332D01*
X0082342Y0368324D01*
X0082495Y0368312D01*
X0082647Y0368296D01*
X0082800Y0368276D01*
X0082951Y0368252D01*
X0083102Y0368224D01*
X0083252Y0368193D01*
X0083401Y0368157D01*
X0083549Y0368118D01*
X0083696Y0368075D01*
X0083842Y0368028D01*
X0083987Y0367977D01*
X0084130Y0367922D01*
X0084272Y0367864D01*
X0084412Y0367802D01*
X0084551Y0367737D01*
X0084688Y0367668D01*
X0084823Y0367595D01*
X0084956Y0367519D01*
X0085087Y0367439D01*
X0085216Y0367357D01*
X0085343Y0367270D01*
X0085468Y0367181D01*
X0085590Y0367088D01*
X0085709Y0366992D01*
X0085827Y0366893D01*
X0085941Y0366792D01*
X0086053Y0366687D01*
X0086162Y0366579D01*
X0086268Y0366468D01*
X0086372Y0366355D01*
X0086472Y0366239D01*
X0086570Y0366121D01*
X0086664Y0366000D01*
X0086755Y0365877D01*
X0086843Y0365751D01*
X0086927Y0365623D01*
X0087009Y0365493D01*
X0087086Y0365361D01*
X0087161Y0365227D01*
X0087232Y0365091D01*
X0087299Y0364953D01*
X0087363Y0364813D01*
X0087423Y0364672D01*
X0087479Y0364530D01*
X0087532Y0364386D01*
X0087581Y0364240D01*
X0087626Y0364094D01*
X0087667Y0363946D01*
X0087704Y0363798D01*
X0087738Y0363648D01*
X0087768Y0363497D01*
X0087793Y0363346D01*
X0087815Y0363195D01*
X0087833Y0363042D01*
X0087847Y0362890D01*
X0087857Y0362737D01*
X0087863Y0362583D01*
X0087865Y0362430D01*
X0087863Y0362277D01*
X0087857Y0362123D01*
X0087847Y0361970D01*
X0087833Y0361818D01*
X0087815Y0361665D01*
X0087793Y0361514D01*
X0087768Y0361363D01*
X0087738Y0361212D01*
X0087704Y0361062D01*
X0087667Y0360914D01*
X0087626Y0360766D01*
X0087581Y0360620D01*
X0087532Y0360474D01*
X0087479Y0360330D01*
X0087423Y0360188D01*
X0087363Y0360047D01*
X0087299Y0359907D01*
X0087232Y0359769D01*
X0087161Y0359633D01*
X0087086Y0359499D01*
X0087009Y0359367D01*
X0086927Y0359237D01*
X0086843Y0359109D01*
X0086755Y0358983D01*
X0086664Y0358860D01*
X0086570Y0358739D01*
X0086472Y0358621D01*
X0086372Y0358505D01*
X0086268Y0358392D01*
X0086162Y0358281D01*
X0086053Y0358173D01*
X0085941Y0358068D01*
X0085827Y0357967D01*
X0085709Y0357868D01*
X0085590Y0357772D01*
X0085468Y0357679D01*
X0085343Y0357590D01*
X0085216Y0357503D01*
X0085087Y0357421D01*
X0084956Y0357341D01*
X0084823Y0357265D01*
X0084688Y0357192D01*
X0084551Y0357123D01*
X0084412Y0357058D01*
X0084272Y0356996D01*
X0084130Y0356938D01*
X0083987Y0356883D01*
X0083842Y0356832D01*
X0083696Y0356785D01*
X0083549Y0356742D01*
X0083401Y0356703D01*
X0083252Y0356667D01*
X0083102Y0356636D01*
X0082951Y0356608D01*
X0082800Y0356584D01*
X0082647Y0356564D01*
X0082495Y0356548D01*
X0082342Y0356536D01*
X0082189Y0356528D01*
X0082036Y0356524D01*
X0081882Y0356524D01*
X0081729Y0356528D01*
X0081576Y0356536D01*
X0081423Y0356548D01*
X0081271Y0356564D01*
X0081118Y0356584D01*
X0080967Y0356608D01*
X0080816Y0356636D01*
X0080666Y0356667D01*
X0080517Y0356703D01*
X0080369Y0356742D01*
X0080222Y0356785D01*
X0080076Y0356832D01*
X0079931Y0356883D01*
X0079788Y0356938D01*
X0079646Y0356996D01*
X0079506Y0357058D01*
X0079367Y0357123D01*
X0079230Y0357192D01*
X0079095Y0357265D01*
X0078962Y0357341D01*
X0078831Y0357421D01*
X0078702Y0357503D01*
X0078575Y0357590D01*
X0078450Y0357679D01*
X0078328Y0357772D01*
X0078209Y0357868D01*
X0078091Y0357967D01*
X0077977Y0358068D01*
X0077865Y0358173D01*
X0077756Y0358281D01*
X0077650Y0358392D01*
X0077546Y0358505D01*
X0077446Y0358621D01*
X0077348Y0358739D01*
X0077254Y0358860D01*
X0077163Y0358983D01*
X0077075Y0359109D01*
X0076991Y0359237D01*
X0076909Y0359367D01*
X0076832Y0359499D01*
X0076757Y0359633D01*
X0076686Y0359769D01*
X0076619Y0359907D01*
X0076555Y0360047D01*
X0076495Y0360188D01*
X0076439Y0360330D01*
X0076386Y0360474D01*
X0076337Y0360620D01*
X0076292Y0360766D01*
X0076251Y0360914D01*
X0076214Y0361062D01*
X0076180Y0361212D01*
X0076150Y0361363D01*
X0076125Y0361514D01*
X0076103Y0361665D01*
X0076085Y0361818D01*
X0076071Y0361970D01*
X0076061Y0362123D01*
X0076055Y0362277D01*
X0076053Y0362430D01*
X0220935Y0347076D02*
X0220937Y0347229D01*
X0220943Y0347383D01*
X0220953Y0347536D01*
X0220967Y0347688D01*
X0220985Y0347841D01*
X0221007Y0347992D01*
X0221032Y0348143D01*
X0221062Y0348294D01*
X0221096Y0348444D01*
X0221133Y0348592D01*
X0221174Y0348740D01*
X0221219Y0348886D01*
X0221268Y0349032D01*
X0221321Y0349176D01*
X0221377Y0349318D01*
X0221437Y0349459D01*
X0221501Y0349599D01*
X0221568Y0349737D01*
X0221639Y0349873D01*
X0221714Y0350007D01*
X0221791Y0350139D01*
X0221873Y0350269D01*
X0221957Y0350397D01*
X0222045Y0350523D01*
X0222136Y0350646D01*
X0222230Y0350767D01*
X0222328Y0350885D01*
X0222428Y0351001D01*
X0222532Y0351114D01*
X0222638Y0351225D01*
X0222747Y0351333D01*
X0222859Y0351438D01*
X0222973Y0351539D01*
X0223091Y0351638D01*
X0223210Y0351734D01*
X0223332Y0351827D01*
X0223457Y0351916D01*
X0223584Y0352003D01*
X0223713Y0352085D01*
X0223844Y0352165D01*
X0223977Y0352241D01*
X0224112Y0352314D01*
X0224249Y0352383D01*
X0224388Y0352448D01*
X0224528Y0352510D01*
X0224670Y0352568D01*
X0224813Y0352623D01*
X0224958Y0352674D01*
X0225104Y0352721D01*
X0225251Y0352764D01*
X0225399Y0352803D01*
X0225548Y0352839D01*
X0225698Y0352870D01*
X0225849Y0352898D01*
X0226000Y0352922D01*
X0226153Y0352942D01*
X0226305Y0352958D01*
X0226458Y0352970D01*
X0226611Y0352978D01*
X0226764Y0352982D01*
X0226918Y0352982D01*
X0227071Y0352978D01*
X0227224Y0352970D01*
X0227377Y0352958D01*
X0227529Y0352942D01*
X0227682Y0352922D01*
X0227833Y0352898D01*
X0227984Y0352870D01*
X0228134Y0352839D01*
X0228283Y0352803D01*
X0228431Y0352764D01*
X0228578Y0352721D01*
X0228724Y0352674D01*
X0228869Y0352623D01*
X0229012Y0352568D01*
X0229154Y0352510D01*
X0229294Y0352448D01*
X0229433Y0352383D01*
X0229570Y0352314D01*
X0229705Y0352241D01*
X0229838Y0352165D01*
X0229969Y0352085D01*
X0230098Y0352003D01*
X0230225Y0351916D01*
X0230350Y0351827D01*
X0230472Y0351734D01*
X0230591Y0351638D01*
X0230709Y0351539D01*
X0230823Y0351438D01*
X0230935Y0351333D01*
X0231044Y0351225D01*
X0231150Y0351114D01*
X0231254Y0351001D01*
X0231354Y0350885D01*
X0231452Y0350767D01*
X0231546Y0350646D01*
X0231637Y0350523D01*
X0231725Y0350397D01*
X0231809Y0350269D01*
X0231891Y0350139D01*
X0231968Y0350007D01*
X0232043Y0349873D01*
X0232114Y0349737D01*
X0232181Y0349599D01*
X0232245Y0349459D01*
X0232305Y0349318D01*
X0232361Y0349176D01*
X0232414Y0349032D01*
X0232463Y0348886D01*
X0232508Y0348740D01*
X0232549Y0348592D01*
X0232586Y0348444D01*
X0232620Y0348294D01*
X0232650Y0348143D01*
X0232675Y0347992D01*
X0232697Y0347841D01*
X0232715Y0347688D01*
X0232729Y0347536D01*
X0232739Y0347383D01*
X0232745Y0347229D01*
X0232747Y0347076D01*
X0232745Y0346923D01*
X0232739Y0346769D01*
X0232729Y0346616D01*
X0232715Y0346464D01*
X0232697Y0346311D01*
X0232675Y0346160D01*
X0232650Y0346009D01*
X0232620Y0345858D01*
X0232586Y0345708D01*
X0232549Y0345560D01*
X0232508Y0345412D01*
X0232463Y0345266D01*
X0232414Y0345120D01*
X0232361Y0344976D01*
X0232305Y0344834D01*
X0232245Y0344693D01*
X0232181Y0344553D01*
X0232114Y0344415D01*
X0232043Y0344279D01*
X0231968Y0344145D01*
X0231891Y0344013D01*
X0231809Y0343883D01*
X0231725Y0343755D01*
X0231637Y0343629D01*
X0231546Y0343506D01*
X0231452Y0343385D01*
X0231354Y0343267D01*
X0231254Y0343151D01*
X0231150Y0343038D01*
X0231044Y0342927D01*
X0230935Y0342819D01*
X0230823Y0342714D01*
X0230709Y0342613D01*
X0230591Y0342514D01*
X0230472Y0342418D01*
X0230350Y0342325D01*
X0230225Y0342236D01*
X0230098Y0342149D01*
X0229969Y0342067D01*
X0229838Y0341987D01*
X0229705Y0341911D01*
X0229570Y0341838D01*
X0229433Y0341769D01*
X0229294Y0341704D01*
X0229154Y0341642D01*
X0229012Y0341584D01*
X0228869Y0341529D01*
X0228724Y0341478D01*
X0228578Y0341431D01*
X0228431Y0341388D01*
X0228283Y0341349D01*
X0228134Y0341313D01*
X0227984Y0341282D01*
X0227833Y0341254D01*
X0227682Y0341230D01*
X0227529Y0341210D01*
X0227377Y0341194D01*
X0227224Y0341182D01*
X0227071Y0341174D01*
X0226918Y0341170D01*
X0226764Y0341170D01*
X0226611Y0341174D01*
X0226458Y0341182D01*
X0226305Y0341194D01*
X0226153Y0341210D01*
X0226000Y0341230D01*
X0225849Y0341254D01*
X0225698Y0341282D01*
X0225548Y0341313D01*
X0225399Y0341349D01*
X0225251Y0341388D01*
X0225104Y0341431D01*
X0224958Y0341478D01*
X0224813Y0341529D01*
X0224670Y0341584D01*
X0224528Y0341642D01*
X0224388Y0341704D01*
X0224249Y0341769D01*
X0224112Y0341838D01*
X0223977Y0341911D01*
X0223844Y0341987D01*
X0223713Y0342067D01*
X0223584Y0342149D01*
X0223457Y0342236D01*
X0223332Y0342325D01*
X0223210Y0342418D01*
X0223091Y0342514D01*
X0222973Y0342613D01*
X0222859Y0342714D01*
X0222747Y0342819D01*
X0222638Y0342927D01*
X0222532Y0343038D01*
X0222428Y0343151D01*
X0222328Y0343267D01*
X0222230Y0343385D01*
X0222136Y0343506D01*
X0222045Y0343629D01*
X0221957Y0343755D01*
X0221873Y0343883D01*
X0221791Y0344013D01*
X0221714Y0344145D01*
X0221639Y0344279D01*
X0221568Y0344415D01*
X0221501Y0344553D01*
X0221437Y0344693D01*
X0221377Y0344834D01*
X0221321Y0344976D01*
X0221268Y0345120D01*
X0221219Y0345266D01*
X0221174Y0345412D01*
X0221133Y0345560D01*
X0221096Y0345708D01*
X0221062Y0345858D01*
X0221032Y0346009D01*
X0221007Y0346160D01*
X0220985Y0346311D01*
X0220967Y0346464D01*
X0220953Y0346616D01*
X0220943Y0346769D01*
X0220937Y0346923D01*
X0220935Y0347076D01*
X0220935Y0384871D02*
X0220937Y0385024D01*
X0220943Y0385178D01*
X0220953Y0385331D01*
X0220967Y0385483D01*
X0220985Y0385636D01*
X0221007Y0385787D01*
X0221032Y0385938D01*
X0221062Y0386089D01*
X0221096Y0386239D01*
X0221133Y0386387D01*
X0221174Y0386535D01*
X0221219Y0386681D01*
X0221268Y0386827D01*
X0221321Y0386971D01*
X0221377Y0387113D01*
X0221437Y0387254D01*
X0221501Y0387394D01*
X0221568Y0387532D01*
X0221639Y0387668D01*
X0221714Y0387802D01*
X0221791Y0387934D01*
X0221873Y0388064D01*
X0221957Y0388192D01*
X0222045Y0388318D01*
X0222136Y0388441D01*
X0222230Y0388562D01*
X0222328Y0388680D01*
X0222428Y0388796D01*
X0222532Y0388909D01*
X0222638Y0389020D01*
X0222747Y0389128D01*
X0222859Y0389233D01*
X0222973Y0389334D01*
X0223091Y0389433D01*
X0223210Y0389529D01*
X0223332Y0389622D01*
X0223457Y0389711D01*
X0223584Y0389798D01*
X0223713Y0389880D01*
X0223844Y0389960D01*
X0223977Y0390036D01*
X0224112Y0390109D01*
X0224249Y0390178D01*
X0224388Y0390243D01*
X0224528Y0390305D01*
X0224670Y0390363D01*
X0224813Y0390418D01*
X0224958Y0390469D01*
X0225104Y0390516D01*
X0225251Y0390559D01*
X0225399Y0390598D01*
X0225548Y0390634D01*
X0225698Y0390665D01*
X0225849Y0390693D01*
X0226000Y0390717D01*
X0226153Y0390737D01*
X0226305Y0390753D01*
X0226458Y0390765D01*
X0226611Y0390773D01*
X0226764Y0390777D01*
X0226918Y0390777D01*
X0227071Y0390773D01*
X0227224Y0390765D01*
X0227377Y0390753D01*
X0227529Y0390737D01*
X0227682Y0390717D01*
X0227833Y0390693D01*
X0227984Y0390665D01*
X0228134Y0390634D01*
X0228283Y0390598D01*
X0228431Y0390559D01*
X0228578Y0390516D01*
X0228724Y0390469D01*
X0228869Y0390418D01*
X0229012Y0390363D01*
X0229154Y0390305D01*
X0229294Y0390243D01*
X0229433Y0390178D01*
X0229570Y0390109D01*
X0229705Y0390036D01*
X0229838Y0389960D01*
X0229969Y0389880D01*
X0230098Y0389798D01*
X0230225Y0389711D01*
X0230350Y0389622D01*
X0230472Y0389529D01*
X0230591Y0389433D01*
X0230709Y0389334D01*
X0230823Y0389233D01*
X0230935Y0389128D01*
X0231044Y0389020D01*
X0231150Y0388909D01*
X0231254Y0388796D01*
X0231354Y0388680D01*
X0231452Y0388562D01*
X0231546Y0388441D01*
X0231637Y0388318D01*
X0231725Y0388192D01*
X0231809Y0388064D01*
X0231891Y0387934D01*
X0231968Y0387802D01*
X0232043Y0387668D01*
X0232114Y0387532D01*
X0232181Y0387394D01*
X0232245Y0387254D01*
X0232305Y0387113D01*
X0232361Y0386971D01*
X0232414Y0386827D01*
X0232463Y0386681D01*
X0232508Y0386535D01*
X0232549Y0386387D01*
X0232586Y0386239D01*
X0232620Y0386089D01*
X0232650Y0385938D01*
X0232675Y0385787D01*
X0232697Y0385636D01*
X0232715Y0385483D01*
X0232729Y0385331D01*
X0232739Y0385178D01*
X0232745Y0385024D01*
X0232747Y0384871D01*
X0232745Y0384718D01*
X0232739Y0384564D01*
X0232729Y0384411D01*
X0232715Y0384259D01*
X0232697Y0384106D01*
X0232675Y0383955D01*
X0232650Y0383804D01*
X0232620Y0383653D01*
X0232586Y0383503D01*
X0232549Y0383355D01*
X0232508Y0383207D01*
X0232463Y0383061D01*
X0232414Y0382915D01*
X0232361Y0382771D01*
X0232305Y0382629D01*
X0232245Y0382488D01*
X0232181Y0382348D01*
X0232114Y0382210D01*
X0232043Y0382074D01*
X0231968Y0381940D01*
X0231891Y0381808D01*
X0231809Y0381678D01*
X0231725Y0381550D01*
X0231637Y0381424D01*
X0231546Y0381301D01*
X0231452Y0381180D01*
X0231354Y0381062D01*
X0231254Y0380946D01*
X0231150Y0380833D01*
X0231044Y0380722D01*
X0230935Y0380614D01*
X0230823Y0380509D01*
X0230709Y0380408D01*
X0230591Y0380309D01*
X0230472Y0380213D01*
X0230350Y0380120D01*
X0230225Y0380031D01*
X0230098Y0379944D01*
X0229969Y0379862D01*
X0229838Y0379782D01*
X0229705Y0379706D01*
X0229570Y0379633D01*
X0229433Y0379564D01*
X0229294Y0379499D01*
X0229154Y0379437D01*
X0229012Y0379379D01*
X0228869Y0379324D01*
X0228724Y0379273D01*
X0228578Y0379226D01*
X0228431Y0379183D01*
X0228283Y0379144D01*
X0228134Y0379108D01*
X0227984Y0379077D01*
X0227833Y0379049D01*
X0227682Y0379025D01*
X0227529Y0379005D01*
X0227377Y0378989D01*
X0227224Y0378977D01*
X0227071Y0378969D01*
X0226918Y0378965D01*
X0226764Y0378965D01*
X0226611Y0378969D01*
X0226458Y0378977D01*
X0226305Y0378989D01*
X0226153Y0379005D01*
X0226000Y0379025D01*
X0225849Y0379049D01*
X0225698Y0379077D01*
X0225548Y0379108D01*
X0225399Y0379144D01*
X0225251Y0379183D01*
X0225104Y0379226D01*
X0224958Y0379273D01*
X0224813Y0379324D01*
X0224670Y0379379D01*
X0224528Y0379437D01*
X0224388Y0379499D01*
X0224249Y0379564D01*
X0224112Y0379633D01*
X0223977Y0379706D01*
X0223844Y0379782D01*
X0223713Y0379862D01*
X0223584Y0379944D01*
X0223457Y0380031D01*
X0223332Y0380120D01*
X0223210Y0380213D01*
X0223091Y0380309D01*
X0222973Y0380408D01*
X0222859Y0380509D01*
X0222747Y0380614D01*
X0222638Y0380722D01*
X0222532Y0380833D01*
X0222428Y0380946D01*
X0222328Y0381062D01*
X0222230Y0381180D01*
X0222136Y0381301D01*
X0222045Y0381424D01*
X0221957Y0381550D01*
X0221873Y0381678D01*
X0221791Y0381808D01*
X0221714Y0381940D01*
X0221639Y0382074D01*
X0221568Y0382210D01*
X0221501Y0382348D01*
X0221437Y0382488D01*
X0221377Y0382629D01*
X0221321Y0382771D01*
X0221268Y0382915D01*
X0221219Y0383061D01*
X0221174Y0383207D01*
X0221133Y0383355D01*
X0221096Y0383503D01*
X0221062Y0383653D01*
X0221032Y0383804D01*
X0221007Y0383955D01*
X0220985Y0384106D01*
X0220967Y0384259D01*
X0220953Y0384411D01*
X0220943Y0384564D01*
X0220937Y0384718D01*
X0220935Y0384871D01*
X0274084Y0383690D02*
X0274086Y0383843D01*
X0274092Y0383997D01*
X0274102Y0384150D01*
X0274116Y0384302D01*
X0274134Y0384455D01*
X0274156Y0384606D01*
X0274181Y0384757D01*
X0274211Y0384908D01*
X0274245Y0385058D01*
X0274282Y0385206D01*
X0274323Y0385354D01*
X0274368Y0385500D01*
X0274417Y0385646D01*
X0274470Y0385790D01*
X0274526Y0385932D01*
X0274586Y0386073D01*
X0274650Y0386213D01*
X0274717Y0386351D01*
X0274788Y0386487D01*
X0274863Y0386621D01*
X0274940Y0386753D01*
X0275022Y0386883D01*
X0275106Y0387011D01*
X0275194Y0387137D01*
X0275285Y0387260D01*
X0275379Y0387381D01*
X0275477Y0387499D01*
X0275577Y0387615D01*
X0275681Y0387728D01*
X0275787Y0387839D01*
X0275896Y0387947D01*
X0276008Y0388052D01*
X0276122Y0388153D01*
X0276240Y0388252D01*
X0276359Y0388348D01*
X0276481Y0388441D01*
X0276606Y0388530D01*
X0276733Y0388617D01*
X0276862Y0388699D01*
X0276993Y0388779D01*
X0277126Y0388855D01*
X0277261Y0388928D01*
X0277398Y0388997D01*
X0277537Y0389062D01*
X0277677Y0389124D01*
X0277819Y0389182D01*
X0277962Y0389237D01*
X0278107Y0389288D01*
X0278253Y0389335D01*
X0278400Y0389378D01*
X0278548Y0389417D01*
X0278697Y0389453D01*
X0278847Y0389484D01*
X0278998Y0389512D01*
X0279149Y0389536D01*
X0279302Y0389556D01*
X0279454Y0389572D01*
X0279607Y0389584D01*
X0279760Y0389592D01*
X0279913Y0389596D01*
X0280067Y0389596D01*
X0280220Y0389592D01*
X0280373Y0389584D01*
X0280526Y0389572D01*
X0280678Y0389556D01*
X0280831Y0389536D01*
X0280982Y0389512D01*
X0281133Y0389484D01*
X0281283Y0389453D01*
X0281432Y0389417D01*
X0281580Y0389378D01*
X0281727Y0389335D01*
X0281873Y0389288D01*
X0282018Y0389237D01*
X0282161Y0389182D01*
X0282303Y0389124D01*
X0282443Y0389062D01*
X0282582Y0388997D01*
X0282719Y0388928D01*
X0282854Y0388855D01*
X0282987Y0388779D01*
X0283118Y0388699D01*
X0283247Y0388617D01*
X0283374Y0388530D01*
X0283499Y0388441D01*
X0283621Y0388348D01*
X0283740Y0388252D01*
X0283858Y0388153D01*
X0283972Y0388052D01*
X0284084Y0387947D01*
X0284193Y0387839D01*
X0284299Y0387728D01*
X0284403Y0387615D01*
X0284503Y0387499D01*
X0284601Y0387381D01*
X0284695Y0387260D01*
X0284786Y0387137D01*
X0284874Y0387011D01*
X0284958Y0386883D01*
X0285040Y0386753D01*
X0285117Y0386621D01*
X0285192Y0386487D01*
X0285263Y0386351D01*
X0285330Y0386213D01*
X0285394Y0386073D01*
X0285454Y0385932D01*
X0285510Y0385790D01*
X0285563Y0385646D01*
X0285612Y0385500D01*
X0285657Y0385354D01*
X0285698Y0385206D01*
X0285735Y0385058D01*
X0285769Y0384908D01*
X0285799Y0384757D01*
X0285824Y0384606D01*
X0285846Y0384455D01*
X0285864Y0384302D01*
X0285878Y0384150D01*
X0285888Y0383997D01*
X0285894Y0383843D01*
X0285896Y0383690D01*
X0285894Y0383537D01*
X0285888Y0383383D01*
X0285878Y0383230D01*
X0285864Y0383078D01*
X0285846Y0382925D01*
X0285824Y0382774D01*
X0285799Y0382623D01*
X0285769Y0382472D01*
X0285735Y0382322D01*
X0285698Y0382174D01*
X0285657Y0382026D01*
X0285612Y0381880D01*
X0285563Y0381734D01*
X0285510Y0381590D01*
X0285454Y0381448D01*
X0285394Y0381307D01*
X0285330Y0381167D01*
X0285263Y0381029D01*
X0285192Y0380893D01*
X0285117Y0380759D01*
X0285040Y0380627D01*
X0284958Y0380497D01*
X0284874Y0380369D01*
X0284786Y0380243D01*
X0284695Y0380120D01*
X0284601Y0379999D01*
X0284503Y0379881D01*
X0284403Y0379765D01*
X0284299Y0379652D01*
X0284193Y0379541D01*
X0284084Y0379433D01*
X0283972Y0379328D01*
X0283858Y0379227D01*
X0283740Y0379128D01*
X0283621Y0379032D01*
X0283499Y0378939D01*
X0283374Y0378850D01*
X0283247Y0378763D01*
X0283118Y0378681D01*
X0282987Y0378601D01*
X0282854Y0378525D01*
X0282719Y0378452D01*
X0282582Y0378383D01*
X0282443Y0378318D01*
X0282303Y0378256D01*
X0282161Y0378198D01*
X0282018Y0378143D01*
X0281873Y0378092D01*
X0281727Y0378045D01*
X0281580Y0378002D01*
X0281432Y0377963D01*
X0281283Y0377927D01*
X0281133Y0377896D01*
X0280982Y0377868D01*
X0280831Y0377844D01*
X0280678Y0377824D01*
X0280526Y0377808D01*
X0280373Y0377796D01*
X0280220Y0377788D01*
X0280067Y0377784D01*
X0279913Y0377784D01*
X0279760Y0377788D01*
X0279607Y0377796D01*
X0279454Y0377808D01*
X0279302Y0377824D01*
X0279149Y0377844D01*
X0278998Y0377868D01*
X0278847Y0377896D01*
X0278697Y0377927D01*
X0278548Y0377963D01*
X0278400Y0378002D01*
X0278253Y0378045D01*
X0278107Y0378092D01*
X0277962Y0378143D01*
X0277819Y0378198D01*
X0277677Y0378256D01*
X0277537Y0378318D01*
X0277398Y0378383D01*
X0277261Y0378452D01*
X0277126Y0378525D01*
X0276993Y0378601D01*
X0276862Y0378681D01*
X0276733Y0378763D01*
X0276606Y0378850D01*
X0276481Y0378939D01*
X0276359Y0379032D01*
X0276240Y0379128D01*
X0276122Y0379227D01*
X0276008Y0379328D01*
X0275896Y0379433D01*
X0275787Y0379541D01*
X0275681Y0379652D01*
X0275577Y0379765D01*
X0275477Y0379881D01*
X0275379Y0379999D01*
X0275285Y0380120D01*
X0275194Y0380243D01*
X0275106Y0380369D01*
X0275022Y0380497D01*
X0274940Y0380627D01*
X0274863Y0380759D01*
X0274788Y0380893D01*
X0274717Y0381029D01*
X0274650Y0381167D01*
X0274586Y0381307D01*
X0274526Y0381448D01*
X0274470Y0381590D01*
X0274417Y0381734D01*
X0274368Y0381880D01*
X0274323Y0382026D01*
X0274282Y0382174D01*
X0274245Y0382322D01*
X0274211Y0382472D01*
X0274181Y0382623D01*
X0274156Y0382774D01*
X0274134Y0382925D01*
X0274116Y0383078D01*
X0274102Y0383230D01*
X0274092Y0383383D01*
X0274086Y0383537D01*
X0274084Y0383690D01*
X0274084Y0345107D02*
X0274086Y0345260D01*
X0274092Y0345414D01*
X0274102Y0345567D01*
X0274116Y0345719D01*
X0274134Y0345872D01*
X0274156Y0346023D01*
X0274181Y0346174D01*
X0274211Y0346325D01*
X0274245Y0346475D01*
X0274282Y0346623D01*
X0274323Y0346771D01*
X0274368Y0346917D01*
X0274417Y0347063D01*
X0274470Y0347207D01*
X0274526Y0347349D01*
X0274586Y0347490D01*
X0274650Y0347630D01*
X0274717Y0347768D01*
X0274788Y0347904D01*
X0274863Y0348038D01*
X0274940Y0348170D01*
X0275022Y0348300D01*
X0275106Y0348428D01*
X0275194Y0348554D01*
X0275285Y0348677D01*
X0275379Y0348798D01*
X0275477Y0348916D01*
X0275577Y0349032D01*
X0275681Y0349145D01*
X0275787Y0349256D01*
X0275896Y0349364D01*
X0276008Y0349469D01*
X0276122Y0349570D01*
X0276240Y0349669D01*
X0276359Y0349765D01*
X0276481Y0349858D01*
X0276606Y0349947D01*
X0276733Y0350034D01*
X0276862Y0350116D01*
X0276993Y0350196D01*
X0277126Y0350272D01*
X0277261Y0350345D01*
X0277398Y0350414D01*
X0277537Y0350479D01*
X0277677Y0350541D01*
X0277819Y0350599D01*
X0277962Y0350654D01*
X0278107Y0350705D01*
X0278253Y0350752D01*
X0278400Y0350795D01*
X0278548Y0350834D01*
X0278697Y0350870D01*
X0278847Y0350901D01*
X0278998Y0350929D01*
X0279149Y0350953D01*
X0279302Y0350973D01*
X0279454Y0350989D01*
X0279607Y0351001D01*
X0279760Y0351009D01*
X0279913Y0351013D01*
X0280067Y0351013D01*
X0280220Y0351009D01*
X0280373Y0351001D01*
X0280526Y0350989D01*
X0280678Y0350973D01*
X0280831Y0350953D01*
X0280982Y0350929D01*
X0281133Y0350901D01*
X0281283Y0350870D01*
X0281432Y0350834D01*
X0281580Y0350795D01*
X0281727Y0350752D01*
X0281873Y0350705D01*
X0282018Y0350654D01*
X0282161Y0350599D01*
X0282303Y0350541D01*
X0282443Y0350479D01*
X0282582Y0350414D01*
X0282719Y0350345D01*
X0282854Y0350272D01*
X0282987Y0350196D01*
X0283118Y0350116D01*
X0283247Y0350034D01*
X0283374Y0349947D01*
X0283499Y0349858D01*
X0283621Y0349765D01*
X0283740Y0349669D01*
X0283858Y0349570D01*
X0283972Y0349469D01*
X0284084Y0349364D01*
X0284193Y0349256D01*
X0284299Y0349145D01*
X0284403Y0349032D01*
X0284503Y0348916D01*
X0284601Y0348798D01*
X0284695Y0348677D01*
X0284786Y0348554D01*
X0284874Y0348428D01*
X0284958Y0348300D01*
X0285040Y0348170D01*
X0285117Y0348038D01*
X0285192Y0347904D01*
X0285263Y0347768D01*
X0285330Y0347630D01*
X0285394Y0347490D01*
X0285454Y0347349D01*
X0285510Y0347207D01*
X0285563Y0347063D01*
X0285612Y0346917D01*
X0285657Y0346771D01*
X0285698Y0346623D01*
X0285735Y0346475D01*
X0285769Y0346325D01*
X0285799Y0346174D01*
X0285824Y0346023D01*
X0285846Y0345872D01*
X0285864Y0345719D01*
X0285878Y0345567D01*
X0285888Y0345414D01*
X0285894Y0345260D01*
X0285896Y0345107D01*
X0285894Y0344954D01*
X0285888Y0344800D01*
X0285878Y0344647D01*
X0285864Y0344495D01*
X0285846Y0344342D01*
X0285824Y0344191D01*
X0285799Y0344040D01*
X0285769Y0343889D01*
X0285735Y0343739D01*
X0285698Y0343591D01*
X0285657Y0343443D01*
X0285612Y0343297D01*
X0285563Y0343151D01*
X0285510Y0343007D01*
X0285454Y0342865D01*
X0285394Y0342724D01*
X0285330Y0342584D01*
X0285263Y0342446D01*
X0285192Y0342310D01*
X0285117Y0342176D01*
X0285040Y0342044D01*
X0284958Y0341914D01*
X0284874Y0341786D01*
X0284786Y0341660D01*
X0284695Y0341537D01*
X0284601Y0341416D01*
X0284503Y0341298D01*
X0284403Y0341182D01*
X0284299Y0341069D01*
X0284193Y0340958D01*
X0284084Y0340850D01*
X0283972Y0340745D01*
X0283858Y0340644D01*
X0283740Y0340545D01*
X0283621Y0340449D01*
X0283499Y0340356D01*
X0283374Y0340267D01*
X0283247Y0340180D01*
X0283118Y0340098D01*
X0282987Y0340018D01*
X0282854Y0339942D01*
X0282719Y0339869D01*
X0282582Y0339800D01*
X0282443Y0339735D01*
X0282303Y0339673D01*
X0282161Y0339615D01*
X0282018Y0339560D01*
X0281873Y0339509D01*
X0281727Y0339462D01*
X0281580Y0339419D01*
X0281432Y0339380D01*
X0281283Y0339344D01*
X0281133Y0339313D01*
X0280982Y0339285D01*
X0280831Y0339261D01*
X0280678Y0339241D01*
X0280526Y0339225D01*
X0280373Y0339213D01*
X0280220Y0339205D01*
X0280067Y0339201D01*
X0279913Y0339201D01*
X0279760Y0339205D01*
X0279607Y0339213D01*
X0279454Y0339225D01*
X0279302Y0339241D01*
X0279149Y0339261D01*
X0278998Y0339285D01*
X0278847Y0339313D01*
X0278697Y0339344D01*
X0278548Y0339380D01*
X0278400Y0339419D01*
X0278253Y0339462D01*
X0278107Y0339509D01*
X0277962Y0339560D01*
X0277819Y0339615D01*
X0277677Y0339673D01*
X0277537Y0339735D01*
X0277398Y0339800D01*
X0277261Y0339869D01*
X0277126Y0339942D01*
X0276993Y0340018D01*
X0276862Y0340098D01*
X0276733Y0340180D01*
X0276606Y0340267D01*
X0276481Y0340356D01*
X0276359Y0340449D01*
X0276240Y0340545D01*
X0276122Y0340644D01*
X0276008Y0340745D01*
X0275896Y0340850D01*
X0275787Y0340958D01*
X0275681Y0341069D01*
X0275577Y0341182D01*
X0275477Y0341298D01*
X0275379Y0341416D01*
X0275285Y0341537D01*
X0275194Y0341660D01*
X0275106Y0341786D01*
X0275022Y0341914D01*
X0274940Y0342044D01*
X0274863Y0342176D01*
X0274788Y0342310D01*
X0274717Y0342446D01*
X0274650Y0342584D01*
X0274586Y0342724D01*
X0274526Y0342865D01*
X0274470Y0343007D01*
X0274417Y0343151D01*
X0274368Y0343297D01*
X0274323Y0343443D01*
X0274282Y0343591D01*
X0274245Y0343739D01*
X0274211Y0343889D01*
X0274181Y0344040D01*
X0274156Y0344191D01*
X0274134Y0344342D01*
X0274116Y0344495D01*
X0274102Y0344647D01*
X0274092Y0344800D01*
X0274086Y0344954D01*
X0274084Y0345107D01*
D11*
X0306274Y0374147D02*
X0310545Y0378418D01*
X0310545Y0379485D01*
X0309477Y0380553D01*
X0307342Y0380553D01*
X0306274Y0379485D01*
X0306274Y0374147D02*
X0310545Y0374147D01*
X0312720Y0375215D02*
X0316990Y0379485D01*
X0316990Y0375215D01*
X0315923Y0374147D01*
X0313787Y0374147D01*
X0312720Y0375215D01*
X0312720Y0379485D01*
X0313787Y0380553D01*
X0315923Y0380553D01*
X0316990Y0379485D01*
X0319165Y0378418D02*
X0321301Y0380553D01*
X0321301Y0374147D01*
X0323436Y0374147D02*
X0319165Y0374147D01*
X0325611Y0375215D02*
X0326678Y0374147D01*
X0328814Y0374147D01*
X0329881Y0375215D01*
X0329881Y0379485D01*
X0328814Y0380553D01*
X0326678Y0380553D01*
X0325611Y0379485D01*
X0325611Y0378418D01*
X0326678Y0377350D01*
X0329881Y0377350D01*
X0332056Y0379485D02*
X0333124Y0380553D01*
X0335259Y0380553D01*
X0336327Y0379485D01*
X0332056Y0375215D01*
X0333124Y0374147D01*
X0335259Y0374147D01*
X0336327Y0375215D01*
X0336327Y0379485D01*
X0338502Y0379485D02*
X0338502Y0378418D01*
X0339569Y0377350D01*
X0341705Y0377350D01*
X0342772Y0376282D01*
X0342772Y0375215D01*
X0341705Y0374147D01*
X0339569Y0374147D01*
X0338502Y0375215D01*
X0338502Y0376282D01*
X0339569Y0377350D01*
X0341705Y0377350D02*
X0342772Y0378418D01*
X0342772Y0379485D01*
X0341705Y0380553D01*
X0339569Y0380553D01*
X0338502Y0379485D01*
X0339569Y0384647D02*
X0338502Y0385715D01*
X0338502Y0391053D01*
X0336327Y0389985D02*
X0335259Y0391053D01*
X0333124Y0391053D01*
X0332056Y0389985D01*
X0332056Y0385715D01*
X0333124Y0384647D01*
X0335259Y0384647D01*
X0336327Y0385715D01*
X0336327Y0387850D01*
X0334192Y0387850D01*
X0329881Y0388918D02*
X0329881Y0383580D01*
X0328814Y0382512D01*
X0327746Y0382512D01*
X0326678Y0384647D02*
X0329881Y0384647D01*
X0326678Y0384647D02*
X0325611Y0385715D01*
X0325611Y0388918D01*
X0323436Y0387850D02*
X0323436Y0384647D01*
X0323436Y0387850D02*
X0322368Y0388918D01*
X0319165Y0388918D01*
X0319165Y0384647D01*
X0316990Y0385715D02*
X0316990Y0387850D01*
X0315923Y0388918D01*
X0313787Y0388918D01*
X0312720Y0387850D01*
X0312720Y0385715D01*
X0313787Y0384647D01*
X0315923Y0384647D01*
X0316990Y0385715D01*
X0310545Y0391053D02*
X0306274Y0391053D01*
X0308410Y0391053D02*
X0308410Y0384647D01*
X0332056Y0379485D02*
X0332056Y0375215D01*
X0339569Y0384647D02*
X0341705Y0384647D01*
X0342772Y0385715D01*
X0342772Y0391053D01*
X0344947Y0389985D02*
X0344947Y0385715D01*
X0346015Y0384647D01*
X0348150Y0384647D01*
X0349218Y0385715D01*
X0349218Y0389985D01*
X0348150Y0391053D01*
X0346015Y0391053D01*
X0344947Y0389985D01*
X0346015Y0380553D02*
X0344947Y0379485D01*
X0346015Y0380553D02*
X0348150Y0380553D01*
X0349218Y0379485D01*
X0349218Y0378418D01*
X0344947Y0374147D01*
X0349218Y0374147D01*
X0351393Y0377350D02*
X0355663Y0377350D01*
X0354596Y0374147D02*
X0354596Y0380553D01*
X0351393Y0377350D01*
X0262943Y0304851D02*
X0262943Y0299851D01*
X0260443Y0297351D01*
X0262943Y0294851D01*
X0262943Y0289851D01*
X0260443Y0287351D01*
X0262943Y0284851D01*
X0262943Y0279851D01*
X0260443Y0277351D01*
X0255443Y0277351D01*
X0252943Y0279851D01*
X0252943Y0284851D01*
X0255443Y0287351D01*
X0252943Y0289851D01*
X0252943Y0294851D01*
X0255443Y0297351D01*
X0252943Y0299851D01*
X0252943Y0304851D01*
X0255443Y0307351D01*
X0260443Y0307351D01*
X0262943Y0304851D01*
X0260443Y0297351D02*
X0255443Y0297351D01*
X0255443Y0287351D02*
X0260443Y0287351D01*
X0259316Y0151505D02*
X0257180Y0151505D01*
X0256113Y0150438D01*
X0256113Y0149370D01*
X0257180Y0147235D01*
X0253978Y0147235D01*
X0253978Y0151505D01*
X0259316Y0151505D02*
X0260383Y0150438D01*
X0260383Y0148303D01*
X0259316Y0147235D01*
X0259316Y0145060D02*
X0258248Y0145060D01*
X0257180Y0143992D01*
X0257180Y0141857D01*
X0256113Y0140790D01*
X0255045Y0140790D01*
X0253978Y0141857D01*
X0253978Y0143992D01*
X0255045Y0145060D01*
X0252910Y0142925D02*
X0261451Y0142925D01*
X0260383Y0143992D02*
X0259316Y0145060D01*
X0260383Y0143992D02*
X0260383Y0141857D01*
X0259316Y0140790D01*
X0259316Y0138614D02*
X0253978Y0138614D01*
X0253978Y0134344D02*
X0259316Y0134344D01*
X0260383Y0135412D01*
X0260383Y0137547D01*
X0259316Y0138614D01*
X0180317Y0094284D02*
X0180317Y0088135D01*
X0169116Y0088135D02*
X0169116Y0094284D01*
X0113935Y0094674D02*
X0113935Y0101052D01*
X0110392Y0101052D02*
X0106281Y0101052D01*
X0102738Y0101052D02*
X0102738Y0094674D01*
X0106281Y0094674D02*
X0106652Y0094674D01*
X0110022Y0094674D02*
X0110392Y0094674D01*
X0279896Y0038954D02*
X0279896Y0032549D01*
X0283099Y0032549D01*
X0284167Y0033616D01*
X0284167Y0034684D01*
X0283099Y0035752D01*
X0279896Y0035752D01*
X0279896Y0038954D02*
X0283099Y0038954D01*
X0284167Y0037887D01*
X0284167Y0036819D01*
X0283099Y0035752D01*
X0286342Y0038954D02*
X0287410Y0038954D01*
X0287410Y0032549D01*
X0288477Y0032549D02*
X0286342Y0032549D01*
X0290639Y0033616D02*
X0291707Y0032549D01*
X0293842Y0032549D01*
X0294909Y0033616D01*
X0294909Y0035752D01*
X0293842Y0036819D01*
X0291707Y0036819D01*
X0290639Y0035752D01*
X0290639Y0033616D01*
X0297084Y0033616D02*
X0298152Y0032549D01*
X0300287Y0032549D01*
X0301355Y0033616D01*
X0301355Y0035752D01*
X0300287Y0036819D01*
X0298152Y0036819D01*
X0297084Y0035752D01*
X0297084Y0033616D01*
X0300301Y0029522D02*
X0300301Y0028454D01*
X0300301Y0026319D02*
X0300301Y0022049D01*
X0301368Y0022049D02*
X0299233Y0022049D01*
X0297058Y0022049D02*
X0293855Y0022049D01*
X0292787Y0023116D01*
X0292787Y0025252D01*
X0293855Y0026319D01*
X0297058Y0026319D01*
X0299233Y0026319D02*
X0300301Y0026319D01*
X0303530Y0028454D02*
X0304598Y0028454D01*
X0304598Y0022049D01*
X0305665Y0022049D02*
X0303530Y0022049D01*
X0307827Y0022049D02*
X0309962Y0022049D01*
X0308895Y0022049D02*
X0308895Y0028454D01*
X0307827Y0028454D01*
X0307800Y0032549D02*
X0304598Y0032549D01*
X0303530Y0033616D01*
X0303530Y0035752D01*
X0304598Y0036819D01*
X0307800Y0036819D01*
X0307800Y0038954D02*
X0307800Y0032549D01*
X0313192Y0026319D02*
X0312124Y0025252D01*
X0312124Y0023116D01*
X0313192Y0022049D01*
X0315327Y0022049D01*
X0316394Y0023116D01*
X0316394Y0025252D01*
X0315327Y0026319D01*
X0313192Y0026319D01*
X0316421Y0032549D02*
X0316421Y0038954D01*
X0319624Y0038954D01*
X0320691Y0037887D01*
X0320691Y0035752D01*
X0319624Y0034684D01*
X0316421Y0034684D01*
X0322866Y0034684D02*
X0325002Y0036819D01*
X0326069Y0036819D01*
X0328238Y0035752D02*
X0329305Y0036819D01*
X0331440Y0036819D01*
X0332508Y0035752D01*
X0332508Y0034684D01*
X0328238Y0034684D01*
X0328238Y0033616D02*
X0328238Y0035752D01*
X0328238Y0033616D02*
X0329305Y0032549D01*
X0331440Y0032549D01*
X0334683Y0032549D02*
X0337886Y0032549D01*
X0338953Y0033616D01*
X0337886Y0034684D01*
X0335751Y0034684D01*
X0334683Y0035752D01*
X0335751Y0036819D01*
X0338953Y0036819D01*
X0341129Y0035752D02*
X0342196Y0036819D01*
X0345399Y0036819D01*
X0347574Y0036819D02*
X0347574Y0033616D01*
X0348642Y0032549D01*
X0351844Y0032549D01*
X0351844Y0036819D01*
X0354020Y0036819D02*
X0354020Y0032549D01*
X0354020Y0034684D02*
X0356155Y0036819D01*
X0357222Y0036819D01*
X0359391Y0035752D02*
X0360458Y0036819D01*
X0362594Y0036819D01*
X0363661Y0035752D01*
X0363661Y0034684D01*
X0359391Y0034684D01*
X0359391Y0033616D02*
X0359391Y0035752D01*
X0359391Y0033616D02*
X0360458Y0032549D01*
X0362594Y0032549D01*
X0362587Y0028454D02*
X0362587Y0022049D01*
X0364762Y0023116D02*
X0364762Y0025252D01*
X0365830Y0026319D01*
X0367965Y0026319D01*
X0369032Y0025252D01*
X0369032Y0024184D01*
X0364762Y0024184D01*
X0364762Y0023116D02*
X0365830Y0022049D01*
X0367965Y0022049D01*
X0372275Y0023116D02*
X0372275Y0027387D01*
X0371208Y0026319D02*
X0373343Y0026319D01*
X0375505Y0025252D02*
X0376572Y0026319D01*
X0378707Y0026319D01*
X0379775Y0025252D01*
X0379775Y0022049D01*
X0381950Y0023116D02*
X0381950Y0025252D01*
X0383018Y0026319D01*
X0385153Y0026319D01*
X0386220Y0025252D01*
X0386220Y0023116D01*
X0385153Y0022049D01*
X0383018Y0022049D01*
X0381950Y0023116D01*
X0388396Y0023116D02*
X0388396Y0025252D01*
X0389463Y0026319D01*
X0392666Y0026319D01*
X0392666Y0028454D02*
X0392666Y0022049D01*
X0389463Y0022049D01*
X0388396Y0023116D01*
X0389443Y0032549D02*
X0389443Y0035752D01*
X0388376Y0036819D01*
X0385173Y0036819D01*
X0385173Y0032549D01*
X0382998Y0033616D02*
X0381930Y0032549D01*
X0379795Y0032549D01*
X0378727Y0033616D01*
X0378727Y0035752D01*
X0379795Y0036819D01*
X0381930Y0036819D01*
X0382998Y0035752D01*
X0382998Y0033616D01*
X0376552Y0032549D02*
X0376552Y0038954D01*
X0374417Y0036819D01*
X0372282Y0038954D01*
X0372282Y0032549D01*
X0375505Y0028454D02*
X0375505Y0022049D01*
X0373343Y0022049D02*
X0372275Y0023116D01*
X0362587Y0028454D02*
X0360452Y0026319D01*
X0358317Y0028454D01*
X0358317Y0022049D01*
X0349696Y0022049D02*
X0346493Y0022049D01*
X0345426Y0023116D01*
X0345426Y0025252D01*
X0346493Y0026319D01*
X0349696Y0026319D01*
X0343264Y0022049D02*
X0341129Y0022049D01*
X0342196Y0022049D02*
X0342196Y0026319D01*
X0341129Y0026319D01*
X0338960Y0026319D02*
X0337893Y0026319D01*
X0335757Y0024184D01*
X0335757Y0022049D02*
X0335757Y0026319D01*
X0333596Y0026319D02*
X0331460Y0026319D01*
X0332528Y0027387D02*
X0332528Y0023116D01*
X0333596Y0022049D01*
X0329285Y0024184D02*
X0329285Y0025252D01*
X0328218Y0026319D01*
X0326083Y0026319D01*
X0325015Y0025252D01*
X0325015Y0023116D01*
X0326083Y0022049D01*
X0328218Y0022049D01*
X0329285Y0024184D02*
X0325015Y0024184D01*
X0322840Y0025252D02*
X0322840Y0022049D01*
X0320705Y0022049D02*
X0320705Y0025252D01*
X0321772Y0026319D01*
X0322840Y0025252D01*
X0320705Y0025252D02*
X0319637Y0026319D01*
X0318569Y0026319D01*
X0318569Y0022049D01*
X0322866Y0032549D02*
X0322866Y0036819D01*
X0341129Y0035752D02*
X0342196Y0034684D01*
X0344331Y0034684D01*
X0345399Y0033616D01*
X0344331Y0032549D01*
X0341129Y0032549D01*
X0342196Y0029522D02*
X0342196Y0028454D01*
X0300281Y0016887D02*
X0300281Y0012616D01*
X0299213Y0011549D01*
X0297078Y0011549D01*
X0296010Y0012616D01*
X0300281Y0016887D01*
X0299213Y0017954D01*
X0297078Y0017954D01*
X0296010Y0016887D01*
X0296010Y0012616D01*
X0293855Y0012616D02*
X0293855Y0011549D01*
X0292787Y0011549D01*
X0292787Y0012616D01*
X0293855Y0012616D01*
X0290612Y0011549D02*
X0286342Y0011549D01*
X0290612Y0015819D01*
X0290612Y0016887D01*
X0289545Y0017954D01*
X0287410Y0017954D01*
X0286342Y0016887D01*
X0284167Y0015819D02*
X0282032Y0011549D01*
X0279896Y0015819D01*
X0280964Y0022049D02*
X0283099Y0022049D01*
X0284167Y0023116D01*
X0284167Y0027387D01*
X0283099Y0028454D01*
X0280964Y0028454D01*
X0279896Y0027387D01*
X0279896Y0023116D01*
X0280964Y0022049D01*
X0286342Y0022049D02*
X0289545Y0022049D01*
X0290612Y0023116D01*
X0289545Y0024184D01*
X0287410Y0024184D01*
X0286342Y0025252D01*
X0287410Y0026319D01*
X0290612Y0026319D01*
X0380896Y0093749D02*
X0380896Y0098749D01*
X0383396Y0101249D01*
X0380896Y0103749D01*
X0380896Y0108749D01*
X0383396Y0111249D01*
X0380896Y0113749D01*
X0380896Y0118749D01*
X0383396Y0121249D01*
X0380896Y0123749D01*
X0380896Y0128749D01*
X0383396Y0131249D01*
X0388396Y0131249D01*
X0390896Y0128749D01*
X0390896Y0123749D01*
X0388396Y0121249D01*
X0390896Y0118749D01*
X0390896Y0113749D01*
X0388396Y0111249D01*
X0383396Y0111249D01*
X0388396Y0111249D02*
X0390896Y0108749D01*
X0390896Y0103749D01*
X0388396Y0101249D01*
X0390896Y0098749D01*
X0390896Y0093749D01*
X0388396Y0091249D01*
X0383396Y0091249D01*
X0380896Y0093749D01*
X0383396Y0101249D02*
X0388396Y0101249D01*
X0388396Y0121249D02*
X0383396Y0121249D01*
X0392686Y0040022D02*
X0392686Y0038954D01*
X0392686Y0036819D02*
X0392686Y0032549D01*
X0391618Y0032549D02*
X0393754Y0032549D01*
X0396983Y0033616D02*
X0398051Y0032549D01*
X0396983Y0033616D02*
X0396983Y0037887D01*
X0395915Y0036819D02*
X0398051Y0036819D01*
X0400212Y0035752D02*
X0400212Y0033616D01*
X0401280Y0032549D01*
X0403415Y0032549D01*
X0404483Y0033616D01*
X0404483Y0035752D01*
X0403415Y0036819D01*
X0401280Y0036819D01*
X0400212Y0035752D01*
X0406658Y0036819D02*
X0406658Y0032549D01*
X0406658Y0034684D02*
X0408793Y0036819D01*
X0409861Y0036819D01*
X0392686Y0036819D02*
X0391618Y0036819D01*
D12*
X0344715Y0050855D02*
X0344715Y0060619D01*
X0340778Y0065737D02*
X0328652Y0065737D01*
X0324715Y0060737D02*
X0324715Y0050855D01*
X0328652Y0045737D02*
X0340778Y0045737D01*
X0329715Y0055737D02*
X0329717Y0055878D01*
X0329723Y0056019D01*
X0329733Y0056159D01*
X0329747Y0056299D01*
X0329765Y0056439D01*
X0329786Y0056578D01*
X0329812Y0056717D01*
X0329841Y0056855D01*
X0329875Y0056991D01*
X0329912Y0057127D01*
X0329953Y0057262D01*
X0329998Y0057396D01*
X0330047Y0057528D01*
X0330099Y0057659D01*
X0330155Y0057788D01*
X0330215Y0057915D01*
X0330278Y0058041D01*
X0330344Y0058165D01*
X0330415Y0058288D01*
X0330488Y0058408D01*
X0330565Y0058526D01*
X0330645Y0058642D01*
X0330729Y0058755D01*
X0330815Y0058866D01*
X0330905Y0058975D01*
X0330998Y0059081D01*
X0331093Y0059184D01*
X0331192Y0059285D01*
X0331293Y0059383D01*
X0331397Y0059478D01*
X0331504Y0059570D01*
X0331613Y0059659D01*
X0331725Y0059744D01*
X0331839Y0059827D01*
X0331955Y0059907D01*
X0332074Y0059983D01*
X0332195Y0060055D01*
X0332317Y0060125D01*
X0332442Y0060190D01*
X0332568Y0060253D01*
X0332696Y0060311D01*
X0332826Y0060366D01*
X0332957Y0060418D01*
X0333090Y0060465D01*
X0333224Y0060509D01*
X0333359Y0060550D01*
X0333495Y0060586D01*
X0333632Y0060618D01*
X0333770Y0060647D01*
X0333908Y0060672D01*
X0334048Y0060692D01*
X0334188Y0060709D01*
X0334328Y0060722D01*
X0334469Y0060731D01*
X0334609Y0060736D01*
X0334750Y0060737D01*
X0334891Y0060734D01*
X0335032Y0060727D01*
X0335172Y0060716D01*
X0335312Y0060701D01*
X0335452Y0060682D01*
X0335591Y0060660D01*
X0335729Y0060633D01*
X0335867Y0060603D01*
X0336003Y0060568D01*
X0336139Y0060530D01*
X0336273Y0060488D01*
X0336407Y0060442D01*
X0336539Y0060393D01*
X0336669Y0060339D01*
X0336798Y0060282D01*
X0336925Y0060222D01*
X0337051Y0060158D01*
X0337174Y0060090D01*
X0337296Y0060019D01*
X0337416Y0059945D01*
X0337533Y0059867D01*
X0337648Y0059786D01*
X0337761Y0059702D01*
X0337872Y0059615D01*
X0337980Y0059524D01*
X0338085Y0059431D01*
X0338188Y0059334D01*
X0338288Y0059235D01*
X0338385Y0059133D01*
X0338479Y0059028D01*
X0338570Y0058921D01*
X0338658Y0058811D01*
X0338743Y0058699D01*
X0338825Y0058584D01*
X0338904Y0058467D01*
X0338979Y0058348D01*
X0339051Y0058227D01*
X0339119Y0058104D01*
X0339184Y0057979D01*
X0339246Y0057852D01*
X0339303Y0057723D01*
X0339358Y0057593D01*
X0339408Y0057462D01*
X0339455Y0057329D01*
X0339498Y0057195D01*
X0339537Y0057059D01*
X0339572Y0056923D01*
X0339604Y0056786D01*
X0339631Y0056648D01*
X0339655Y0056509D01*
X0339675Y0056369D01*
X0339691Y0056229D01*
X0339703Y0056089D01*
X0339711Y0055948D01*
X0339715Y0055807D01*
X0339715Y0055667D01*
X0339711Y0055526D01*
X0339703Y0055385D01*
X0339691Y0055245D01*
X0339675Y0055105D01*
X0339655Y0054965D01*
X0339631Y0054826D01*
X0339604Y0054688D01*
X0339572Y0054551D01*
X0339537Y0054415D01*
X0339498Y0054279D01*
X0339455Y0054145D01*
X0339408Y0054012D01*
X0339358Y0053881D01*
X0339303Y0053751D01*
X0339246Y0053622D01*
X0339184Y0053495D01*
X0339119Y0053370D01*
X0339051Y0053247D01*
X0338979Y0053126D01*
X0338904Y0053007D01*
X0338825Y0052890D01*
X0338743Y0052775D01*
X0338658Y0052663D01*
X0338570Y0052553D01*
X0338479Y0052446D01*
X0338385Y0052341D01*
X0338288Y0052239D01*
X0338188Y0052140D01*
X0338085Y0052043D01*
X0337980Y0051950D01*
X0337872Y0051859D01*
X0337761Y0051772D01*
X0337648Y0051688D01*
X0337533Y0051607D01*
X0337416Y0051529D01*
X0337296Y0051455D01*
X0337174Y0051384D01*
X0337051Y0051316D01*
X0336925Y0051252D01*
X0336798Y0051192D01*
X0336669Y0051135D01*
X0336539Y0051081D01*
X0336407Y0051032D01*
X0336273Y0050986D01*
X0336139Y0050944D01*
X0336003Y0050906D01*
X0335867Y0050871D01*
X0335729Y0050841D01*
X0335591Y0050814D01*
X0335452Y0050792D01*
X0335312Y0050773D01*
X0335172Y0050758D01*
X0335032Y0050747D01*
X0334891Y0050740D01*
X0334750Y0050737D01*
X0334609Y0050738D01*
X0334469Y0050743D01*
X0334328Y0050752D01*
X0334188Y0050765D01*
X0334048Y0050782D01*
X0333908Y0050802D01*
X0333770Y0050827D01*
X0333632Y0050856D01*
X0333495Y0050888D01*
X0333359Y0050924D01*
X0333224Y0050965D01*
X0333090Y0051009D01*
X0332957Y0051056D01*
X0332826Y0051108D01*
X0332696Y0051163D01*
X0332568Y0051221D01*
X0332442Y0051284D01*
X0332317Y0051349D01*
X0332195Y0051419D01*
X0332074Y0051491D01*
X0331955Y0051567D01*
X0331839Y0051647D01*
X0331725Y0051730D01*
X0331613Y0051815D01*
X0331504Y0051904D01*
X0331397Y0051996D01*
X0331293Y0052091D01*
X0331192Y0052189D01*
X0331093Y0052290D01*
X0330998Y0052393D01*
X0330905Y0052499D01*
X0330815Y0052608D01*
X0330729Y0052719D01*
X0330645Y0052832D01*
X0330565Y0052948D01*
X0330488Y0053066D01*
X0330415Y0053186D01*
X0330344Y0053309D01*
X0330278Y0053433D01*
X0330215Y0053559D01*
X0330155Y0053686D01*
X0330099Y0053815D01*
X0330047Y0053946D01*
X0329998Y0054078D01*
X0329953Y0054212D01*
X0329912Y0054347D01*
X0329875Y0054483D01*
X0329841Y0054619D01*
X0329812Y0054757D01*
X0329786Y0054896D01*
X0329765Y0055035D01*
X0329747Y0055175D01*
X0329733Y0055315D01*
X0329723Y0055455D01*
X0329717Y0055596D01*
X0329715Y0055737D01*
X0298652Y0060225D02*
X0298652Y0050461D01*
X0294715Y0045343D02*
X0282589Y0045343D01*
X0278652Y0050461D02*
X0278652Y0060343D01*
X0282589Y0065343D02*
X0294715Y0065343D01*
X0283652Y0055343D02*
X0283654Y0055484D01*
X0283660Y0055625D01*
X0283670Y0055765D01*
X0283684Y0055905D01*
X0283702Y0056045D01*
X0283723Y0056184D01*
X0283749Y0056323D01*
X0283778Y0056461D01*
X0283812Y0056597D01*
X0283849Y0056733D01*
X0283890Y0056868D01*
X0283935Y0057002D01*
X0283984Y0057134D01*
X0284036Y0057265D01*
X0284092Y0057394D01*
X0284152Y0057521D01*
X0284215Y0057647D01*
X0284281Y0057771D01*
X0284352Y0057894D01*
X0284425Y0058014D01*
X0284502Y0058132D01*
X0284582Y0058248D01*
X0284666Y0058361D01*
X0284752Y0058472D01*
X0284842Y0058581D01*
X0284935Y0058687D01*
X0285030Y0058790D01*
X0285129Y0058891D01*
X0285230Y0058989D01*
X0285334Y0059084D01*
X0285441Y0059176D01*
X0285550Y0059265D01*
X0285662Y0059350D01*
X0285776Y0059433D01*
X0285892Y0059513D01*
X0286011Y0059589D01*
X0286132Y0059661D01*
X0286254Y0059731D01*
X0286379Y0059796D01*
X0286505Y0059859D01*
X0286633Y0059917D01*
X0286763Y0059972D01*
X0286894Y0060024D01*
X0287027Y0060071D01*
X0287161Y0060115D01*
X0287296Y0060156D01*
X0287432Y0060192D01*
X0287569Y0060224D01*
X0287707Y0060253D01*
X0287845Y0060278D01*
X0287985Y0060298D01*
X0288125Y0060315D01*
X0288265Y0060328D01*
X0288406Y0060337D01*
X0288546Y0060342D01*
X0288687Y0060343D01*
X0288828Y0060340D01*
X0288969Y0060333D01*
X0289109Y0060322D01*
X0289249Y0060307D01*
X0289389Y0060288D01*
X0289528Y0060266D01*
X0289666Y0060239D01*
X0289804Y0060209D01*
X0289940Y0060174D01*
X0290076Y0060136D01*
X0290210Y0060094D01*
X0290344Y0060048D01*
X0290476Y0059999D01*
X0290606Y0059945D01*
X0290735Y0059888D01*
X0290862Y0059828D01*
X0290988Y0059764D01*
X0291111Y0059696D01*
X0291233Y0059625D01*
X0291353Y0059551D01*
X0291470Y0059473D01*
X0291585Y0059392D01*
X0291698Y0059308D01*
X0291809Y0059221D01*
X0291917Y0059130D01*
X0292022Y0059037D01*
X0292125Y0058940D01*
X0292225Y0058841D01*
X0292322Y0058739D01*
X0292416Y0058634D01*
X0292507Y0058527D01*
X0292595Y0058417D01*
X0292680Y0058305D01*
X0292762Y0058190D01*
X0292841Y0058073D01*
X0292916Y0057954D01*
X0292988Y0057833D01*
X0293056Y0057710D01*
X0293121Y0057585D01*
X0293183Y0057458D01*
X0293240Y0057329D01*
X0293295Y0057199D01*
X0293345Y0057068D01*
X0293392Y0056935D01*
X0293435Y0056801D01*
X0293474Y0056665D01*
X0293509Y0056529D01*
X0293541Y0056392D01*
X0293568Y0056254D01*
X0293592Y0056115D01*
X0293612Y0055975D01*
X0293628Y0055835D01*
X0293640Y0055695D01*
X0293648Y0055554D01*
X0293652Y0055413D01*
X0293652Y0055273D01*
X0293648Y0055132D01*
X0293640Y0054991D01*
X0293628Y0054851D01*
X0293612Y0054711D01*
X0293592Y0054571D01*
X0293568Y0054432D01*
X0293541Y0054294D01*
X0293509Y0054157D01*
X0293474Y0054021D01*
X0293435Y0053885D01*
X0293392Y0053751D01*
X0293345Y0053618D01*
X0293295Y0053487D01*
X0293240Y0053357D01*
X0293183Y0053228D01*
X0293121Y0053101D01*
X0293056Y0052976D01*
X0292988Y0052853D01*
X0292916Y0052732D01*
X0292841Y0052613D01*
X0292762Y0052496D01*
X0292680Y0052381D01*
X0292595Y0052269D01*
X0292507Y0052159D01*
X0292416Y0052052D01*
X0292322Y0051947D01*
X0292225Y0051845D01*
X0292125Y0051746D01*
X0292022Y0051649D01*
X0291917Y0051556D01*
X0291809Y0051465D01*
X0291698Y0051378D01*
X0291585Y0051294D01*
X0291470Y0051213D01*
X0291353Y0051135D01*
X0291233Y0051061D01*
X0291111Y0050990D01*
X0290988Y0050922D01*
X0290862Y0050858D01*
X0290735Y0050798D01*
X0290606Y0050741D01*
X0290476Y0050687D01*
X0290344Y0050638D01*
X0290210Y0050592D01*
X0290076Y0050550D01*
X0289940Y0050512D01*
X0289804Y0050477D01*
X0289666Y0050447D01*
X0289528Y0050420D01*
X0289389Y0050398D01*
X0289249Y0050379D01*
X0289109Y0050364D01*
X0288969Y0050353D01*
X0288828Y0050346D01*
X0288687Y0050343D01*
X0288546Y0050344D01*
X0288406Y0050349D01*
X0288265Y0050358D01*
X0288125Y0050371D01*
X0287985Y0050388D01*
X0287845Y0050408D01*
X0287707Y0050433D01*
X0287569Y0050462D01*
X0287432Y0050494D01*
X0287296Y0050530D01*
X0287161Y0050571D01*
X0287027Y0050615D01*
X0286894Y0050662D01*
X0286763Y0050714D01*
X0286633Y0050769D01*
X0286505Y0050827D01*
X0286379Y0050890D01*
X0286254Y0050955D01*
X0286132Y0051025D01*
X0286011Y0051097D01*
X0285892Y0051173D01*
X0285776Y0051253D01*
X0285662Y0051336D01*
X0285550Y0051421D01*
X0285441Y0051510D01*
X0285334Y0051602D01*
X0285230Y0051697D01*
X0285129Y0051795D01*
X0285030Y0051896D01*
X0284935Y0051999D01*
X0284842Y0052105D01*
X0284752Y0052214D01*
X0284666Y0052325D01*
X0284582Y0052438D01*
X0284502Y0052554D01*
X0284425Y0052672D01*
X0284352Y0052792D01*
X0284281Y0052915D01*
X0284215Y0053039D01*
X0284152Y0053165D01*
X0284092Y0053292D01*
X0284036Y0053421D01*
X0283984Y0053552D01*
X0283935Y0053684D01*
X0283890Y0053818D01*
X0283849Y0053953D01*
X0283812Y0054089D01*
X0283778Y0054225D01*
X0283749Y0054363D01*
X0283723Y0054502D01*
X0283702Y0054641D01*
X0283684Y0054781D01*
X0283670Y0054921D01*
X0283660Y0055061D01*
X0283654Y0055202D01*
X0283652Y0055343D01*
X0246329Y0057174D02*
X0246329Y0062174D01*
X0243829Y0064674D01*
X0238829Y0064674D01*
X0236329Y0062174D01*
X0233829Y0064674D01*
X0228829Y0064674D01*
X0226329Y0062174D01*
X0223829Y0064674D01*
X0218829Y0064674D01*
X0216329Y0062174D01*
X0216329Y0057174D01*
X0218829Y0054674D01*
X0223829Y0054674D01*
X0226329Y0057174D01*
X0228829Y0054674D01*
X0233829Y0054674D01*
X0236329Y0057174D01*
X0238829Y0054674D01*
X0243829Y0054674D01*
X0246329Y0057174D01*
X0243829Y0071603D02*
X0238829Y0071603D01*
X0236329Y0074103D01*
X0233829Y0071603D01*
X0228829Y0071603D01*
X0226329Y0074103D01*
X0223829Y0071603D01*
X0218829Y0071603D01*
X0216329Y0074103D01*
X0216329Y0079103D01*
X0218829Y0081603D01*
X0223829Y0081603D01*
X0226329Y0079103D01*
X0228829Y0081603D01*
X0233829Y0081603D01*
X0236329Y0079103D01*
X0238829Y0081603D01*
X0243829Y0081603D01*
X0246329Y0079103D01*
X0246329Y0074103D01*
X0243829Y0071603D01*
X0204006Y0064083D02*
X0192982Y0064083D01*
X0192982Y0081013D01*
X0204006Y0081013D01*
X0204006Y0064083D01*
X0151211Y0100816D02*
X0151211Y0102627D01*
X0149990Y0101706D01*
X0151211Y0102627D02*
X0151211Y0104438D01*
X0149990Y0103487D02*
X0151150Y0102727D01*
X0131053Y0103547D02*
X0129833Y0102627D01*
X0129833Y0100816D01*
X0131053Y0101767D02*
X0129893Y0102527D01*
X0129833Y0102627D02*
X0129833Y0104438D01*
X0093573Y0119517D02*
X0093573Y0125028D01*
X0088455Y0125028D01*
X0088455Y0119517D01*
X0088455Y0125028D02*
X0088455Y0126603D01*
X0093573Y0126603D02*
X0093573Y0125028D01*
X0066211Y0084635D02*
X0072510Y0079517D01*
X0072510Y0074339D01*
X0072510Y0068946D02*
X0072510Y0063769D01*
X0066211Y0058650D01*
X0046526Y0058650D01*
X0046526Y0068946D01*
X0046526Y0074339D02*
X0046526Y0084635D01*
X0066211Y0084635D01*
X0071723Y0074340D02*
X0071657Y0074636D01*
X0071584Y0074932D01*
X0071505Y0075225D01*
X0071418Y0075516D01*
X0071323Y0075805D01*
X0071222Y0076092D01*
X0071114Y0076376D01*
X0070999Y0076658D01*
X0070877Y0076936D01*
X0070749Y0077212D01*
X0070613Y0077484D01*
X0070471Y0077753D01*
X0070323Y0078018D01*
X0070168Y0078280D01*
X0070007Y0078537D01*
X0069840Y0078791D01*
X0069666Y0079041D01*
X0069487Y0079286D01*
X0069301Y0079527D01*
X0069110Y0079763D01*
X0068913Y0079995D01*
X0068710Y0080221D01*
X0068502Y0080443D01*
X0068289Y0080660D01*
X0068070Y0080871D01*
X0067846Y0081077D01*
X0067618Y0081277D01*
X0067384Y0081472D01*
X0067146Y0081661D01*
X0066903Y0081844D01*
X0066656Y0082021D01*
X0066405Y0082192D01*
X0066149Y0082357D01*
X0065890Y0082515D01*
X0065627Y0082668D01*
X0065360Y0082813D01*
X0065090Y0082952D01*
X0064816Y0083085D01*
X0064540Y0083211D01*
X0064260Y0083330D01*
X0063977Y0083442D01*
X0063692Y0083547D01*
X0063404Y0083646D01*
X0063114Y0083737D01*
X0062822Y0083821D01*
X0062528Y0083898D01*
X0062232Y0083968D01*
X0061935Y0084030D01*
X0061636Y0084086D01*
X0061336Y0084134D01*
X0061034Y0084174D01*
X0060732Y0084208D01*
X0060429Y0084234D01*
X0060126Y0084252D01*
X0059822Y0084263D01*
X0059518Y0084267D01*
X0059214Y0084263D01*
X0058910Y0084252D01*
X0058607Y0084234D01*
X0058304Y0084208D01*
X0058002Y0084174D01*
X0057700Y0084134D01*
X0057400Y0084086D01*
X0057101Y0084030D01*
X0056804Y0083968D01*
X0056508Y0083898D01*
X0056214Y0083821D01*
X0055922Y0083737D01*
X0055632Y0083646D01*
X0055344Y0083547D01*
X0055059Y0083442D01*
X0054776Y0083330D01*
X0054496Y0083211D01*
X0054220Y0083085D01*
X0053946Y0082952D01*
X0053676Y0082813D01*
X0053409Y0082668D01*
X0053146Y0082515D01*
X0052887Y0082357D01*
X0052631Y0082192D01*
X0052380Y0082021D01*
X0052133Y0081844D01*
X0051890Y0081661D01*
X0051652Y0081472D01*
X0051418Y0081277D01*
X0051190Y0081077D01*
X0050966Y0080871D01*
X0050747Y0080660D01*
X0050534Y0080443D01*
X0050326Y0080221D01*
X0050123Y0079995D01*
X0049926Y0079763D01*
X0049735Y0079527D01*
X0049549Y0079286D01*
X0049370Y0079041D01*
X0049196Y0078791D01*
X0049029Y0078537D01*
X0048868Y0078280D01*
X0048713Y0078018D01*
X0048565Y0077753D01*
X0048423Y0077484D01*
X0048287Y0077212D01*
X0048159Y0076936D01*
X0048037Y0076658D01*
X0047922Y0076376D01*
X0047814Y0076092D01*
X0047713Y0075805D01*
X0047618Y0075516D01*
X0047531Y0075225D01*
X0047452Y0074932D01*
X0047379Y0074636D01*
X0047313Y0074340D01*
X0047313Y0068946D02*
X0047384Y0068650D01*
X0047461Y0068356D01*
X0047545Y0068063D01*
X0047637Y0067773D01*
X0047735Y0067485D01*
X0047841Y0067200D01*
X0047953Y0066917D01*
X0048073Y0066637D01*
X0048199Y0066360D01*
X0048332Y0066086D01*
X0048471Y0065816D01*
X0048617Y0065549D01*
X0048769Y0065285D01*
X0048928Y0065026D01*
X0049093Y0064770D01*
X0049264Y0064518D01*
X0049442Y0064271D01*
X0049625Y0064028D01*
X0049814Y0063790D01*
X0050009Y0063556D01*
X0050209Y0063327D01*
X0050415Y0063103D01*
X0050627Y0062884D01*
X0050843Y0062670D01*
X0051065Y0062462D01*
X0051292Y0062259D01*
X0051523Y0062062D01*
X0051760Y0061870D01*
X0052001Y0061684D01*
X0052246Y0061504D01*
X0052496Y0061330D01*
X0052750Y0061163D01*
X0053008Y0061001D01*
X0053269Y0060846D01*
X0053535Y0060697D01*
X0053804Y0060555D01*
X0054076Y0060419D01*
X0054352Y0060290D01*
X0054630Y0060168D01*
X0054912Y0060052D01*
X0055196Y0059943D01*
X0055483Y0059842D01*
X0055772Y0059747D01*
X0056064Y0059659D01*
X0056357Y0059579D01*
X0056653Y0059506D01*
X0056950Y0059440D01*
X0057248Y0059381D01*
X0057548Y0059329D01*
X0057849Y0059285D01*
X0058151Y0059248D01*
X0058454Y0059218D01*
X0058758Y0059196D01*
X0059062Y0059181D01*
X0059366Y0059174D01*
X0059670Y0059174D01*
X0059974Y0059181D01*
X0060278Y0059196D01*
X0060582Y0059218D01*
X0060885Y0059248D01*
X0061187Y0059285D01*
X0061488Y0059329D01*
X0061788Y0059381D01*
X0062086Y0059440D01*
X0062383Y0059506D01*
X0062679Y0059579D01*
X0062972Y0059659D01*
X0063264Y0059747D01*
X0063553Y0059842D01*
X0063840Y0059943D01*
X0064124Y0060052D01*
X0064406Y0060168D01*
X0064684Y0060290D01*
X0064960Y0060419D01*
X0065232Y0060555D01*
X0065501Y0060697D01*
X0065767Y0060846D01*
X0066028Y0061001D01*
X0066286Y0061163D01*
X0066540Y0061330D01*
X0066790Y0061504D01*
X0067035Y0061684D01*
X0067276Y0061870D01*
X0067513Y0062062D01*
X0067744Y0062259D01*
X0067971Y0062462D01*
X0068193Y0062670D01*
X0068409Y0062884D01*
X0068621Y0063103D01*
X0068827Y0063327D01*
X0069027Y0063556D01*
X0069222Y0063790D01*
X0069411Y0064028D01*
X0069594Y0064271D01*
X0069772Y0064518D01*
X0069943Y0064770D01*
X0070108Y0065026D01*
X0070267Y0065285D01*
X0070419Y0065549D01*
X0070565Y0065816D01*
X0070704Y0066086D01*
X0070837Y0066360D01*
X0070963Y0066637D01*
X0071083Y0066917D01*
X0071195Y0067200D01*
X0071301Y0067485D01*
X0071399Y0067773D01*
X0071491Y0068063D01*
X0071575Y0068356D01*
X0071652Y0068650D01*
X0071723Y0068946D01*
X0073652Y0050698D02*
X0067352Y0050698D01*
X0059478Y0050698D02*
X0051604Y0050698D01*
X0051604Y0041249D01*
X0059478Y0041249D01*
X0058848Y0035737D02*
X0050974Y0035737D01*
X0050974Y0026288D01*
X0058848Y0026288D01*
X0066722Y0026288D02*
X0073022Y0026288D01*
X0074596Y0027863D01*
X0074596Y0034162D01*
X0073022Y0035737D01*
X0066722Y0035737D01*
X0067352Y0041249D02*
X0073652Y0041249D01*
X0075226Y0042824D01*
X0075226Y0049123D01*
X0073652Y0050698D01*
X0255902Y0196524D02*
X0256662Y0197684D01*
X0256762Y0197745D02*
X0257682Y0196524D01*
X0258573Y0197745D02*
X0256762Y0197745D01*
X0254951Y0197745D01*
X0269911Y0197351D02*
X0271722Y0197351D01*
X0272643Y0196131D01*
X0273533Y0197351D02*
X0271722Y0197351D01*
X0271622Y0197291D02*
X0270863Y0196131D01*
X0272667Y0215422D02*
X0260541Y0215422D01*
X0256604Y0220540D02*
X0256604Y0230422D01*
X0260541Y0235422D02*
X0272667Y0235422D01*
X0276604Y0230304D02*
X0276604Y0220540D01*
X0261604Y0225422D02*
X0261606Y0225563D01*
X0261612Y0225704D01*
X0261622Y0225844D01*
X0261636Y0225984D01*
X0261654Y0226124D01*
X0261675Y0226263D01*
X0261701Y0226402D01*
X0261730Y0226540D01*
X0261764Y0226676D01*
X0261801Y0226812D01*
X0261842Y0226947D01*
X0261887Y0227081D01*
X0261936Y0227213D01*
X0261988Y0227344D01*
X0262044Y0227473D01*
X0262104Y0227600D01*
X0262167Y0227726D01*
X0262233Y0227850D01*
X0262304Y0227973D01*
X0262377Y0228093D01*
X0262454Y0228211D01*
X0262534Y0228327D01*
X0262618Y0228440D01*
X0262704Y0228551D01*
X0262794Y0228660D01*
X0262887Y0228766D01*
X0262982Y0228869D01*
X0263081Y0228970D01*
X0263182Y0229068D01*
X0263286Y0229163D01*
X0263393Y0229255D01*
X0263502Y0229344D01*
X0263614Y0229429D01*
X0263728Y0229512D01*
X0263844Y0229592D01*
X0263963Y0229668D01*
X0264084Y0229740D01*
X0264206Y0229810D01*
X0264331Y0229875D01*
X0264457Y0229938D01*
X0264585Y0229996D01*
X0264715Y0230051D01*
X0264846Y0230103D01*
X0264979Y0230150D01*
X0265113Y0230194D01*
X0265248Y0230235D01*
X0265384Y0230271D01*
X0265521Y0230303D01*
X0265659Y0230332D01*
X0265797Y0230357D01*
X0265937Y0230377D01*
X0266077Y0230394D01*
X0266217Y0230407D01*
X0266358Y0230416D01*
X0266498Y0230421D01*
X0266639Y0230422D01*
X0266780Y0230419D01*
X0266921Y0230412D01*
X0267061Y0230401D01*
X0267201Y0230386D01*
X0267341Y0230367D01*
X0267480Y0230345D01*
X0267618Y0230318D01*
X0267756Y0230288D01*
X0267892Y0230253D01*
X0268028Y0230215D01*
X0268162Y0230173D01*
X0268296Y0230127D01*
X0268428Y0230078D01*
X0268558Y0230024D01*
X0268687Y0229967D01*
X0268814Y0229907D01*
X0268940Y0229843D01*
X0269063Y0229775D01*
X0269185Y0229704D01*
X0269305Y0229630D01*
X0269422Y0229552D01*
X0269537Y0229471D01*
X0269650Y0229387D01*
X0269761Y0229300D01*
X0269869Y0229209D01*
X0269974Y0229116D01*
X0270077Y0229019D01*
X0270177Y0228920D01*
X0270274Y0228818D01*
X0270368Y0228713D01*
X0270459Y0228606D01*
X0270547Y0228496D01*
X0270632Y0228384D01*
X0270714Y0228269D01*
X0270793Y0228152D01*
X0270868Y0228033D01*
X0270940Y0227912D01*
X0271008Y0227789D01*
X0271073Y0227664D01*
X0271135Y0227537D01*
X0271192Y0227408D01*
X0271247Y0227278D01*
X0271297Y0227147D01*
X0271344Y0227014D01*
X0271387Y0226880D01*
X0271426Y0226744D01*
X0271461Y0226608D01*
X0271493Y0226471D01*
X0271520Y0226333D01*
X0271544Y0226194D01*
X0271564Y0226054D01*
X0271580Y0225914D01*
X0271592Y0225774D01*
X0271600Y0225633D01*
X0271604Y0225492D01*
X0271604Y0225352D01*
X0271600Y0225211D01*
X0271592Y0225070D01*
X0271580Y0224930D01*
X0271564Y0224790D01*
X0271544Y0224650D01*
X0271520Y0224511D01*
X0271493Y0224373D01*
X0271461Y0224236D01*
X0271426Y0224100D01*
X0271387Y0223964D01*
X0271344Y0223830D01*
X0271297Y0223697D01*
X0271247Y0223566D01*
X0271192Y0223436D01*
X0271135Y0223307D01*
X0271073Y0223180D01*
X0271008Y0223055D01*
X0270940Y0222932D01*
X0270868Y0222811D01*
X0270793Y0222692D01*
X0270714Y0222575D01*
X0270632Y0222460D01*
X0270547Y0222348D01*
X0270459Y0222238D01*
X0270368Y0222131D01*
X0270274Y0222026D01*
X0270177Y0221924D01*
X0270077Y0221825D01*
X0269974Y0221728D01*
X0269869Y0221635D01*
X0269761Y0221544D01*
X0269650Y0221457D01*
X0269537Y0221373D01*
X0269422Y0221292D01*
X0269305Y0221214D01*
X0269185Y0221140D01*
X0269063Y0221069D01*
X0268940Y0221001D01*
X0268814Y0220937D01*
X0268687Y0220877D01*
X0268558Y0220820D01*
X0268428Y0220766D01*
X0268296Y0220717D01*
X0268162Y0220671D01*
X0268028Y0220629D01*
X0267892Y0220591D01*
X0267756Y0220556D01*
X0267618Y0220526D01*
X0267480Y0220499D01*
X0267341Y0220477D01*
X0267201Y0220458D01*
X0267061Y0220443D01*
X0266921Y0220432D01*
X0266780Y0220425D01*
X0266639Y0220422D01*
X0266498Y0220423D01*
X0266358Y0220428D01*
X0266217Y0220437D01*
X0266077Y0220450D01*
X0265937Y0220467D01*
X0265797Y0220487D01*
X0265659Y0220512D01*
X0265521Y0220541D01*
X0265384Y0220573D01*
X0265248Y0220609D01*
X0265113Y0220650D01*
X0264979Y0220694D01*
X0264846Y0220741D01*
X0264715Y0220793D01*
X0264585Y0220848D01*
X0264457Y0220906D01*
X0264331Y0220969D01*
X0264206Y0221034D01*
X0264084Y0221104D01*
X0263963Y0221176D01*
X0263844Y0221252D01*
X0263728Y0221332D01*
X0263614Y0221415D01*
X0263502Y0221500D01*
X0263393Y0221589D01*
X0263286Y0221681D01*
X0263182Y0221776D01*
X0263081Y0221874D01*
X0262982Y0221975D01*
X0262887Y0222078D01*
X0262794Y0222184D01*
X0262704Y0222293D01*
X0262618Y0222404D01*
X0262534Y0222517D01*
X0262454Y0222633D01*
X0262377Y0222751D01*
X0262304Y0222871D01*
X0262233Y0222994D01*
X0262167Y0223118D01*
X0262104Y0223244D01*
X0262044Y0223371D01*
X0261988Y0223500D01*
X0261936Y0223631D01*
X0261887Y0223763D01*
X0261842Y0223897D01*
X0261801Y0224032D01*
X0261764Y0224168D01*
X0261730Y0224304D01*
X0261701Y0224442D01*
X0261675Y0224581D01*
X0261654Y0224720D01*
X0261636Y0224860D01*
X0261622Y0225000D01*
X0261612Y0225140D01*
X0261606Y0225281D01*
X0261604Y0225422D01*
X0225738Y0265580D02*
X0225738Y0300619D01*
X0205266Y0300619D01*
X0205266Y0265580D01*
X0225738Y0265580D01*
X0308737Y0333262D02*
X0314875Y0339401D01*
X0314875Y0333262D01*
X0313341Y0331728D01*
X0310271Y0331728D01*
X0308737Y0333262D01*
X0308737Y0339401D01*
X0310271Y0340935D01*
X0313341Y0340935D01*
X0314875Y0339401D01*
X0317944Y0333262D02*
X0319479Y0333262D01*
X0319479Y0331728D01*
X0317944Y0331728D01*
X0317944Y0333262D01*
X0322548Y0333262D02*
X0324083Y0331728D01*
X0327152Y0331728D01*
X0328687Y0333262D01*
X0328687Y0339401D01*
X0327152Y0340935D01*
X0324083Y0340935D01*
X0322548Y0339401D01*
X0322548Y0337866D01*
X0324083Y0336331D01*
X0328687Y0336331D01*
X0331756Y0336331D02*
X0331756Y0333262D01*
X0333291Y0331728D01*
X0336360Y0331728D01*
X0337895Y0333262D01*
X0337895Y0334797D01*
X0336360Y0336331D01*
X0331756Y0336331D01*
X0334826Y0339401D01*
X0337895Y0340935D01*
X0340964Y0337866D02*
X0342499Y0339401D01*
X0342499Y0342470D01*
X0345568Y0342470D02*
X0345568Y0339401D01*
X0344033Y0337866D01*
X0357845Y0340935D02*
X0357845Y0331728D01*
X0362449Y0331728D01*
X0363984Y0333262D01*
X0363984Y0339401D01*
X0362449Y0340935D01*
X0357845Y0340935D01*
X0367053Y0337866D02*
X0368588Y0337866D01*
X0368588Y0331728D01*
X0370122Y0331728D02*
X0367053Y0331728D01*
X0373192Y0331728D02*
X0377796Y0331728D01*
X0379330Y0333262D01*
X0377796Y0334797D01*
X0374726Y0334797D01*
X0373192Y0336331D01*
X0374726Y0337866D01*
X0379330Y0337866D01*
X0382399Y0337866D02*
X0387003Y0337866D01*
X0388538Y0336331D01*
X0388538Y0333262D01*
X0387003Y0331728D01*
X0382399Y0331728D01*
X0382399Y0328658D02*
X0382399Y0337866D01*
X0391607Y0340935D02*
X0393142Y0340935D01*
X0393142Y0331728D01*
X0391607Y0331728D02*
X0394677Y0331728D01*
X0397746Y0333262D02*
X0399281Y0334797D01*
X0403884Y0334797D01*
X0403884Y0336331D02*
X0403884Y0331728D01*
X0399281Y0331728D01*
X0397746Y0333262D01*
X0399281Y0337866D02*
X0402350Y0337866D01*
X0403884Y0336331D01*
X0406954Y0337866D02*
X0406954Y0333262D01*
X0408488Y0331728D01*
X0413092Y0331728D01*
X0413092Y0330193D02*
X0411558Y0328658D01*
X0410023Y0328658D01*
X0413092Y0330193D02*
X0413092Y0337866D01*
X0368588Y0340935D02*
X0368588Y0342470D01*
X0304006Y0167942D02*
X0269360Y0167942D01*
X0267785Y0166367D01*
X0267785Y0131721D01*
X0269360Y0130146D01*
X0304006Y0130146D01*
X0305581Y0131721D01*
X0305581Y0166367D01*
X0304006Y0167942D01*
D13*
X0209104Y0297076D03*
D14*
X0209185Y0302299D02*
X0210719Y0302299D01*
X0211487Y0303067D01*
X0213021Y0302299D02*
X0216091Y0302299D01*
X0214556Y0302299D02*
X0214556Y0306903D01*
X0213021Y0305368D01*
X0211487Y0306136D02*
X0210719Y0306903D01*
X0209185Y0306903D01*
X0208417Y0306136D01*
X0208417Y0303067D01*
X0209185Y0302299D01*
X0206883Y0302299D02*
X0205348Y0302299D01*
X0206115Y0302299D02*
X0206115Y0306903D01*
X0205348Y0306903D02*
X0206883Y0306903D01*
X0185609Y0319896D02*
X0185092Y0319379D01*
X0183024Y0319379D01*
X0182506Y0319896D01*
X0182506Y0320930D01*
X0183024Y0321447D01*
X0183024Y0322602D02*
X0182506Y0323119D01*
X0182506Y0324153D01*
X0183024Y0324670D01*
X0183541Y0324670D01*
X0185609Y0322602D01*
X0185609Y0324670D01*
X0185092Y0325824D02*
X0185609Y0326342D01*
X0185609Y0327376D01*
X0185092Y0327893D01*
X0184575Y0327893D01*
X0184058Y0327376D01*
X0184058Y0326859D01*
X0184058Y0327376D02*
X0183541Y0327893D01*
X0183024Y0327893D01*
X0182506Y0327376D01*
X0182506Y0326342D01*
X0183024Y0325824D01*
X0185092Y0321447D02*
X0185609Y0320930D01*
X0185609Y0319896D01*
X0238458Y0362630D02*
X0238458Y0365699D01*
X0239993Y0367234D01*
X0241527Y0365699D01*
X0241527Y0362630D01*
X0243062Y0362630D02*
X0244596Y0362630D01*
X0243829Y0362630D02*
X0243829Y0367234D01*
X0243062Y0367234D02*
X0244596Y0367234D01*
X0246131Y0367234D02*
X0246131Y0362630D01*
X0246131Y0364165D02*
X0248433Y0364165D01*
X0249200Y0364932D01*
X0249200Y0366467D01*
X0248433Y0367234D01*
X0246131Y0367234D01*
X0247666Y0364165D02*
X0249200Y0362630D01*
X0250735Y0364932D02*
X0253804Y0364932D01*
X0255339Y0367234D02*
X0255339Y0362630D01*
X0258408Y0362630D01*
X0259943Y0362630D02*
X0263012Y0362630D01*
X0264547Y0362630D02*
X0264547Y0365699D01*
X0266081Y0367234D01*
X0267616Y0365699D01*
X0267616Y0362630D01*
X0269151Y0362630D02*
X0269151Y0367234D01*
X0269918Y0364932D02*
X0272220Y0362630D01*
X0269151Y0364165D02*
X0272220Y0367234D01*
X0267616Y0364932D02*
X0264547Y0364932D01*
X0263012Y0367234D02*
X0259943Y0367234D01*
X0259943Y0362630D01*
X0259943Y0364932D02*
X0261477Y0364932D01*
X0241527Y0364932D02*
X0238458Y0364932D01*
X0250448Y0327237D02*
X0249931Y0326719D01*
X0249931Y0324651D01*
X0250448Y0324134D01*
X0251483Y0324134D01*
X0252000Y0324651D01*
X0253154Y0324134D02*
X0255223Y0326202D01*
X0255223Y0326719D01*
X0254705Y0327237D01*
X0253671Y0327237D01*
X0253154Y0326719D01*
X0252000Y0326719D02*
X0251483Y0327237D01*
X0250448Y0327237D01*
X0253154Y0324134D02*
X0255223Y0324134D01*
X0256377Y0325685D02*
X0258445Y0325685D01*
X0257928Y0324134D02*
X0257928Y0327237D01*
X0256377Y0325685D01*
X0216652Y0240492D02*
X0215100Y0238941D01*
X0217169Y0238941D01*
X0216652Y0237390D02*
X0216652Y0240492D01*
X0213946Y0239975D02*
X0213946Y0239458D01*
X0213429Y0238941D01*
X0213946Y0238424D01*
X0213946Y0237907D01*
X0213429Y0237390D01*
X0212395Y0237390D01*
X0211877Y0237907D01*
X0210723Y0237907D02*
X0210206Y0237390D01*
X0209172Y0237390D01*
X0208655Y0237907D01*
X0208655Y0239975D01*
X0209172Y0240492D01*
X0210206Y0240492D01*
X0210723Y0239975D01*
X0211877Y0239975D02*
X0212395Y0240492D01*
X0213429Y0240492D01*
X0213946Y0239975D01*
X0213429Y0238941D02*
X0212912Y0238941D01*
X0233030Y0228225D02*
X0233030Y0227191D01*
X0233547Y0226674D01*
X0233547Y0225520D02*
X0233030Y0225002D01*
X0233030Y0223968D01*
X0233547Y0223451D01*
X0233547Y0222297D02*
X0233030Y0221780D01*
X0233030Y0220745D01*
X0233547Y0220228D01*
X0235616Y0220228D01*
X0236133Y0220745D01*
X0236133Y0221780D01*
X0235616Y0222297D01*
X0236133Y0223451D02*
X0234064Y0225520D01*
X0233547Y0225520D01*
X0236133Y0225520D02*
X0236133Y0223451D01*
X0236133Y0226674D02*
X0234064Y0228742D01*
X0233547Y0228742D01*
X0233030Y0228225D01*
X0236133Y0228742D02*
X0236133Y0226674D01*
X0212117Y0201183D02*
X0212117Y0199115D01*
X0212117Y0200149D02*
X0209014Y0200149D01*
X0210048Y0199115D01*
X0210048Y0197960D02*
X0210566Y0197443D01*
X0211083Y0197960D01*
X0211600Y0197960D01*
X0212117Y0197443D01*
X0212117Y0196409D01*
X0211600Y0195892D01*
X0211600Y0194738D02*
X0212117Y0194221D01*
X0212117Y0193186D01*
X0211600Y0192669D01*
X0209531Y0192669D01*
X0209014Y0193186D01*
X0209014Y0194221D01*
X0209531Y0194738D01*
X0209531Y0195892D02*
X0209014Y0196409D01*
X0209014Y0197443D01*
X0209531Y0197960D01*
X0210048Y0197960D01*
X0210566Y0197443D02*
X0210566Y0196926D01*
X0196639Y0168506D02*
X0197156Y0167989D01*
X0197156Y0166955D01*
X0196639Y0166438D01*
X0196639Y0165283D02*
X0197156Y0164766D01*
X0197156Y0163732D01*
X0196639Y0163215D01*
X0196639Y0162061D02*
X0197156Y0161543D01*
X0197156Y0160509D01*
X0196639Y0159992D01*
X0194571Y0159992D01*
X0194054Y0160509D01*
X0194054Y0161543D01*
X0194571Y0162061D01*
X0194571Y0163215D02*
X0194054Y0163732D01*
X0194054Y0164766D01*
X0194571Y0165283D01*
X0195088Y0165283D01*
X0195605Y0164766D01*
X0196122Y0165283D01*
X0196639Y0165283D01*
X0195605Y0164766D02*
X0195605Y0164249D01*
X0194571Y0166438D02*
X0194054Y0166955D01*
X0194054Y0167989D01*
X0194571Y0168506D01*
X0195088Y0168506D01*
X0195605Y0167989D01*
X0196122Y0168506D01*
X0196639Y0168506D01*
X0195605Y0167989D02*
X0195605Y0167472D01*
X0189940Y0166769D02*
X0187871Y0168838D01*
X0187354Y0168838D01*
X0186837Y0168321D01*
X0186837Y0167286D01*
X0187354Y0166769D01*
X0187354Y0165615D02*
X0187871Y0165615D01*
X0188388Y0165098D01*
X0188906Y0165615D01*
X0189423Y0165615D01*
X0189940Y0165098D01*
X0189940Y0164064D01*
X0189423Y0163547D01*
X0189423Y0162392D02*
X0189940Y0161875D01*
X0189940Y0160841D01*
X0189423Y0160324D01*
X0187354Y0160324D01*
X0186837Y0160841D01*
X0186837Y0161875D01*
X0187354Y0162392D01*
X0187354Y0163547D02*
X0186837Y0164064D01*
X0186837Y0165098D01*
X0187354Y0165615D01*
X0188388Y0165098D02*
X0188388Y0164581D01*
X0189940Y0166769D02*
X0189940Y0168838D01*
X0146241Y0201029D02*
X0145723Y0200512D01*
X0144689Y0200512D01*
X0144172Y0201029D01*
X0144172Y0202063D02*
X0145206Y0202580D01*
X0145723Y0202580D01*
X0146241Y0202063D01*
X0146241Y0201029D01*
X0144172Y0202063D02*
X0144172Y0203614D01*
X0146241Y0203614D01*
X0143018Y0203097D02*
X0143018Y0202580D01*
X0142501Y0202063D01*
X0143018Y0201546D01*
X0143018Y0201029D01*
X0142501Y0200512D01*
X0141466Y0200512D01*
X0140949Y0201029D01*
X0139795Y0201029D02*
X0139278Y0200512D01*
X0138244Y0200512D01*
X0137727Y0201029D01*
X0137727Y0203097D01*
X0138244Y0203614D01*
X0139278Y0203614D01*
X0139795Y0203097D01*
X0140949Y0203097D02*
X0141466Y0203614D01*
X0142501Y0203614D01*
X0143018Y0203097D01*
X0142501Y0202063D02*
X0141984Y0202063D01*
X0146829Y0246783D02*
X0147864Y0246783D01*
X0148381Y0247301D01*
X0148381Y0249886D01*
X0149535Y0249369D02*
X0150052Y0249886D01*
X0151086Y0249886D01*
X0151603Y0249369D01*
X0151603Y0248852D01*
X0149535Y0246783D01*
X0151603Y0246783D01*
X0146829Y0246783D02*
X0146312Y0247301D01*
X0146312Y0249886D01*
X0101421Y0260742D02*
X0100904Y0260224D01*
X0099869Y0260224D01*
X0099352Y0260742D01*
X0101421Y0262810D01*
X0101421Y0260742D01*
X0101421Y0262810D02*
X0100904Y0263327D01*
X0099869Y0263327D01*
X0099352Y0262810D01*
X0099352Y0260742D01*
X0098198Y0260742D02*
X0097681Y0260224D01*
X0096647Y0260224D01*
X0096129Y0260742D01*
X0094975Y0260742D02*
X0094458Y0260224D01*
X0093424Y0260224D01*
X0092907Y0260742D01*
X0092907Y0262810D01*
X0093424Y0263327D01*
X0094458Y0263327D01*
X0094975Y0262810D01*
X0096129Y0262810D02*
X0096647Y0263327D01*
X0097681Y0263327D01*
X0098198Y0262810D01*
X0098198Y0262293D01*
X0097681Y0261776D01*
X0098198Y0261259D01*
X0098198Y0260742D01*
X0097681Y0261776D02*
X0097164Y0261776D01*
X0037824Y0275225D02*
X0035755Y0275225D01*
X0037307Y0276776D01*
X0037307Y0273673D01*
X0034601Y0274190D02*
X0034084Y0273673D01*
X0033050Y0273673D01*
X0032533Y0274190D01*
X0032533Y0276776D01*
X0034601Y0276776D02*
X0034601Y0274190D01*
X0050925Y0178925D02*
X0050408Y0178408D01*
X0050408Y0177374D01*
X0050925Y0176857D01*
X0050408Y0175702D02*
X0052994Y0175702D01*
X0053511Y0175185D01*
X0053511Y0174151D01*
X0052994Y0173634D01*
X0050408Y0173634D01*
X0052994Y0176857D02*
X0053511Y0177374D01*
X0053511Y0178408D01*
X0052994Y0178925D01*
X0052476Y0178925D01*
X0051959Y0178408D01*
X0051959Y0177891D01*
X0051959Y0178408D02*
X0051442Y0178925D01*
X0050925Y0178925D01*
X0108666Y0121995D02*
X0108666Y0119927D01*
X0109183Y0119409D01*
X0110217Y0119409D01*
X0110734Y0119927D01*
X0111889Y0119927D02*
X0112406Y0119409D01*
X0113440Y0119409D01*
X0113957Y0119927D01*
X0113957Y0120444D01*
X0113440Y0120961D01*
X0111889Y0120961D01*
X0111889Y0119927D01*
X0111889Y0120961D02*
X0112923Y0121995D01*
X0113957Y0122512D01*
X0110734Y0121995D02*
X0110217Y0122512D01*
X0109183Y0122512D01*
X0108666Y0121995D01*
X0109477Y0110167D02*
X0108710Y0109400D01*
X0109477Y0110167D02*
X0111012Y0110167D01*
X0111779Y0109400D01*
X0111779Y0108632D01*
X0108710Y0105563D01*
X0111779Y0105563D01*
X0107175Y0106330D02*
X0106408Y0105563D01*
X0104873Y0105563D01*
X0104106Y0106330D01*
X0104106Y0109400D01*
X0104873Y0110167D01*
X0106408Y0110167D01*
X0107175Y0109400D01*
X0102571Y0110167D02*
X0101037Y0110167D01*
X0101804Y0110167D02*
X0101804Y0105563D01*
X0101037Y0105563D02*
X0102571Y0105563D01*
X0086526Y0097467D02*
X0086009Y0097467D01*
X0083941Y0099535D01*
X0083424Y0099535D01*
X0083424Y0097467D01*
X0083941Y0096313D02*
X0083424Y0095795D01*
X0083424Y0094761D01*
X0083941Y0094244D01*
X0086009Y0094244D01*
X0086526Y0094761D01*
X0086526Y0095795D01*
X0086009Y0096313D01*
X0106304Y0076719D02*
X0106304Y0074651D01*
X0106821Y0074134D01*
X0107855Y0074134D01*
X0108372Y0074651D01*
X0109526Y0074651D02*
X0110044Y0074134D01*
X0111078Y0074134D01*
X0111595Y0074651D01*
X0111595Y0075685D01*
X0111078Y0076202D01*
X0110561Y0076202D01*
X0109526Y0075685D01*
X0109526Y0077237D01*
X0111595Y0077237D01*
X0108372Y0076719D02*
X0107855Y0077237D01*
X0106821Y0077237D01*
X0106304Y0076719D01*
X0100249Y0069197D02*
X0100249Y0066094D01*
X0101283Y0066094D02*
X0099214Y0066094D01*
X0098060Y0066094D02*
X0098060Y0069197D01*
X0099214Y0068163D02*
X0100249Y0069197D01*
X0098060Y0066094D02*
X0097026Y0067129D01*
X0095992Y0066094D01*
X0095992Y0069197D01*
X0094837Y0068680D02*
X0094320Y0069197D01*
X0093286Y0069197D01*
X0092769Y0068680D01*
X0092769Y0068163D01*
X0093286Y0067646D01*
X0094320Y0067646D01*
X0094837Y0067129D01*
X0094837Y0066612D01*
X0094320Y0066094D01*
X0093286Y0066094D01*
X0092769Y0066612D01*
X0136304Y0073671D02*
X0136905Y0073071D01*
X0138106Y0073071D01*
X0138706Y0073671D01*
X0138706Y0076674D01*
X0139987Y0076073D02*
X0140588Y0076674D01*
X0141789Y0076674D01*
X0142390Y0076073D01*
X0141789Y0074872D02*
X0140588Y0074872D01*
X0139987Y0075473D01*
X0139987Y0076073D01*
X0141188Y0077274D02*
X0141188Y0072470D01*
X0140588Y0073071D02*
X0141789Y0073071D01*
X0142390Y0073671D01*
X0142390Y0074272D01*
X0141789Y0074872D01*
X0143671Y0074872D02*
X0145472Y0074872D01*
X0146073Y0074272D01*
X0146073Y0073671D01*
X0145472Y0073071D01*
X0144271Y0073071D01*
X0143671Y0073671D01*
X0143671Y0074872D01*
X0144872Y0076073D01*
X0146073Y0076674D01*
X0140588Y0073071D02*
X0139987Y0073671D01*
X0136304Y0073671D02*
X0136304Y0076674D01*
X0169365Y0081309D02*
X0169966Y0080709D01*
X0171167Y0080709D01*
X0171767Y0081309D01*
X0171767Y0084312D01*
X0173048Y0083711D02*
X0173649Y0084312D01*
X0174850Y0084312D01*
X0175450Y0083711D01*
X0174850Y0082510D02*
X0173649Y0082510D01*
X0173048Y0083111D01*
X0173048Y0083711D01*
X0174249Y0084912D02*
X0174249Y0080108D01*
X0173649Y0080709D02*
X0174850Y0080709D01*
X0175450Y0081309D01*
X0175450Y0081910D01*
X0174850Y0082510D01*
X0173649Y0080709D02*
X0173048Y0081309D01*
X0169365Y0081309D02*
X0169365Y0084312D01*
X0176731Y0084312D02*
X0179133Y0084312D01*
X0179133Y0083711D01*
X0176731Y0081309D01*
X0176731Y0080709D01*
X0187293Y0067371D02*
X0191896Y0067371D01*
X0191896Y0068905D02*
X0191896Y0065836D01*
X0188827Y0065836D02*
X0187293Y0067371D01*
X0187293Y0064302D02*
X0187293Y0061232D01*
X0187293Y0062767D02*
X0191896Y0062767D01*
X0250747Y0083344D02*
X0251264Y0082827D01*
X0253332Y0082827D01*
X0253849Y0083344D01*
X0253849Y0084378D01*
X0253332Y0084895D01*
X0253849Y0086050D02*
X0251781Y0088118D01*
X0251264Y0088118D01*
X0250747Y0087601D01*
X0250747Y0086567D01*
X0251264Y0086050D01*
X0251264Y0084895D02*
X0250747Y0084378D01*
X0250747Y0083344D01*
X0253849Y0086050D02*
X0253849Y0088118D01*
X0253849Y0089272D02*
X0253849Y0091341D01*
X0253849Y0090306D02*
X0250747Y0090306D01*
X0251781Y0089272D01*
X0262558Y0089789D02*
X0262558Y0090824D01*
X0263075Y0091341D01*
X0265143Y0089272D01*
X0265660Y0089789D01*
X0265660Y0090824D01*
X0265143Y0091341D01*
X0263075Y0091341D01*
X0262558Y0089789D02*
X0263075Y0089272D01*
X0265143Y0089272D01*
X0265660Y0088118D02*
X0265660Y0086050D01*
X0263592Y0088118D01*
X0263075Y0088118D01*
X0262558Y0087601D01*
X0262558Y0086567D01*
X0263075Y0086050D01*
X0263075Y0084895D02*
X0262558Y0084378D01*
X0262558Y0083344D01*
X0263075Y0082827D01*
X0265143Y0082827D01*
X0265660Y0083344D01*
X0265660Y0084378D01*
X0265143Y0084895D01*
X0287361Y0083591D02*
X0287361Y0082556D01*
X0287878Y0082039D01*
X0289946Y0082039D01*
X0290463Y0082556D01*
X0290463Y0083591D01*
X0289946Y0084108D01*
X0290463Y0085262D02*
X0290463Y0087331D01*
X0290463Y0086296D02*
X0287361Y0086296D01*
X0288395Y0085262D01*
X0287878Y0084108D02*
X0287361Y0083591D01*
X0287878Y0088485D02*
X0288395Y0088485D01*
X0288912Y0089002D01*
X0288912Y0090553D01*
X0289946Y0090553D02*
X0287878Y0090553D01*
X0287361Y0090036D01*
X0287361Y0089002D01*
X0287878Y0088485D01*
X0289946Y0088485D02*
X0290463Y0089002D01*
X0290463Y0090036D01*
X0289946Y0090553D01*
X0303896Y0090430D02*
X0304413Y0090947D01*
X0304930Y0090947D01*
X0305448Y0090430D01*
X0305448Y0089396D01*
X0304930Y0088879D01*
X0304413Y0088879D01*
X0303896Y0089396D01*
X0303896Y0090430D01*
X0305448Y0090430D02*
X0305965Y0090947D01*
X0306482Y0090947D01*
X0306999Y0090430D01*
X0306999Y0089396D01*
X0306482Y0088879D01*
X0305965Y0088879D01*
X0305448Y0089396D01*
X0306999Y0087724D02*
X0306999Y0085656D01*
X0306999Y0086690D02*
X0303896Y0086690D01*
X0304930Y0085656D01*
X0304413Y0084502D02*
X0303896Y0083984D01*
X0303896Y0082950D01*
X0304413Y0082433D01*
X0306482Y0082433D01*
X0306999Y0082950D01*
X0306999Y0083984D01*
X0306482Y0084502D01*
X0314790Y0059536D02*
X0317893Y0059536D01*
X0317893Y0058502D02*
X0317893Y0060570D01*
X0315824Y0058502D02*
X0314790Y0059536D01*
X0316341Y0057347D02*
X0316341Y0055279D01*
X0314790Y0056830D01*
X0317893Y0056830D01*
X0317375Y0054125D02*
X0317893Y0053607D01*
X0317893Y0052573D01*
X0317375Y0052056D01*
X0315307Y0052056D01*
X0314790Y0052573D01*
X0314790Y0053607D01*
X0315307Y0054125D01*
X0271830Y0056190D02*
X0271830Y0057224D01*
X0271312Y0057741D01*
X0270278Y0058895D02*
X0270278Y0060964D01*
X0268727Y0060447D02*
X0270278Y0058895D01*
X0269244Y0057741D02*
X0268727Y0057224D01*
X0268727Y0056190D01*
X0269244Y0055673D01*
X0271312Y0055673D01*
X0271830Y0056190D01*
X0271830Y0060447D02*
X0268727Y0060447D01*
D15*
X0267530Y0062418D02*
X0262530Y0062418D01*
X0262530Y0051418D01*
X0267530Y0051418D01*
X0267530Y0062418D01*
X0266860Y0082127D02*
X0271860Y0082127D01*
X0271860Y0093127D01*
X0266860Y0093127D01*
X0266860Y0082127D01*
X0260049Y0082127D02*
X0255049Y0082127D01*
X0255049Y0093127D01*
X0260049Y0093127D01*
X0260049Y0082127D01*
X0256959Y0097863D02*
X0256959Y0104950D01*
X0270344Y0104950D01*
X0270344Y0097863D01*
X0256959Y0097863D01*
X0291663Y0092339D02*
X0291663Y0081339D01*
X0296663Y0081339D01*
X0296663Y0092339D01*
X0291663Y0092339D01*
X0292589Y0095107D02*
X0311093Y0095107D01*
X0311093Y0106918D01*
X0292589Y0106918D01*
X0292589Y0095107D01*
X0308199Y0092733D02*
X0308199Y0081733D01*
X0313199Y0081733D01*
X0313199Y0092733D01*
X0308199Y0092733D01*
X0308593Y0062024D02*
X0313593Y0062024D01*
X0313593Y0051024D01*
X0308593Y0051024D01*
X0308593Y0062024D01*
X0393342Y0119488D02*
X0393342Y0120990D01*
X0393342Y0120239D02*
X0397095Y0120239D01*
X0397846Y0119488D01*
X0397846Y0118738D01*
X0397095Y0117987D01*
X0396344Y0122591D02*
X0396344Y0124843D01*
X0395594Y0125594D01*
X0394092Y0125594D01*
X0393342Y0124843D01*
X0393342Y0122591D01*
X0397846Y0122591D01*
X0397846Y0127195D02*
X0394843Y0130197D01*
X0394092Y0130197D01*
X0393342Y0129447D01*
X0393342Y0127946D01*
X0394092Y0127195D01*
X0397846Y0127195D02*
X0397846Y0130197D01*
X0392982Y0262036D02*
X0373297Y0270304D01*
X0373297Y0290776D01*
X0381171Y0290776D01*
X0381171Y0305343D01*
X0402037Y0305343D01*
X0402037Y0366367D01*
X0296919Y0366367D01*
X0296919Y0305343D01*
X0318179Y0305343D01*
X0318179Y0290776D01*
X0326053Y0290776D01*
X0326053Y0270304D01*
X0306368Y0262036D01*
X0269893Y0294840D02*
X0269142Y0294089D01*
X0269893Y0294840D02*
X0269893Y0295591D01*
X0269142Y0296341D01*
X0265389Y0296341D01*
X0265389Y0295591D02*
X0265389Y0297092D01*
X0265389Y0298693D02*
X0265389Y0300945D01*
X0266140Y0301696D01*
X0267641Y0301696D01*
X0268392Y0300945D01*
X0268392Y0298693D01*
X0269893Y0298693D02*
X0265389Y0298693D01*
X0266890Y0303297D02*
X0265389Y0304799D01*
X0269893Y0304799D01*
X0269893Y0306300D02*
X0269893Y0303297D01*
X0259900Y0328434D02*
X0248900Y0328434D01*
X0248900Y0333434D01*
X0259900Y0333434D01*
X0259900Y0328434D01*
X0273297Y0337627D02*
X0273297Y0396682D01*
X0259518Y0396682D01*
X0259518Y0413611D01*
X0247707Y0413611D01*
X0247707Y0396682D01*
X0233927Y0396682D01*
X0233927Y0337627D01*
X0273297Y0337627D01*
X0318179Y0305343D02*
X0381171Y0305343D01*
X0259518Y0396682D02*
X0247707Y0396682D01*
X0213848Y0383690D02*
X0213848Y0372666D01*
X0213652Y0372666D02*
X0198848Y0372666D01*
X0198691Y0372666D01*
X0198691Y0383493D01*
X0195738Y0383690D02*
X0213848Y0383690D01*
X0214242Y0365973D02*
X0211289Y0365973D01*
X0211289Y0355146D01*
X0214242Y0354950D02*
X0196132Y0354950D01*
X0196132Y0365973D01*
X0196329Y0365973D02*
X0211132Y0365973D01*
X0211289Y0365973D01*
X0214242Y0365973D02*
X0214242Y0354950D01*
X0214242Y0349044D02*
X0214242Y0338020D01*
X0214045Y0338020D02*
X0199242Y0338020D01*
X0199085Y0338020D01*
X0199085Y0348847D01*
X0196132Y0349044D02*
X0214242Y0349044D01*
X0199085Y0338020D02*
X0196132Y0338020D01*
X0196132Y0349044D01*
X0196526Y0330934D02*
X0196526Y0319910D01*
X0214636Y0319910D01*
X0214636Y0330934D01*
X0211683Y0330934D01*
X0211683Y0320107D01*
X0211683Y0330934D02*
X0211526Y0330934D01*
X0196722Y0330934D01*
X0181309Y0329347D02*
X0181309Y0318347D01*
X0176309Y0318347D01*
X0176309Y0329347D01*
X0181309Y0329347D01*
X0172510Y0355737D02*
X0075266Y0355737D01*
X0075266Y0366761D01*
X0020935Y0366761D01*
X0020935Y0330540D01*
X0001250Y0330540D01*
X0001250Y0318729D01*
X0020935Y0318729D01*
X0020935Y0330540D01*
X0020935Y0318729D02*
X0020935Y0284083D01*
X0075266Y0284083D01*
X0075266Y0295107D01*
X0172510Y0295107D01*
X0172510Y0355737D01*
X0195738Y0372666D02*
X0195738Y0383690D01*
X0195738Y0372666D02*
X0198691Y0372666D01*
X0135712Y0347851D02*
X0129607Y0347851D01*
X0129607Y0350904D01*
X0130625Y0351921D01*
X0132660Y0351921D01*
X0133677Y0350904D01*
X0133677Y0347851D01*
X0133677Y0345844D02*
X0130625Y0345844D01*
X0129607Y0344826D01*
X0130625Y0343809D01*
X0133677Y0343809D01*
X0133677Y0341774D02*
X0129607Y0341774D01*
X0129607Y0342791D01*
X0130625Y0343809D01*
X0129607Y0339767D02*
X0133677Y0339767D01*
X0133677Y0336714D01*
X0132660Y0335697D01*
X0129607Y0335697D01*
X0128589Y0333690D02*
X0130625Y0333690D01*
X0131642Y0332672D01*
X0131642Y0329619D01*
X0133677Y0329619D02*
X0127572Y0329619D01*
X0127572Y0332672D01*
X0128589Y0333690D01*
X0129607Y0321530D02*
X0129607Y0320513D01*
X0131642Y0318478D01*
X0133677Y0318478D02*
X0129607Y0318478D01*
X0129607Y0315444D02*
X0133677Y0315444D01*
X0133677Y0316461D02*
X0133677Y0314426D01*
X0133677Y0312419D02*
X0129607Y0312419D01*
X0127572Y0310384D01*
X0129607Y0308349D01*
X0133677Y0308349D01*
X0130625Y0308349D02*
X0130625Y0312419D01*
X0129607Y0314426D02*
X0129607Y0315444D01*
X0127572Y0315444D02*
X0126554Y0315444D01*
X0075266Y0295107D02*
X0075266Y0355737D01*
X0045583Y0268473D02*
X0042583Y0268473D01*
X0045583Y0268473D02*
X0045583Y0264973D01*
X0040583Y0263473D02*
X0039083Y0263473D01*
X0034083Y0264973D02*
X0034083Y0268473D01*
X0037083Y0268473D01*
X0037274Y0235973D02*
X0037274Y0208414D01*
X0064833Y0208414D01*
X0064833Y0235973D01*
X0037274Y0235973D01*
X0050266Y0235186D02*
X0050268Y0235242D01*
X0050274Y0235297D01*
X0050284Y0235351D01*
X0050297Y0235405D01*
X0050315Y0235458D01*
X0050336Y0235509D01*
X0050360Y0235559D01*
X0050388Y0235607D01*
X0050420Y0235653D01*
X0050454Y0235697D01*
X0050492Y0235738D01*
X0050532Y0235776D01*
X0050575Y0235811D01*
X0050620Y0235843D01*
X0050668Y0235872D01*
X0050717Y0235898D01*
X0050768Y0235920D01*
X0050820Y0235938D01*
X0050874Y0235952D01*
X0050929Y0235963D01*
X0050984Y0235970D01*
X0051039Y0235973D01*
X0051095Y0235972D01*
X0051150Y0235967D01*
X0051205Y0235958D01*
X0051259Y0235946D01*
X0051312Y0235929D01*
X0051364Y0235909D01*
X0051414Y0235885D01*
X0051462Y0235858D01*
X0051509Y0235828D01*
X0051553Y0235794D01*
X0051595Y0235757D01*
X0051633Y0235717D01*
X0051670Y0235675D01*
X0051703Y0235630D01*
X0051732Y0235584D01*
X0051759Y0235535D01*
X0051781Y0235484D01*
X0051801Y0235432D01*
X0051816Y0235378D01*
X0051828Y0235324D01*
X0051836Y0235269D01*
X0051840Y0235214D01*
X0051840Y0235158D01*
X0051836Y0235103D01*
X0051828Y0235048D01*
X0051816Y0234994D01*
X0051801Y0234940D01*
X0051781Y0234888D01*
X0051759Y0234837D01*
X0051732Y0234788D01*
X0051703Y0234742D01*
X0051670Y0234697D01*
X0051633Y0234655D01*
X0051595Y0234615D01*
X0051553Y0234578D01*
X0051509Y0234544D01*
X0051462Y0234514D01*
X0051414Y0234487D01*
X0051364Y0234463D01*
X0051312Y0234443D01*
X0051259Y0234426D01*
X0051205Y0234414D01*
X0051150Y0234405D01*
X0051095Y0234400D01*
X0051039Y0234399D01*
X0050984Y0234402D01*
X0050929Y0234409D01*
X0050874Y0234420D01*
X0050820Y0234434D01*
X0050768Y0234452D01*
X0050717Y0234474D01*
X0050668Y0234500D01*
X0050620Y0234529D01*
X0050575Y0234561D01*
X0050532Y0234596D01*
X0050492Y0234634D01*
X0050454Y0234675D01*
X0050420Y0234719D01*
X0050388Y0234765D01*
X0050360Y0234813D01*
X0050336Y0234863D01*
X0050315Y0234914D01*
X0050297Y0234967D01*
X0050284Y0235021D01*
X0050274Y0235075D01*
X0050268Y0235130D01*
X0050266Y0235186D01*
X0049430Y0222194D02*
X0049432Y0222274D01*
X0049438Y0222354D01*
X0049448Y0222434D01*
X0049462Y0222513D01*
X0049479Y0222591D01*
X0049501Y0222669D01*
X0049526Y0222745D01*
X0049555Y0222820D01*
X0049588Y0222893D01*
X0049625Y0222965D01*
X0049664Y0223034D01*
X0049708Y0223102D01*
X0049754Y0223167D01*
X0049804Y0223230D01*
X0049857Y0223291D01*
X0049912Y0223349D01*
X0049971Y0223404D01*
X0050032Y0223456D01*
X0050096Y0223505D01*
X0050162Y0223550D01*
X0050230Y0223593D01*
X0050300Y0223632D01*
X0050372Y0223667D01*
X0050446Y0223699D01*
X0050521Y0223727D01*
X0050597Y0223752D01*
X0050675Y0223772D01*
X0050754Y0223789D01*
X0050833Y0223802D01*
X0050913Y0223811D01*
X0050993Y0223816D01*
X0051073Y0223817D01*
X0051153Y0223814D01*
X0051233Y0223807D01*
X0051313Y0223796D01*
X0051392Y0223781D01*
X0051470Y0223763D01*
X0051547Y0223740D01*
X0051623Y0223714D01*
X0051697Y0223684D01*
X0051770Y0223650D01*
X0051841Y0223613D01*
X0051910Y0223572D01*
X0051978Y0223528D01*
X0052042Y0223481D01*
X0052105Y0223430D01*
X0052165Y0223377D01*
X0052222Y0223320D01*
X0052276Y0223261D01*
X0052327Y0223199D01*
X0052375Y0223135D01*
X0052420Y0223068D01*
X0052462Y0223000D01*
X0052500Y0222929D01*
X0052535Y0222857D01*
X0052566Y0222782D01*
X0052593Y0222707D01*
X0052616Y0222630D01*
X0052636Y0222552D01*
X0052652Y0222474D01*
X0052664Y0222394D01*
X0052672Y0222314D01*
X0052676Y0222234D01*
X0052676Y0222154D01*
X0052672Y0222074D01*
X0052664Y0221994D01*
X0052652Y0221914D01*
X0052636Y0221836D01*
X0052616Y0221758D01*
X0052593Y0221681D01*
X0052566Y0221606D01*
X0052535Y0221531D01*
X0052500Y0221459D01*
X0052462Y0221388D01*
X0052420Y0221320D01*
X0052375Y0221253D01*
X0052327Y0221189D01*
X0052276Y0221127D01*
X0052222Y0221068D01*
X0052165Y0221011D01*
X0052105Y0220958D01*
X0052042Y0220907D01*
X0051978Y0220860D01*
X0051910Y0220816D01*
X0051841Y0220775D01*
X0051770Y0220738D01*
X0051697Y0220704D01*
X0051623Y0220674D01*
X0051547Y0220648D01*
X0051470Y0220625D01*
X0051392Y0220607D01*
X0051313Y0220592D01*
X0051233Y0220581D01*
X0051153Y0220574D01*
X0051073Y0220571D01*
X0050993Y0220572D01*
X0050913Y0220577D01*
X0050833Y0220586D01*
X0050754Y0220599D01*
X0050675Y0220616D01*
X0050597Y0220636D01*
X0050521Y0220661D01*
X0050446Y0220689D01*
X0050372Y0220721D01*
X0050300Y0220756D01*
X0050230Y0220795D01*
X0050162Y0220838D01*
X0050096Y0220883D01*
X0050032Y0220932D01*
X0049971Y0220984D01*
X0049912Y0221039D01*
X0049857Y0221097D01*
X0049804Y0221158D01*
X0049754Y0221221D01*
X0049708Y0221286D01*
X0049664Y0221354D01*
X0049625Y0221423D01*
X0049588Y0221495D01*
X0049555Y0221568D01*
X0049526Y0221643D01*
X0049501Y0221719D01*
X0049479Y0221797D01*
X0049462Y0221875D01*
X0049448Y0221954D01*
X0049438Y0222034D01*
X0049432Y0222114D01*
X0049430Y0222194D01*
X0045375Y0222194D02*
X0045377Y0222345D01*
X0045383Y0222495D01*
X0045393Y0222645D01*
X0045407Y0222795D01*
X0045425Y0222944D01*
X0045447Y0223093D01*
X0045472Y0223242D01*
X0045502Y0223389D01*
X0045536Y0223536D01*
X0045573Y0223682D01*
X0045615Y0223826D01*
X0045660Y0223970D01*
X0045709Y0224112D01*
X0045762Y0224253D01*
X0045818Y0224393D01*
X0045878Y0224531D01*
X0045942Y0224667D01*
X0046009Y0224802D01*
X0046080Y0224935D01*
X0046155Y0225066D01*
X0046232Y0225194D01*
X0046314Y0225321D01*
X0046398Y0225446D01*
X0046486Y0225568D01*
X0046577Y0225688D01*
X0046671Y0225805D01*
X0046769Y0225920D01*
X0046869Y0226032D01*
X0046972Y0226142D01*
X0047078Y0226249D01*
X0047187Y0226353D01*
X0047299Y0226454D01*
X0047413Y0226552D01*
X0047530Y0226647D01*
X0047649Y0226738D01*
X0047771Y0226827D01*
X0047895Y0226912D01*
X0048021Y0226995D01*
X0048149Y0227073D01*
X0048279Y0227148D01*
X0048412Y0227220D01*
X0048546Y0227289D01*
X0048682Y0227353D01*
X0048819Y0227414D01*
X0048959Y0227472D01*
X0049099Y0227525D01*
X0049241Y0227575D01*
X0049385Y0227621D01*
X0049529Y0227664D01*
X0049674Y0227702D01*
X0049821Y0227737D01*
X0049968Y0227767D01*
X0050116Y0227794D01*
X0050265Y0227817D01*
X0050415Y0227836D01*
X0050564Y0227851D01*
X0050715Y0227862D01*
X0050865Y0227869D01*
X0051015Y0227872D01*
X0051166Y0227871D01*
X0051316Y0227866D01*
X0051467Y0227857D01*
X0051617Y0227844D01*
X0051766Y0227827D01*
X0051915Y0227806D01*
X0052064Y0227781D01*
X0052211Y0227753D01*
X0052358Y0227720D01*
X0052504Y0227683D01*
X0052649Y0227643D01*
X0052793Y0227599D01*
X0052936Y0227551D01*
X0053077Y0227499D01*
X0053217Y0227443D01*
X0053356Y0227384D01*
X0053492Y0227321D01*
X0053627Y0227255D01*
X0053761Y0227185D01*
X0053892Y0227111D01*
X0054021Y0227034D01*
X0054149Y0226954D01*
X0054274Y0226870D01*
X0054397Y0226783D01*
X0054517Y0226693D01*
X0054635Y0226600D01*
X0054751Y0226503D01*
X0054863Y0226403D01*
X0054974Y0226301D01*
X0055081Y0226196D01*
X0055186Y0226087D01*
X0055288Y0225977D01*
X0055386Y0225863D01*
X0055482Y0225747D01*
X0055575Y0225628D01*
X0055664Y0225507D01*
X0055750Y0225384D01*
X0055833Y0225258D01*
X0055913Y0225130D01*
X0055989Y0225000D01*
X0056062Y0224869D01*
X0056131Y0224735D01*
X0056196Y0224599D01*
X0056258Y0224462D01*
X0056317Y0224323D01*
X0056371Y0224183D01*
X0056422Y0224041D01*
X0056469Y0223898D01*
X0056512Y0223754D01*
X0056552Y0223609D01*
X0056587Y0223463D01*
X0056619Y0223316D01*
X0056647Y0223168D01*
X0056671Y0223019D01*
X0056691Y0222870D01*
X0056707Y0222720D01*
X0056719Y0222570D01*
X0056727Y0222420D01*
X0056731Y0222269D01*
X0056731Y0222119D01*
X0056727Y0221968D01*
X0056719Y0221818D01*
X0056707Y0221668D01*
X0056691Y0221518D01*
X0056671Y0221369D01*
X0056647Y0221220D01*
X0056619Y0221072D01*
X0056587Y0220925D01*
X0056552Y0220779D01*
X0056512Y0220634D01*
X0056469Y0220490D01*
X0056422Y0220347D01*
X0056371Y0220205D01*
X0056317Y0220065D01*
X0056258Y0219926D01*
X0056196Y0219789D01*
X0056131Y0219653D01*
X0056062Y0219519D01*
X0055989Y0219388D01*
X0055913Y0219258D01*
X0055833Y0219130D01*
X0055750Y0219004D01*
X0055664Y0218881D01*
X0055575Y0218760D01*
X0055482Y0218641D01*
X0055386Y0218525D01*
X0055288Y0218411D01*
X0055186Y0218301D01*
X0055081Y0218192D01*
X0054974Y0218087D01*
X0054863Y0217985D01*
X0054751Y0217885D01*
X0054635Y0217788D01*
X0054517Y0217695D01*
X0054397Y0217605D01*
X0054274Y0217518D01*
X0054149Y0217434D01*
X0054021Y0217354D01*
X0053892Y0217277D01*
X0053761Y0217203D01*
X0053627Y0217133D01*
X0053492Y0217067D01*
X0053356Y0217004D01*
X0053217Y0216945D01*
X0053077Y0216889D01*
X0052936Y0216837D01*
X0052793Y0216789D01*
X0052649Y0216745D01*
X0052504Y0216705D01*
X0052358Y0216668D01*
X0052211Y0216635D01*
X0052064Y0216607D01*
X0051915Y0216582D01*
X0051766Y0216561D01*
X0051617Y0216544D01*
X0051467Y0216531D01*
X0051316Y0216522D01*
X0051166Y0216517D01*
X0051015Y0216516D01*
X0050865Y0216519D01*
X0050715Y0216526D01*
X0050564Y0216537D01*
X0050415Y0216552D01*
X0050265Y0216571D01*
X0050116Y0216594D01*
X0049968Y0216621D01*
X0049821Y0216651D01*
X0049674Y0216686D01*
X0049529Y0216724D01*
X0049385Y0216767D01*
X0049241Y0216813D01*
X0049099Y0216863D01*
X0048959Y0216916D01*
X0048819Y0216974D01*
X0048682Y0217035D01*
X0048546Y0217099D01*
X0048412Y0217168D01*
X0048279Y0217240D01*
X0048149Y0217315D01*
X0048021Y0217393D01*
X0047895Y0217476D01*
X0047771Y0217561D01*
X0047649Y0217650D01*
X0047530Y0217741D01*
X0047413Y0217836D01*
X0047299Y0217934D01*
X0047187Y0218035D01*
X0047078Y0218139D01*
X0046972Y0218246D01*
X0046869Y0218356D01*
X0046769Y0218468D01*
X0046671Y0218583D01*
X0046577Y0218700D01*
X0046486Y0218820D01*
X0046398Y0218942D01*
X0046314Y0219067D01*
X0046232Y0219194D01*
X0046155Y0219322D01*
X0046080Y0219453D01*
X0046009Y0219586D01*
X0045942Y0219721D01*
X0045878Y0219857D01*
X0045818Y0219995D01*
X0045762Y0220135D01*
X0045709Y0220276D01*
X0045660Y0220418D01*
X0045615Y0220562D01*
X0045573Y0220706D01*
X0045536Y0220852D01*
X0045502Y0220999D01*
X0045472Y0221146D01*
X0045447Y0221295D01*
X0045425Y0221444D01*
X0045407Y0221593D01*
X0045393Y0221743D01*
X0045383Y0221893D01*
X0045377Y0222043D01*
X0045375Y0222194D01*
X0050496Y0215107D02*
X0050498Y0215154D01*
X0050504Y0215200D01*
X0050513Y0215246D01*
X0050527Y0215290D01*
X0050544Y0215334D01*
X0050565Y0215375D01*
X0050589Y0215415D01*
X0050616Y0215453D01*
X0050647Y0215488D01*
X0050680Y0215521D01*
X0050716Y0215551D01*
X0050755Y0215577D01*
X0050795Y0215601D01*
X0050837Y0215620D01*
X0050881Y0215637D01*
X0050926Y0215649D01*
X0050972Y0215658D01*
X0051018Y0215663D01*
X0051065Y0215664D01*
X0051111Y0215661D01*
X0051157Y0215654D01*
X0051203Y0215643D01*
X0051247Y0215629D01*
X0051290Y0215611D01*
X0051331Y0215589D01*
X0051371Y0215564D01*
X0051408Y0215536D01*
X0051443Y0215505D01*
X0051475Y0215471D01*
X0051504Y0215434D01*
X0051529Y0215396D01*
X0051552Y0215355D01*
X0051571Y0215312D01*
X0051586Y0215268D01*
X0051598Y0215223D01*
X0051606Y0215177D01*
X0051610Y0215130D01*
X0051610Y0215084D01*
X0051606Y0215037D01*
X0051598Y0214991D01*
X0051586Y0214946D01*
X0051571Y0214902D01*
X0051552Y0214859D01*
X0051529Y0214818D01*
X0051504Y0214780D01*
X0051475Y0214743D01*
X0051443Y0214709D01*
X0051408Y0214678D01*
X0051371Y0214650D01*
X0051332Y0214625D01*
X0051290Y0214603D01*
X0051247Y0214585D01*
X0051203Y0214571D01*
X0051157Y0214560D01*
X0051111Y0214553D01*
X0051065Y0214550D01*
X0051018Y0214551D01*
X0050972Y0214556D01*
X0050926Y0214565D01*
X0050881Y0214577D01*
X0050837Y0214594D01*
X0050795Y0214613D01*
X0050755Y0214637D01*
X0050716Y0214663D01*
X0050680Y0214693D01*
X0050647Y0214726D01*
X0050616Y0214761D01*
X0050589Y0214799D01*
X0050565Y0214839D01*
X0050544Y0214880D01*
X0050527Y0214924D01*
X0050513Y0214968D01*
X0050504Y0215014D01*
X0050498Y0215060D01*
X0050496Y0215107D01*
X0056368Y0188808D02*
X0057156Y0188808D01*
X0056368Y0188808D02*
X0056368Y0175938D01*
X0058459Y0173847D01*
X0060699Y0173060D02*
X0061880Y0173060D01*
X0065817Y0173060D02*
X0066998Y0173060D01*
X0070541Y0173060D02*
X0071722Y0173060D01*
X0075266Y0173060D02*
X0076053Y0173060D01*
X0076053Y0188808D01*
X0075266Y0188808D01*
X0071722Y0188808D02*
X0070541Y0188808D01*
X0066998Y0188808D02*
X0065817Y0188808D01*
X0061880Y0188808D02*
X0060699Y0188808D01*
X0104411Y0128709D02*
X0115411Y0128709D01*
X0115411Y0123709D01*
X0104411Y0123709D01*
X0104411Y0128709D01*
X0092726Y0104544D02*
X0087726Y0104544D01*
X0087726Y0093544D01*
X0092726Y0093544D01*
X0092726Y0104544D01*
X0102049Y0083434D02*
X0113049Y0083434D01*
X0113049Y0078434D01*
X0102049Y0078434D01*
X0102049Y0083434D01*
X0106959Y0065068D02*
X0093179Y0065068D01*
X0093179Y0036721D01*
X0106959Y0036721D01*
X0106959Y0065068D01*
X0131959Y0068847D02*
X0131959Y0053493D01*
X0151250Y0053493D01*
X0151250Y0068847D01*
X0131959Y0068847D01*
X0064915Y0049973D02*
X0064915Y0041973D01*
X0064285Y0035013D02*
X0064285Y0027013D01*
X0180640Y0159292D02*
X0180640Y0170292D01*
X0185640Y0170292D01*
X0185640Y0159292D01*
X0180640Y0159292D01*
X0198356Y0159292D02*
X0203356Y0159292D01*
X0203356Y0170292D01*
X0198356Y0170292D01*
X0198356Y0159292D01*
X0213317Y0191969D02*
X0218317Y0191969D01*
X0218317Y0202969D01*
X0213317Y0202969D01*
X0213317Y0191969D01*
X0237333Y0219528D02*
X0242333Y0219528D01*
X0242333Y0230528D01*
X0237333Y0230528D01*
X0237333Y0219528D01*
X0218955Y0231190D02*
X0207955Y0231190D01*
X0207955Y0236190D01*
X0218955Y0236190D01*
X0218955Y0231190D01*
X0162274Y0224241D02*
X0144951Y0224241D01*
X0144951Y0242426D01*
X0146451Y0243926D01*
X0162274Y0243926D01*
X0162274Y0224241D01*
X0147695Y0209812D02*
X0147695Y0204812D01*
X0136695Y0204812D01*
X0136695Y0209812D01*
X0147695Y0209812D01*
X0103207Y0254024D02*
X0092207Y0254024D01*
X0092207Y0259024D01*
X0103207Y0259024D01*
X0103207Y0254024D01*
X0217213Y0084255D02*
X0217846Y0084255D01*
X0217530Y0084255D02*
X0217530Y0082670D01*
X0217213Y0082353D01*
X0216896Y0082353D01*
X0216579Y0082670D01*
X0218789Y0082353D02*
X0220056Y0082353D01*
X0219422Y0082353D02*
X0219422Y0084255D01*
X0218789Y0083621D01*
X0219106Y0067326D02*
X0218789Y0067009D01*
X0219106Y0067326D02*
X0219739Y0067326D01*
X0220056Y0067009D01*
X0220056Y0066692D01*
X0218789Y0065424D01*
X0220056Y0065424D01*
X0217530Y0065741D02*
X0217530Y0067326D01*
X0217846Y0067326D02*
X0217213Y0067326D01*
X0217530Y0065741D02*
X0217213Y0065424D01*
X0216896Y0065424D01*
X0216579Y0065741D01*
D16*
X0179242Y0093178D03*
X0133533Y0054871D03*
D17*
X0195935Y0066150D03*
D18*
X0175015Y0068840D02*
X0174765Y0068590D01*
X0174264Y0068590D01*
X0174014Y0068840D01*
X0175015Y0069841D01*
X0175015Y0068840D01*
X0174014Y0068840D02*
X0174014Y0069841D01*
X0174264Y0070091D01*
X0174765Y0070091D01*
X0175015Y0069841D01*
X0173542Y0069341D02*
X0172541Y0069341D01*
X0173292Y0070091D01*
X0173292Y0068590D01*
X0172069Y0068840D02*
X0171818Y0068590D01*
X0171318Y0068590D01*
X0171068Y0068840D01*
X0171068Y0069841D01*
X0171318Y0070091D01*
X0171818Y0070091D01*
X0172069Y0069841D01*
X0149686Y0087960D02*
X0149686Y0089462D01*
X0148935Y0088711D01*
X0149936Y0088711D01*
X0148463Y0088461D02*
X0148213Y0088711D01*
X0147462Y0088711D01*
X0147462Y0088210D01*
X0147712Y0087960D01*
X0148213Y0087960D01*
X0148463Y0088210D01*
X0148463Y0088461D01*
X0147963Y0089211D02*
X0148463Y0089462D01*
X0147963Y0089211D02*
X0147462Y0088711D01*
X0146990Y0088711D02*
X0146740Y0088461D01*
X0145989Y0088461D01*
X0146489Y0088461D02*
X0146990Y0087960D01*
X0146990Y0088711D02*
X0146990Y0089211D01*
X0146740Y0089462D01*
X0145989Y0089462D01*
X0145989Y0087960D01*
X0133816Y0081611D02*
X0133816Y0081361D01*
X0133566Y0081111D01*
X0133816Y0080861D01*
X0133816Y0080610D01*
X0133566Y0080360D01*
X0133065Y0080360D01*
X0132815Y0080610D01*
X0132343Y0080610D02*
X0132343Y0080861D01*
X0132092Y0081111D01*
X0131342Y0081111D01*
X0131342Y0080610D01*
X0131592Y0080360D01*
X0132092Y0080360D01*
X0132343Y0080610D01*
X0133315Y0081111D02*
X0133566Y0081111D01*
X0133816Y0081611D02*
X0133566Y0081862D01*
X0133065Y0081862D01*
X0132815Y0081611D01*
X0132343Y0081862D02*
X0131842Y0081611D01*
X0131342Y0081111D01*
X0130869Y0081111D02*
X0130619Y0080861D01*
X0129868Y0080861D01*
X0129868Y0080360D02*
X0129868Y0081862D01*
X0130619Y0081862D01*
X0130869Y0081611D01*
X0130869Y0081111D01*
X0130369Y0080861D02*
X0130869Y0080360D01*
X0131105Y0098327D02*
X0131856Y0098327D01*
X0132106Y0098577D01*
X0132106Y0099578D01*
X0131856Y0099828D01*
X0131105Y0099828D01*
X0131105Y0098327D01*
X0132579Y0098577D02*
X0132829Y0098327D01*
X0133329Y0098327D01*
X0133580Y0098577D01*
X0133580Y0098827D01*
X0133329Y0099077D01*
X0132579Y0099077D01*
X0132579Y0098577D01*
X0132579Y0099077D02*
X0133079Y0099578D01*
X0133580Y0099828D01*
X0147091Y0105427D02*
X0147842Y0105427D01*
X0148092Y0105677D01*
X0148092Y0106678D01*
X0147842Y0106928D01*
X0147091Y0106928D01*
X0147091Y0105427D01*
X0148565Y0105677D02*
X0148815Y0105427D01*
X0149315Y0105427D01*
X0149565Y0105677D01*
X0149565Y0106177D01*
X0149315Y0106428D01*
X0149065Y0106428D01*
X0148565Y0106177D01*
X0148565Y0106928D01*
X0149565Y0106928D01*
X0102243Y0147226D02*
X0101992Y0146976D01*
X0101492Y0146976D01*
X0101242Y0147226D01*
X0100769Y0146976D02*
X0100269Y0147476D01*
X0100519Y0147476D02*
X0099769Y0147476D01*
X0099769Y0146976D02*
X0099769Y0148477D01*
X0100519Y0148477D01*
X0100769Y0148227D01*
X0100769Y0147727D01*
X0100519Y0147476D01*
X0101242Y0148227D02*
X0101492Y0148477D01*
X0101992Y0148477D01*
X0102243Y0148227D01*
X0102243Y0147977D01*
X0101992Y0147727D01*
X0102243Y0147476D01*
X0102243Y0147226D01*
X0101992Y0147727D02*
X0101742Y0147727D01*
X0101492Y0161937D02*
X0101992Y0161937D01*
X0102243Y0162187D01*
X0102243Y0163188D01*
X0101992Y0163438D01*
X0101492Y0163438D01*
X0101242Y0163188D01*
X0101242Y0162937D01*
X0101492Y0162687D01*
X0102243Y0162687D01*
X0101492Y0161937D02*
X0101242Y0162187D01*
X0100769Y0161937D02*
X0100269Y0162437D01*
X0100519Y0162437D02*
X0099769Y0162437D01*
X0099769Y0161937D02*
X0099769Y0163438D01*
X0100519Y0163438D01*
X0100769Y0163188D01*
X0100769Y0162687D01*
X0100519Y0162437D01*
X0085602Y0173941D02*
X0084100Y0173941D01*
X0084100Y0174691D01*
X0084351Y0174941D01*
X0084851Y0174941D01*
X0085101Y0174691D01*
X0085101Y0173941D01*
X0085101Y0174441D02*
X0085602Y0174941D01*
X0085351Y0175414D02*
X0085602Y0175664D01*
X0085602Y0176164D01*
X0085351Y0176415D01*
X0085101Y0176415D01*
X0084851Y0176164D01*
X0084851Y0175914D01*
X0084851Y0176164D02*
X0084601Y0176415D01*
X0084351Y0176415D01*
X0084100Y0176164D01*
X0084100Y0175664D01*
X0084351Y0175414D01*
X0084851Y0176887D02*
X0084100Y0177638D01*
X0085602Y0177638D01*
X0084851Y0177888D02*
X0084851Y0176887D01*
X0095124Y0181027D02*
X0095124Y0181778D01*
X0095374Y0182028D01*
X0095875Y0182028D01*
X0096125Y0181778D01*
X0096125Y0181027D01*
X0096625Y0181027D02*
X0095124Y0181027D01*
X0096125Y0181528D02*
X0096625Y0182028D01*
X0096625Y0182500D02*
X0096625Y0183501D01*
X0096625Y0183001D02*
X0095124Y0183001D01*
X0095624Y0182500D01*
X0095374Y0183974D02*
X0095124Y0184224D01*
X0095124Y0184724D01*
X0095374Y0184975D01*
X0096375Y0183974D01*
X0096625Y0184224D01*
X0096625Y0184724D01*
X0096375Y0184975D01*
X0095374Y0184975D01*
X0095374Y0183974D02*
X0096375Y0183974D01*
X0085208Y0190476D02*
X0083707Y0190476D01*
X0083707Y0191227D01*
X0083957Y0191477D01*
X0084457Y0191477D01*
X0084707Y0191227D01*
X0084707Y0190476D01*
X0084707Y0190976D02*
X0085208Y0191477D01*
X0085208Y0191949D02*
X0084207Y0192950D01*
X0083957Y0192950D01*
X0083707Y0192700D01*
X0083707Y0192199D01*
X0083957Y0191949D01*
X0085208Y0191949D02*
X0085208Y0192950D01*
X0097231Y0203156D02*
X0097231Y0204657D01*
X0097981Y0204657D01*
X0098231Y0204407D01*
X0098231Y0203906D01*
X0097981Y0203656D01*
X0097231Y0203656D01*
X0097731Y0203656D02*
X0098231Y0203156D01*
X0098704Y0203156D02*
X0099705Y0204156D01*
X0099705Y0204407D01*
X0099455Y0204657D01*
X0098954Y0204657D01*
X0098704Y0204407D01*
X0098704Y0203156D02*
X0099705Y0203156D01*
X0100177Y0203406D02*
X0100427Y0203156D01*
X0100928Y0203156D01*
X0101178Y0203406D01*
X0101178Y0203656D01*
X0100928Y0203906D01*
X0100678Y0203906D01*
X0100928Y0203906D02*
X0101178Y0204156D01*
X0101178Y0204407D01*
X0100928Y0204657D01*
X0100427Y0204657D01*
X0100177Y0204407D01*
X0099783Y0219297D02*
X0100784Y0220298D01*
X0100784Y0220548D01*
X0100534Y0220799D01*
X0100034Y0220799D01*
X0099783Y0220548D01*
X0099311Y0220548D02*
X0099061Y0220799D01*
X0098560Y0220799D01*
X0098310Y0220548D01*
X0097838Y0220548D02*
X0097838Y0220048D01*
X0097588Y0219798D01*
X0096837Y0219798D01*
X0097337Y0219798D02*
X0097838Y0219297D01*
X0098310Y0219297D02*
X0099311Y0220298D01*
X0099311Y0220548D01*
X0099311Y0219297D02*
X0098310Y0219297D01*
X0097838Y0220548D02*
X0097588Y0220799D01*
X0096837Y0220799D01*
X0096837Y0219297D01*
X0099783Y0219297D02*
X0100784Y0219297D01*
X0100534Y0236226D02*
X0100034Y0236226D01*
X0099783Y0236477D01*
X0100784Y0237477D01*
X0100784Y0236477D01*
X0100534Y0236226D01*
X0099783Y0236477D02*
X0099783Y0237477D01*
X0100034Y0237728D01*
X0100534Y0237728D01*
X0100784Y0237477D01*
X0099311Y0237477D02*
X0099061Y0237728D01*
X0098560Y0237728D01*
X0098310Y0237477D01*
X0097838Y0237477D02*
X0097838Y0236977D01*
X0097588Y0236727D01*
X0096837Y0236727D01*
X0097337Y0236727D02*
X0097838Y0236226D01*
X0098310Y0236226D02*
X0099311Y0237227D01*
X0099311Y0237477D01*
X0099311Y0236226D02*
X0098310Y0236226D01*
X0097838Y0237477D02*
X0097588Y0237728D01*
X0096837Y0237728D01*
X0096837Y0236226D01*
X0073007Y0249982D02*
X0072757Y0249732D01*
X0072257Y0249732D01*
X0072006Y0249982D01*
X0071534Y0249982D02*
X0071284Y0249732D01*
X0070783Y0249732D01*
X0070533Y0249982D01*
X0070061Y0249732D02*
X0069560Y0250232D01*
X0069810Y0250232D02*
X0069060Y0250232D01*
X0069060Y0249732D02*
X0069060Y0251233D01*
X0069810Y0251233D01*
X0070061Y0250983D01*
X0070061Y0250483D01*
X0069810Y0250232D01*
X0070533Y0250983D02*
X0070783Y0251233D01*
X0071284Y0251233D01*
X0071534Y0250983D01*
X0071534Y0250733D01*
X0071284Y0250483D01*
X0071534Y0250232D01*
X0071534Y0249982D01*
X0071284Y0250483D02*
X0071034Y0250483D01*
X0072006Y0250483D02*
X0072507Y0250733D01*
X0072757Y0250733D01*
X0073007Y0250483D01*
X0073007Y0249982D01*
X0072006Y0250483D02*
X0072006Y0251233D01*
X0073007Y0251233D01*
X0070788Y0270598D02*
X0071039Y0270848D01*
X0071039Y0271849D01*
X0070788Y0272099D01*
X0070288Y0272099D01*
X0070038Y0271849D01*
X0070038Y0271599D01*
X0070288Y0271349D01*
X0071039Y0271349D01*
X0070788Y0270598D02*
X0070288Y0270598D01*
X0070038Y0270848D01*
X0069565Y0270598D02*
X0068565Y0270598D01*
X0069565Y0271599D01*
X0069565Y0271849D01*
X0069315Y0272099D01*
X0068815Y0272099D01*
X0068565Y0271849D01*
X0068092Y0271849D02*
X0068092Y0271349D01*
X0067842Y0271098D01*
X0067091Y0271098D01*
X0067091Y0270598D02*
X0067091Y0272099D01*
X0067842Y0272099D01*
X0068092Y0271849D01*
X0067592Y0271098D02*
X0068092Y0270598D01*
X0054471Y0244027D02*
X0054721Y0243777D01*
X0053720Y0242776D01*
X0053971Y0242526D01*
X0054471Y0242526D01*
X0054721Y0242776D01*
X0054721Y0243777D01*
X0054471Y0244027D02*
X0053971Y0244027D01*
X0053720Y0243777D01*
X0053720Y0242776D01*
X0053248Y0242776D02*
X0052998Y0242526D01*
X0052497Y0242526D01*
X0052247Y0242776D01*
X0051775Y0242526D02*
X0051274Y0243026D01*
X0051525Y0243026D02*
X0050774Y0243026D01*
X0050774Y0242526D02*
X0050774Y0244027D01*
X0051525Y0244027D01*
X0051775Y0243777D01*
X0051775Y0243276D01*
X0051525Y0243026D01*
X0052247Y0243777D02*
X0052497Y0244027D01*
X0052998Y0244027D01*
X0053248Y0243777D01*
X0053248Y0243526D01*
X0052998Y0243276D01*
X0053248Y0243026D01*
X0053248Y0242776D01*
X0052998Y0243276D02*
X0052748Y0243276D01*
X0035430Y0243026D02*
X0035180Y0243276D01*
X0034429Y0243276D01*
X0034429Y0242776D01*
X0034679Y0242526D01*
X0035180Y0242526D01*
X0035430Y0242776D01*
X0035430Y0243026D01*
X0034930Y0243777D02*
X0034429Y0243276D01*
X0034930Y0243777D02*
X0035430Y0244027D01*
X0033456Y0244027D02*
X0033456Y0242526D01*
X0032956Y0242526D02*
X0033957Y0242526D01*
X0032956Y0243526D02*
X0033456Y0244027D01*
X0032483Y0243777D02*
X0032483Y0243276D01*
X0032233Y0243026D01*
X0031483Y0243026D01*
X0031983Y0243026D02*
X0032483Y0242526D01*
X0031483Y0242526D02*
X0031483Y0244027D01*
X0032233Y0244027D01*
X0032483Y0243777D01*
X0032839Y0197690D02*
X0033590Y0197690D01*
X0033840Y0197440D01*
X0033840Y0196939D01*
X0033590Y0196689D01*
X0032839Y0196689D01*
X0032839Y0196189D02*
X0032839Y0197690D01*
X0033340Y0196689D02*
X0033840Y0196189D01*
X0034313Y0196189D02*
X0035313Y0196189D01*
X0034813Y0196189D02*
X0034813Y0197690D01*
X0034313Y0197189D01*
X0035786Y0197440D02*
X0036036Y0197690D01*
X0036537Y0197690D01*
X0036787Y0197440D01*
X0036787Y0197189D01*
X0036537Y0196939D01*
X0036787Y0196689D01*
X0036787Y0196439D01*
X0036537Y0196189D01*
X0036036Y0196189D01*
X0035786Y0196439D01*
X0036286Y0196939D02*
X0036537Y0196939D01*
X0035893Y0182336D02*
X0035893Y0180834D01*
X0036393Y0180834D02*
X0035392Y0180834D01*
X0034920Y0181084D02*
X0034670Y0180834D01*
X0034169Y0180834D01*
X0033919Y0181084D01*
X0033447Y0180834D02*
X0032946Y0181335D01*
X0033196Y0181335D02*
X0032446Y0181335D01*
X0032446Y0180834D02*
X0032446Y0182336D01*
X0033196Y0182336D01*
X0033447Y0182085D01*
X0033447Y0181585D01*
X0033196Y0181335D01*
X0033919Y0182085D02*
X0034169Y0182336D01*
X0034670Y0182336D01*
X0034920Y0182085D01*
X0034920Y0181835D01*
X0034670Y0181585D01*
X0034920Y0181335D01*
X0034920Y0181084D01*
X0034670Y0181585D02*
X0034419Y0181585D01*
X0035392Y0181835D02*
X0035893Y0182336D01*
X0048194Y0161863D02*
X0048944Y0161863D01*
X0049195Y0161613D01*
X0049195Y0161112D01*
X0048944Y0160862D01*
X0048194Y0160862D01*
X0048694Y0160862D02*
X0049195Y0160362D01*
X0049667Y0160612D02*
X0049917Y0160362D01*
X0050418Y0160362D01*
X0050668Y0160612D01*
X0050668Y0160862D01*
X0050418Y0161112D01*
X0050167Y0161112D01*
X0050418Y0161112D02*
X0050668Y0161363D01*
X0050668Y0161613D01*
X0050418Y0161863D01*
X0049917Y0161863D01*
X0049667Y0161613D01*
X0051140Y0161613D02*
X0051390Y0161863D01*
X0051891Y0161863D01*
X0052141Y0161613D01*
X0052141Y0161363D01*
X0051891Y0161112D01*
X0052141Y0160862D01*
X0052141Y0160612D01*
X0051891Y0160362D01*
X0051390Y0160362D01*
X0051140Y0160612D01*
X0051641Y0161112D02*
X0051891Y0161112D01*
X0048194Y0160362D02*
X0048194Y0161863D01*
X0048194Y0150446D02*
X0048944Y0150446D01*
X0049195Y0150196D01*
X0049195Y0149695D01*
X0048944Y0149445D01*
X0048194Y0149445D01*
X0048694Y0149445D02*
X0049195Y0148944D01*
X0049667Y0149195D02*
X0049917Y0148944D01*
X0050418Y0148944D01*
X0050668Y0149195D01*
X0050668Y0149445D01*
X0050418Y0149695D01*
X0050167Y0149695D01*
X0050418Y0149695D02*
X0050668Y0149945D01*
X0050668Y0150196D01*
X0050418Y0150446D01*
X0049917Y0150446D01*
X0049667Y0150196D01*
X0048194Y0150446D02*
X0048194Y0148944D01*
X0051140Y0149195D02*
X0051140Y0149695D01*
X0051891Y0149695D01*
X0052141Y0149445D01*
X0052141Y0149195D01*
X0051891Y0148944D01*
X0051390Y0148944D01*
X0051140Y0149195D01*
X0051140Y0149695D02*
X0051641Y0150196D01*
X0052141Y0150446D01*
X0062761Y0160362D02*
X0062761Y0161863D01*
X0063511Y0161863D01*
X0063761Y0161613D01*
X0063761Y0161112D01*
X0063511Y0160862D01*
X0062761Y0160862D01*
X0063261Y0160862D02*
X0063761Y0160362D01*
X0064234Y0160362D02*
X0065235Y0160362D01*
X0065707Y0160362D02*
X0066708Y0161363D01*
X0066708Y0161613D01*
X0066458Y0161863D01*
X0065957Y0161863D01*
X0065707Y0161613D01*
X0064734Y0161863D02*
X0064734Y0160362D01*
X0065707Y0160362D02*
X0066708Y0160362D01*
X0064734Y0161863D02*
X0064234Y0161363D01*
X0078115Y0161863D02*
X0078115Y0160362D01*
X0078115Y0160862D02*
X0078866Y0160862D01*
X0079116Y0161112D01*
X0079116Y0161613D01*
X0078866Y0161863D01*
X0078115Y0161863D01*
X0078615Y0160862D02*
X0079116Y0160362D01*
X0079588Y0160362D02*
X0080589Y0160362D01*
X0081061Y0160362D02*
X0082062Y0160362D01*
X0081562Y0160362D02*
X0081562Y0161863D01*
X0081061Y0161363D01*
X0080089Y0161863D02*
X0080089Y0160362D01*
X0079588Y0161363D02*
X0080089Y0161863D01*
X0070219Y0130641D02*
X0069719Y0130641D01*
X0069468Y0130391D01*
X0068996Y0129890D02*
X0067995Y0129890D01*
X0068746Y0130641D01*
X0068746Y0129140D01*
X0069468Y0129140D02*
X0070469Y0130141D01*
X0070469Y0130391D01*
X0070219Y0130641D01*
X0070469Y0129140D02*
X0069468Y0129140D01*
X0067523Y0129140D02*
X0067022Y0129640D01*
X0067273Y0129640D02*
X0066522Y0129640D01*
X0066522Y0129140D02*
X0066522Y0130641D01*
X0067273Y0130641D01*
X0067523Y0130391D01*
X0067523Y0129890D01*
X0067273Y0129640D01*
X0061164Y0119617D02*
X0060413Y0118867D01*
X0061414Y0118867D01*
X0061164Y0119617D02*
X0061164Y0118116D01*
X0059941Y0118116D02*
X0058940Y0118116D01*
X0058468Y0118116D02*
X0057967Y0118617D01*
X0058217Y0118617D02*
X0057467Y0118617D01*
X0057467Y0118116D02*
X0057467Y0119617D01*
X0058217Y0119617D01*
X0058468Y0119367D01*
X0058468Y0118867D01*
X0058217Y0118617D01*
X0058940Y0119117D02*
X0059441Y0119617D01*
X0059441Y0118116D01*
X0059441Y0108594D02*
X0058940Y0108093D01*
X0058468Y0108344D02*
X0058468Y0107843D01*
X0058217Y0107593D01*
X0057467Y0107593D01*
X0057967Y0107593D02*
X0058468Y0107093D01*
X0058940Y0107093D02*
X0059941Y0107093D01*
X0059441Y0107093D02*
X0059441Y0108594D01*
X0060413Y0108594D02*
X0060413Y0107843D01*
X0060914Y0108093D01*
X0061164Y0108093D01*
X0061414Y0107843D01*
X0061414Y0107343D01*
X0061164Y0107093D01*
X0060664Y0107093D01*
X0060413Y0107343D01*
X0060413Y0108594D02*
X0061414Y0108594D01*
X0058468Y0108344D02*
X0058217Y0108594D01*
X0057467Y0108594D01*
X0057467Y0107093D01*
X0057467Y0098358D02*
X0058217Y0098358D01*
X0058468Y0098107D01*
X0058468Y0097607D01*
X0058217Y0097357D01*
X0057467Y0097357D01*
X0057967Y0097357D02*
X0058468Y0096856D01*
X0058940Y0097607D02*
X0059941Y0097607D01*
X0060413Y0098107D02*
X0060664Y0098358D01*
X0061164Y0098358D01*
X0061414Y0098107D01*
X0061414Y0097857D01*
X0061164Y0097607D01*
X0061414Y0097357D01*
X0061414Y0097107D01*
X0061164Y0096856D01*
X0060664Y0096856D01*
X0060413Y0097107D01*
X0060914Y0097607D02*
X0061164Y0097607D01*
X0059691Y0098358D02*
X0058940Y0097607D01*
X0059691Y0096856D02*
X0059691Y0098358D01*
X0057467Y0098358D02*
X0057467Y0096856D01*
X0050666Y0086973D02*
X0050166Y0086973D01*
X0049916Y0086723D01*
X0049916Y0086473D01*
X0050166Y0086223D01*
X0050917Y0086223D01*
X0050917Y0086723D02*
X0050666Y0086973D01*
X0050917Y0086723D02*
X0050917Y0085722D01*
X0050666Y0085472D01*
X0050166Y0085472D01*
X0049916Y0085722D01*
X0049443Y0085472D02*
X0048443Y0085472D01*
X0049443Y0086473D01*
X0049443Y0086723D01*
X0049193Y0086973D01*
X0048693Y0086973D01*
X0048443Y0086723D01*
X0047970Y0086723D02*
X0047720Y0086973D01*
X0047220Y0086973D01*
X0046969Y0086723D01*
X0046969Y0085722D01*
X0047220Y0085472D01*
X0047720Y0085472D01*
X0047970Y0085722D01*
X0053716Y0052962D02*
X0053465Y0052711D01*
X0053465Y0051710D01*
X0053716Y0051460D01*
X0054216Y0051460D01*
X0054466Y0051710D01*
X0054939Y0051710D02*
X0055189Y0051460D01*
X0055689Y0051460D01*
X0055939Y0051710D01*
X0055939Y0051961D01*
X0055689Y0052211D01*
X0055439Y0052211D01*
X0055689Y0052211D02*
X0055939Y0052461D01*
X0055939Y0052711D01*
X0055689Y0052962D01*
X0055189Y0052962D01*
X0054939Y0052711D01*
X0054466Y0052711D02*
X0054216Y0052962D01*
X0053716Y0052962D01*
X0056412Y0052711D02*
X0056412Y0052461D01*
X0056662Y0052211D01*
X0057413Y0052211D01*
X0057413Y0052711D02*
X0057162Y0052962D01*
X0056662Y0052962D01*
X0056412Y0052711D01*
X0056412Y0051710D02*
X0056662Y0051460D01*
X0057162Y0051460D01*
X0057413Y0051710D01*
X0057413Y0052711D01*
X0056533Y0038001D02*
X0056783Y0037751D01*
X0056783Y0037500D01*
X0056533Y0037250D01*
X0056032Y0037250D01*
X0055782Y0037500D01*
X0055782Y0037751D01*
X0056032Y0038001D01*
X0056533Y0038001D01*
X0056533Y0037250D02*
X0056783Y0037000D01*
X0056783Y0036750D01*
X0056533Y0036500D01*
X0056032Y0036500D01*
X0055782Y0036750D01*
X0055782Y0037000D01*
X0056032Y0037250D01*
X0055310Y0037000D02*
X0055310Y0036750D01*
X0055059Y0036500D01*
X0054559Y0036500D01*
X0054309Y0036750D01*
X0053836Y0036750D02*
X0053586Y0036500D01*
X0053086Y0036500D01*
X0052835Y0036750D01*
X0052835Y0037751D01*
X0053086Y0038001D01*
X0053586Y0038001D01*
X0053836Y0037751D01*
X0054309Y0037751D02*
X0054559Y0038001D01*
X0055059Y0038001D01*
X0055310Y0037751D01*
X0055310Y0037500D01*
X0055059Y0037250D01*
X0055310Y0037000D01*
X0055059Y0037250D02*
X0054809Y0037250D01*
X0127957Y0040244D02*
X0127957Y0041745D01*
X0128708Y0041745D01*
X0128958Y0041495D01*
X0128958Y0040994D01*
X0128708Y0040744D01*
X0127957Y0040744D01*
X0128458Y0040744D02*
X0128958Y0040244D01*
X0129431Y0040494D02*
X0129681Y0040244D01*
X0130181Y0040244D01*
X0130432Y0040494D01*
X0130432Y0040744D01*
X0130181Y0040994D01*
X0129431Y0040994D01*
X0129431Y0040494D01*
X0129431Y0040994D02*
X0129931Y0041495D01*
X0130432Y0041745D01*
X0130904Y0041495D02*
X0131154Y0041745D01*
X0131655Y0041745D01*
X0131905Y0041495D01*
X0131905Y0041245D01*
X0130904Y0040244D01*
X0131905Y0040244D01*
X0152703Y0034224D02*
X0152703Y0032722D01*
X0152703Y0033223D02*
X0153454Y0033223D01*
X0153704Y0033473D01*
X0153704Y0033973D01*
X0153454Y0034224D01*
X0152703Y0034224D01*
X0153203Y0033223D02*
X0153704Y0032722D01*
X0154176Y0032973D02*
X0154427Y0032722D01*
X0154927Y0032722D01*
X0155177Y0032973D01*
X0155177Y0033223D01*
X0154927Y0033473D01*
X0154176Y0033473D01*
X0154176Y0032973D01*
X0154176Y0033473D02*
X0154677Y0033973D01*
X0155177Y0034224D01*
X0155650Y0034224D02*
X0155650Y0033473D01*
X0156150Y0033723D01*
X0156400Y0033723D01*
X0156650Y0033473D01*
X0156650Y0032973D01*
X0156400Y0032722D01*
X0155900Y0032722D01*
X0155650Y0032973D01*
X0155650Y0034224D02*
X0156650Y0034224D01*
X0174729Y0039929D02*
X0174729Y0041430D01*
X0175480Y0041430D01*
X0175730Y0041180D01*
X0175730Y0040679D01*
X0175480Y0040429D01*
X0174729Y0040429D01*
X0175230Y0040429D02*
X0175730Y0039929D01*
X0176202Y0040179D02*
X0176453Y0039929D01*
X0176953Y0039929D01*
X0177203Y0040179D01*
X0177203Y0040429D01*
X0176953Y0040679D01*
X0176202Y0040679D01*
X0176202Y0040179D01*
X0176202Y0040679D02*
X0176703Y0041180D01*
X0177203Y0041430D01*
X0177676Y0040679D02*
X0178426Y0040679D01*
X0178676Y0040429D01*
X0178676Y0040179D01*
X0178426Y0039929D01*
X0177926Y0039929D01*
X0177676Y0040179D01*
X0177676Y0040679D01*
X0178176Y0041180D01*
X0178676Y0041430D01*
X0096564Y0123663D02*
X0096564Y0124414D01*
X0096314Y0124664D01*
X0095313Y0124664D01*
X0095062Y0124414D01*
X0095062Y0123663D01*
X0096564Y0123663D01*
X0096564Y0125137D02*
X0096564Y0126137D01*
X0096564Y0125637D02*
X0095062Y0125637D01*
X0095563Y0125137D01*
X0123784Y0162330D02*
X0123784Y0163832D01*
X0124535Y0163832D01*
X0124785Y0163581D01*
X0124785Y0163081D01*
X0124535Y0162831D01*
X0123784Y0162831D01*
X0124285Y0162831D02*
X0124785Y0162330D01*
X0125258Y0162581D02*
X0125508Y0162330D01*
X0126008Y0162330D01*
X0126258Y0162581D01*
X0126258Y0162831D01*
X0126008Y0163081D01*
X0125758Y0163081D01*
X0126008Y0163081D02*
X0126258Y0163331D01*
X0126258Y0163581D01*
X0126008Y0163832D01*
X0125508Y0163832D01*
X0125258Y0163581D01*
X0126731Y0163832D02*
X0127732Y0163832D01*
X0127732Y0163581D01*
X0126731Y0162581D01*
X0126731Y0162330D01*
X0123762Y0190951D02*
X0123262Y0190951D01*
X0123012Y0191201D01*
X0123012Y0191701D02*
X0123512Y0191952D01*
X0123762Y0191952D01*
X0124013Y0191701D01*
X0124013Y0191201D01*
X0123762Y0190951D01*
X0123012Y0191701D02*
X0123012Y0192452D01*
X0124013Y0192452D01*
X0122539Y0192202D02*
X0122289Y0192452D01*
X0121789Y0192452D01*
X0121539Y0192202D01*
X0121066Y0192202D02*
X0121066Y0191701D01*
X0120816Y0191451D01*
X0120065Y0191451D01*
X0120065Y0190951D02*
X0120065Y0192452D01*
X0120816Y0192452D01*
X0121066Y0192202D01*
X0120566Y0191451D02*
X0121066Y0190951D01*
X0121539Y0190951D02*
X0122539Y0191952D01*
X0122539Y0192202D01*
X0122539Y0190951D02*
X0121539Y0190951D01*
X0121539Y0207486D02*
X0122539Y0208487D01*
X0122539Y0208737D01*
X0122289Y0208987D01*
X0121789Y0208987D01*
X0121539Y0208737D01*
X0121066Y0208737D02*
X0121066Y0208237D01*
X0120816Y0207987D01*
X0120065Y0207987D01*
X0120566Y0207987D02*
X0121066Y0207486D01*
X0121539Y0207486D02*
X0122539Y0207486D01*
X0123012Y0208237D02*
X0124013Y0208237D01*
X0123762Y0208987D02*
X0123012Y0208237D01*
X0123762Y0208987D02*
X0123762Y0207486D01*
X0121066Y0208737D02*
X0120816Y0208987D01*
X0120065Y0208987D01*
X0120065Y0207486D01*
X0120459Y0223234D02*
X0120459Y0224736D01*
X0121210Y0224736D01*
X0121460Y0224485D01*
X0121460Y0223985D01*
X0121210Y0223735D01*
X0120459Y0223735D01*
X0120959Y0223735D02*
X0121460Y0223234D01*
X0121932Y0223234D02*
X0122933Y0224235D01*
X0122933Y0224485D01*
X0122683Y0224736D01*
X0122182Y0224736D01*
X0121932Y0224485D01*
X0121932Y0223234D02*
X0122933Y0223234D01*
X0123405Y0223234D02*
X0124406Y0223234D01*
X0123906Y0223234D02*
X0123906Y0224736D01*
X0123405Y0224235D01*
X0123656Y0240163D02*
X0124156Y0240163D01*
X0124406Y0240414D01*
X0124406Y0241414D01*
X0124156Y0241665D01*
X0123656Y0241665D01*
X0123405Y0241414D01*
X0123405Y0241164D01*
X0123656Y0240914D01*
X0124406Y0240914D01*
X0123656Y0240163D02*
X0123405Y0240414D01*
X0122933Y0240163D02*
X0121932Y0240163D01*
X0121460Y0240163D02*
X0120959Y0240664D01*
X0121210Y0240664D02*
X0120459Y0240664D01*
X0120459Y0240163D02*
X0120459Y0241665D01*
X0121210Y0241665D01*
X0121460Y0241414D01*
X0121460Y0240914D01*
X0121210Y0240664D01*
X0121932Y0241164D02*
X0122433Y0241665D01*
X0122433Y0240163D01*
X0160005Y0212257D02*
X0160005Y0210756D01*
X0160005Y0211256D02*
X0160755Y0211256D01*
X0161006Y0211506D01*
X0161006Y0212007D01*
X0160755Y0212257D01*
X0160005Y0212257D01*
X0160505Y0211256D02*
X0161006Y0210756D01*
X0161478Y0210756D02*
X0162479Y0211756D01*
X0162479Y0212007D01*
X0162229Y0212257D01*
X0161728Y0212257D01*
X0161478Y0212007D01*
X0161478Y0210756D02*
X0162479Y0210756D01*
X0162951Y0211006D02*
X0163201Y0210756D01*
X0163702Y0210756D01*
X0163952Y0211006D01*
X0163952Y0211256D01*
X0163702Y0211506D01*
X0162951Y0211506D01*
X0162951Y0211006D01*
X0162951Y0211506D02*
X0163452Y0212007D01*
X0163952Y0212257D01*
X0183313Y0212534D02*
X0183313Y0211533D01*
X0183563Y0211060D02*
X0183313Y0210810D01*
X0183313Y0210310D01*
X0183563Y0210059D01*
X0183563Y0209587D02*
X0184064Y0209587D01*
X0184314Y0209337D01*
X0184314Y0208586D01*
X0184814Y0208586D02*
X0183313Y0208586D01*
X0183313Y0209337D01*
X0183563Y0209587D01*
X0184314Y0209087D02*
X0184814Y0209587D01*
X0184814Y0210059D02*
X0183813Y0211060D01*
X0183563Y0211060D01*
X0184564Y0211533D02*
X0184814Y0211533D01*
X0184564Y0211533D02*
X0183563Y0212534D01*
X0183313Y0212534D01*
X0184814Y0211060D02*
X0184814Y0210059D01*
X0210005Y0219417D02*
X0210005Y0220918D01*
X0210755Y0220918D01*
X0211006Y0220668D01*
X0211006Y0220168D01*
X0210755Y0219917D01*
X0210005Y0219917D01*
X0210505Y0219917D02*
X0211006Y0219417D01*
X0211478Y0219417D02*
X0212479Y0220418D01*
X0212479Y0220668D01*
X0212229Y0220918D01*
X0211728Y0220918D01*
X0211478Y0220668D01*
X0211478Y0219417D02*
X0212479Y0219417D01*
X0212951Y0219667D02*
X0212951Y0219917D01*
X0213201Y0220168D01*
X0213702Y0220168D01*
X0213952Y0219917D01*
X0213952Y0219667D01*
X0213702Y0219417D01*
X0213201Y0219417D01*
X0212951Y0219667D01*
X0213201Y0220168D02*
X0212951Y0220418D01*
X0212951Y0220668D01*
X0213201Y0220918D01*
X0213702Y0220918D01*
X0213952Y0220668D01*
X0213952Y0220418D01*
X0213702Y0220168D01*
X0252461Y0195849D02*
X0252711Y0196100D01*
X0252961Y0196100D01*
X0253211Y0195849D01*
X0253461Y0196100D01*
X0253712Y0196100D01*
X0253962Y0195849D01*
X0253962Y0195349D01*
X0253712Y0195099D01*
X0253712Y0194626D02*
X0252711Y0194626D01*
X0252461Y0194376D01*
X0252461Y0193626D01*
X0253962Y0193626D01*
X0253962Y0194376D01*
X0253712Y0194626D01*
X0253211Y0195599D02*
X0253211Y0195849D01*
X0252461Y0195849D02*
X0252461Y0195349D01*
X0252711Y0195099D01*
X0267421Y0194955D02*
X0267671Y0194705D01*
X0267421Y0194955D02*
X0267421Y0195456D01*
X0267671Y0195706D01*
X0267922Y0195706D01*
X0268922Y0194705D01*
X0268922Y0195706D01*
X0268672Y0194233D02*
X0267671Y0194233D01*
X0267421Y0193983D01*
X0267421Y0193232D01*
X0268922Y0193232D01*
X0268922Y0193983D01*
X0268672Y0194233D01*
X0265628Y0232472D02*
X0264628Y0232472D01*
X0265128Y0232472D02*
X0265128Y0233973D01*
X0264628Y0233473D01*
X0264155Y0233723D02*
X0263905Y0233973D01*
X0263405Y0233973D01*
X0263154Y0233723D01*
X0263154Y0233473D01*
X0263405Y0233223D01*
X0263905Y0233223D01*
X0264155Y0232972D01*
X0264155Y0232722D01*
X0263905Y0232472D01*
X0263405Y0232472D01*
X0263154Y0232722D01*
X0211910Y0178675D02*
X0211659Y0178675D01*
X0211659Y0177674D01*
X0211659Y0176702D02*
X0213161Y0176702D01*
X0213161Y0177202D02*
X0213161Y0176201D01*
X0213161Y0175729D02*
X0212660Y0175228D01*
X0212660Y0175479D02*
X0212660Y0174728D01*
X0213161Y0174728D02*
X0211659Y0174728D01*
X0211659Y0175479D01*
X0211910Y0175729D01*
X0212410Y0175729D01*
X0212660Y0175479D01*
X0212160Y0176201D02*
X0211659Y0176702D01*
X0212910Y0177674D02*
X0211910Y0178675D01*
X0212910Y0177674D02*
X0213161Y0177674D01*
X0202285Y0153989D02*
X0202535Y0153739D01*
X0202535Y0153489D01*
X0202285Y0153238D01*
X0201784Y0153238D01*
X0201534Y0153489D01*
X0201534Y0153739D01*
X0201784Y0153989D01*
X0202285Y0153989D01*
X0202285Y0153238D02*
X0202535Y0152988D01*
X0202535Y0152738D01*
X0202285Y0152488D01*
X0201784Y0152488D01*
X0201534Y0152738D01*
X0201534Y0152988D01*
X0201784Y0153238D01*
X0201062Y0152488D02*
X0200061Y0152488D01*
X0199588Y0152488D02*
X0199088Y0152988D01*
X0199338Y0152988D02*
X0198587Y0152988D01*
X0198587Y0152488D02*
X0198587Y0153989D01*
X0199338Y0153989D01*
X0199588Y0153739D01*
X0199588Y0153238D01*
X0199338Y0152988D01*
X0200061Y0153489D02*
X0200561Y0153989D01*
X0200561Y0152488D01*
X0288861Y0071192D02*
X0288861Y0069691D01*
X0288861Y0070191D02*
X0289612Y0070191D01*
X0289862Y0070442D01*
X0289862Y0070942D01*
X0289612Y0071192D01*
X0288861Y0071192D01*
X0289362Y0070191D02*
X0289862Y0069691D01*
X0290335Y0069691D02*
X0291335Y0069691D01*
X0290835Y0069691D02*
X0290835Y0071192D01*
X0290335Y0070692D01*
X0287425Y0063895D02*
X0287676Y0063644D01*
X0287676Y0063394D01*
X0287425Y0063144D01*
X0287676Y0062894D01*
X0287676Y0062644D01*
X0287425Y0062393D01*
X0286925Y0062393D01*
X0286675Y0062644D01*
X0286202Y0062644D02*
X0285952Y0062393D01*
X0285452Y0062393D01*
X0285202Y0062644D01*
X0285452Y0063144D02*
X0285952Y0063144D01*
X0286202Y0062894D01*
X0286202Y0062644D01*
X0285452Y0063144D02*
X0285202Y0063394D01*
X0285202Y0063644D01*
X0285452Y0063895D01*
X0285952Y0063895D01*
X0286202Y0063644D01*
X0286675Y0063644D02*
X0286925Y0063895D01*
X0287425Y0063895D01*
X0287425Y0063144D02*
X0287175Y0063144D01*
X0331265Y0063037D02*
X0331515Y0062787D01*
X0332015Y0062787D01*
X0332265Y0063037D01*
X0332265Y0063287D01*
X0332015Y0063538D01*
X0331515Y0063538D01*
X0331265Y0063788D01*
X0331265Y0064038D01*
X0331515Y0064288D01*
X0332015Y0064288D01*
X0332265Y0064038D01*
X0332738Y0064038D02*
X0332988Y0064288D01*
X0333488Y0064288D01*
X0333739Y0064038D01*
X0333739Y0063788D01*
X0332738Y0062787D01*
X0333739Y0062787D01*
X0335318Y0068904D02*
X0335318Y0070405D01*
X0336069Y0070405D01*
X0336319Y0070155D01*
X0336319Y0069654D01*
X0336069Y0069404D01*
X0335318Y0069404D01*
X0335818Y0069404D02*
X0336319Y0068904D01*
X0336791Y0069154D02*
X0336791Y0069404D01*
X0337042Y0069654D01*
X0337542Y0069654D01*
X0337792Y0069404D01*
X0337792Y0069154D01*
X0337542Y0068904D01*
X0337042Y0068904D01*
X0336791Y0069154D01*
X0337042Y0069654D02*
X0336791Y0069904D01*
X0336791Y0070155D01*
X0337042Y0070405D01*
X0337542Y0070405D01*
X0337792Y0070155D01*
X0337792Y0069904D01*
X0337542Y0069654D01*
X0354493Y0121779D02*
X0354493Y0123280D01*
X0355244Y0123280D01*
X0355494Y0123030D01*
X0355494Y0122530D01*
X0355244Y0122280D01*
X0354493Y0122280D01*
X0354993Y0122280D02*
X0355494Y0121779D01*
X0355966Y0122530D02*
X0356967Y0122530D01*
X0357439Y0122530D02*
X0357940Y0122780D01*
X0358190Y0122780D01*
X0358440Y0122530D01*
X0358440Y0122029D01*
X0358190Y0121779D01*
X0357690Y0121779D01*
X0357439Y0122029D01*
X0357439Y0122530D02*
X0357439Y0123280D01*
X0358440Y0123280D01*
X0356717Y0123280D02*
X0355966Y0122530D01*
X0356717Y0123280D02*
X0356717Y0121779D01*
X0356323Y0136346D02*
X0356323Y0137847D01*
X0355572Y0137097D01*
X0356573Y0137097D01*
X0357046Y0137097D02*
X0358047Y0137097D01*
X0357796Y0137847D02*
X0357046Y0137097D01*
X0357796Y0137847D02*
X0357796Y0136346D01*
X0355100Y0136346D02*
X0354600Y0136846D01*
X0354850Y0136846D02*
X0354099Y0136846D01*
X0354099Y0136346D02*
X0354099Y0137847D01*
X0354850Y0137847D01*
X0355100Y0137597D01*
X0355100Y0137097D01*
X0354850Y0136846D01*
X0354706Y0152881D02*
X0354206Y0153382D01*
X0354456Y0153382D02*
X0353706Y0153382D01*
X0353706Y0152881D02*
X0353706Y0154383D01*
X0354456Y0154383D01*
X0354706Y0154133D01*
X0354706Y0153632D01*
X0354456Y0153382D01*
X0355179Y0153632D02*
X0355179Y0153132D01*
X0355429Y0152881D01*
X0355929Y0152881D01*
X0356180Y0153132D01*
X0356180Y0153382D01*
X0355929Y0153632D01*
X0355179Y0153632D01*
X0355679Y0154133D01*
X0356180Y0154383D01*
X0355929Y0166267D02*
X0355429Y0166267D01*
X0355179Y0166518D01*
X0355179Y0167018D02*
X0355679Y0167268D01*
X0355929Y0167268D01*
X0356180Y0167018D01*
X0356180Y0166518D01*
X0355929Y0166267D01*
X0355179Y0167018D02*
X0355179Y0167769D01*
X0356180Y0167769D01*
X0354706Y0167518D02*
X0354706Y0167018D01*
X0354456Y0166768D01*
X0353706Y0166768D01*
X0354206Y0166768D02*
X0354706Y0166267D01*
X0353706Y0166267D02*
X0353706Y0167769D01*
X0354456Y0167769D01*
X0354706Y0167518D01*
X0358510Y0182996D02*
X0358510Y0183746D01*
X0358760Y0183997D01*
X0359260Y0183997D01*
X0359511Y0183746D01*
X0359511Y0182996D01*
X0360011Y0182996D02*
X0358510Y0182996D01*
X0359511Y0183496D02*
X0360011Y0183997D01*
X0359260Y0184469D02*
X0359260Y0185470D01*
X0358760Y0185942D02*
X0358510Y0186192D01*
X0358510Y0186693D01*
X0358760Y0186943D01*
X0359761Y0185942D01*
X0360011Y0186192D01*
X0360011Y0186693D01*
X0359761Y0186943D01*
X0358760Y0186943D01*
X0358760Y0185942D02*
X0359761Y0185942D01*
X0360011Y0185220D02*
X0358510Y0185220D01*
X0359260Y0184469D01*
X0348713Y0185576D02*
X0347212Y0185576D01*
X0347212Y0186327D01*
X0347462Y0186577D01*
X0347963Y0186577D01*
X0348213Y0186327D01*
X0348213Y0185576D01*
X0348213Y0186076D02*
X0348713Y0186577D01*
X0347963Y0187049D02*
X0347212Y0187800D01*
X0348713Y0187800D01*
X0348713Y0188522D02*
X0348713Y0189523D01*
X0348713Y0189023D02*
X0347212Y0189023D01*
X0347713Y0188522D01*
X0347963Y0188050D02*
X0347963Y0187049D01*
X0035606Y0161219D02*
X0035355Y0161469D01*
X0034855Y0161469D01*
X0034605Y0161219D01*
X0034132Y0161219D02*
X0034132Y0160969D01*
X0033882Y0160719D01*
X0034132Y0160469D01*
X0034132Y0160218D01*
X0033882Y0159968D01*
X0033382Y0159968D01*
X0033132Y0160218D01*
X0032659Y0159968D02*
X0032159Y0160469D01*
X0032409Y0160469D02*
X0031658Y0160469D01*
X0031658Y0159968D02*
X0031658Y0161469D01*
X0032409Y0161469D01*
X0032659Y0161219D01*
X0032659Y0160719D01*
X0032409Y0160469D01*
X0033132Y0161219D02*
X0033382Y0161469D01*
X0033882Y0161469D01*
X0034132Y0161219D01*
X0033882Y0160719D02*
X0033632Y0160719D01*
X0034605Y0159968D02*
X0035606Y0160969D01*
X0035606Y0161219D01*
X0035606Y0159968D02*
X0034605Y0159968D01*
X0027014Y0139843D02*
X0027014Y0138342D01*
X0027514Y0138342D02*
X0026513Y0138342D01*
X0026041Y0138592D02*
X0026041Y0139843D01*
X0026513Y0139343D02*
X0027014Y0139843D01*
X0026041Y0138592D02*
X0025791Y0138342D01*
X0025290Y0138342D01*
X0025040Y0138592D01*
X0025040Y0139843D01*
D19*
X0058337Y0122666D03*
X0058337Y0111643D03*
X0058337Y0101406D03*
X0067392Y0133690D03*
X0130738Y0084910D03*
X0149439Y0084910D03*
X0153573Y0037272D03*
X0131407Y0037194D03*
X0178179Y0036879D03*
D20*
X0174518Y0065420D02*
X0174518Y0065660D01*
D21*
X0041801Y0099044D02*
X0041801Y0102981D01*
X0041801Y0099044D02*
X0037864Y0099044D01*
X0026053Y0099044D02*
X0022116Y0099044D01*
X0041801Y0126603D02*
X0041801Y0130540D01*
X0041730Y0130512D02*
X0037864Y0130512D01*
X0037864Y0130540D01*
X0026053Y0130540D02*
X0022116Y0130540D01*
D22*
X0049675Y0132509D02*
X0049675Y0135658D01*
X0055974Y0135658D01*
X0055974Y0132509D01*
X0049675Y0132509D01*
X0126841Y0132902D02*
X0129990Y0132902D01*
X0129990Y0139202D01*
X0126841Y0139202D01*
X0126841Y0132902D01*
X0306368Y0243532D02*
X0306368Y0262036D01*
X0306368Y0262233D01*
X0307260Y0260461D02*
X0307262Y0260520D01*
X0307268Y0260578D01*
X0307278Y0260636D01*
X0307291Y0260693D01*
X0307309Y0260750D01*
X0307330Y0260805D01*
X0307355Y0260858D01*
X0307383Y0260909D01*
X0307414Y0260959D01*
X0307449Y0261006D01*
X0307487Y0261051D01*
X0307528Y0261094D01*
X0307572Y0261133D01*
X0307618Y0261169D01*
X0307666Y0261203D01*
X0307717Y0261233D01*
X0307770Y0261259D01*
X0307824Y0261282D01*
X0307879Y0261301D01*
X0307936Y0261317D01*
X0307994Y0261329D01*
X0308052Y0261337D01*
X0308111Y0261341D01*
X0308169Y0261341D01*
X0308228Y0261337D01*
X0308286Y0261329D01*
X0308344Y0261317D01*
X0308401Y0261301D01*
X0308456Y0261282D01*
X0308510Y0261259D01*
X0308563Y0261233D01*
X0308614Y0261203D01*
X0308662Y0261169D01*
X0308708Y0261133D01*
X0308752Y0261094D01*
X0308793Y0261051D01*
X0308831Y0261006D01*
X0308866Y0260959D01*
X0308897Y0260909D01*
X0308925Y0260858D01*
X0308950Y0260805D01*
X0308971Y0260750D01*
X0308989Y0260693D01*
X0309002Y0260636D01*
X0309012Y0260578D01*
X0309018Y0260520D01*
X0309020Y0260461D01*
X0309018Y0260402D01*
X0309012Y0260344D01*
X0309002Y0260286D01*
X0308989Y0260229D01*
X0308971Y0260172D01*
X0308950Y0260117D01*
X0308925Y0260064D01*
X0308897Y0260013D01*
X0308866Y0259963D01*
X0308831Y0259916D01*
X0308793Y0259871D01*
X0308752Y0259828D01*
X0308708Y0259789D01*
X0308662Y0259753D01*
X0308614Y0259719D01*
X0308563Y0259689D01*
X0308510Y0259663D01*
X0308456Y0259640D01*
X0308401Y0259621D01*
X0308344Y0259605D01*
X0308286Y0259593D01*
X0308228Y0259585D01*
X0308169Y0259581D01*
X0308111Y0259581D01*
X0308052Y0259585D01*
X0307994Y0259593D01*
X0307936Y0259605D01*
X0307879Y0259621D01*
X0307824Y0259640D01*
X0307770Y0259663D01*
X0307717Y0259689D01*
X0307666Y0259719D01*
X0307618Y0259753D01*
X0307572Y0259789D01*
X0307528Y0259828D01*
X0307487Y0259871D01*
X0307449Y0259916D01*
X0307414Y0259963D01*
X0307383Y0260013D01*
X0307355Y0260064D01*
X0307330Y0260117D01*
X0307309Y0260172D01*
X0307291Y0260229D01*
X0307278Y0260286D01*
X0307268Y0260344D01*
X0307262Y0260402D01*
X0307260Y0260461D01*
X0306368Y0243532D02*
X0392982Y0243532D01*
X0392982Y0262036D01*
X0392982Y0262233D01*
X0390527Y0260658D02*
X0390529Y0260717D01*
X0390535Y0260775D01*
X0390545Y0260833D01*
X0390558Y0260890D01*
X0390576Y0260947D01*
X0390597Y0261002D01*
X0390622Y0261055D01*
X0390650Y0261106D01*
X0390681Y0261156D01*
X0390716Y0261203D01*
X0390754Y0261248D01*
X0390795Y0261291D01*
X0390839Y0261330D01*
X0390885Y0261366D01*
X0390933Y0261400D01*
X0390984Y0261430D01*
X0391037Y0261456D01*
X0391091Y0261479D01*
X0391146Y0261498D01*
X0391203Y0261514D01*
X0391261Y0261526D01*
X0391319Y0261534D01*
X0391378Y0261538D01*
X0391436Y0261538D01*
X0391495Y0261534D01*
X0391553Y0261526D01*
X0391611Y0261514D01*
X0391668Y0261498D01*
X0391723Y0261479D01*
X0391777Y0261456D01*
X0391830Y0261430D01*
X0391881Y0261400D01*
X0391929Y0261366D01*
X0391975Y0261330D01*
X0392019Y0261291D01*
X0392060Y0261248D01*
X0392098Y0261203D01*
X0392133Y0261156D01*
X0392164Y0261106D01*
X0392192Y0261055D01*
X0392217Y0261002D01*
X0392238Y0260947D01*
X0392256Y0260890D01*
X0392269Y0260833D01*
X0392279Y0260775D01*
X0392285Y0260717D01*
X0392287Y0260658D01*
X0392285Y0260599D01*
X0392279Y0260541D01*
X0392269Y0260483D01*
X0392256Y0260426D01*
X0392238Y0260369D01*
X0392217Y0260314D01*
X0392192Y0260261D01*
X0392164Y0260210D01*
X0392133Y0260160D01*
X0392098Y0260113D01*
X0392060Y0260068D01*
X0392019Y0260025D01*
X0391975Y0259986D01*
X0391929Y0259950D01*
X0391881Y0259916D01*
X0391830Y0259886D01*
X0391777Y0259860D01*
X0391723Y0259837D01*
X0391668Y0259818D01*
X0391611Y0259802D01*
X0391553Y0259790D01*
X0391495Y0259782D01*
X0391436Y0259778D01*
X0391378Y0259778D01*
X0391319Y0259782D01*
X0391261Y0259790D01*
X0391203Y0259802D01*
X0391146Y0259818D01*
X0391091Y0259837D01*
X0391037Y0259860D01*
X0390984Y0259886D01*
X0390933Y0259916D01*
X0390885Y0259950D01*
X0390839Y0259986D01*
X0390795Y0260025D01*
X0390754Y0260068D01*
X0390716Y0260113D01*
X0390681Y0260160D01*
X0390650Y0260210D01*
X0390622Y0260261D01*
X0390597Y0260314D01*
X0390576Y0260369D01*
X0390558Y0260426D01*
X0390545Y0260483D01*
X0390535Y0260541D01*
X0390529Y0260599D01*
X0390527Y0260658D01*
D23*
X0269822Y0133296D02*
X0269824Y0133363D01*
X0269830Y0133429D01*
X0269840Y0133495D01*
X0269854Y0133560D01*
X0269871Y0133624D01*
X0269893Y0133687D01*
X0269918Y0133749D01*
X0269947Y0133809D01*
X0269980Y0133867D01*
X0270015Y0133923D01*
X0270055Y0133977D01*
X0270097Y0134028D01*
X0270142Y0134077D01*
X0270190Y0134123D01*
X0270241Y0134166D01*
X0270294Y0134206D01*
X0270350Y0134243D01*
X0270408Y0134276D01*
X0270467Y0134306D01*
X0270528Y0134332D01*
X0270591Y0134355D01*
X0270655Y0134373D01*
X0270720Y0134388D01*
X0270786Y0134399D01*
X0270852Y0134406D01*
X0270918Y0134409D01*
X0270985Y0134408D01*
X0271051Y0134403D01*
X0271117Y0134394D01*
X0271183Y0134381D01*
X0271247Y0134364D01*
X0271310Y0134344D01*
X0271372Y0134319D01*
X0271433Y0134291D01*
X0271492Y0134260D01*
X0271548Y0134225D01*
X0271603Y0134187D01*
X0271655Y0134145D01*
X0271704Y0134100D01*
X0271751Y0134053D01*
X0271795Y0134003D01*
X0271835Y0133950D01*
X0271873Y0133895D01*
X0271907Y0133838D01*
X0271938Y0133779D01*
X0271965Y0133718D01*
X0271988Y0133656D01*
X0272008Y0133592D01*
X0272024Y0133527D01*
X0272036Y0133462D01*
X0272044Y0133396D01*
X0272048Y0133329D01*
X0272048Y0133263D01*
X0272044Y0133196D01*
X0272036Y0133130D01*
X0272024Y0133065D01*
X0272008Y0133000D01*
X0271988Y0132936D01*
X0271965Y0132874D01*
X0271938Y0132813D01*
X0271907Y0132754D01*
X0271873Y0132697D01*
X0271835Y0132642D01*
X0271795Y0132589D01*
X0271751Y0132539D01*
X0271704Y0132492D01*
X0271655Y0132447D01*
X0271603Y0132405D01*
X0271548Y0132367D01*
X0271491Y0132332D01*
X0271433Y0132301D01*
X0271372Y0132273D01*
X0271310Y0132248D01*
X0271247Y0132228D01*
X0271183Y0132211D01*
X0271117Y0132198D01*
X0271051Y0132189D01*
X0270985Y0132184D01*
X0270918Y0132183D01*
X0270852Y0132186D01*
X0270786Y0132193D01*
X0270720Y0132204D01*
X0270655Y0132219D01*
X0270591Y0132237D01*
X0270528Y0132260D01*
X0270467Y0132286D01*
X0270408Y0132316D01*
X0270350Y0132349D01*
X0270294Y0132386D01*
X0270241Y0132426D01*
X0270190Y0132469D01*
X0270142Y0132515D01*
X0270097Y0132564D01*
X0270055Y0132615D01*
X0270015Y0132669D01*
X0269980Y0132725D01*
X0269947Y0132783D01*
X0269918Y0132843D01*
X0269893Y0132905D01*
X0269871Y0132968D01*
X0269854Y0133032D01*
X0269840Y0133097D01*
X0269830Y0133163D01*
X0269824Y0133229D01*
X0269822Y0133296D01*
D24*
X0271919Y0127784D03*
X0273888Y0127784D03*
X0275856Y0127784D03*
X0277825Y0127784D03*
X0279793Y0127784D03*
X0281762Y0127784D03*
X0283730Y0127784D03*
X0285699Y0127784D03*
X0287667Y0127784D03*
X0289636Y0127784D03*
X0291604Y0127784D03*
X0293573Y0127784D03*
X0295541Y0127784D03*
X0297510Y0127784D03*
X0299478Y0127784D03*
X0301447Y0127784D03*
X0301447Y0170304D03*
X0299478Y0170304D03*
X0297510Y0170304D03*
X0295541Y0170304D03*
X0293573Y0170304D03*
X0291604Y0170304D03*
X0289636Y0170304D03*
X0287667Y0170304D03*
X0285699Y0170304D03*
X0283730Y0170304D03*
X0281762Y0170304D03*
X0279793Y0170304D03*
X0277825Y0170304D03*
X0275856Y0170304D03*
X0273888Y0170304D03*
X0271919Y0170304D03*
D25*
X0265423Y0163808D03*
X0265423Y0161839D03*
X0265423Y0159871D03*
X0265423Y0157902D03*
X0265423Y0155934D03*
X0265423Y0153965D03*
X0265423Y0151997D03*
X0265423Y0150028D03*
X0265423Y0148060D03*
X0265423Y0146091D03*
X0265423Y0144123D03*
X0265423Y0142154D03*
X0265423Y0140186D03*
X0265423Y0138217D03*
X0265423Y0136249D03*
X0265423Y0134280D03*
X0307943Y0134280D03*
X0307943Y0136249D03*
X0307943Y0138217D03*
X0307943Y0140186D03*
X0307943Y0142154D03*
X0307943Y0144123D03*
X0307943Y0146091D03*
X0307943Y0148060D03*
X0307943Y0150028D03*
X0307943Y0151997D03*
X0307943Y0153965D03*
X0307943Y0155934D03*
X0307943Y0157902D03*
X0307943Y0159871D03*
X0307943Y0161839D03*
X0307943Y0163808D03*
D26*
X0143612Y0244083D03*
D27*
X0054711Y0172934D03*
M02*
