G75*
%MOIN*%
%OFA0B0*%
%FSLAX25Y25*%
%IPPOS*%
%LPD*%
%AMOC8*
5,1,8,0,0,1.08239X$1,22.5*
%
%ADD10R,0.28740X0.28740*%
%ADD11C,0.00875*%
%ADD12R,0.04331X0.03937*%
%ADD13C,0.06000*%
%ADD14R,0.07677X0.07677*%
%ADD15R,0.07087X0.07087*%
%ADD16R,0.03937X0.04331*%
%ADD17C,0.06000*%
%ADD18C,0.07400*%
%ADD19C,0.03175*%
%ADD20C,0.00803*%
%ADD21C,0.01000*%
%ADD22C,0.04000*%
%ADD23C,0.01600*%
%ADD24C,0.03962*%
%ADD25C,0.05000*%
%ADD26C,0.15811*%
D10*
X0046722Y0069674D03*
X0046526Y0156131D03*
X0378809Y0156131D03*
X0379006Y0069674D03*
D11*
X0350724Y0093156D02*
X0350724Y0095782D01*
X0353350Y0095782D01*
X0353350Y0093156D01*
X0350724Y0093156D01*
X0350724Y0094030D02*
X0353350Y0094030D01*
X0353350Y0094904D02*
X0350724Y0094904D01*
X0350724Y0095778D02*
X0353350Y0095778D01*
X0350724Y0099156D02*
X0350724Y0101782D01*
X0353350Y0101782D01*
X0353350Y0099156D01*
X0350724Y0099156D01*
X0350724Y0100030D02*
X0353350Y0100030D01*
X0353350Y0100904D02*
X0350724Y0100904D01*
X0350724Y0101778D02*
X0353350Y0101778D01*
X0332220Y0102176D02*
X0332220Y0099550D01*
X0332220Y0102176D02*
X0334846Y0102176D01*
X0334846Y0099550D01*
X0332220Y0099550D01*
X0332220Y0100424D02*
X0334846Y0100424D01*
X0334846Y0101298D02*
X0332220Y0101298D01*
X0332220Y0102172D02*
X0334846Y0102172D01*
X0332220Y0096176D02*
X0332220Y0093550D01*
X0332220Y0096176D02*
X0334846Y0096176D01*
X0334846Y0093550D01*
X0332220Y0093550D01*
X0332220Y0094424D02*
X0334846Y0094424D01*
X0334846Y0095298D02*
X0332220Y0095298D01*
X0332220Y0096172D02*
X0334846Y0096172D01*
X0336307Y0209936D02*
X0338933Y0209936D01*
X0336307Y0209936D02*
X0336307Y0212562D01*
X0338933Y0212562D01*
X0338933Y0209936D01*
X0338933Y0210810D02*
X0336307Y0210810D01*
X0336307Y0211684D02*
X0338933Y0211684D01*
X0338933Y0212558D02*
X0336307Y0212558D01*
X0342307Y0209936D02*
X0344933Y0209936D01*
X0342307Y0209936D02*
X0342307Y0212562D01*
X0344933Y0212562D01*
X0344933Y0209936D01*
X0344933Y0210810D02*
X0342307Y0210810D01*
X0342307Y0211684D02*
X0344933Y0211684D01*
X0344933Y0212558D02*
X0342307Y0212558D01*
X0329972Y0225160D02*
X0327346Y0225160D01*
X0329972Y0225160D02*
X0329972Y0222534D01*
X0327346Y0222534D01*
X0327346Y0225160D01*
X0327346Y0223408D02*
X0329972Y0223408D01*
X0329972Y0224282D02*
X0327346Y0224282D01*
X0327346Y0225156D02*
X0329972Y0225156D01*
X0323972Y0225160D02*
X0321346Y0225160D01*
X0323972Y0225160D02*
X0323972Y0222534D01*
X0321346Y0222534D01*
X0321346Y0225160D01*
X0321346Y0223408D02*
X0323972Y0223408D01*
X0323972Y0224282D02*
X0321346Y0224282D01*
X0321346Y0225156D02*
X0323972Y0225156D01*
X0311469Y0224373D02*
X0308843Y0224373D01*
X0311469Y0224373D02*
X0311469Y0221747D01*
X0308843Y0221747D01*
X0308843Y0224373D01*
X0308843Y0222621D02*
X0311469Y0222621D01*
X0311469Y0223495D02*
X0308843Y0223495D01*
X0308843Y0224369D02*
X0311469Y0224369D01*
X0305469Y0224373D02*
X0302843Y0224373D01*
X0305469Y0224373D02*
X0305469Y0221747D01*
X0302843Y0221747D01*
X0302843Y0224373D01*
X0302843Y0222621D02*
X0305469Y0222621D01*
X0305469Y0223495D02*
X0302843Y0223495D01*
X0302843Y0224369D02*
X0305469Y0224369D01*
X0384059Y0223830D02*
X0384059Y0221204D01*
X0381433Y0221204D01*
X0381433Y0223830D01*
X0384059Y0223830D01*
X0384059Y0222078D02*
X0381433Y0222078D01*
X0381433Y0222952D02*
X0384059Y0222952D01*
X0384059Y0223826D02*
X0381433Y0223826D01*
X0384059Y0217830D02*
X0384059Y0215204D01*
X0381433Y0215204D01*
X0381433Y0217830D01*
X0384059Y0217830D01*
X0384059Y0216078D02*
X0381433Y0216078D01*
X0381433Y0216952D02*
X0384059Y0216952D01*
X0384059Y0217826D02*
X0381433Y0217826D01*
X0395083Y0217830D02*
X0395083Y0215204D01*
X0392457Y0215204D01*
X0392457Y0217830D01*
X0395083Y0217830D01*
X0395083Y0216078D02*
X0392457Y0216078D01*
X0392457Y0216952D02*
X0395083Y0216952D01*
X0395083Y0217826D02*
X0392457Y0217826D01*
X0395083Y0221204D02*
X0395083Y0223830D01*
X0395083Y0221204D02*
X0392457Y0221204D01*
X0392457Y0223830D01*
X0395083Y0223830D01*
X0395083Y0222078D02*
X0392457Y0222078D01*
X0392457Y0222952D02*
X0395083Y0222952D01*
X0395083Y0223826D02*
X0392457Y0223826D01*
X0200331Y0150995D02*
X0200331Y0148369D01*
X0200331Y0150995D02*
X0202957Y0150995D01*
X0202957Y0148369D01*
X0200331Y0148369D01*
X0200331Y0149243D02*
X0202957Y0149243D01*
X0202957Y0150117D02*
X0200331Y0150117D01*
X0200331Y0150991D02*
X0202957Y0150991D01*
X0200331Y0144995D02*
X0200331Y0142369D01*
X0200331Y0144995D02*
X0202957Y0144995D01*
X0202957Y0142369D01*
X0200331Y0142369D01*
X0200331Y0143243D02*
X0202957Y0143243D01*
X0202957Y0144117D02*
X0200331Y0144117D01*
X0200331Y0144991D02*
X0202957Y0144991D01*
X0201906Y0126979D02*
X0201906Y0124353D01*
X0201906Y0126979D02*
X0204532Y0126979D01*
X0204532Y0124353D01*
X0201906Y0124353D01*
X0201906Y0125227D02*
X0204532Y0125227D01*
X0204532Y0126101D02*
X0201906Y0126101D01*
X0201906Y0126975D02*
X0204532Y0126975D01*
X0201906Y0120979D02*
X0201906Y0118353D01*
X0201906Y0120979D02*
X0204532Y0120979D01*
X0204532Y0118353D01*
X0201906Y0118353D01*
X0201906Y0119227D02*
X0204532Y0119227D01*
X0204532Y0120101D02*
X0201906Y0120101D01*
X0201906Y0120975D02*
X0204532Y0120975D01*
X0177890Y0121767D02*
X0177890Y0119141D01*
X0177890Y0121767D02*
X0180516Y0121767D01*
X0180516Y0119141D01*
X0177890Y0119141D01*
X0177890Y0120015D02*
X0180516Y0120015D01*
X0180516Y0120889D02*
X0177890Y0120889D01*
X0177890Y0121763D02*
X0180516Y0121763D01*
X0177890Y0125141D02*
X0177890Y0127767D01*
X0180516Y0127767D01*
X0180516Y0125141D01*
X0177890Y0125141D01*
X0177890Y0126015D02*
X0180516Y0126015D01*
X0180516Y0126889D02*
X0177890Y0126889D01*
X0177890Y0127763D02*
X0180516Y0127763D01*
X0178283Y0142763D02*
X0178283Y0145389D01*
X0180909Y0145389D01*
X0180909Y0142763D01*
X0178283Y0142763D01*
X0178283Y0143637D02*
X0180909Y0143637D01*
X0180909Y0144511D02*
X0178283Y0144511D01*
X0178283Y0145385D02*
X0180909Y0145385D01*
X0178283Y0148763D02*
X0178283Y0151389D01*
X0180909Y0151389D01*
X0180909Y0148763D01*
X0178283Y0148763D01*
X0178283Y0149637D02*
X0180909Y0149637D01*
X0180909Y0150511D02*
X0178283Y0150511D01*
X0178283Y0151385D02*
X0180909Y0151385D01*
X0154661Y0151389D02*
X0154661Y0148763D01*
X0154661Y0151389D02*
X0157287Y0151389D01*
X0157287Y0148763D01*
X0154661Y0148763D01*
X0154661Y0149637D02*
X0157287Y0149637D01*
X0157287Y0150511D02*
X0154661Y0150511D01*
X0154661Y0151385D02*
X0157287Y0151385D01*
X0154661Y0145389D02*
X0154661Y0142763D01*
X0154661Y0145389D02*
X0157287Y0145389D01*
X0157287Y0142763D01*
X0154661Y0142763D01*
X0154661Y0143637D02*
X0157287Y0143637D01*
X0157287Y0144511D02*
X0154661Y0144511D01*
X0154661Y0145385D02*
X0157287Y0145385D01*
X0155449Y0127767D02*
X0155449Y0125141D01*
X0155449Y0127767D02*
X0158075Y0127767D01*
X0158075Y0125141D01*
X0155449Y0125141D01*
X0155449Y0126015D02*
X0158075Y0126015D01*
X0158075Y0126889D02*
X0155449Y0126889D01*
X0155449Y0127763D02*
X0158075Y0127763D01*
X0155449Y0121767D02*
X0155449Y0119141D01*
X0155449Y0121767D02*
X0158075Y0121767D01*
X0158075Y0119141D01*
X0155449Y0119141D01*
X0155449Y0120015D02*
X0158075Y0120015D01*
X0158075Y0120889D02*
X0155449Y0120889D01*
X0155449Y0121763D02*
X0158075Y0121763D01*
X0134189Y0120979D02*
X0134189Y0118353D01*
X0134189Y0120979D02*
X0136815Y0120979D01*
X0136815Y0118353D01*
X0134189Y0118353D01*
X0134189Y0119227D02*
X0136815Y0119227D01*
X0136815Y0120101D02*
X0134189Y0120101D01*
X0134189Y0120975D02*
X0136815Y0120975D01*
X0134189Y0124353D02*
X0134189Y0126979D01*
X0136815Y0126979D01*
X0136815Y0124353D01*
X0134189Y0124353D01*
X0134189Y0125227D02*
X0136815Y0125227D01*
X0136815Y0126101D02*
X0134189Y0126101D01*
X0134189Y0126975D02*
X0136815Y0126975D01*
X0133795Y0143944D02*
X0133795Y0146570D01*
X0136421Y0146570D01*
X0136421Y0143944D01*
X0133795Y0143944D01*
X0133795Y0144818D02*
X0136421Y0144818D01*
X0136421Y0145692D02*
X0133795Y0145692D01*
X0133795Y0146566D02*
X0136421Y0146566D01*
X0133795Y0149944D02*
X0133795Y0152570D01*
X0136421Y0152570D01*
X0136421Y0149944D01*
X0133795Y0149944D01*
X0133795Y0150818D02*
X0136421Y0150818D01*
X0136421Y0151692D02*
X0133795Y0151692D01*
X0133795Y0152566D02*
X0136421Y0152566D01*
D12*
X0187274Y0236839D03*
X0193967Y0236839D03*
X0193967Y0251800D03*
X0187274Y0251800D03*
X0262864Y0250619D03*
X0269557Y0250619D03*
X0338848Y0223454D03*
X0345541Y0223454D03*
X0246722Y0156524D03*
X0240030Y0156524D03*
X0239242Y0132509D03*
X0245935Y0132509D03*
D13*
X0382896Y0126249D02*
X0388896Y0126249D01*
X0388896Y0116249D02*
X0382896Y0116249D01*
X0382896Y0106249D02*
X0388896Y0106249D01*
X0388896Y0096249D02*
X0382896Y0096249D01*
D14*
X0175659Y0298257D03*
X0175659Y0352587D03*
D15*
X0237470Y0333690D03*
X0269754Y0333690D03*
D16*
X0373297Y0222863D03*
X0373297Y0216170D03*
D17*
X0257943Y0282351D03*
X0257943Y0292351D03*
X0257943Y0302351D03*
D18*
X0241329Y0076603D03*
X0231329Y0076603D03*
X0221329Y0076603D03*
X0221329Y0059674D03*
X0231329Y0059674D03*
X0241329Y0059674D03*
D19*
X0224478Y0090383D03*
X0220541Y0094713D03*
X0217986Y0101213D03*
X0210699Y0097469D03*
X0204819Y0108526D03*
X0219754Y0119517D03*
X0224872Y0119910D03*
X0229848Y0111500D03*
X0227234Y0108493D03*
X0246919Y0101013D03*
X0246919Y0117548D03*
X0253219Y0120337D03*
X0279170Y0099865D03*
X0287110Y0109674D03*
X0287044Y0117730D03*
X0284551Y0120859D03*
X0292622Y0121482D03*
X0296094Y0119334D03*
X0300069Y0119334D03*
X0292195Y0140776D03*
X0280778Y0143926D03*
X0279990Y0139951D03*
X0272904Y0151013D03*
X0278809Y0156131D03*
X0283533Y0160855D03*
X0292195Y0150619D03*
X0271522Y0180733D03*
X0264242Y0186446D03*
X0260305Y0183690D03*
X0267760Y0194713D03*
X0247707Y0203375D03*
X0240620Y0195501D03*
X0236289Y0202981D03*
X0231962Y0192741D03*
X0235108Y0189595D03*
X0240686Y0186806D03*
X0241014Y0178965D03*
X0231204Y0160677D03*
X0251250Y0156918D03*
X0216965Y0138414D03*
X0213455Y0133690D03*
X0209911Y0141957D03*
X0216604Y0189202D03*
X0192589Y0208887D03*
X0166998Y0245501D03*
X0066604Y0123060D03*
X0066998Y0111643D03*
X0068967Y0101013D03*
X0147313Y0108887D03*
X0296919Y0074241D03*
X0299708Y0078965D03*
X0333533Y0106131D03*
X0328809Y0113578D03*
X0332746Y0116367D03*
X0336256Y0130934D03*
X0339045Y0134477D03*
X0338652Y0159280D03*
X0346919Y0101013D03*
X0342589Y0073454D03*
D20*
X0337077Y0078965D01*
X0299708Y0078965D01*
X0296919Y0074241D02*
X0296919Y0116184D01*
X0300069Y0119334D01*
X0296094Y0119334D02*
X0296094Y0118658D01*
X0287110Y0109674D01*
X0284321Y0115008D02*
X0287044Y0117730D01*
X0287871Y0121482D02*
X0285706Y0123648D01*
X0283396Y0123648D01*
X0279170Y0119422D01*
X0279170Y0099865D01*
X0281959Y0097076D02*
X0222123Y0097076D01*
X0217986Y0101213D01*
X0213841Y0097469D02*
X0219386Y0091924D01*
X0222937Y0091924D01*
X0224478Y0090383D01*
X0220541Y0094713D02*
X0283927Y0094713D01*
X0284321Y0094320D01*
X0284321Y0115008D01*
X0281959Y0118267D02*
X0281959Y0097076D01*
X0281959Y0118267D02*
X0284551Y0120859D01*
X0287871Y0121482D02*
X0292622Y0121482D01*
X0311093Y0126997D02*
X0281959Y0156131D01*
X0278809Y0156131D01*
X0283533Y0159280D02*
X0283533Y0160855D01*
X0283533Y0159280D02*
X0292195Y0150619D01*
X0289045Y0143926D02*
X0280778Y0143926D01*
X0279990Y0139951D02*
X0272833Y0139951D01*
X0253219Y0120337D01*
X0246919Y0117548D02*
X0245935Y0118532D01*
X0245935Y0132509D01*
X0231204Y0112857D02*
X0231204Y0160677D01*
X0246722Y0156524D02*
X0247116Y0156918D01*
X0251250Y0156918D01*
X0272904Y0161643D02*
X0272904Y0151013D01*
X0272904Y0161643D02*
X0255581Y0178965D01*
X0241014Y0178965D01*
X0244590Y0182902D02*
X0248888Y0182902D01*
X0249675Y0182115D01*
X0256762Y0182115D01*
X0258143Y0180733D01*
X0271522Y0180733D01*
X0264242Y0186446D02*
X0263061Y0187627D01*
X0246132Y0187627D01*
X0241047Y0192712D01*
X0239465Y0192712D01*
X0239435Y0192741D01*
X0231962Y0192741D01*
X0231171Y0195894D02*
X0240226Y0195894D01*
X0240620Y0195501D01*
X0236289Y0202981D02*
X0247313Y0202981D01*
X0247707Y0203375D01*
X0241896Y0189595D02*
X0235108Y0189595D01*
X0240686Y0186806D02*
X0244590Y0182902D01*
X0245468Y0186024D02*
X0257971Y0186024D01*
X0260305Y0183690D01*
X0267760Y0194713D02*
X0318967Y0194713D01*
X0337077Y0176603D01*
X0337077Y0161650D01*
X0335863Y0160436D01*
X0335863Y0158125D01*
X0336256Y0157731D01*
X0336256Y0130934D01*
X0339045Y0134477D02*
X0338652Y0134871D01*
X0338652Y0159280D01*
X0315390Y0126997D02*
X0311093Y0126997D01*
X0315390Y0126997D02*
X0328809Y0113578D01*
X0350496Y0113578D01*
X0367785Y0096288D01*
X0385856Y0096288D01*
X0385896Y0096249D01*
X0352037Y0100469D02*
X0351494Y0101013D01*
X0346919Y0101013D01*
X0333533Y0100863D02*
X0333533Y0106131D01*
X0332746Y0116367D02*
X0332352Y0116761D01*
X0332352Y0123847D01*
X0210699Y0245501D01*
X0166998Y0245501D01*
X0192589Y0208887D02*
X0192589Y0176603D01*
X0213455Y0155737D01*
X0213455Y0133690D01*
X0216965Y0138414D02*
X0216965Y0188841D01*
X0216604Y0189202D01*
X0228415Y0193139D02*
X0231171Y0195894D01*
X0228415Y0193139D02*
X0228415Y0117548D01*
X0211880Y0101013D01*
X0068967Y0101013D01*
X0066998Y0111643D02*
X0126841Y0111643D01*
X0135867Y0102616D01*
X0207578Y0102616D01*
X0224872Y0119910D01*
X0231204Y0112857D02*
X0229848Y0111500D01*
X0227234Y0108493D02*
X0239439Y0108493D01*
X0246919Y0101013D01*
X0219754Y0119517D02*
X0205974Y0105737D01*
X0135502Y0105737D01*
X0125266Y0115973D01*
X0125266Y0128572D01*
X0119754Y0134083D01*
X0115817Y0134083D01*
X0104793Y0123060D01*
X0066604Y0123060D01*
X0147313Y0108887D02*
X0147674Y0108526D01*
X0204819Y0108526D01*
X0210699Y0097469D02*
X0213841Y0097469D01*
X0209911Y0141957D02*
X0208187Y0143682D01*
X0201644Y0143682D01*
X0245468Y0186024D02*
X0241896Y0189595D01*
X0289045Y0143926D02*
X0292195Y0140776D01*
D21*
X0292293Y0140678D01*
X0292293Y0135757D01*
X0328711Y0099339D01*
X0328711Y0093926D01*
X0332648Y0093926D01*
X0333140Y0094418D01*
X0333533Y0094863D01*
X0333632Y0094418D01*
X0351841Y0094418D01*
X0352037Y0094469D01*
X0360699Y0087036D02*
X0334616Y0060954D01*
X0268179Y0060954D01*
X0247510Y0081623D01*
X0239144Y0081623D01*
X0234222Y0076702D01*
X0231762Y0076702D01*
X0231329Y0076603D01*
X0226348Y0071288D02*
X0221427Y0076209D01*
X0221329Y0076603D01*
X0220935Y0076702D01*
X0217982Y0079654D01*
X0193376Y0079654D01*
X0185502Y0071780D01*
X0159419Y0071780D01*
X0159419Y0071288D01*
X0150561Y0062430D01*
X0150561Y0044221D01*
X0155482Y0042253D02*
X0170738Y0057509D01*
X0191407Y0064398D02*
X0198789Y0071780D01*
X0196329Y0091465D02*
X0175167Y0091465D01*
X0179596Y0120009D02*
X0179203Y0120454D01*
X0179104Y0120501D01*
X0156959Y0120501D01*
X0156762Y0120454D01*
X0156467Y0120009D01*
X0135797Y0120009D01*
X0135502Y0119666D01*
X0135305Y0120009D01*
X0132352Y0122961D01*
X0132352Y0123946D01*
X0128169Y0128129D01*
X0128415Y0128375D01*
X0128907Y0128375D01*
X0128169Y0128129D02*
X0117589Y0138709D01*
X0117589Y0144123D01*
X0131368Y0157902D01*
X0131368Y0164005D01*
X0131368Y0190383D01*
X0134321Y0193335D01*
X0136781Y0193335D01*
X0136781Y0229261D01*
X0135305Y0232706D02*
X0143179Y0232706D01*
X0149085Y0226800D01*
X0149577Y0226800D01*
X0183041Y0193335D01*
X0183041Y0179556D01*
X0186486Y0180048D02*
X0186486Y0195304D01*
X0147608Y0234182D01*
X0147608Y0234674D01*
X0123494Y0234674D01*
X0113652Y0244517D01*
X0112667Y0244517D01*
X0109222Y0245993D02*
X0124970Y0261741D01*
X0208140Y0261741D01*
X0211093Y0258788D01*
X0214393Y0260155D02*
X0214393Y0253224D01*
X0247313Y0220304D01*
X0243573Y0215481D02*
X0207156Y0251898D01*
X0194852Y0251898D01*
X0193967Y0251800D01*
X0194360Y0251898D01*
X0194360Y0258296D01*
X0187274Y0251800D02*
X0186978Y0251406D01*
X0168770Y0251406D01*
X0163848Y0246485D01*
X0163848Y0244517D01*
X0171230Y0237135D01*
X0171230Y0236643D01*
X0171230Y0237135D02*
X0186978Y0237135D01*
X0187274Y0236839D01*
X0193967Y0236839D02*
X0194360Y0237135D01*
X0205679Y0237135D01*
X0205679Y0242056D02*
X0219951Y0227784D01*
X0219951Y0135757D01*
X0214045Y0129851D01*
X0206663Y0129851D01*
X0203219Y0125914D02*
X0203219Y0125666D01*
X0203219Y0125914D02*
X0179104Y0125914D01*
X0179203Y0126454D01*
X0179104Y0126406D01*
X0156959Y0126406D01*
X0156762Y0126454D01*
X0156467Y0126406D01*
X0155974Y0125914D01*
X0135797Y0125914D01*
X0135502Y0125666D01*
X0135797Y0126406D01*
X0126939Y0135265D01*
X0126939Y0137725D01*
X0123494Y0137725D01*
X0126939Y0137725D02*
X0126939Y0145599D01*
X0132352Y0151013D01*
X0134813Y0151013D01*
X0135108Y0151257D01*
X0135305Y0151013D01*
X0155482Y0151013D01*
X0155974Y0150520D01*
X0155974Y0150076D01*
X0156467Y0150028D01*
X0179104Y0150028D01*
X0179596Y0150076D01*
X0179596Y0150028D01*
X0201250Y0150028D01*
X0201644Y0149682D01*
X0198297Y0157410D02*
X0198297Y0168237D01*
X0186486Y0180048D01*
X0191407Y0168729D02*
X0146132Y0168729D01*
X0124478Y0147076D01*
X0124478Y0145107D01*
X0122510Y0143139D01*
X0114636Y0145107D02*
X0114636Y0147076D01*
X0116604Y0149044D01*
X0114636Y0145107D02*
X0077234Y0145107D01*
X0079990Y0140514D02*
X0080778Y0139727D01*
X0080778Y0133296D01*
X0069360Y0143139D02*
X0092982Y0166761D01*
X0083140Y0174635D02*
X0098888Y0190383D01*
X0098888Y0219910D01*
X0077234Y0241564D01*
X0085896Y0241170D02*
X0101644Y0225422D01*
X0101644Y0216761D01*
X0102431Y0215973D01*
X0104400Y0215973D01*
X0113061Y0217548D02*
X0113061Y0202530D01*
X0115967Y0199624D01*
X0115967Y0179996D01*
X0119754Y0176209D01*
X0126447Y0170698D02*
X0104793Y0170698D01*
X0104793Y0178572D01*
X0108730Y0174635D02*
X0112667Y0178572D01*
X0112667Y0198257D01*
X0109222Y0187922D02*
X0109222Y0245993D01*
X0123494Y0239595D02*
X0147608Y0239595D01*
X0138750Y0245501D02*
X0157451Y0245501D01*
X0190915Y0212036D01*
X0193868Y0212036D01*
X0216506Y0189398D01*
X0216604Y0189202D01*
X0221919Y0192843D02*
X0221919Y0132804D01*
X0205679Y0116564D01*
X0203711Y0116564D01*
X0199774Y0112627D01*
X0205187Y0113119D02*
X0223888Y0131820D01*
X0223888Y0191367D01*
X0231270Y0198749D01*
X0241604Y0198749D01*
X0246033Y0194320D01*
X0247510Y0194320D01*
X0262274Y0205146D02*
X0262274Y0215481D01*
X0243573Y0215481D01*
X0237667Y0208591D02*
X0221919Y0192843D01*
X0239636Y0156426D02*
X0240030Y0156524D01*
X0239636Y0156426D02*
X0234715Y0151505D01*
X0234715Y0112135D01*
X0238159Y0117056D02*
X0238159Y0131328D01*
X0239144Y0132312D01*
X0239242Y0132509D01*
X0242589Y0127391D02*
X0242589Y0110166D01*
X0245541Y0107213D01*
X0246033Y0112135D02*
X0249970Y0116072D01*
X0249970Y0121485D01*
X0256860Y0128375D01*
X0256860Y0133788D01*
X0253415Y0135265D02*
X0253415Y0130343D01*
X0253415Y0135265D02*
X0256860Y0138709D01*
X0256860Y0143631D01*
X0268179Y0130343D02*
X0293278Y0130343D01*
X0325266Y0098355D01*
X0325266Y0092450D01*
X0327234Y0090481D01*
X0389242Y0090481D01*
X0397116Y0098355D01*
X0397116Y0256820D01*
X0357254Y0296682D01*
X0235207Y0296682D01*
X0235207Y0291761D02*
X0248986Y0277981D01*
X0257844Y0277981D01*
X0273100Y0262725D01*
X0273100Y0247961D01*
X0306565Y0214497D01*
X0321329Y0214497D01*
X0352825Y0183001D01*
X0352825Y0174143D01*
X0349872Y0172174D02*
X0349872Y0145599D01*
X0349380Y0144615D01*
X0341998Y0144615D01*
X0349872Y0145599D02*
X0349872Y0120009D01*
X0349380Y0119517D01*
X0350856Y0116072D02*
X0346919Y0116072D01*
X0317884Y0145107D01*
X0317884Y0157902D01*
X0314931Y0159871D02*
X0320344Y0165284D01*
X0323789Y0168729D02*
X0323297Y0169221D01*
X0314439Y0169221D01*
X0314931Y0159871D02*
X0303612Y0159871D01*
X0293770Y0157902D02*
X0293770Y0157410D01*
X0293770Y0157902D02*
X0275561Y0176111D01*
X0269163Y0176111D01*
X0268179Y0171190D02*
X0277530Y0171190D01*
X0290325Y0158394D01*
X0290325Y0155934D01*
X0292293Y0153965D01*
X0293278Y0153965D01*
X0314439Y0132804D01*
X0315915Y0123454D02*
X0311978Y0123454D01*
X0303612Y0131820D01*
X0301644Y0131820D01*
X0315915Y0123454D02*
X0325758Y0113611D01*
X0325758Y0112135D01*
X0327726Y0110166D01*
X0341998Y0110166D01*
X0350856Y0116072D02*
X0356762Y0121977D01*
X0356762Y0181032D01*
X0354793Y0183001D01*
X0354793Y0185954D01*
X0326250Y0214497D01*
X0331171Y0217942D02*
X0337569Y0211544D01*
X0337620Y0211249D01*
X0338061Y0211544D01*
X0341998Y0215481D01*
X0372510Y0215481D01*
X0373002Y0215973D01*
X0373297Y0216170D01*
X0373494Y0216465D01*
X0377923Y0216465D01*
X0377923Y0235658D01*
X0382352Y0237627D02*
X0379400Y0240580D01*
X0382352Y0237627D02*
X0382352Y0222863D01*
X0382746Y0222517D01*
X0382746Y0216517D02*
X0382844Y0216465D01*
X0393671Y0216465D01*
X0393770Y0216517D01*
X0393671Y0215973D01*
X0393671Y0172174D01*
X0394656Y0171190D01*
X0394656Y0124930D01*
X0386289Y0116564D01*
X0385896Y0116249D01*
X0385896Y0106249D02*
X0385797Y0106229D01*
X0379400Y0099831D01*
X0375463Y0099831D01*
X0365128Y0110166D01*
X0358730Y0110166D01*
X0361191Y0125914D02*
X0361191Y0138217D01*
X0353317Y0142154D02*
X0353317Y0128375D01*
X0376939Y0103276D02*
X0376939Y0154457D01*
X0378415Y0155934D01*
X0378809Y0156131D01*
X0374872Y0176603D02*
X0381171Y0182902D01*
X0381171Y0202194D01*
X0371722Y0211643D01*
X0361093Y0211643D01*
X0355581Y0206131D01*
X0355581Y0195107D01*
X0359715Y0202686D02*
X0359715Y0185954D01*
X0358238Y0184477D01*
X0349872Y0172174D02*
X0335846Y0186200D01*
X0339045Y0189398D01*
X0335846Y0186200D02*
X0321329Y0200717D01*
X0317392Y0200717D01*
X0269656Y0248454D01*
X0266703Y0248454D01*
X0265226Y0246977D01*
X0241112Y0246977D01*
X0236683Y0246485D02*
X0236683Y0270107D01*
X0232254Y0274536D01*
X0232254Y0278965D01*
X0235207Y0281918D01*
X0235207Y0286839D02*
X0230285Y0281918D01*
X0230285Y0273552D01*
X0233238Y0270599D01*
X0233238Y0259772D01*
X0233238Y0246977D02*
X0190423Y0289792D01*
X0190423Y0290284D01*
X0209616Y0290284D01*
X0207156Y0282410D02*
X0237175Y0312430D01*
X0237175Y0333591D01*
X0237470Y0333690D01*
X0267195Y0333591D02*
X0269656Y0333591D01*
X0269754Y0333690D01*
X0267195Y0333591D02*
X0213061Y0279457D01*
X0213061Y0277981D01*
X0206212Y0268335D02*
X0214393Y0260155D01*
X0206212Y0268335D02*
X0185108Y0268335D01*
X0190423Y0290284D02*
X0171722Y0290284D01*
X0171722Y0290776D01*
X0169754Y0292745D01*
X0169754Y0298650D01*
X0069360Y0298650D01*
X0049675Y0278965D01*
X0049675Y0255343D01*
X0043770Y0241564D02*
X0039833Y0237627D01*
X0039833Y0203375D01*
X0039439Y0203769D01*
X0026129Y0203769D01*
X0039833Y0203375D02*
X0039833Y0190383D01*
X0033927Y0184477D01*
X0055581Y0190383D02*
X0079203Y0166761D01*
X0087077Y0184477D02*
X0069360Y0184477D01*
X0055581Y0190383D02*
X0055581Y0223847D01*
X0043770Y0235658D01*
X0061486Y0245501D02*
X0061486Y0200225D01*
X0059518Y0198257D01*
X0078022Y0206918D02*
X0087470Y0216367D01*
X0094951Y0192351D02*
X0087077Y0184477D01*
X0109222Y0187922D02*
X0059518Y0138217D01*
X0059518Y0091957D01*
X0069852Y0081623D01*
X0219951Y0081623D01*
X0229301Y0090973D01*
X0239144Y0090973D01*
X0241329Y0076603D02*
X0241604Y0076209D01*
X0258829Y0058985D01*
X0335600Y0058985D01*
X0358238Y0081623D01*
X0360207Y0081623D01*
X0348888Y0069320D02*
X0336585Y0057017D01*
X0251447Y0057017D01*
X0237175Y0071288D01*
X0226348Y0071288D01*
X0228317Y0059477D02*
X0207648Y0038808D01*
X0126939Y0038808D01*
X0086093Y0079654D01*
X0068868Y0079654D01*
X0046722Y0101800D01*
X0046722Y0155934D01*
X0046526Y0156131D01*
X0071821Y0108198D02*
X0087569Y0108198D01*
X0125463Y0108198D01*
X0117096Y0115087D02*
X0117096Y0122961D01*
X0130384Y0144123D02*
X0133829Y0144123D01*
X0134813Y0145107D01*
X0135108Y0145257D01*
X0134321Y0144123D01*
X0155974Y0144123D01*
X0155974Y0144076D01*
X0156467Y0144123D01*
X0179104Y0144123D01*
X0179596Y0144076D01*
X0179596Y0144123D01*
X0201250Y0144123D01*
X0201644Y0143682D01*
X0203219Y0120009D02*
X0179596Y0120009D01*
X0203219Y0120009D02*
X0203219Y0119666D01*
X0228317Y0059477D02*
X0231270Y0059477D01*
X0231329Y0059674D01*
X0269656Y0064398D02*
X0286880Y0064398D01*
X0296722Y0074241D01*
X0296919Y0074241D01*
X0327234Y0105737D02*
X0314439Y0118532D01*
X0314439Y0120009D01*
X0276053Y0150028D02*
X0276053Y0154457D01*
X0275561Y0154950D01*
X0275561Y0159379D01*
X0279498Y0163316D01*
X0276053Y0150028D02*
X0272608Y0146583D01*
X0286388Y0196780D02*
X0236683Y0246485D01*
X0249478Y0243532D02*
X0294262Y0198749D01*
X0320344Y0198749D01*
X0342490Y0176603D01*
X0342490Y0174143D01*
X0340522Y0171190D02*
X0339045Y0172666D01*
X0339045Y0177095D01*
X0319360Y0196780D01*
X0286388Y0196780D01*
X0308041Y0217942D02*
X0331171Y0217942D01*
X0328659Y0223847D02*
X0328219Y0223847D01*
X0328219Y0235658D01*
X0333140Y0236150D02*
X0354793Y0257804D01*
X0354793Y0262233D01*
X0359715Y0262233D02*
X0359715Y0218926D01*
X0350856Y0223355D02*
X0345935Y0223355D01*
X0345541Y0223454D01*
X0338848Y0223454D02*
X0338553Y0223847D01*
X0338553Y0236643D01*
X0322313Y0236643D02*
X0322313Y0223847D01*
X0322659Y0223847D01*
X0310502Y0223355D02*
X0310156Y0223060D01*
X0310502Y0223355D02*
X0310502Y0238611D01*
X0304596Y0237627D02*
X0304596Y0223355D01*
X0304156Y0223060D01*
X0322116Y0206131D02*
X0322510Y0206131D01*
X0333533Y0195107D01*
X0343620Y0211249D02*
X0343967Y0211544D01*
X0350856Y0211544D01*
X0373297Y0222863D02*
X0373494Y0222863D01*
X0373494Y0262233D01*
X0386781Y0262233D02*
X0393671Y0255343D01*
X0393671Y0222863D01*
X0393770Y0222517D01*
X0382746Y0216517D02*
X0382352Y0216465D01*
X0377923Y0216465D01*
X0340522Y0171190D02*
X0340522Y0165284D01*
X0269656Y0248454D02*
X0269656Y0250422D01*
X0269557Y0250619D01*
X0262864Y0250619D02*
X0262766Y0250422D01*
X0257844Y0250422D01*
X0256368Y0274536D02*
X0237175Y0274536D01*
X0235699Y0276013D01*
X0175659Y0298158D02*
X0175659Y0298257D01*
X0171722Y0290284D02*
X0170246Y0290284D01*
X0148593Y0268631D01*
X0138750Y0245501D02*
X0138258Y0245009D01*
X0131860Y0245009D01*
X0135305Y0232706D02*
X0126447Y0223847D01*
X0113652Y0223847D01*
X0118081Y0216957D02*
X0118081Y0186938D01*
X0127923Y0177095D01*
X0136289Y0172666D02*
X0140226Y0176603D01*
X0140226Y0198257D01*
X0144163Y0202194D01*
X0129400Y0208099D02*
X0123002Y0208099D01*
X0122018Y0207115D01*
X0159911Y0229261D02*
X0173691Y0215481D01*
X0071821Y0108198D02*
X0062963Y0099339D01*
X0062963Y0093434D01*
X0049675Y0087036D02*
X0049675Y0072765D01*
X0046722Y0069812D01*
X0046722Y0069674D01*
X0100364Y0085068D02*
X0100364Y0092942D01*
X0348888Y0069320D02*
X0378907Y0069320D01*
X0379006Y0069674D01*
D22*
X0360207Y0081623D03*
X0360699Y0087036D03*
X0376939Y0103276D03*
X0358730Y0110166D03*
X0349380Y0119517D03*
X0353317Y0128375D03*
X0361191Y0125914D03*
X0361191Y0138217D03*
X0353317Y0142154D03*
X0349872Y0145599D03*
X0341998Y0144615D03*
X0340522Y0165284D03*
X0342490Y0174143D03*
X0352825Y0174143D03*
X0358238Y0184477D03*
X0359715Y0202686D03*
X0350856Y0211544D03*
X0359715Y0218926D03*
X0350856Y0223355D03*
X0338553Y0236643D03*
X0333140Y0236150D03*
X0328219Y0235658D03*
X0322313Y0236643D03*
X0310502Y0238611D03*
X0304596Y0237627D03*
X0308041Y0217942D03*
X0326250Y0214497D03*
X0339045Y0189398D03*
X0323789Y0168729D03*
X0320344Y0165284D03*
X0314439Y0169221D03*
X0317884Y0157902D03*
X0303612Y0159871D03*
X0293770Y0157410D03*
X0279498Y0163316D03*
X0268179Y0171190D03*
X0269163Y0176111D03*
X0247510Y0194320D03*
X0262274Y0205146D03*
X0262274Y0215481D03*
X0237667Y0208591D03*
X0249478Y0243532D03*
X0241112Y0246977D03*
X0233238Y0246977D03*
X0233238Y0259772D03*
X0235699Y0276013D03*
X0235207Y0281918D03*
X0235207Y0286839D03*
X0235207Y0291761D03*
X0235207Y0296682D03*
X0213061Y0277981D03*
X0207156Y0282410D03*
X0209616Y0290284D03*
X0195837Y0298158D03*
X0194360Y0258296D03*
X0211093Y0258788D03*
X0205679Y0242056D03*
X0205679Y0237135D03*
X0173691Y0215481D03*
X0159911Y0229261D03*
X0149577Y0226800D03*
X0147608Y0234674D03*
X0147608Y0239595D03*
X0138750Y0245501D03*
X0131860Y0245009D03*
X0123494Y0239595D03*
X0112667Y0244517D03*
X0113652Y0223847D03*
X0118081Y0216957D03*
X0122018Y0207115D03*
X0129400Y0208099D03*
X0144163Y0202194D03*
X0127923Y0177095D03*
X0126447Y0170698D03*
X0136289Y0172666D03*
X0116604Y0149044D03*
X0122510Y0143139D03*
X0123494Y0137725D03*
X0130384Y0144123D03*
X0128907Y0128375D03*
X0117096Y0122961D03*
X0117096Y0115087D03*
X0125463Y0108198D03*
X0100364Y0092942D03*
X0100364Y0085068D03*
X0087569Y0108198D03*
X0062963Y0093434D03*
X0049675Y0087036D03*
X0069360Y0143139D03*
X0077234Y0145107D03*
X0079203Y0166761D03*
X0083140Y0174635D03*
X0092982Y0166761D03*
X0104793Y0178572D03*
X0108730Y0174635D03*
X0094951Y0192351D03*
X0112667Y0198257D03*
X0136781Y0229261D03*
X0171230Y0236643D03*
X0148593Y0268631D03*
X0077234Y0241564D03*
X0061486Y0245501D03*
X0049675Y0255343D03*
X0043770Y0241564D03*
X0043770Y0235658D03*
X0059518Y0198257D03*
X0069360Y0184477D03*
X0033927Y0184477D03*
X0159419Y0071780D03*
X0170738Y0057509D03*
X0155482Y0042253D03*
X0150561Y0044221D03*
X0191407Y0064398D03*
X0198789Y0071780D03*
X0196329Y0091465D03*
X0175167Y0091465D03*
X0199774Y0112627D03*
X0205187Y0113119D03*
X0206663Y0129851D03*
X0198297Y0157410D03*
X0191407Y0168729D03*
X0183041Y0179556D03*
X0242589Y0127391D03*
X0253415Y0130343D03*
X0256860Y0133788D03*
X0256860Y0143631D03*
X0268179Y0130343D03*
X0272608Y0146583D03*
X0301644Y0131820D03*
X0314439Y0132804D03*
X0314439Y0120009D03*
X0327234Y0105737D03*
X0328711Y0093926D03*
X0341998Y0110166D03*
X0269656Y0064398D03*
X0239144Y0090973D03*
X0245541Y0107213D03*
X0246033Y0112135D03*
X0238159Y0117056D03*
X0234715Y0112135D03*
X0257844Y0250422D03*
X0256368Y0274536D03*
X0354793Y0262233D03*
X0359715Y0262233D03*
X0373494Y0262233D03*
X0386781Y0262233D03*
X0379400Y0240580D03*
X0377923Y0235658D03*
D23*
X0024948Y0200382D02*
X0024948Y0028311D01*
X0026968Y0030331D01*
X0030462Y0031778D01*
X0034243Y0031778D01*
X0037737Y0030331D01*
X0040411Y0027657D01*
X0041858Y0024163D01*
X0041858Y0020382D01*
X0040411Y0016888D01*
X0037737Y0014214D01*
X0037414Y0014080D01*
X0392347Y0014080D01*
X0389173Y0015395D01*
X0386499Y0018069D01*
X0385052Y0021563D01*
X0385052Y0025344D01*
X0386499Y0028838D01*
X0389173Y0031512D01*
X0392666Y0032959D01*
X0396448Y0032959D01*
X0399942Y0031512D01*
X0402356Y0029098D01*
X0402356Y0277391D01*
X0379515Y0277391D01*
X0399216Y0257690D01*
X0399216Y0097485D01*
X0397986Y0096255D01*
X0397986Y0096255D01*
X0390112Y0088381D01*
X0364038Y0088381D01*
X0364299Y0087752D01*
X0364299Y0086320D01*
X0364019Y0085644D01*
X0394039Y0085644D01*
X0394976Y0084707D01*
X0394976Y0054641D01*
X0394039Y0053704D01*
X0363973Y0053704D01*
X0363036Y0054641D01*
X0363036Y0067220D01*
X0349758Y0067220D01*
X0338685Y0056147D01*
X0337454Y0054917D01*
X0250577Y0054917D01*
X0246750Y0058744D01*
X0246693Y0058386D01*
X0246426Y0057563D01*
X0246033Y0056791D01*
X0245524Y0056091D01*
X0244912Y0055479D01*
X0244211Y0054970D01*
X0243440Y0054577D01*
X0242617Y0054309D01*
X0241762Y0054174D01*
X0241529Y0054174D01*
X0241529Y0059474D01*
X0241129Y0059474D01*
X0241129Y0054174D01*
X0240896Y0054174D01*
X0240041Y0054309D01*
X0239217Y0054577D01*
X0238446Y0054970D01*
X0237746Y0055479D01*
X0237134Y0056091D01*
X0236625Y0056791D01*
X0236232Y0057563D01*
X0236214Y0057618D01*
X0235822Y0056672D01*
X0234331Y0055181D01*
X0232383Y0054374D01*
X0230274Y0054374D01*
X0228327Y0055181D01*
X0227659Y0055849D01*
X0209748Y0037938D01*
X0208517Y0036708D01*
X0126069Y0036708D01*
X0106469Y0056308D01*
X0106469Y0055621D01*
X0105495Y0053269D01*
X0103694Y0051469D01*
X0102308Y0050894D01*
X0103694Y0050320D01*
X0105495Y0048520D01*
X0106469Y0046168D01*
X0106469Y0043621D01*
X0105495Y0041269D01*
X0103694Y0039469D01*
X0101342Y0038494D01*
X0098796Y0038494D01*
X0096444Y0039469D01*
X0094643Y0041269D01*
X0093669Y0043621D01*
X0093669Y0046168D01*
X0094643Y0048520D01*
X0096444Y0050320D01*
X0097830Y0050894D01*
X0096444Y0051469D01*
X0094643Y0053269D01*
X0093669Y0055621D01*
X0093669Y0058168D01*
X0094643Y0060520D01*
X0096444Y0062320D01*
X0098796Y0063294D01*
X0099483Y0063294D01*
X0085223Y0077554D01*
X0067998Y0077554D01*
X0062693Y0082860D01*
X0062693Y0054641D01*
X0061755Y0053704D01*
X0031690Y0053704D01*
X0030752Y0054641D01*
X0030752Y0084707D01*
X0031690Y0085644D01*
X0046355Y0085644D01*
X0046075Y0086320D01*
X0046075Y0087752D01*
X0046623Y0089075D01*
X0047636Y0090088D01*
X0048959Y0090636D01*
X0050391Y0090636D01*
X0051714Y0090088D01*
X0052727Y0089075D01*
X0053275Y0087752D01*
X0053275Y0086320D01*
X0052995Y0085644D01*
X0059909Y0085644D01*
X0045853Y0099700D01*
X0044622Y0100930D01*
X0044622Y0104811D01*
X0044139Y0103645D01*
X0042318Y0101824D01*
X0039939Y0100839D01*
X0037364Y0100839D01*
X0034985Y0101824D01*
X0033164Y0103645D01*
X0032178Y0106024D01*
X0032178Y0108599D01*
X0033164Y0110979D01*
X0034985Y0112800D01*
X0037364Y0113785D01*
X0039939Y0113785D01*
X0042318Y0112800D01*
X0044139Y0110979D01*
X0044622Y0109812D01*
X0044622Y0119772D01*
X0044139Y0118606D01*
X0042318Y0116785D01*
X0039939Y0115799D01*
X0037364Y0115799D01*
X0034985Y0116785D01*
X0033164Y0118606D01*
X0032178Y0120985D01*
X0032178Y0123560D01*
X0033164Y0125939D01*
X0034985Y0127760D01*
X0037364Y0128746D01*
X0039939Y0128746D01*
X0042318Y0127760D01*
X0044139Y0125939D01*
X0044622Y0124773D01*
X0044622Y0140161D01*
X0031493Y0140161D01*
X0030556Y0141098D01*
X0030556Y0171164D01*
X0031493Y0172101D01*
X0061558Y0172101D01*
X0062496Y0171164D01*
X0062496Y0144165D01*
X0107122Y0188792D01*
X0107122Y0213632D01*
X0106428Y0212937D01*
X0105112Y0212392D01*
X0103687Y0212392D01*
X0102371Y0212937D01*
X0101364Y0213945D01*
X0101275Y0214160D01*
X0100988Y0214447D01*
X0100988Y0189513D01*
X0086740Y0175265D01*
X0086740Y0173919D01*
X0086192Y0172595D01*
X0085179Y0171583D01*
X0083856Y0171035D01*
X0082424Y0171035D01*
X0081101Y0171583D01*
X0080088Y0172595D01*
X0079540Y0173919D01*
X0079540Y0175351D01*
X0080088Y0176674D01*
X0081101Y0177687D01*
X0082424Y0178235D01*
X0083770Y0178235D01*
X0087912Y0182377D01*
X0072351Y0182377D01*
X0071399Y0181425D01*
X0070076Y0180877D01*
X0068644Y0180877D01*
X0067640Y0181293D01*
X0078573Y0170361D01*
X0079919Y0170361D01*
X0081242Y0169813D01*
X0082255Y0168800D01*
X0082803Y0167477D01*
X0082803Y0166045D01*
X0082255Y0164721D01*
X0081242Y0163709D01*
X0079919Y0163161D01*
X0078487Y0163161D01*
X0077164Y0163709D01*
X0076151Y0164721D01*
X0075603Y0166045D01*
X0075603Y0167391D01*
X0053481Y0189513D01*
X0053481Y0222977D01*
X0044400Y0232058D01*
X0043054Y0232058D01*
X0041933Y0232523D01*
X0041933Y0189513D01*
X0040703Y0188283D01*
X0037527Y0185107D01*
X0037527Y0183761D01*
X0036979Y0182438D01*
X0035966Y0181425D01*
X0034643Y0180877D01*
X0033211Y0180877D01*
X0031888Y0181425D01*
X0030875Y0182438D01*
X0030327Y0183761D01*
X0030327Y0185193D01*
X0030875Y0186516D01*
X0031888Y0187529D01*
X0033211Y0188077D01*
X0034557Y0188077D01*
X0037733Y0191253D01*
X0037733Y0201669D01*
X0029093Y0201669D01*
X0028157Y0200733D01*
X0026841Y0200187D01*
X0025416Y0200187D01*
X0024948Y0200382D01*
X0024948Y0199503D02*
X0037733Y0199503D01*
X0037733Y0197905D02*
X0024948Y0197905D01*
X0024948Y0196306D02*
X0037733Y0196306D01*
X0037733Y0194708D02*
X0024948Y0194708D01*
X0024948Y0193109D02*
X0037733Y0193109D01*
X0037733Y0191511D02*
X0024948Y0191511D01*
X0024948Y0189912D02*
X0036392Y0189912D01*
X0034794Y0188314D02*
X0024948Y0188314D01*
X0024948Y0186715D02*
X0031074Y0186715D01*
X0030327Y0185117D02*
X0024948Y0185117D01*
X0024948Y0183518D02*
X0030428Y0183518D01*
X0031394Y0181920D02*
X0024948Y0181920D01*
X0024948Y0180321D02*
X0062673Y0180321D01*
X0064271Y0178723D02*
X0024948Y0178723D01*
X0024948Y0177124D02*
X0065870Y0177124D01*
X0067468Y0175525D02*
X0024948Y0175525D01*
X0024948Y0173927D02*
X0069067Y0173927D01*
X0070665Y0172328D02*
X0024948Y0172328D01*
X0024948Y0170730D02*
X0030556Y0170730D01*
X0030556Y0169131D02*
X0024948Y0169131D01*
X0024948Y0167533D02*
X0030556Y0167533D01*
X0030556Y0165934D02*
X0024948Y0165934D01*
X0024948Y0164336D02*
X0030556Y0164336D01*
X0030556Y0162737D02*
X0024948Y0162737D01*
X0024948Y0161139D02*
X0030556Y0161139D01*
X0030556Y0159540D02*
X0024948Y0159540D01*
X0024948Y0157942D02*
X0030556Y0157942D01*
X0030556Y0156343D02*
X0024948Y0156343D01*
X0024948Y0154745D02*
X0030556Y0154745D01*
X0030556Y0153146D02*
X0024948Y0153146D01*
X0024948Y0151548D02*
X0030556Y0151548D01*
X0030556Y0149949D02*
X0024948Y0149949D01*
X0024948Y0148351D02*
X0030556Y0148351D01*
X0030556Y0146752D02*
X0024948Y0146752D01*
X0024948Y0145154D02*
X0030556Y0145154D01*
X0030556Y0143555D02*
X0024948Y0143555D01*
X0024948Y0141957D02*
X0030556Y0141957D01*
X0031295Y0140358D02*
X0024948Y0140358D01*
X0024948Y0138760D02*
X0044622Y0138760D01*
X0044622Y0137161D02*
X0024948Y0137161D01*
X0024948Y0135563D02*
X0044622Y0135563D01*
X0044622Y0133964D02*
X0024948Y0133964D01*
X0024948Y0132366D02*
X0044622Y0132366D01*
X0044622Y0130767D02*
X0024948Y0130767D01*
X0024948Y0129169D02*
X0044622Y0129169D01*
X0044622Y0127570D02*
X0042508Y0127570D01*
X0044107Y0125972D02*
X0044622Y0125972D01*
X0044542Y0119578D02*
X0044622Y0119578D01*
X0044622Y0117979D02*
X0043513Y0117979D01*
X0044622Y0116381D02*
X0041343Y0116381D01*
X0041391Y0113184D02*
X0044622Y0113184D01*
X0044622Y0114782D02*
X0024948Y0114782D01*
X0024948Y0113184D02*
X0035912Y0113184D01*
X0033770Y0111585D02*
X0024948Y0111585D01*
X0024948Y0109987D02*
X0032753Y0109987D01*
X0032178Y0108388D02*
X0024948Y0108388D01*
X0024948Y0106790D02*
X0032178Y0106790D01*
X0032523Y0105191D02*
X0024948Y0105191D01*
X0024948Y0103592D02*
X0033216Y0103592D01*
X0034815Y0101994D02*
X0024948Y0101994D01*
X0024948Y0100395D02*
X0045157Y0100395D01*
X0044622Y0101994D02*
X0042488Y0101994D01*
X0044087Y0103592D02*
X0044622Y0103592D01*
X0046756Y0098797D02*
X0024948Y0098797D01*
X0024948Y0097198D02*
X0048354Y0097198D01*
X0049953Y0095600D02*
X0024948Y0095600D01*
X0024948Y0094001D02*
X0051551Y0094001D01*
X0053150Y0092403D02*
X0024948Y0092403D01*
X0024948Y0090804D02*
X0054748Y0090804D01*
X0056347Y0089206D02*
X0052597Y0089206D01*
X0053275Y0087607D02*
X0057945Y0087607D01*
X0059544Y0086009D02*
X0053146Y0086009D01*
X0046754Y0089206D02*
X0024948Y0089206D01*
X0024948Y0087607D02*
X0046075Y0087607D01*
X0046204Y0086009D02*
X0024948Y0086009D01*
X0024948Y0084410D02*
X0030752Y0084410D01*
X0030752Y0082812D02*
X0024948Y0082812D01*
X0024948Y0081213D02*
X0030752Y0081213D01*
X0030752Y0079615D02*
X0024948Y0079615D01*
X0024948Y0078016D02*
X0030752Y0078016D01*
X0030752Y0076418D02*
X0024948Y0076418D01*
X0024948Y0074819D02*
X0030752Y0074819D01*
X0030752Y0073221D02*
X0024948Y0073221D01*
X0024948Y0071622D02*
X0030752Y0071622D01*
X0030752Y0070024D02*
X0024948Y0070024D01*
X0024948Y0068425D02*
X0030752Y0068425D01*
X0030752Y0066827D02*
X0024948Y0066827D01*
X0024948Y0065228D02*
X0030752Y0065228D01*
X0030752Y0063630D02*
X0024948Y0063630D01*
X0024948Y0062031D02*
X0030752Y0062031D01*
X0030752Y0060433D02*
X0024948Y0060433D01*
X0024948Y0058834D02*
X0030752Y0058834D01*
X0030752Y0057236D02*
X0024948Y0057236D01*
X0024948Y0055637D02*
X0030752Y0055637D01*
X0031355Y0054039D02*
X0024948Y0054039D01*
X0024948Y0052440D02*
X0095472Y0052440D01*
X0094325Y0054039D02*
X0062090Y0054039D01*
X0062693Y0055637D02*
X0093669Y0055637D01*
X0093669Y0057236D02*
X0062693Y0057236D01*
X0062693Y0058834D02*
X0093945Y0058834D01*
X0094607Y0060433D02*
X0062693Y0060433D01*
X0062693Y0062031D02*
X0096155Y0062031D01*
X0099147Y0063630D02*
X0062693Y0063630D01*
X0062693Y0065228D02*
X0097549Y0065228D01*
X0095950Y0066827D02*
X0062693Y0066827D01*
X0062693Y0068425D02*
X0094352Y0068425D01*
X0092753Y0070024D02*
X0062693Y0070024D01*
X0062693Y0071622D02*
X0091155Y0071622D01*
X0089556Y0073221D02*
X0062693Y0073221D01*
X0062693Y0074819D02*
X0087958Y0074819D01*
X0086359Y0076418D02*
X0062693Y0076418D01*
X0062693Y0078016D02*
X0067536Y0078016D01*
X0065938Y0079615D02*
X0062693Y0079615D01*
X0062693Y0081213D02*
X0064339Y0081213D01*
X0062741Y0082812D02*
X0062693Y0082812D01*
X0044622Y0109987D02*
X0044550Y0109987D01*
X0044622Y0111585D02*
X0043533Y0111585D01*
X0035960Y0116381D02*
X0024948Y0116381D01*
X0024948Y0117979D02*
X0033790Y0117979D01*
X0032761Y0119578D02*
X0024948Y0119578D01*
X0024948Y0121176D02*
X0032178Y0121176D01*
X0032178Y0122775D02*
X0024948Y0122775D01*
X0024948Y0124373D02*
X0032515Y0124373D01*
X0033196Y0125972D02*
X0024948Y0125972D01*
X0024948Y0127570D02*
X0034795Y0127570D01*
X0062496Y0145154D02*
X0063484Y0145154D01*
X0062496Y0146752D02*
X0065083Y0146752D01*
X0066681Y0148351D02*
X0062496Y0148351D01*
X0062496Y0149949D02*
X0068280Y0149949D01*
X0069878Y0151548D02*
X0062496Y0151548D01*
X0062496Y0153146D02*
X0071477Y0153146D01*
X0073075Y0154745D02*
X0062496Y0154745D01*
X0062496Y0156343D02*
X0074674Y0156343D01*
X0076272Y0157942D02*
X0062496Y0157942D01*
X0062496Y0159540D02*
X0077871Y0159540D01*
X0079469Y0161139D02*
X0062496Y0161139D01*
X0062496Y0162737D02*
X0081068Y0162737D01*
X0081869Y0164336D02*
X0082666Y0164336D01*
X0082757Y0165934D02*
X0084265Y0165934D01*
X0082779Y0167533D02*
X0085863Y0167533D01*
X0087462Y0169131D02*
X0081923Y0169131D01*
X0080355Y0172328D02*
X0076605Y0172328D01*
X0078203Y0170730D02*
X0089061Y0170730D01*
X0090659Y0172328D02*
X0085925Y0172328D01*
X0086740Y0173927D02*
X0092258Y0173927D01*
X0093856Y0175525D02*
X0087000Y0175525D01*
X0088599Y0177124D02*
X0095455Y0177124D01*
X0097053Y0178723D02*
X0090197Y0178723D01*
X0091796Y0180321D02*
X0098652Y0180321D01*
X0100250Y0181920D02*
X0093395Y0181920D01*
X0094993Y0183518D02*
X0101849Y0183518D01*
X0103447Y0185117D02*
X0096592Y0185117D01*
X0098190Y0186715D02*
X0105046Y0186715D01*
X0106644Y0188314D02*
X0099789Y0188314D01*
X0100988Y0189912D02*
X0107122Y0189912D01*
X0107122Y0191511D02*
X0100988Y0191511D01*
X0100988Y0193109D02*
X0107122Y0193109D01*
X0107122Y0194708D02*
X0100988Y0194708D01*
X0100988Y0196306D02*
X0107122Y0196306D01*
X0107122Y0197905D02*
X0100988Y0197905D01*
X0100988Y0199503D02*
X0107122Y0199503D01*
X0107122Y0201102D02*
X0100988Y0201102D01*
X0100988Y0202700D02*
X0107122Y0202700D01*
X0107122Y0204299D02*
X0100988Y0204299D01*
X0100988Y0205897D02*
X0107122Y0205897D01*
X0107122Y0207496D02*
X0100988Y0207496D01*
X0100988Y0209094D02*
X0107122Y0209094D01*
X0107122Y0210693D02*
X0100988Y0210693D01*
X0100988Y0212291D02*
X0107122Y0212291D01*
X0101419Y0213890D02*
X0100988Y0213890D01*
X0120167Y0240971D02*
X0116267Y0244871D01*
X0116267Y0245233D01*
X0115719Y0246556D01*
X0114707Y0247568D01*
X0114043Y0247843D01*
X0125840Y0259641D01*
X0207270Y0259641D01*
X0207493Y0259418D01*
X0207493Y0258072D01*
X0208041Y0256749D01*
X0209053Y0255736D01*
X0210376Y0255188D01*
X0211809Y0255188D01*
X0212293Y0255389D01*
X0212293Y0252355D01*
X0213523Y0251124D01*
X0214422Y0250225D01*
X0197932Y0250225D01*
X0197932Y0251616D01*
X0194151Y0251616D01*
X0194151Y0251984D01*
X0197932Y0251984D01*
X0197932Y0254005D01*
X0197809Y0254463D01*
X0197572Y0254874D01*
X0197237Y0255209D01*
X0196827Y0255446D01*
X0196369Y0255568D01*
X0194151Y0255568D01*
X0194151Y0251984D01*
X0197932Y0251984D01*
X0197932Y0254005D01*
X0197809Y0254463D01*
X0197572Y0254874D01*
X0197237Y0255209D01*
X0196827Y0255446D01*
X0196369Y0255568D01*
X0194151Y0255568D01*
X0194151Y0251984D01*
X0194151Y0251616D01*
X0197932Y0251616D01*
X0197932Y0249595D01*
X0197809Y0249137D01*
X0197572Y0248726D01*
X0197237Y0248391D01*
X0196827Y0248154D01*
X0196369Y0248031D01*
X0194151Y0248031D01*
X0194151Y0251616D01*
X0193782Y0251616D01*
X0193782Y0248031D01*
X0191564Y0248031D01*
X0191106Y0248154D01*
X0190696Y0248391D01*
X0190479Y0248608D01*
X0190102Y0248231D01*
X0184446Y0248231D01*
X0183508Y0249169D01*
X0183508Y0249306D01*
X0169640Y0249306D01*
X0168614Y0248281D01*
X0168804Y0248203D01*
X0169504Y0247502D01*
X0211528Y0247502D01*
X0264573Y0194457D01*
X0264573Y0195347D01*
X0265058Y0196519D01*
X0265955Y0197416D01*
X0267126Y0197901D01*
X0268394Y0197901D01*
X0269566Y0197416D01*
X0270266Y0196715D01*
X0283483Y0196715D01*
X0235813Y0244385D01*
X0235775Y0244423D01*
X0235277Y0243925D01*
X0233954Y0243377D01*
X0232522Y0243377D01*
X0231199Y0243925D01*
X0230186Y0244938D01*
X0229638Y0246261D01*
X0229638Y0247607D01*
X0216493Y0260753D01*
X0216493Y0254094D01*
X0246702Y0223885D01*
X0248025Y0223885D01*
X0249342Y0223340D01*
X0250349Y0222332D01*
X0250894Y0221016D01*
X0250894Y0219592D01*
X0250349Y0218275D01*
X0249342Y0217268D01*
X0248025Y0216723D01*
X0246601Y0216723D01*
X0245284Y0217268D01*
X0244277Y0218275D01*
X0243732Y0219592D01*
X0243732Y0220915D01*
X0213523Y0251124D01*
X0212293Y0252355D01*
X0212293Y0255389D01*
X0211809Y0255188D01*
X0210376Y0255188D01*
X0209053Y0255736D01*
X0208041Y0256749D01*
X0207493Y0258072D01*
X0207493Y0259418D01*
X0207270Y0259641D01*
X0163848Y0259641D01*
X0163848Y0250225D01*
X0164619Y0250225D01*
X0166670Y0252276D01*
X0167900Y0253506D01*
X0183508Y0253506D01*
X0183508Y0254431D01*
X0184446Y0255368D01*
X0190102Y0255368D01*
X0190479Y0254992D01*
X0190696Y0255209D01*
X0191106Y0255446D01*
X0191564Y0255568D01*
X0193782Y0255568D01*
X0193782Y0251984D01*
X0194151Y0251984D01*
X0193782Y0251984D01*
X0193782Y0255568D01*
X0191564Y0255568D01*
X0191106Y0255446D01*
X0190696Y0255209D01*
X0190479Y0254992D01*
X0190102Y0255368D01*
X0184446Y0255368D01*
X0183508Y0254431D01*
X0183508Y0253506D01*
X0167900Y0253506D01*
X0166670Y0252276D01*
X0161748Y0247355D01*
X0161748Y0244173D01*
X0158321Y0247601D01*
X0141741Y0247601D01*
X0140789Y0248553D01*
X0139466Y0249101D01*
X0138034Y0249101D01*
X0136711Y0248553D01*
X0135698Y0247540D01*
X0135519Y0247109D01*
X0134851Y0247109D01*
X0133899Y0248061D01*
X0132576Y0248609D01*
X0131144Y0248609D01*
X0129821Y0248061D01*
X0128808Y0247048D01*
X0128260Y0245725D01*
X0128260Y0244293D01*
X0128808Y0242969D01*
X0129821Y0241957D01*
X0130452Y0241695D01*
X0126485Y0241695D01*
X0125533Y0242647D01*
X0124210Y0243195D01*
X0122778Y0243195D01*
X0121455Y0242647D01*
X0120442Y0241635D01*
X0120167Y0240971D01*
X0120206Y0241064D02*
X0120073Y0241064D01*
X0121493Y0242663D02*
X0118475Y0242663D01*
X0116876Y0244261D02*
X0128273Y0244261D01*
X0128316Y0245860D02*
X0116007Y0245860D01*
X0114817Y0247459D02*
X0129219Y0247459D01*
X0129115Y0242663D02*
X0125495Y0242663D01*
X0134502Y0247459D02*
X0135664Y0247459D01*
X0137928Y0249057D02*
X0115256Y0249057D01*
X0116855Y0250656D02*
X0165049Y0250656D01*
X0163848Y0250656D01*
X0163848Y0252254D02*
X0166648Y0252254D01*
X0118453Y0252254D01*
X0120052Y0253853D02*
X0183508Y0253853D01*
X0163848Y0253853D01*
X0163848Y0255451D02*
X0191126Y0255451D01*
X0121650Y0255451D01*
X0123249Y0257050D02*
X0207916Y0257050D01*
X0163848Y0257050D01*
X0163848Y0258648D02*
X0207493Y0258648D01*
X0124847Y0258648D01*
X0139572Y0249057D02*
X0163451Y0249057D01*
X0161852Y0247459D02*
X0158463Y0247459D01*
X0160061Y0245860D02*
X0161748Y0245860D01*
X0161748Y0244261D02*
X0161660Y0244261D01*
X0169390Y0249057D02*
X0183620Y0249057D01*
X0193782Y0249057D02*
X0194151Y0249057D01*
X0194151Y0250656D02*
X0193782Y0250656D01*
X0193782Y0252254D02*
X0194151Y0252254D01*
X0193782Y0252254D01*
X0193782Y0253853D02*
X0194151Y0253853D01*
X0193782Y0253853D01*
X0193782Y0255451D02*
X0194151Y0255451D01*
X0193782Y0255451D01*
X0196807Y0255451D02*
X0209742Y0255451D01*
X0196807Y0255451D01*
X0197932Y0253853D02*
X0212293Y0253853D01*
X0197932Y0253853D01*
X0197932Y0252254D02*
X0212393Y0252254D01*
X0197932Y0252254D01*
X0197932Y0250656D02*
X0213992Y0250656D01*
X0197932Y0250656D01*
X0197763Y0249057D02*
X0215590Y0249057D01*
X0217189Y0247459D02*
X0211572Y0247459D01*
X0213170Y0245860D02*
X0218787Y0245860D01*
X0220386Y0244261D02*
X0214769Y0244261D01*
X0216367Y0242663D02*
X0221984Y0242663D01*
X0223583Y0241064D02*
X0217966Y0241064D01*
X0219564Y0239466D02*
X0225181Y0239466D01*
X0226780Y0237867D02*
X0221163Y0237867D01*
X0222761Y0236269D02*
X0228378Y0236269D01*
X0229977Y0234670D02*
X0224360Y0234670D01*
X0225958Y0233072D02*
X0231575Y0233072D01*
X0233174Y0231473D02*
X0227557Y0231473D01*
X0229155Y0229875D02*
X0234772Y0229875D01*
X0236371Y0228276D02*
X0230754Y0228276D01*
X0232352Y0226678D02*
X0237969Y0226678D01*
X0239568Y0225079D02*
X0233951Y0225079D01*
X0235549Y0223481D02*
X0241166Y0223481D01*
X0242765Y0221882D02*
X0237148Y0221882D01*
X0238746Y0220284D02*
X0243732Y0220284D01*
X0244107Y0218685D02*
X0240345Y0218685D01*
X0241943Y0217087D02*
X0245722Y0217087D01*
X0243542Y0215488D02*
X0264710Y0215488D01*
X0266308Y0213890D02*
X0245140Y0213890D01*
X0246739Y0212291D02*
X0267907Y0212291D01*
X0269506Y0210693D02*
X0248337Y0210693D01*
X0249936Y0209094D02*
X0271104Y0209094D01*
X0272703Y0207496D02*
X0251535Y0207496D01*
X0253133Y0205897D02*
X0274301Y0205897D01*
X0275900Y0204299D02*
X0254732Y0204299D01*
X0256330Y0202700D02*
X0277498Y0202700D01*
X0279097Y0201102D02*
X0257929Y0201102D01*
X0259527Y0199503D02*
X0280695Y0199503D01*
X0282294Y0197905D02*
X0261126Y0197905D01*
X0262724Y0196306D02*
X0264970Y0196306D01*
X0264573Y0194708D02*
X0264323Y0194708D01*
X0254752Y0176964D02*
X0270902Y0160813D01*
X0270902Y0153519D01*
X0270201Y0152818D01*
X0269716Y0151647D01*
X0269716Y0150379D01*
X0270184Y0149250D01*
X0269556Y0148623D01*
X0269008Y0147300D01*
X0269008Y0145867D01*
X0269556Y0144544D01*
X0270569Y0143532D01*
X0271892Y0142983D01*
X0273324Y0142983D01*
X0274648Y0143532D01*
X0275660Y0144544D01*
X0276208Y0145867D01*
X0276208Y0147214D01*
X0276923Y0147928D01*
X0278153Y0149158D01*
X0278153Y0152952D01*
X0278175Y0152943D01*
X0279443Y0152943D01*
X0280615Y0153429D01*
X0281222Y0154036D01*
X0300158Y0135101D01*
X0299604Y0134872D01*
X0298592Y0133859D01*
X0298044Y0132536D01*
X0298044Y0131104D01*
X0298592Y0129780D01*
X0299604Y0128768D01*
X0300928Y0128220D01*
X0302360Y0128220D01*
X0303683Y0128768D01*
X0303689Y0128773D01*
X0309878Y0122584D01*
X0311102Y0121360D01*
X0310839Y0120725D01*
X0310839Y0119293D01*
X0311387Y0117969D01*
X0312400Y0116957D01*
X0313501Y0116501D01*
X0323634Y0106367D01*
X0323634Y0105021D01*
X0324182Y0103698D01*
X0325195Y0102685D01*
X0326518Y0102137D01*
X0327950Y0102137D01*
X0329273Y0102685D01*
X0330286Y0103698D01*
X0330689Y0104670D01*
X0330831Y0104325D01*
X0331160Y0103996D01*
X0330183Y0103019D01*
X0330183Y0098707D01*
X0330896Y0097994D01*
X0330847Y0097966D01*
X0330431Y0097549D01*
X0330136Y0097039D01*
X0329983Y0096470D01*
X0329983Y0094938D01*
X0333458Y0094938D01*
X0333458Y0094788D01*
X0329983Y0094788D01*
X0329983Y0093256D01*
X0330136Y0092687D01*
X0330197Y0092581D01*
X0328104Y0092581D01*
X0327366Y0093319D01*
X0327366Y0099225D01*
X0326136Y0100455D01*
X0294147Y0132443D01*
X0271170Y0132443D01*
X0270218Y0133395D01*
X0269433Y0133721D01*
X0273662Y0137950D01*
X0277484Y0137950D01*
X0278185Y0137249D01*
X0279356Y0136764D01*
X0280624Y0136764D01*
X0281796Y0137249D01*
X0282692Y0138146D01*
X0283178Y0139317D01*
X0283178Y0140585D01*
X0282692Y0141757D01*
X0281796Y0142653D01*
X0280624Y0143139D01*
X0279356Y0143139D01*
X0278185Y0142653D01*
X0277484Y0141953D01*
X0272004Y0141953D01*
X0270831Y0140780D01*
X0258960Y0128909D01*
X0258960Y0130797D01*
X0259912Y0131749D01*
X0260460Y0133072D01*
X0260460Y0134504D01*
X0259912Y0135827D01*
X0258899Y0136840D01*
X0258236Y0137115D01*
X0258960Y0137840D01*
X0258960Y0140640D01*
X0259912Y0141591D01*
X0260460Y0142915D01*
X0260460Y0144347D01*
X0259912Y0145670D01*
X0258899Y0146683D01*
X0257576Y0147231D01*
X0256144Y0147231D01*
X0254821Y0146683D01*
X0253808Y0145670D01*
X0253260Y0144347D01*
X0253260Y0142915D01*
X0253808Y0141591D01*
X0254760Y0140640D01*
X0254760Y0139579D01*
X0252545Y0137365D01*
X0251315Y0136134D01*
X0251315Y0133334D01*
X0250363Y0132383D01*
X0249815Y0131059D01*
X0249815Y0129627D01*
X0250363Y0128304D01*
X0251376Y0127291D01*
X0252388Y0126872D01*
X0249101Y0123585D01*
X0247937Y0122421D01*
X0247937Y0128940D01*
X0248763Y0128940D01*
X0249700Y0129877D01*
X0249700Y0135140D01*
X0248763Y0136077D01*
X0243107Y0136077D01*
X0242589Y0135559D01*
X0242070Y0136077D01*
X0236815Y0136077D01*
X0236815Y0150635D01*
X0239136Y0152956D01*
X0242858Y0152956D01*
X0243376Y0153474D01*
X0243894Y0152956D01*
X0249551Y0152956D01*
X0250410Y0153816D01*
X0250616Y0153731D01*
X0251884Y0153731D01*
X0253056Y0154216D01*
X0253952Y0155113D01*
X0254437Y0156284D01*
X0254437Y0157552D01*
X0253952Y0158724D01*
X0253056Y0159620D01*
X0251884Y0160105D01*
X0250616Y0160105D01*
X0249854Y0159790D01*
X0249551Y0160093D01*
X0243894Y0160093D01*
X0243376Y0159575D01*
X0242858Y0160093D01*
X0237201Y0160093D01*
X0236264Y0159156D01*
X0236264Y0156024D01*
X0233206Y0152966D01*
X0233206Y0158171D01*
X0233906Y0158872D01*
X0234392Y0160043D01*
X0234392Y0161311D01*
X0233906Y0162483D01*
X0233010Y0163379D01*
X0231838Y0163865D01*
X0230570Y0163865D01*
X0230417Y0163801D01*
X0230417Y0189931D01*
X0231328Y0189554D01*
X0231921Y0189554D01*
X0231921Y0188961D01*
X0232406Y0187790D01*
X0233303Y0186893D01*
X0234474Y0186408D01*
X0235742Y0186408D01*
X0236914Y0186893D01*
X0237526Y0187505D01*
X0237499Y0187440D01*
X0237499Y0186172D01*
X0237984Y0185001D01*
X0238881Y0184104D01*
X0240052Y0183619D01*
X0241043Y0183619D01*
X0242589Y0182073D01*
X0243695Y0180967D01*
X0243520Y0180967D01*
X0242819Y0181667D01*
X0241648Y0182153D01*
X0240380Y0182153D01*
X0239208Y0181667D01*
X0238312Y0180771D01*
X0237826Y0179599D01*
X0237826Y0178331D01*
X0238312Y0177160D01*
X0239208Y0176263D01*
X0240380Y0175778D01*
X0241648Y0175778D01*
X0242819Y0176263D01*
X0243520Y0176964D01*
X0254752Y0176964D01*
X0256190Y0175525D02*
X0230417Y0175525D01*
X0230417Y0173927D02*
X0257788Y0173927D01*
X0259387Y0172328D02*
X0230417Y0172328D01*
X0230417Y0170730D02*
X0260985Y0170730D01*
X0262584Y0169131D02*
X0230417Y0169131D01*
X0230417Y0167533D02*
X0264182Y0167533D01*
X0265781Y0165934D02*
X0230417Y0165934D01*
X0230417Y0164336D02*
X0267379Y0164336D01*
X0268978Y0162737D02*
X0233652Y0162737D01*
X0234392Y0161139D02*
X0270577Y0161139D01*
X0270902Y0159540D02*
X0253135Y0159540D01*
X0254276Y0157942D02*
X0270902Y0157942D01*
X0270902Y0156343D02*
X0254437Y0156343D01*
X0253584Y0154745D02*
X0270902Y0154745D01*
X0270530Y0153146D02*
X0249741Y0153146D01*
X0243704Y0153146D02*
X0243048Y0153146D01*
X0237728Y0151548D02*
X0269716Y0151548D01*
X0269894Y0149949D02*
X0236815Y0149949D01*
X0236815Y0148351D02*
X0269444Y0148351D01*
X0269008Y0146752D02*
X0258731Y0146752D01*
X0260126Y0145154D02*
X0269304Y0145154D01*
X0270545Y0143555D02*
X0260460Y0143555D01*
X0260063Y0141957D02*
X0277488Y0141957D01*
X0274671Y0143555D02*
X0291703Y0143555D01*
X0290105Y0145154D02*
X0275913Y0145154D01*
X0276208Y0146752D02*
X0288506Y0146752D01*
X0286908Y0148351D02*
X0277345Y0148351D01*
X0278153Y0149949D02*
X0285309Y0149949D01*
X0283711Y0151548D02*
X0278153Y0151548D01*
X0279933Y0153146D02*
X0282112Y0153146D01*
X0282492Y0141957D02*
X0293302Y0141957D01*
X0294900Y0140358D02*
X0283178Y0140358D01*
X0282947Y0138760D02*
X0296499Y0138760D01*
X0298098Y0137161D02*
X0281584Y0137161D01*
X0278397Y0137161D02*
X0272873Y0137161D01*
X0271275Y0135563D02*
X0299696Y0135563D01*
X0298697Y0133964D02*
X0269676Y0133964D01*
X0267212Y0137161D02*
X0258282Y0137161D01*
X0258960Y0138760D02*
X0268811Y0138760D01*
X0270409Y0140358D02*
X0258960Y0140358D01*
X0254760Y0140358D02*
X0236815Y0140358D01*
X0236815Y0138760D02*
X0253941Y0138760D01*
X0252342Y0137161D02*
X0236815Y0137161D01*
X0236815Y0141957D02*
X0253657Y0141957D01*
X0253260Y0143555D02*
X0236815Y0143555D01*
X0236815Y0145154D02*
X0253595Y0145154D01*
X0254989Y0146752D02*
X0236815Y0146752D01*
X0233386Y0153146D02*
X0233206Y0153146D01*
X0233206Y0154745D02*
X0234985Y0154745D01*
X0236264Y0156343D02*
X0233206Y0156343D01*
X0233206Y0157942D02*
X0236264Y0157942D01*
X0236649Y0159540D02*
X0234183Y0159540D01*
X0230417Y0177124D02*
X0238347Y0177124D01*
X0237826Y0178723D02*
X0230417Y0178723D01*
X0230417Y0180321D02*
X0238125Y0180321D01*
X0239817Y0181920D02*
X0230417Y0181920D01*
X0230417Y0183518D02*
X0241144Y0183518D01*
X0242211Y0181920D02*
X0242742Y0181920D01*
X0237936Y0185117D02*
X0230417Y0185117D01*
X0230417Y0186715D02*
X0233733Y0186715D01*
X0232189Y0188314D02*
X0230417Y0188314D01*
X0230417Y0189912D02*
X0230463Y0189912D01*
X0236484Y0186715D02*
X0237499Y0186715D01*
X0248904Y0217087D02*
X0263111Y0217087D01*
X0261513Y0218685D02*
X0250519Y0218685D01*
X0250894Y0220284D02*
X0259914Y0220284D01*
X0258316Y0221882D02*
X0250535Y0221882D01*
X0249001Y0223481D02*
X0256717Y0223481D01*
X0255119Y0225079D02*
X0245507Y0225079D01*
X0243909Y0226678D02*
X0253520Y0226678D01*
X0251922Y0228276D02*
X0242310Y0228276D01*
X0240712Y0229875D02*
X0250323Y0229875D01*
X0248725Y0231473D02*
X0239113Y0231473D01*
X0237515Y0233072D02*
X0247126Y0233072D01*
X0245528Y0234670D02*
X0235916Y0234670D01*
X0234318Y0236269D02*
X0243929Y0236269D01*
X0242331Y0237867D02*
X0232719Y0237867D01*
X0231121Y0239466D02*
X0240732Y0239466D01*
X0239134Y0241064D02*
X0229522Y0241064D01*
X0227924Y0242663D02*
X0237535Y0242663D01*
X0235937Y0244261D02*
X0235614Y0244261D01*
X0230863Y0244261D02*
X0226325Y0244261D01*
X0224727Y0245860D02*
X0229804Y0245860D01*
X0229638Y0247459D02*
X0223128Y0247459D01*
X0221530Y0249057D02*
X0228188Y0249057D01*
X0226590Y0250656D02*
X0219931Y0250656D01*
X0218333Y0252254D02*
X0224991Y0252254D01*
X0223393Y0253853D02*
X0216734Y0253853D01*
X0216493Y0255451D02*
X0221794Y0255451D01*
X0220196Y0257050D02*
X0216493Y0257050D01*
X0216493Y0258648D02*
X0218597Y0258648D01*
X0216999Y0260247D02*
X0216493Y0260247D01*
X0261405Y0277391D02*
X0373575Y0277391D01*
X0385406Y0265560D01*
X0384742Y0265285D01*
X0383730Y0264272D01*
X0383181Y0262949D01*
X0383181Y0261517D01*
X0383730Y0260194D01*
X0384742Y0259181D01*
X0386065Y0258633D01*
X0387412Y0258633D01*
X0391571Y0254473D01*
X0391571Y0225825D01*
X0390420Y0224673D01*
X0390420Y0220360D01*
X0391132Y0219648D01*
X0391083Y0219619D01*
X0390667Y0219203D01*
X0390372Y0218693D01*
X0390220Y0218124D01*
X0390220Y0216592D01*
X0393695Y0216592D01*
X0393695Y0216442D01*
X0390220Y0216442D01*
X0390220Y0214909D01*
X0390372Y0214340D01*
X0390667Y0213830D01*
X0391083Y0213414D01*
X0391594Y0213119D01*
X0392163Y0212967D01*
X0393695Y0212967D01*
X0393695Y0216441D01*
X0393845Y0216441D01*
X0393845Y0212967D01*
X0395016Y0212967D01*
X0395016Y0099225D01*
X0393337Y0097546D01*
X0392795Y0098855D01*
X0391501Y0100148D01*
X0389811Y0100849D01*
X0383387Y0100849D01*
X0384187Y0101649D01*
X0389811Y0101649D01*
X0391501Y0102349D01*
X0392795Y0103643D01*
X0393496Y0105334D01*
X0393496Y0107164D01*
X0392795Y0108855D01*
X0391501Y0110148D01*
X0389811Y0110849D01*
X0381981Y0110849D01*
X0380290Y0110148D01*
X0379039Y0108897D01*
X0379039Y0113391D01*
X0379234Y0113122D01*
X0379769Y0112588D01*
X0380380Y0112143D01*
X0381053Y0111800D01*
X0381772Y0111567D01*
X0382518Y0111449D01*
X0385696Y0111449D01*
X0385696Y0116049D01*
X0386096Y0116049D01*
X0386096Y0116449D01*
X0393696Y0116449D01*
X0393696Y0116627D01*
X0393577Y0117373D01*
X0393344Y0118091D01*
X0393001Y0118765D01*
X0392557Y0119376D01*
X0392023Y0119910D01*
X0391411Y0120354D01*
X0390738Y0120697D01*
X0390020Y0120931D01*
X0389273Y0121049D01*
X0386096Y0121049D01*
X0386096Y0116449D01*
X0385696Y0116449D01*
X0385696Y0121049D01*
X0382518Y0121049D01*
X0381772Y0120931D01*
X0381053Y0120697D01*
X0380380Y0120354D01*
X0379769Y0119910D01*
X0379234Y0119376D01*
X0379039Y0119107D01*
X0379039Y0123600D01*
X0380290Y0122349D01*
X0381981Y0121649D01*
X0389811Y0121649D01*
X0391501Y0122349D01*
X0392795Y0123643D01*
X0393496Y0125334D01*
X0393496Y0127164D01*
X0392795Y0128855D01*
X0391501Y0130148D01*
X0389811Y0130849D01*
X0381981Y0130849D01*
X0380290Y0130148D01*
X0379039Y0128897D01*
X0379039Y0140161D01*
X0393842Y0140161D01*
X0394779Y0141098D01*
X0394779Y0171164D01*
X0393842Y0172101D01*
X0363776Y0172101D01*
X0362839Y0171164D01*
X0362839Y0141431D01*
X0361907Y0141817D01*
X0360475Y0141817D01*
X0359152Y0141269D01*
X0358862Y0140979D01*
X0358862Y0180877D01*
X0358954Y0180877D01*
X0360277Y0181425D01*
X0361290Y0182438D01*
X0361838Y0183761D01*
X0361838Y0185193D01*
X0361815Y0185250D01*
X0361815Y0199695D01*
X0362766Y0200647D01*
X0363315Y0201970D01*
X0363315Y0203402D01*
X0362766Y0204725D01*
X0361754Y0205738D01*
X0360431Y0206286D01*
X0358998Y0206286D01*
X0358499Y0206079D01*
X0361962Y0209543D01*
X0370853Y0209543D01*
X0379071Y0201324D01*
X0379071Y0183772D01*
X0375483Y0180184D01*
X0374160Y0180184D01*
X0372844Y0179639D01*
X0371836Y0178632D01*
X0371291Y0177315D01*
X0371291Y0175891D01*
X0371836Y0174575D01*
X0372844Y0173567D01*
X0374160Y0173022D01*
X0375584Y0173022D01*
X0376901Y0173567D01*
X0377908Y0174575D01*
X0378453Y0175891D01*
X0378453Y0177214D01*
X0383271Y0182033D01*
X0383271Y0203064D01*
X0382041Y0204294D01*
X0374130Y0212205D01*
X0375503Y0212205D01*
X0375961Y0212327D01*
X0376371Y0212564D01*
X0376706Y0212899D01*
X0376943Y0213310D01*
X0377066Y0213768D01*
X0377066Y0215986D01*
X0373482Y0215986D01*
X0373482Y0216354D01*
X0377066Y0216354D01*
X0377066Y0218572D01*
X0376943Y0219030D01*
X0376706Y0219441D01*
X0376489Y0219658D01*
X0376866Y0220035D01*
X0376866Y0225691D01*
X0375928Y0226628D01*
X0375594Y0226628D01*
X0375594Y0259242D01*
X0376546Y0260194D01*
X0377094Y0261517D01*
X0377094Y0262949D01*
X0376546Y0264272D01*
X0375533Y0265285D01*
X0374210Y0265833D01*
X0372778Y0265833D01*
X0371455Y0265285D01*
X0370442Y0264272D01*
X0369894Y0262949D01*
X0369894Y0261517D01*
X0370442Y0260194D01*
X0371394Y0259242D01*
X0371394Y0226628D01*
X0370666Y0226628D01*
X0369729Y0225691D01*
X0369729Y0220035D01*
X0370106Y0219658D01*
X0369888Y0219441D01*
X0369651Y0219030D01*
X0369529Y0218572D01*
X0369529Y0216354D01*
X0373113Y0216354D01*
X0373113Y0215986D01*
X0369529Y0215986D01*
X0369529Y0213768D01*
X0369536Y0213743D01*
X0360223Y0213743D01*
X0358993Y0212512D01*
X0353481Y0207001D01*
X0353481Y0198072D01*
X0352545Y0197136D01*
X0352000Y0195819D01*
X0352000Y0194395D01*
X0352545Y0193079D01*
X0353552Y0192071D01*
X0354868Y0191526D01*
X0356293Y0191526D01*
X0357609Y0192071D01*
X0357615Y0192077D01*
X0357615Y0188077D01*
X0357522Y0188077D01*
X0356199Y0187529D01*
X0356193Y0187523D01*
X0336018Y0207699D01*
X0337545Y0207699D01*
X0337545Y0211174D01*
X0334070Y0211174D01*
X0334070Y0209647D01*
X0329850Y0213867D01*
X0329850Y0215213D01*
X0329302Y0216536D01*
X0328289Y0217549D01*
X0326966Y0218097D01*
X0325534Y0218097D01*
X0324211Y0217549D01*
X0323198Y0216536D01*
X0322923Y0215872D01*
X0322199Y0216597D01*
X0307435Y0216597D01*
X0304322Y0219710D01*
X0306312Y0219710D01*
X0307156Y0220553D01*
X0307999Y0219710D01*
X0312312Y0219710D01*
X0313505Y0220903D01*
X0313505Y0225216D01*
X0312602Y0226120D01*
X0312602Y0235620D01*
X0313554Y0236572D01*
X0314102Y0237895D01*
X0314102Y0239327D01*
X0313554Y0240650D01*
X0312541Y0241663D01*
X0311218Y0242211D01*
X0309786Y0242211D01*
X0308463Y0241663D01*
X0307450Y0240650D01*
X0307220Y0240095D01*
X0306636Y0240679D01*
X0305313Y0241227D01*
X0303880Y0241227D01*
X0302557Y0240679D01*
X0301545Y0239666D01*
X0300996Y0238343D01*
X0300996Y0236911D01*
X0301545Y0235588D01*
X0302496Y0234636D01*
X0302496Y0226410D01*
X0301999Y0226410D01*
X0300806Y0225216D01*
X0300806Y0223226D01*
X0275200Y0248831D01*
X0275200Y0263595D01*
X0261405Y0277391D01*
X0262564Y0276232D02*
X0374734Y0276232D01*
X0376333Y0274633D02*
X0264162Y0274633D01*
X0265761Y0273035D02*
X0377931Y0273035D01*
X0379530Y0271436D02*
X0267359Y0271436D01*
X0268958Y0269838D02*
X0381128Y0269838D01*
X0382727Y0268239D02*
X0270556Y0268239D01*
X0272155Y0266641D02*
X0384325Y0266641D01*
X0384499Y0265042D02*
X0375776Y0265042D01*
X0376889Y0263444D02*
X0383386Y0263444D01*
X0383181Y0261845D02*
X0377094Y0261845D01*
X0376568Y0260247D02*
X0383708Y0260247D01*
X0386029Y0258648D02*
X0375594Y0258648D01*
X0375594Y0257050D02*
X0388995Y0257050D01*
X0390594Y0255451D02*
X0375594Y0255451D01*
X0375594Y0253853D02*
X0391571Y0253853D01*
X0391571Y0252254D02*
X0375594Y0252254D01*
X0375594Y0250656D02*
X0391571Y0250656D01*
X0391571Y0249057D02*
X0375594Y0249057D01*
X0375594Y0247459D02*
X0391571Y0247459D01*
X0391571Y0245860D02*
X0375594Y0245860D01*
X0375594Y0244261D02*
X0391571Y0244261D01*
X0391571Y0242663D02*
X0382407Y0242663D01*
X0382452Y0242619D02*
X0381439Y0243631D01*
X0380116Y0244180D01*
X0378684Y0244180D01*
X0377360Y0243631D01*
X0376348Y0242619D01*
X0375800Y0241296D01*
X0375800Y0239863D01*
X0376348Y0238540D01*
X0377360Y0237528D01*
X0378684Y0236980D01*
X0380030Y0236980D01*
X0380252Y0236757D01*
X0380252Y0225529D01*
X0379396Y0224673D01*
X0379396Y0220360D01*
X0380109Y0219648D01*
X0380060Y0219619D01*
X0379643Y0219203D01*
X0379349Y0218693D01*
X0379196Y0218124D01*
X0379196Y0216592D01*
X0382671Y0216592D01*
X0382671Y0216442D01*
X0379196Y0216442D01*
X0379196Y0214909D01*
X0379349Y0214340D01*
X0379643Y0213830D01*
X0380060Y0213414D01*
X0380570Y0213119D01*
X0381139Y0212967D01*
X0382671Y0212967D01*
X0382671Y0216441D01*
X0382821Y0216441D01*
X0382821Y0212967D01*
X0384353Y0212967D01*
X0384922Y0213119D01*
X0385432Y0213414D01*
X0385849Y0213830D01*
X0386144Y0214340D01*
X0386296Y0214909D01*
X0386296Y0216442D01*
X0382821Y0216442D01*
X0382821Y0216592D01*
X0386296Y0216592D01*
X0386296Y0218124D01*
X0386144Y0218693D01*
X0385849Y0219203D01*
X0385432Y0219619D01*
X0385384Y0219648D01*
X0386096Y0220360D01*
X0386096Y0224673D01*
X0384903Y0225867D01*
X0384452Y0225867D01*
X0384452Y0238497D01*
X0383000Y0239949D01*
X0383000Y0241296D01*
X0382452Y0242619D01*
X0383000Y0241064D02*
X0391571Y0241064D01*
X0391571Y0239466D02*
X0383483Y0239466D01*
X0384452Y0237867D02*
X0391571Y0237867D01*
X0391571Y0236269D02*
X0384452Y0236269D01*
X0384452Y0234670D02*
X0391571Y0234670D01*
X0391571Y0233072D02*
X0384452Y0233072D01*
X0384452Y0231473D02*
X0391571Y0231473D01*
X0391571Y0229875D02*
X0384452Y0229875D01*
X0384452Y0228276D02*
X0391571Y0228276D01*
X0391571Y0226678D02*
X0384452Y0226678D01*
X0385690Y0225079D02*
X0390826Y0225079D01*
X0390420Y0223481D02*
X0386096Y0223481D01*
X0386096Y0221882D02*
X0390420Y0221882D01*
X0390496Y0220284D02*
X0386020Y0220284D01*
X0386146Y0218685D02*
X0390370Y0218685D01*
X0390220Y0217087D02*
X0386296Y0217087D01*
X0386296Y0215488D02*
X0390220Y0215488D01*
X0390632Y0213890D02*
X0385883Y0213890D01*
X0382821Y0213890D02*
X0382671Y0213890D01*
X0382671Y0215488D02*
X0382821Y0215488D01*
X0379609Y0213890D02*
X0377066Y0213890D01*
X0377066Y0215488D02*
X0379196Y0215488D01*
X0379196Y0217087D02*
X0377066Y0217087D01*
X0377035Y0218685D02*
X0379347Y0218685D01*
X0379472Y0220284D02*
X0376866Y0220284D01*
X0376866Y0221882D02*
X0379396Y0221882D01*
X0379396Y0223481D02*
X0376866Y0223481D01*
X0376866Y0225079D02*
X0379802Y0225079D01*
X0380252Y0226678D02*
X0375594Y0226678D01*
X0375594Y0228276D02*
X0380252Y0228276D01*
X0380252Y0229875D02*
X0375594Y0229875D01*
X0375594Y0231473D02*
X0380252Y0231473D01*
X0380252Y0233072D02*
X0375594Y0233072D01*
X0375594Y0234670D02*
X0380252Y0234670D01*
X0380252Y0236269D02*
X0375594Y0236269D01*
X0375594Y0237867D02*
X0377021Y0237867D01*
X0375964Y0239466D02*
X0375594Y0239466D01*
X0375594Y0241064D02*
X0375800Y0241064D01*
X0375594Y0242663D02*
X0376392Y0242663D01*
X0371394Y0242663D02*
X0361815Y0242663D01*
X0361815Y0244261D02*
X0371394Y0244261D01*
X0371394Y0245860D02*
X0361815Y0245860D01*
X0361815Y0247459D02*
X0371394Y0247459D01*
X0371394Y0249057D02*
X0361815Y0249057D01*
X0361815Y0250656D02*
X0371394Y0250656D01*
X0371394Y0252254D02*
X0361815Y0252254D01*
X0361815Y0253853D02*
X0371394Y0253853D01*
X0371394Y0255451D02*
X0361815Y0255451D01*
X0361815Y0257050D02*
X0371394Y0257050D01*
X0371394Y0258648D02*
X0361815Y0258648D01*
X0361815Y0259242D02*
X0361815Y0221917D01*
X0362766Y0220965D01*
X0363315Y0219642D01*
X0363315Y0218210D01*
X0362766Y0216887D01*
X0361754Y0215874D01*
X0360431Y0215326D01*
X0358998Y0215326D01*
X0357675Y0215874D01*
X0356663Y0216887D01*
X0356115Y0218210D01*
X0356115Y0219642D01*
X0356663Y0220965D01*
X0357615Y0221917D01*
X0357615Y0259242D01*
X0357254Y0259603D01*
X0356893Y0259242D01*
X0356893Y0256934D01*
X0339929Y0239969D01*
X0340592Y0239694D01*
X0341605Y0238682D01*
X0342153Y0237359D01*
X0342153Y0235926D01*
X0341605Y0234603D01*
X0340653Y0233651D01*
X0340653Y0227022D01*
X0341677Y0227022D01*
X0342195Y0226504D01*
X0342713Y0227022D01*
X0348369Y0227022D01*
X0348935Y0226456D01*
X0350140Y0226955D01*
X0351572Y0226955D01*
X0352896Y0226407D01*
X0353908Y0225394D01*
X0354456Y0224071D01*
X0354456Y0222639D01*
X0353908Y0221316D01*
X0352896Y0220303D01*
X0351572Y0219755D01*
X0350140Y0219755D01*
X0348817Y0220303D01*
X0348802Y0220318D01*
X0348369Y0219885D01*
X0342713Y0219885D01*
X0342195Y0220403D01*
X0341677Y0219885D01*
X0336020Y0219885D01*
X0335083Y0220822D01*
X0335083Y0226085D01*
X0336020Y0227022D01*
X0336453Y0227022D01*
X0336453Y0233651D01*
X0336093Y0234012D01*
X0335179Y0233098D01*
X0333856Y0232550D01*
X0332424Y0232550D01*
X0331101Y0233098D01*
X0330925Y0233274D01*
X0330318Y0232667D01*
X0330318Y0227197D01*
X0330816Y0227197D01*
X0332009Y0226004D01*
X0332009Y0221691D01*
X0330816Y0220497D01*
X0326503Y0220497D01*
X0325659Y0221341D01*
X0324816Y0220497D01*
X0320503Y0220497D01*
X0319309Y0221691D01*
X0319309Y0226004D01*
X0320213Y0226907D01*
X0320213Y0233651D01*
X0319261Y0234603D01*
X0318713Y0235926D01*
X0318713Y0237359D01*
X0319261Y0238682D01*
X0320274Y0239694D01*
X0321597Y0240243D01*
X0323029Y0240243D01*
X0324352Y0239694D01*
X0325365Y0238682D01*
X0325595Y0238126D01*
X0326179Y0238710D01*
X0327502Y0239258D01*
X0328935Y0239258D01*
X0330258Y0238710D01*
X0330433Y0238535D01*
X0331101Y0239202D01*
X0332424Y0239750D01*
X0333770Y0239750D01*
X0352693Y0258674D01*
X0352693Y0259242D01*
X0351741Y0260194D01*
X0351193Y0261517D01*
X0351193Y0262949D01*
X0351741Y0264272D01*
X0352754Y0265285D01*
X0354077Y0265833D01*
X0355509Y0265833D01*
X0356833Y0265285D01*
X0357254Y0264864D01*
X0357675Y0265285D01*
X0358998Y0265833D01*
X0360431Y0265833D01*
X0361754Y0265285D01*
X0362766Y0264272D01*
X0363315Y0262949D01*
X0363315Y0261517D01*
X0362766Y0260194D01*
X0361815Y0259242D01*
X0362788Y0260247D02*
X0370420Y0260247D01*
X0369894Y0261845D02*
X0363315Y0261845D01*
X0363110Y0263444D02*
X0370099Y0263444D01*
X0371212Y0265042D02*
X0361997Y0265042D01*
X0357432Y0265042D02*
X0357075Y0265042D01*
X0352511Y0265042D02*
X0273753Y0265042D01*
X0275200Y0263444D02*
X0351398Y0263444D01*
X0351193Y0261845D02*
X0275200Y0261845D01*
X0275200Y0260247D02*
X0351720Y0260247D01*
X0352668Y0258648D02*
X0275200Y0258648D01*
X0275200Y0257050D02*
X0351069Y0257050D01*
X0349471Y0255451D02*
X0275200Y0255451D01*
X0275200Y0253853D02*
X0347872Y0253853D01*
X0346274Y0252254D02*
X0275200Y0252254D01*
X0275200Y0250656D02*
X0344675Y0250656D01*
X0343077Y0249057D02*
X0275200Y0249057D01*
X0276573Y0247459D02*
X0341478Y0247459D01*
X0339880Y0245860D02*
X0278172Y0245860D01*
X0279770Y0244261D02*
X0338281Y0244261D01*
X0336682Y0242663D02*
X0281369Y0242663D01*
X0282967Y0241064D02*
X0303489Y0241064D01*
X0305704Y0241064D02*
X0307864Y0241064D01*
X0313140Y0241064D02*
X0335084Y0241064D01*
X0331737Y0239466D02*
X0324581Y0239466D01*
X0320045Y0239466D02*
X0314044Y0239466D01*
X0314091Y0237867D02*
X0318924Y0237867D01*
X0318713Y0236269D02*
X0313251Y0236269D01*
X0312602Y0234670D02*
X0319233Y0234670D01*
X0320213Y0233072D02*
X0312602Y0233072D01*
X0312602Y0231473D02*
X0320213Y0231473D01*
X0320213Y0229875D02*
X0312602Y0229875D01*
X0312602Y0228276D02*
X0320213Y0228276D01*
X0319984Y0226678D02*
X0312602Y0226678D01*
X0313505Y0225079D02*
X0319309Y0225079D01*
X0319309Y0223481D02*
X0313505Y0223481D01*
X0313505Y0221882D02*
X0319309Y0221882D01*
X0323749Y0217087D02*
X0306945Y0217087D01*
X0305346Y0218685D02*
X0356115Y0218685D01*
X0356380Y0220284D02*
X0352849Y0220284D01*
X0354143Y0221882D02*
X0357580Y0221882D01*
X0357615Y0223481D02*
X0354456Y0223481D01*
X0354039Y0225079D02*
X0357615Y0225079D01*
X0357615Y0226678D02*
X0352242Y0226678D01*
X0349471Y0226678D02*
X0348714Y0226678D01*
X0348768Y0220284D02*
X0348864Y0220284D01*
X0350140Y0215144D02*
X0348817Y0214596D01*
X0347865Y0213644D01*
X0346731Y0213644D01*
X0345777Y0214599D01*
X0341464Y0214599D01*
X0340751Y0213886D01*
X0340723Y0213935D01*
X0340306Y0214352D01*
X0339796Y0214646D01*
X0339227Y0214799D01*
X0337695Y0214799D01*
X0337695Y0211324D01*
X0337545Y0211324D01*
X0337545Y0214799D01*
X0336013Y0214799D01*
X0335444Y0214646D01*
X0334934Y0214352D01*
X0334517Y0213935D01*
X0334223Y0213425D01*
X0334070Y0212856D01*
X0334070Y0211324D01*
X0337545Y0211324D01*
X0337545Y0211174D01*
X0337695Y0211174D01*
X0337695Y0207699D01*
X0339227Y0207699D01*
X0339796Y0207851D01*
X0340306Y0208146D01*
X0340723Y0208562D01*
X0340751Y0208611D01*
X0341464Y0207899D01*
X0345777Y0207899D01*
X0346970Y0209092D01*
X0346970Y0209444D01*
X0347865Y0209444D01*
X0348817Y0208492D01*
X0350140Y0207944D01*
X0351572Y0207944D01*
X0352896Y0208492D01*
X0353908Y0209505D01*
X0354456Y0210828D01*
X0354456Y0212260D01*
X0353908Y0213583D01*
X0352896Y0214596D01*
X0351572Y0215144D01*
X0350140Y0215144D01*
X0348111Y0213890D02*
X0346486Y0213890D01*
X0346970Y0209094D02*
X0348215Y0209094D01*
X0353498Y0209094D02*
X0355574Y0209094D01*
X0354400Y0210693D02*
X0357173Y0210693D01*
X0358771Y0212291D02*
X0354443Y0212291D01*
X0353602Y0213890D02*
X0369529Y0213890D01*
X0369529Y0215488D02*
X0360822Y0215488D01*
X0358607Y0215488D02*
X0329736Y0215488D01*
X0329850Y0213890D02*
X0334491Y0213890D01*
X0334070Y0212291D02*
X0331425Y0212291D01*
X0333024Y0210693D02*
X0334070Y0210693D01*
X0337545Y0210693D02*
X0337695Y0210693D01*
X0337695Y0212291D02*
X0337545Y0212291D01*
X0337545Y0213890D02*
X0337695Y0213890D01*
X0340749Y0213890D02*
X0340755Y0213890D01*
X0337695Y0209094D02*
X0337545Y0209094D01*
X0336221Y0207496D02*
X0353976Y0207496D01*
X0353481Y0205897D02*
X0337819Y0205897D01*
X0339418Y0204299D02*
X0353481Y0204299D01*
X0353481Y0202700D02*
X0341016Y0202700D01*
X0342615Y0201102D02*
X0353481Y0201102D01*
X0353481Y0199503D02*
X0344214Y0199503D01*
X0345812Y0197905D02*
X0353314Y0197905D01*
X0352201Y0196306D02*
X0347411Y0196306D01*
X0349009Y0194708D02*
X0352000Y0194708D01*
X0352532Y0193109D02*
X0350608Y0193109D01*
X0352206Y0191511D02*
X0357615Y0191511D01*
X0357615Y0189912D02*
X0353805Y0189912D01*
X0355403Y0188314D02*
X0357615Y0188314D01*
X0361815Y0188314D02*
X0379071Y0188314D01*
X0379071Y0189912D02*
X0361815Y0189912D01*
X0361815Y0191511D02*
X0379071Y0191511D01*
X0379071Y0193109D02*
X0361815Y0193109D01*
X0361815Y0194708D02*
X0379071Y0194708D01*
X0379071Y0196306D02*
X0361815Y0196306D01*
X0361815Y0197905D02*
X0379071Y0197905D01*
X0379071Y0199503D02*
X0361815Y0199503D01*
X0362955Y0201102D02*
X0379071Y0201102D01*
X0377695Y0202700D02*
X0363315Y0202700D01*
X0362943Y0204299D02*
X0376096Y0204299D01*
X0374498Y0205897D02*
X0361369Y0205897D01*
X0359916Y0207496D02*
X0372899Y0207496D01*
X0371301Y0209094D02*
X0361514Y0209094D01*
X0362849Y0217087D02*
X0369529Y0217087D01*
X0369559Y0218685D02*
X0363315Y0218685D01*
X0363049Y0220284D02*
X0369729Y0220284D01*
X0369729Y0221882D02*
X0361849Y0221882D01*
X0361815Y0223481D02*
X0369729Y0223481D01*
X0369729Y0225079D02*
X0361815Y0225079D01*
X0361815Y0226678D02*
X0371394Y0226678D01*
X0371394Y0228276D02*
X0361815Y0228276D01*
X0361815Y0229875D02*
X0371394Y0229875D01*
X0371394Y0231473D02*
X0361815Y0231473D01*
X0361815Y0233072D02*
X0371394Y0233072D01*
X0371394Y0234670D02*
X0361815Y0234670D01*
X0361815Y0236269D02*
X0371394Y0236269D01*
X0371394Y0237867D02*
X0361815Y0237867D01*
X0361815Y0239466D02*
X0371394Y0239466D01*
X0371394Y0241064D02*
X0361815Y0241064D01*
X0357615Y0241064D02*
X0341024Y0241064D01*
X0340821Y0239466D02*
X0357615Y0239466D01*
X0357615Y0237867D02*
X0341942Y0237867D01*
X0342153Y0236269D02*
X0357615Y0236269D01*
X0357615Y0234670D02*
X0341633Y0234670D01*
X0340653Y0233072D02*
X0357615Y0233072D01*
X0357615Y0231473D02*
X0340653Y0231473D01*
X0340653Y0229875D02*
X0357615Y0229875D01*
X0357615Y0228276D02*
X0340653Y0228276D01*
X0342021Y0226678D02*
X0342369Y0226678D01*
X0336453Y0228276D02*
X0330318Y0228276D01*
X0330318Y0229875D02*
X0336453Y0229875D01*
X0336453Y0231473D02*
X0330318Y0231473D01*
X0330723Y0233072D02*
X0331165Y0233072D01*
X0335115Y0233072D02*
X0336453Y0233072D01*
X0335676Y0226678D02*
X0331335Y0226678D01*
X0332009Y0225079D02*
X0335083Y0225079D01*
X0335083Y0223481D02*
X0332009Y0223481D01*
X0332009Y0221882D02*
X0335083Y0221882D01*
X0335622Y0220284D02*
X0312886Y0220284D01*
X0307425Y0220284D02*
X0306886Y0220284D01*
X0300806Y0223481D02*
X0300551Y0223481D01*
X0300806Y0225079D02*
X0298952Y0225079D01*
X0297354Y0226678D02*
X0302496Y0226678D01*
X0302496Y0228276D02*
X0295755Y0228276D01*
X0294157Y0229875D02*
X0302496Y0229875D01*
X0302496Y0231473D02*
X0292558Y0231473D01*
X0290960Y0233072D02*
X0302496Y0233072D01*
X0302462Y0234670D02*
X0289361Y0234670D01*
X0287763Y0236269D02*
X0301262Y0236269D01*
X0300996Y0237867D02*
X0286164Y0237867D01*
X0284566Y0239466D02*
X0301462Y0239466D01*
X0328751Y0217087D02*
X0356580Y0217087D01*
X0342314Y0220284D02*
X0342075Y0220284D01*
X0342622Y0242663D02*
X0357615Y0242663D01*
X0357615Y0244261D02*
X0344221Y0244261D01*
X0345819Y0245860D02*
X0357615Y0245860D01*
X0357615Y0247459D02*
X0347418Y0247459D01*
X0349016Y0249057D02*
X0357615Y0249057D01*
X0357615Y0250656D02*
X0350615Y0250656D01*
X0352213Y0252254D02*
X0357615Y0252254D01*
X0357615Y0253853D02*
X0353812Y0253853D01*
X0355410Y0255451D02*
X0357615Y0255451D01*
X0357615Y0257050D02*
X0356893Y0257050D01*
X0356893Y0258648D02*
X0357615Y0258648D01*
X0380674Y0276232D02*
X0402356Y0276232D01*
X0402356Y0274633D02*
X0382272Y0274633D01*
X0383871Y0273035D02*
X0402356Y0273035D01*
X0402356Y0271436D02*
X0385469Y0271436D01*
X0387068Y0269838D02*
X0402356Y0269838D01*
X0402356Y0268239D02*
X0388667Y0268239D01*
X0390265Y0266641D02*
X0402356Y0266641D01*
X0402356Y0265042D02*
X0391864Y0265042D01*
X0393462Y0263444D02*
X0402356Y0263444D01*
X0402356Y0261845D02*
X0395061Y0261845D01*
X0396659Y0260247D02*
X0402356Y0260247D01*
X0402356Y0258648D02*
X0398258Y0258648D01*
X0399216Y0257050D02*
X0402356Y0257050D01*
X0402356Y0255451D02*
X0399216Y0255451D01*
X0399216Y0253853D02*
X0402356Y0253853D01*
X0402356Y0252254D02*
X0399216Y0252254D01*
X0399216Y0250656D02*
X0402356Y0250656D01*
X0402356Y0249057D02*
X0399216Y0249057D01*
X0399216Y0247459D02*
X0402356Y0247459D01*
X0402356Y0245860D02*
X0399216Y0245860D01*
X0399216Y0244261D02*
X0402356Y0244261D01*
X0402356Y0242663D02*
X0399216Y0242663D01*
X0399216Y0241064D02*
X0402356Y0241064D01*
X0402356Y0239466D02*
X0399216Y0239466D01*
X0399216Y0237867D02*
X0402356Y0237867D01*
X0402356Y0236269D02*
X0399216Y0236269D01*
X0399216Y0234670D02*
X0402356Y0234670D01*
X0402356Y0233072D02*
X0399216Y0233072D01*
X0399216Y0231473D02*
X0402356Y0231473D01*
X0402356Y0229875D02*
X0399216Y0229875D01*
X0399216Y0228276D02*
X0402356Y0228276D01*
X0402356Y0226678D02*
X0399216Y0226678D01*
X0399216Y0225079D02*
X0402356Y0225079D01*
X0402356Y0223481D02*
X0399216Y0223481D01*
X0399216Y0221882D02*
X0402356Y0221882D01*
X0402356Y0220284D02*
X0399216Y0220284D01*
X0399216Y0218685D02*
X0402356Y0218685D01*
X0402356Y0217087D02*
X0399216Y0217087D01*
X0399216Y0215488D02*
X0402356Y0215488D01*
X0402356Y0213890D02*
X0399216Y0213890D01*
X0399216Y0212291D02*
X0402356Y0212291D01*
X0402356Y0210693D02*
X0399216Y0210693D01*
X0399216Y0209094D02*
X0402356Y0209094D01*
X0402356Y0207496D02*
X0399216Y0207496D01*
X0399216Y0205897D02*
X0402356Y0205897D01*
X0402356Y0204299D02*
X0399216Y0204299D01*
X0399216Y0202700D02*
X0402356Y0202700D01*
X0402356Y0201102D02*
X0399216Y0201102D01*
X0399216Y0199503D02*
X0402356Y0199503D01*
X0402356Y0197905D02*
X0399216Y0197905D01*
X0399216Y0196306D02*
X0402356Y0196306D01*
X0402356Y0194708D02*
X0399216Y0194708D01*
X0399216Y0193109D02*
X0402356Y0193109D01*
X0402356Y0191511D02*
X0399216Y0191511D01*
X0399216Y0189912D02*
X0402356Y0189912D01*
X0402356Y0188314D02*
X0399216Y0188314D01*
X0399216Y0186715D02*
X0402356Y0186715D01*
X0402356Y0185117D02*
X0399216Y0185117D01*
X0399216Y0183518D02*
X0402356Y0183518D01*
X0402356Y0181920D02*
X0399216Y0181920D01*
X0399216Y0180321D02*
X0402356Y0180321D01*
X0402356Y0178723D02*
X0399216Y0178723D01*
X0399216Y0177124D02*
X0402356Y0177124D01*
X0402356Y0175525D02*
X0399216Y0175525D01*
X0399216Y0173927D02*
X0402356Y0173927D01*
X0402356Y0172328D02*
X0399216Y0172328D01*
X0399216Y0170730D02*
X0402356Y0170730D01*
X0402356Y0169131D02*
X0399216Y0169131D01*
X0399216Y0167533D02*
X0402356Y0167533D01*
X0402356Y0165934D02*
X0399216Y0165934D01*
X0399216Y0164336D02*
X0402356Y0164336D01*
X0402356Y0162737D02*
X0399216Y0162737D01*
X0399216Y0161139D02*
X0402356Y0161139D01*
X0402356Y0159540D02*
X0399216Y0159540D01*
X0399216Y0157942D02*
X0402356Y0157942D01*
X0402356Y0156343D02*
X0399216Y0156343D01*
X0399216Y0154745D02*
X0402356Y0154745D01*
X0402356Y0153146D02*
X0399216Y0153146D01*
X0399216Y0151548D02*
X0402356Y0151548D01*
X0402356Y0149949D02*
X0399216Y0149949D01*
X0399216Y0148351D02*
X0402356Y0148351D01*
X0402356Y0146752D02*
X0399216Y0146752D01*
X0399216Y0145154D02*
X0402356Y0145154D01*
X0402356Y0143555D02*
X0399216Y0143555D01*
X0399216Y0141957D02*
X0402356Y0141957D01*
X0402356Y0140358D02*
X0399216Y0140358D01*
X0399216Y0138760D02*
X0402356Y0138760D01*
X0402356Y0137161D02*
X0399216Y0137161D01*
X0399216Y0135563D02*
X0402356Y0135563D01*
X0402356Y0133964D02*
X0399216Y0133964D01*
X0399216Y0132366D02*
X0402356Y0132366D01*
X0402356Y0130767D02*
X0399216Y0130767D01*
X0399216Y0129169D02*
X0402356Y0129169D01*
X0402356Y0127570D02*
X0399216Y0127570D01*
X0399216Y0125972D02*
X0402356Y0125972D01*
X0402356Y0124373D02*
X0399216Y0124373D01*
X0399216Y0122775D02*
X0402356Y0122775D01*
X0402356Y0121176D02*
X0399216Y0121176D01*
X0399216Y0119578D02*
X0402356Y0119578D01*
X0402356Y0117979D02*
X0399216Y0117979D01*
X0399216Y0116381D02*
X0402356Y0116381D01*
X0402356Y0114782D02*
X0399216Y0114782D01*
X0399216Y0113184D02*
X0402356Y0113184D01*
X0402356Y0111585D02*
X0399216Y0111585D01*
X0399216Y0109987D02*
X0402356Y0109987D01*
X0402356Y0108388D02*
X0399216Y0108388D01*
X0399216Y0106790D02*
X0402356Y0106790D01*
X0402356Y0105191D02*
X0399216Y0105191D01*
X0399216Y0103592D02*
X0402356Y0103592D01*
X0402356Y0101994D02*
X0399216Y0101994D01*
X0399216Y0100395D02*
X0402356Y0100395D01*
X0402356Y0098797D02*
X0399216Y0098797D01*
X0398929Y0097198D02*
X0402356Y0097198D01*
X0402356Y0095600D02*
X0397331Y0095600D01*
X0395732Y0094001D02*
X0402356Y0094001D01*
X0402356Y0092403D02*
X0394134Y0092403D01*
X0392535Y0090804D02*
X0402356Y0090804D01*
X0402356Y0089206D02*
X0390937Y0089206D01*
X0394976Y0084410D02*
X0402356Y0084410D01*
X0402356Y0082812D02*
X0394976Y0082812D01*
X0394976Y0081213D02*
X0402356Y0081213D01*
X0402356Y0079615D02*
X0394976Y0079615D01*
X0394976Y0078016D02*
X0402356Y0078016D01*
X0402356Y0076418D02*
X0394976Y0076418D01*
X0394976Y0074819D02*
X0402356Y0074819D01*
X0402356Y0073221D02*
X0394976Y0073221D01*
X0394976Y0071622D02*
X0402356Y0071622D01*
X0402356Y0070024D02*
X0394976Y0070024D01*
X0394976Y0068425D02*
X0402356Y0068425D01*
X0402356Y0066827D02*
X0394976Y0066827D01*
X0394976Y0065228D02*
X0402356Y0065228D01*
X0402356Y0063630D02*
X0394976Y0063630D01*
X0394976Y0062031D02*
X0402356Y0062031D01*
X0402356Y0060433D02*
X0394976Y0060433D01*
X0394976Y0058834D02*
X0402356Y0058834D01*
X0402356Y0057236D02*
X0394976Y0057236D01*
X0394976Y0055637D02*
X0402356Y0055637D01*
X0402356Y0054039D02*
X0394373Y0054039D01*
X0402356Y0052440D02*
X0224250Y0052440D01*
X0225848Y0054039D02*
X0363638Y0054039D01*
X0363036Y0055637D02*
X0338175Y0055637D01*
X0339774Y0057236D02*
X0363036Y0057236D01*
X0363036Y0058834D02*
X0341372Y0058834D01*
X0342971Y0060433D02*
X0363036Y0060433D01*
X0363036Y0062031D02*
X0344569Y0062031D01*
X0346168Y0063630D02*
X0363036Y0063630D01*
X0363036Y0065228D02*
X0347766Y0065228D01*
X0349365Y0066827D02*
X0363036Y0066827D01*
X0364170Y0086009D02*
X0402356Y0086009D01*
X0402356Y0087607D02*
X0364299Y0087607D01*
X0366956Y0094287D02*
X0378729Y0094287D01*
X0378996Y0093643D01*
X0380058Y0092581D01*
X0355512Y0092581D01*
X0355587Y0092862D01*
X0355587Y0094394D01*
X0352112Y0094394D01*
X0352112Y0094544D01*
X0355587Y0094544D01*
X0355587Y0096076D01*
X0355435Y0096645D01*
X0355140Y0097156D01*
X0354724Y0097572D01*
X0354675Y0097600D01*
X0355387Y0098313D01*
X0355387Y0102626D01*
X0354194Y0103819D01*
X0349881Y0103819D01*
X0349251Y0103189D01*
X0348725Y0103715D01*
X0347553Y0104200D01*
X0346285Y0104200D01*
X0345114Y0103715D01*
X0344217Y0102818D01*
X0343732Y0101647D01*
X0343732Y0100379D01*
X0344217Y0099207D01*
X0345114Y0098310D01*
X0346285Y0097825D01*
X0347553Y0097825D01*
X0348700Y0098300D01*
X0349400Y0097600D01*
X0349351Y0097572D01*
X0348934Y0097156D01*
X0348640Y0096645D01*
X0348487Y0096076D01*
X0348487Y0094544D01*
X0351962Y0094544D01*
X0351962Y0094394D01*
X0348487Y0094394D01*
X0348487Y0092862D01*
X0348563Y0092581D01*
X0336870Y0092581D01*
X0336931Y0092687D01*
X0337083Y0093256D01*
X0337083Y0094788D01*
X0333609Y0094788D01*
X0333609Y0094938D01*
X0337083Y0094938D01*
X0337083Y0096470D01*
X0336931Y0097039D01*
X0336636Y0097549D01*
X0336220Y0097966D01*
X0336171Y0097994D01*
X0336883Y0098707D01*
X0336883Y0103019D01*
X0335907Y0103996D01*
X0336236Y0104325D01*
X0336721Y0105497D01*
X0336721Y0106765D01*
X0336236Y0107936D01*
X0336106Y0108066D01*
X0339007Y0108066D01*
X0339959Y0107114D01*
X0341282Y0106566D01*
X0342714Y0106566D01*
X0344037Y0107114D01*
X0345050Y0108127D01*
X0345598Y0109450D01*
X0345598Y0110882D01*
X0345310Y0111576D01*
X0349667Y0111576D01*
X0366956Y0094287D01*
X0365643Y0095600D02*
X0355587Y0095600D01*
X0355587Y0094001D02*
X0378848Y0094001D01*
X0390905Y0100395D02*
X0395016Y0100395D01*
X0395016Y0101994D02*
X0390644Y0101994D01*
X0392745Y0103592D02*
X0395016Y0103592D01*
X0395016Y0105191D02*
X0393436Y0105191D01*
X0393496Y0106790D02*
X0395016Y0106790D01*
X0395016Y0108388D02*
X0392989Y0108388D01*
X0391663Y0109987D02*
X0395016Y0109987D01*
X0395016Y0111585D02*
X0390075Y0111585D01*
X0390020Y0111567D02*
X0390738Y0111800D01*
X0391411Y0112143D01*
X0392023Y0112588D01*
X0392557Y0113122D01*
X0393001Y0113733D01*
X0393344Y0114406D01*
X0393577Y0115125D01*
X0393696Y0115871D01*
X0393696Y0116049D01*
X0386096Y0116049D01*
X0386096Y0111449D01*
X0389273Y0111449D01*
X0390020Y0111567D01*
X0392602Y0113184D02*
X0395016Y0113184D01*
X0395016Y0114782D02*
X0393466Y0114782D01*
X0395016Y0116381D02*
X0386096Y0116381D01*
X0386096Y0117979D02*
X0385696Y0117979D01*
X0385696Y0119578D02*
X0386096Y0119578D01*
X0386096Y0114782D02*
X0385696Y0114782D01*
X0385696Y0113184D02*
X0386096Y0113184D01*
X0386096Y0111585D02*
X0385696Y0111585D01*
X0381716Y0111585D02*
X0379039Y0111585D01*
X0379039Y0109987D02*
X0380128Y0109987D01*
X0379190Y0113184D02*
X0379039Y0113184D01*
X0379039Y0119578D02*
X0379436Y0119578D01*
X0379039Y0121176D02*
X0395016Y0121176D01*
X0395016Y0119578D02*
X0392355Y0119578D01*
X0393380Y0117979D02*
X0395016Y0117979D01*
X0395016Y0122775D02*
X0391927Y0122775D01*
X0393098Y0124373D02*
X0395016Y0124373D01*
X0395016Y0125972D02*
X0393496Y0125972D01*
X0393327Y0127570D02*
X0395016Y0127570D01*
X0395016Y0129169D02*
X0392481Y0129169D01*
X0390008Y0130767D02*
X0395016Y0130767D01*
X0395016Y0132366D02*
X0379039Y0132366D01*
X0379039Y0133964D02*
X0395016Y0133964D01*
X0395016Y0135563D02*
X0379039Y0135563D01*
X0379039Y0137161D02*
X0395016Y0137161D01*
X0395016Y0138760D02*
X0379039Y0138760D01*
X0379039Y0130767D02*
X0381784Y0130767D01*
X0379310Y0129169D02*
X0379039Y0129169D01*
X0379039Y0122775D02*
X0379864Y0122775D01*
X0394039Y0140358D02*
X0395016Y0140358D01*
X0395016Y0141957D02*
X0394779Y0141957D01*
X0394779Y0143555D02*
X0395016Y0143555D01*
X0395016Y0145154D02*
X0394779Y0145154D01*
X0394779Y0146752D02*
X0395016Y0146752D01*
X0395016Y0148351D02*
X0394779Y0148351D01*
X0394779Y0149949D02*
X0395016Y0149949D01*
X0395016Y0151548D02*
X0394779Y0151548D01*
X0394779Y0153146D02*
X0395016Y0153146D01*
X0395016Y0154745D02*
X0394779Y0154745D01*
X0394779Y0156343D02*
X0395016Y0156343D01*
X0395016Y0157942D02*
X0394779Y0157942D01*
X0394779Y0159540D02*
X0395016Y0159540D01*
X0395016Y0161139D02*
X0394779Y0161139D01*
X0394779Y0162737D02*
X0395016Y0162737D01*
X0395016Y0164336D02*
X0394779Y0164336D01*
X0394779Y0165934D02*
X0395016Y0165934D01*
X0395016Y0167533D02*
X0394779Y0167533D01*
X0394779Y0169131D02*
X0395016Y0169131D01*
X0395016Y0170730D02*
X0394779Y0170730D01*
X0395016Y0172328D02*
X0358862Y0172328D01*
X0358862Y0170730D02*
X0362839Y0170730D01*
X0362839Y0169131D02*
X0358862Y0169131D01*
X0358862Y0167533D02*
X0362839Y0167533D01*
X0362839Y0165934D02*
X0358862Y0165934D01*
X0358862Y0164336D02*
X0362839Y0164336D01*
X0362839Y0162737D02*
X0358862Y0162737D01*
X0358862Y0161139D02*
X0362839Y0161139D01*
X0362839Y0159540D02*
X0358862Y0159540D01*
X0358862Y0157942D02*
X0362839Y0157942D01*
X0362839Y0156343D02*
X0358862Y0156343D01*
X0358862Y0154745D02*
X0362839Y0154745D01*
X0362839Y0153146D02*
X0358862Y0153146D01*
X0358862Y0151548D02*
X0362839Y0151548D01*
X0362839Y0149949D02*
X0358862Y0149949D01*
X0358862Y0148351D02*
X0362839Y0148351D01*
X0362839Y0146752D02*
X0358862Y0146752D01*
X0358862Y0145154D02*
X0362839Y0145154D01*
X0362839Y0143555D02*
X0358862Y0143555D01*
X0358862Y0141957D02*
X0362839Y0141957D01*
X0358862Y0173927D02*
X0372484Y0173927D01*
X0371442Y0175525D02*
X0358862Y0175525D01*
X0358862Y0177124D02*
X0371291Y0177124D01*
X0371927Y0178723D02*
X0358862Y0178723D01*
X0358862Y0180321D02*
X0375620Y0180321D01*
X0377219Y0181920D02*
X0360772Y0181920D01*
X0361738Y0183518D02*
X0378817Y0183518D01*
X0379071Y0185117D02*
X0361838Y0185117D01*
X0361815Y0186715D02*
X0379071Y0186715D01*
X0383271Y0186715D02*
X0395016Y0186715D01*
X0395016Y0185117D02*
X0383271Y0185117D01*
X0383271Y0183518D02*
X0395016Y0183518D01*
X0395016Y0181920D02*
X0383158Y0181920D01*
X0381560Y0180321D02*
X0395016Y0180321D01*
X0395016Y0178723D02*
X0379961Y0178723D01*
X0378453Y0177124D02*
X0395016Y0177124D01*
X0395016Y0175525D02*
X0378302Y0175525D01*
X0377260Y0173927D02*
X0395016Y0173927D01*
X0395016Y0188314D02*
X0383271Y0188314D01*
X0383271Y0189912D02*
X0395016Y0189912D01*
X0395016Y0191511D02*
X0383271Y0191511D01*
X0383271Y0193109D02*
X0395016Y0193109D01*
X0395016Y0194708D02*
X0383271Y0194708D01*
X0383271Y0196306D02*
X0395016Y0196306D01*
X0395016Y0197905D02*
X0383271Y0197905D01*
X0383271Y0199503D02*
X0395016Y0199503D01*
X0395016Y0201102D02*
X0383271Y0201102D01*
X0383271Y0202700D02*
X0395016Y0202700D01*
X0395016Y0204299D02*
X0382036Y0204299D01*
X0380438Y0205897D02*
X0395016Y0205897D01*
X0395016Y0207496D02*
X0378839Y0207496D01*
X0377241Y0209094D02*
X0395016Y0209094D01*
X0395016Y0210693D02*
X0375642Y0210693D01*
X0375826Y0212291D02*
X0395016Y0212291D01*
X0393845Y0213890D02*
X0393695Y0213890D01*
X0393695Y0215488D02*
X0393845Y0215488D01*
X0304892Y0127570D02*
X0299021Y0127570D01*
X0299204Y0129169D02*
X0297422Y0129169D01*
X0298183Y0130767D02*
X0295824Y0130767D01*
X0294225Y0132366D02*
X0298044Y0132366D01*
X0300619Y0125972D02*
X0306490Y0125972D01*
X0308089Y0124373D02*
X0302218Y0124373D01*
X0303816Y0122775D02*
X0309687Y0122775D01*
X0311026Y0121176D02*
X0305415Y0121176D01*
X0307013Y0119578D02*
X0310839Y0119578D01*
X0311383Y0117979D02*
X0308612Y0117979D01*
X0310210Y0116381D02*
X0313621Y0116381D01*
X0315219Y0114782D02*
X0311809Y0114782D01*
X0313407Y0113184D02*
X0316818Y0113184D01*
X0318416Y0111585D02*
X0315006Y0111585D01*
X0316604Y0109987D02*
X0320015Y0109987D01*
X0321613Y0108388D02*
X0318203Y0108388D01*
X0319801Y0106790D02*
X0323212Y0106790D01*
X0323634Y0105191D02*
X0321400Y0105191D01*
X0322998Y0103592D02*
X0324288Y0103592D01*
X0324597Y0101994D02*
X0330183Y0101994D01*
X0330181Y0103592D02*
X0330756Y0103592D01*
X0330183Y0100395D02*
X0326195Y0100395D01*
X0327366Y0098797D02*
X0330183Y0098797D01*
X0330228Y0097198D02*
X0327366Y0097198D01*
X0327366Y0095600D02*
X0329983Y0095600D01*
X0329983Y0094001D02*
X0327366Y0094001D01*
X0337083Y0094001D02*
X0348487Y0094001D01*
X0348487Y0095600D02*
X0337083Y0095600D01*
X0336839Y0097198D02*
X0348977Y0097198D01*
X0344627Y0098797D02*
X0336883Y0098797D01*
X0336883Y0100395D02*
X0343732Y0100395D01*
X0343876Y0101994D02*
X0336883Y0101994D01*
X0336310Y0103592D02*
X0344992Y0103592D01*
X0343253Y0106790D02*
X0354453Y0106790D01*
X0352855Y0108388D02*
X0345158Y0108388D01*
X0345598Y0109987D02*
X0351256Y0109987D01*
X0349654Y0103592D02*
X0348847Y0103592D01*
X0354421Y0103592D02*
X0357650Y0103592D01*
X0359249Y0101994D02*
X0355387Y0101994D01*
X0355387Y0100395D02*
X0360848Y0100395D01*
X0362446Y0098797D02*
X0355387Y0098797D01*
X0355098Y0097198D02*
X0364045Y0097198D01*
X0356052Y0105191D02*
X0336594Y0105191D01*
X0336711Y0106790D02*
X0340743Y0106790D01*
X0392819Y0098797D02*
X0394588Y0098797D01*
X0402356Y0050842D02*
X0222651Y0050842D01*
X0221053Y0049243D02*
X0402356Y0049243D01*
X0402356Y0047645D02*
X0219454Y0047645D01*
X0217856Y0046046D02*
X0402356Y0046046D01*
X0402356Y0044448D02*
X0216257Y0044448D01*
X0214659Y0042849D02*
X0402356Y0042849D01*
X0402356Y0041251D02*
X0213060Y0041251D01*
X0211462Y0039652D02*
X0402356Y0039652D01*
X0402356Y0038054D02*
X0209863Y0038054D01*
X0227447Y0055637D02*
X0227870Y0055637D01*
X0234787Y0055637D02*
X0237587Y0055637D01*
X0236398Y0057236D02*
X0236055Y0057236D01*
X0241129Y0057236D02*
X0241529Y0057236D01*
X0241529Y0058834D02*
X0241129Y0058834D01*
X0241129Y0055637D02*
X0241529Y0055637D01*
X0245070Y0055637D02*
X0249856Y0055637D01*
X0248258Y0057236D02*
X0246259Y0057236D01*
X0247937Y0122775D02*
X0248290Y0122775D01*
X0247937Y0124373D02*
X0249889Y0124373D01*
X0251487Y0125972D02*
X0247937Y0125972D01*
X0247937Y0127570D02*
X0251097Y0127570D01*
X0250005Y0129169D02*
X0248992Y0129169D01*
X0249700Y0130767D02*
X0249815Y0130767D01*
X0249700Y0132366D02*
X0250356Y0132366D01*
X0249700Y0133964D02*
X0251315Y0133964D01*
X0251315Y0135563D02*
X0249278Y0135563D01*
X0242592Y0135563D02*
X0242585Y0135563D01*
X0258960Y0130767D02*
X0260818Y0130767D01*
X0260168Y0132366D02*
X0262417Y0132366D01*
X0264015Y0133964D02*
X0260460Y0133964D01*
X0260022Y0135563D02*
X0265614Y0135563D01*
X0259220Y0129169D02*
X0258960Y0129169D01*
X0213897Y0127751D02*
X0206568Y0120423D01*
X0206568Y0121823D01*
X0205856Y0122535D01*
X0205905Y0122563D01*
X0206321Y0122980D01*
X0206616Y0123490D01*
X0206768Y0124059D01*
X0206768Y0125591D01*
X0203294Y0125591D01*
X0203294Y0125741D01*
X0206768Y0125741D01*
X0206768Y0126251D01*
X0207379Y0126251D01*
X0208703Y0126799D01*
X0209655Y0127751D01*
X0213897Y0127751D01*
X0213716Y0127570D02*
X0209474Y0127570D01*
X0212117Y0125972D02*
X0206768Y0125972D01*
X0206768Y0124373D02*
X0210519Y0124373D01*
X0208920Y0122775D02*
X0206116Y0122775D01*
X0206568Y0121176D02*
X0207322Y0121176D01*
X0203143Y0125591D02*
X0199669Y0125591D01*
X0199669Y0124059D01*
X0199821Y0123490D01*
X0200116Y0122980D01*
X0200532Y0122563D01*
X0200581Y0122535D01*
X0200155Y0122109D01*
X0182553Y0122109D01*
X0182553Y0122610D01*
X0181840Y0123322D01*
X0181889Y0123351D01*
X0182306Y0123767D01*
X0182600Y0124277D01*
X0182753Y0124846D01*
X0182753Y0126379D01*
X0179278Y0126379D01*
X0179278Y0126529D01*
X0179128Y0126529D01*
X0179128Y0130004D01*
X0177596Y0130004D01*
X0177027Y0129851D01*
X0176516Y0129556D01*
X0176100Y0129140D01*
X0175805Y0128630D01*
X0175653Y0128061D01*
X0175653Y0126529D01*
X0179128Y0126529D01*
X0179128Y0126379D01*
X0175653Y0126379D01*
X0175653Y0124846D01*
X0175805Y0124277D01*
X0176100Y0123767D01*
X0176516Y0123351D01*
X0176565Y0123322D01*
X0175853Y0122610D01*
X0175853Y0122601D01*
X0160112Y0122601D01*
X0160112Y0122610D01*
X0159399Y0123322D01*
X0159448Y0123351D01*
X0159865Y0123767D01*
X0160159Y0124277D01*
X0160312Y0124846D01*
X0160312Y0126379D01*
X0156837Y0126379D01*
X0156837Y0126529D01*
X0156687Y0126529D01*
X0156687Y0130004D01*
X0155155Y0130004D01*
X0154586Y0129851D01*
X0154075Y0129556D01*
X0153659Y0129140D01*
X0153364Y0128630D01*
X0153212Y0128061D01*
X0153212Y0126529D01*
X0156687Y0126529D01*
X0156687Y0126379D01*
X0153212Y0126379D01*
X0153212Y0124846D01*
X0153364Y0124277D01*
X0153659Y0123767D01*
X0154075Y0123351D01*
X0154124Y0123322D01*
X0153412Y0122610D01*
X0153412Y0122109D01*
X0138566Y0122109D01*
X0138140Y0122535D01*
X0138188Y0122563D01*
X0138605Y0122980D01*
X0138899Y0123490D01*
X0139052Y0124059D01*
X0139052Y0125591D01*
X0135577Y0125591D01*
X0135577Y0125741D01*
X0139052Y0125741D01*
X0139052Y0127273D01*
X0138899Y0127842D01*
X0138605Y0128352D01*
X0138188Y0128769D01*
X0137678Y0129064D01*
X0137109Y0129216D01*
X0135577Y0129216D01*
X0135577Y0125741D01*
X0135427Y0125741D01*
X0135427Y0129216D01*
X0133895Y0129216D01*
X0133326Y0129064D01*
X0132816Y0128769D01*
X0132507Y0128461D01*
X0132507Y0129091D01*
X0131959Y0130414D01*
X0130947Y0131427D01*
X0129624Y0131975D01*
X0128191Y0131975D01*
X0127556Y0131712D01*
X0119689Y0139579D01*
X0119689Y0140869D01*
X0120471Y0140087D01*
X0121794Y0139539D01*
X0123226Y0139539D01*
X0124549Y0140087D01*
X0125562Y0141099D01*
X0126110Y0142422D01*
X0126110Y0143769D01*
X0126578Y0144237D01*
X0126578Y0146206D01*
X0131704Y0151332D01*
X0135033Y0151332D01*
X0135033Y0154661D01*
X0147002Y0166629D01*
X0188416Y0166629D01*
X0189368Y0165677D01*
X0190691Y0165129D01*
X0192124Y0165129D01*
X0193447Y0165677D01*
X0194459Y0166690D01*
X0195007Y0168013D01*
X0195007Y0168557D01*
X0196197Y0167367D01*
X0196197Y0160401D01*
X0195245Y0159449D01*
X0194697Y0158126D01*
X0194697Y0156694D01*
X0195245Y0155371D01*
X0196258Y0154358D01*
X0197581Y0153810D01*
X0199013Y0153810D01*
X0200336Y0154358D01*
X0201349Y0155371D01*
X0201897Y0156694D01*
X0201897Y0158126D01*
X0201349Y0159449D01*
X0200397Y0160401D01*
X0200397Y0165964D01*
X0211453Y0154908D01*
X0211453Y0144769D01*
X0210545Y0145145D01*
X0209555Y0145145D01*
X0209016Y0145683D01*
X0204994Y0145683D01*
X0204994Y0145838D01*
X0204281Y0146551D01*
X0204330Y0146579D01*
X0204747Y0146996D01*
X0205041Y0147506D01*
X0205194Y0148075D01*
X0205194Y0149607D01*
X0201719Y0149607D01*
X0201719Y0149757D01*
X0205194Y0149757D01*
X0205194Y0151289D01*
X0205041Y0151858D01*
X0204747Y0152368D01*
X0204330Y0152785D01*
X0203820Y0153079D01*
X0203251Y0153232D01*
X0201719Y0153232D01*
X0201719Y0149757D01*
X0201569Y0149757D01*
X0201569Y0153232D01*
X0200037Y0153232D01*
X0199468Y0153079D01*
X0198957Y0152785D01*
X0198541Y0152368D01*
X0198246Y0151858D01*
X0198094Y0151289D01*
X0198094Y0149757D01*
X0201569Y0149757D01*
X0201569Y0149607D01*
X0198094Y0149607D01*
X0198094Y0148075D01*
X0198246Y0147506D01*
X0198541Y0146996D01*
X0198957Y0146579D01*
X0199006Y0146551D01*
X0198678Y0146223D01*
X0182946Y0146223D01*
X0182946Y0146232D01*
X0182234Y0146944D01*
X0182283Y0146973D01*
X0182699Y0147389D01*
X0182994Y0147899D01*
X0183146Y0148469D01*
X0183146Y0150001D01*
X0179672Y0150001D01*
X0179672Y0150151D01*
X0183146Y0150151D01*
X0183146Y0151683D01*
X0182994Y0152252D01*
X0182699Y0152762D01*
X0182283Y0153179D01*
X0181773Y0153473D01*
X0181204Y0153626D01*
X0179671Y0153626D01*
X0179671Y0150151D01*
X0179521Y0150151D01*
X0179521Y0150001D01*
X0176046Y0150001D01*
X0176046Y0148469D01*
X0176199Y0147899D01*
X0176494Y0147389D01*
X0176910Y0146973D01*
X0176959Y0146944D01*
X0176246Y0146232D01*
X0176246Y0146223D01*
X0159324Y0146223D01*
X0159324Y0146232D01*
X0158612Y0146944D01*
X0158661Y0146973D01*
X0159077Y0147389D01*
X0159372Y0147899D01*
X0159524Y0148469D01*
X0159524Y0150001D01*
X0156049Y0150001D01*
X0156049Y0150151D01*
X0155899Y0150151D01*
X0155899Y0153626D01*
X0154367Y0153626D01*
X0153798Y0153473D01*
X0153288Y0153179D01*
X0152871Y0152762D01*
X0152577Y0152252D01*
X0152424Y0151683D01*
X0152424Y0150151D01*
X0155899Y0150151D01*
X0155899Y0150001D01*
X0152424Y0150001D01*
X0152424Y0148469D01*
X0152577Y0147899D01*
X0152871Y0147389D01*
X0153288Y0146973D01*
X0153337Y0146944D01*
X0152624Y0146232D01*
X0152624Y0146223D01*
X0138458Y0146223D01*
X0138458Y0147413D01*
X0137746Y0148126D01*
X0137795Y0148154D01*
X0138211Y0148570D01*
X0138506Y0149081D01*
X0138658Y0149650D01*
X0138658Y0151182D01*
X0135183Y0151182D01*
X0135183Y0151332D01*
X0135033Y0151332D01*
X0135033Y0151182D01*
X0131558Y0151182D01*
X0131558Y0149650D01*
X0131711Y0149081D01*
X0132005Y0148570D01*
X0132422Y0148154D01*
X0132471Y0148126D01*
X0131784Y0147439D01*
X0131100Y0147723D01*
X0129668Y0147723D01*
X0128345Y0147175D01*
X0127332Y0146162D01*
X0126784Y0144839D01*
X0126784Y0143407D01*
X0127332Y0142084D01*
X0128345Y0141071D01*
X0129668Y0140523D01*
X0131100Y0140523D01*
X0132423Y0141071D01*
X0133259Y0141907D01*
X0133830Y0141907D01*
X0133837Y0141902D01*
X0133865Y0141907D01*
X0137265Y0141907D01*
X0137381Y0142023D01*
X0152624Y0142023D01*
X0152624Y0141919D01*
X0153818Y0140726D01*
X0158131Y0140726D01*
X0159324Y0141919D01*
X0159324Y0142023D01*
X0176246Y0142023D01*
X0176246Y0141919D01*
X0177440Y0140726D01*
X0181753Y0140726D01*
X0182946Y0141919D01*
X0182946Y0142023D01*
X0198294Y0142023D01*
X0198294Y0141525D01*
X0199487Y0140332D01*
X0203800Y0140332D01*
X0204994Y0141525D01*
X0204994Y0141680D01*
X0206724Y0141680D01*
X0206724Y0141323D01*
X0207209Y0140152D01*
X0208106Y0139255D01*
X0209277Y0138770D01*
X0210545Y0138770D01*
X0211453Y0139146D01*
X0211453Y0136196D01*
X0210753Y0135495D01*
X0210267Y0134324D01*
X0210267Y0133056D01*
X0210725Y0131951D01*
X0209655Y0131951D01*
X0208703Y0132903D01*
X0207379Y0133451D01*
X0205947Y0133451D01*
X0204624Y0132903D01*
X0203611Y0131890D01*
X0203063Y0130567D01*
X0203063Y0129216D01*
X0201611Y0129216D01*
X0201042Y0129064D01*
X0200532Y0128769D01*
X0200116Y0128352D01*
X0199821Y0127842D01*
X0199669Y0127273D01*
X0199669Y0125741D01*
X0203143Y0125741D01*
X0203143Y0125591D01*
X0203143Y0125741D02*
X0203143Y0128942D01*
X0203294Y0128580D01*
X0203294Y0125741D01*
X0203143Y0125741D01*
X0203143Y0125972D02*
X0203294Y0125972D01*
X0203294Y0127570D02*
X0203143Y0127570D01*
X0201434Y0129169D02*
X0182277Y0129169D01*
X0182306Y0129140D02*
X0181889Y0129556D01*
X0181379Y0129851D01*
X0180810Y0130004D01*
X0179278Y0130004D01*
X0179278Y0126529D01*
X0182753Y0126529D01*
X0182753Y0128061D01*
X0182600Y0128630D01*
X0182306Y0129140D01*
X0182753Y0127570D02*
X0199748Y0127570D01*
X0199669Y0125972D02*
X0182753Y0125972D01*
X0182626Y0124373D02*
X0199669Y0124373D01*
X0200321Y0122775D02*
X0182388Y0122775D01*
X0179278Y0127570D02*
X0179128Y0127570D01*
X0179128Y0129169D02*
X0179278Y0129169D01*
X0176129Y0129169D02*
X0159836Y0129169D01*
X0159865Y0129140D02*
X0159448Y0129556D01*
X0158938Y0129851D01*
X0158369Y0130004D01*
X0156837Y0130004D01*
X0156837Y0126529D01*
X0160312Y0126529D01*
X0160312Y0128061D01*
X0160159Y0128630D01*
X0159865Y0129140D01*
X0160312Y0127570D02*
X0175653Y0127570D01*
X0175653Y0125972D02*
X0160312Y0125972D01*
X0160185Y0124373D02*
X0175780Y0124373D01*
X0176017Y0122775D02*
X0159947Y0122775D01*
X0156837Y0127570D02*
X0156687Y0127570D01*
X0156687Y0129169D02*
X0156837Y0129169D01*
X0153688Y0129169D02*
X0137286Y0129169D01*
X0135577Y0129169D02*
X0135427Y0129169D01*
X0135427Y0127570D02*
X0135577Y0127570D01*
X0135577Y0125972D02*
X0135427Y0125972D01*
X0133718Y0129169D02*
X0132475Y0129169D01*
X0131606Y0130767D02*
X0203146Y0130767D01*
X0204087Y0132366D02*
X0126902Y0132366D01*
X0125304Y0133964D02*
X0210267Y0133964D01*
X0210553Y0132366D02*
X0209240Y0132366D01*
X0210820Y0135563D02*
X0123705Y0135563D01*
X0122107Y0137161D02*
X0211453Y0137161D01*
X0211453Y0138760D02*
X0120508Y0138760D01*
X0120199Y0140358D02*
X0119689Y0140358D01*
X0124821Y0140358D02*
X0199461Y0140358D01*
X0198294Y0141957D02*
X0182946Y0141957D01*
X0182426Y0146752D02*
X0198784Y0146752D01*
X0198094Y0148351D02*
X0183115Y0148351D01*
X0183146Y0149949D02*
X0198094Y0149949D01*
X0198163Y0151548D02*
X0183146Y0151548D01*
X0182315Y0153146D02*
X0199717Y0153146D01*
X0201569Y0153146D02*
X0201719Y0153146D01*
X0201719Y0151548D02*
X0201569Y0151548D01*
X0201569Y0149949D02*
X0201719Y0149949D01*
X0205194Y0149949D02*
X0211453Y0149949D01*
X0211453Y0148351D02*
X0205194Y0148351D01*
X0204503Y0146752D02*
X0211453Y0146752D01*
X0211453Y0145154D02*
X0209546Y0145154D01*
X0207124Y0140358D02*
X0203827Y0140358D01*
X0205124Y0151548D02*
X0211453Y0151548D01*
X0211453Y0153146D02*
X0203570Y0153146D01*
X0200723Y0154745D02*
X0211453Y0154745D01*
X0210018Y0156343D02*
X0201752Y0156343D01*
X0201897Y0157942D02*
X0208419Y0157942D01*
X0206821Y0159540D02*
X0201258Y0159540D01*
X0200397Y0161139D02*
X0205222Y0161139D01*
X0203624Y0162737D02*
X0200397Y0162737D01*
X0200397Y0164336D02*
X0202025Y0164336D01*
X0200427Y0165934D02*
X0200397Y0165934D01*
X0196197Y0165934D02*
X0193704Y0165934D01*
X0194809Y0167533D02*
X0196031Y0167533D01*
X0196197Y0164336D02*
X0144709Y0164336D01*
X0146307Y0165934D02*
X0189111Y0165934D01*
X0194697Y0157942D02*
X0138314Y0157942D01*
X0136716Y0156343D02*
X0194843Y0156343D01*
X0195871Y0154745D02*
X0136946Y0154745D01*
X0136715Y0154807D02*
X0135183Y0154807D01*
X0135183Y0151332D01*
X0138658Y0151332D01*
X0138658Y0152864D01*
X0138506Y0153433D01*
X0138211Y0153943D01*
X0137795Y0154360D01*
X0137284Y0154654D01*
X0136715Y0154807D01*
X0135183Y0154745D02*
X0135117Y0154745D01*
X0135183Y0153146D02*
X0135033Y0153146D01*
X0135033Y0151548D02*
X0135183Y0151548D01*
X0138658Y0151548D02*
X0152424Y0151548D01*
X0152424Y0149949D02*
X0138658Y0149949D01*
X0137992Y0148351D02*
X0152456Y0148351D01*
X0153145Y0146752D02*
X0138458Y0146752D01*
X0137315Y0141957D02*
X0152624Y0141957D01*
X0159324Y0141957D02*
X0176246Y0141957D01*
X0176767Y0146752D02*
X0158804Y0146752D01*
X0159493Y0148351D02*
X0176078Y0148351D01*
X0176046Y0149949D02*
X0159524Y0149949D01*
X0159524Y0150151D02*
X0159524Y0151683D01*
X0159372Y0152252D01*
X0159077Y0152762D01*
X0158661Y0153179D01*
X0158151Y0153473D01*
X0157581Y0153626D01*
X0156049Y0153626D01*
X0156049Y0150151D01*
X0159524Y0150151D01*
X0159524Y0151548D02*
X0176046Y0151548D01*
X0176046Y0151683D02*
X0176046Y0150151D01*
X0179521Y0150151D01*
X0179521Y0153626D01*
X0177989Y0153626D01*
X0177420Y0153473D01*
X0176910Y0153179D01*
X0176494Y0152762D01*
X0176199Y0152252D01*
X0176046Y0151683D01*
X0176878Y0153146D02*
X0158693Y0153146D01*
X0156049Y0153146D02*
X0155899Y0153146D01*
X0155899Y0151548D02*
X0156049Y0151548D01*
X0153256Y0153146D02*
X0138583Y0153146D01*
X0131558Y0149949D02*
X0130322Y0149949D01*
X0128723Y0148351D02*
X0132225Y0148351D01*
X0127922Y0146752D02*
X0127125Y0146752D01*
X0126914Y0145154D02*
X0126578Y0145154D01*
X0126784Y0143555D02*
X0126110Y0143555D01*
X0125917Y0141957D02*
X0127459Y0141957D01*
X0138972Y0127570D02*
X0153212Y0127570D01*
X0153212Y0125972D02*
X0139052Y0125972D01*
X0139052Y0124373D02*
X0153339Y0124373D01*
X0153576Y0122775D02*
X0138400Y0122775D01*
X0139913Y0159540D02*
X0195336Y0159540D01*
X0196197Y0161139D02*
X0141511Y0161139D01*
X0143110Y0162737D02*
X0196197Y0162737D01*
X0179671Y0153146D02*
X0179521Y0153146D01*
X0179521Y0151548D02*
X0179671Y0151548D01*
X0087455Y0181920D02*
X0071894Y0181920D01*
X0070211Y0178723D02*
X0084258Y0178723D01*
X0085856Y0180321D02*
X0068612Y0180321D01*
X0071809Y0177124D02*
X0080538Y0177124D01*
X0079612Y0175525D02*
X0073408Y0175525D01*
X0075006Y0173927D02*
X0079540Y0173927D01*
X0073862Y0169131D02*
X0062496Y0169131D01*
X0062496Y0167533D02*
X0075461Y0167533D01*
X0075648Y0165934D02*
X0062496Y0165934D01*
X0062496Y0164336D02*
X0076536Y0164336D01*
X0072264Y0170730D02*
X0062496Y0170730D01*
X0061074Y0181920D02*
X0036461Y0181920D01*
X0037426Y0183518D02*
X0059475Y0183518D01*
X0057877Y0185117D02*
X0037536Y0185117D01*
X0039135Y0186715D02*
X0056278Y0186715D01*
X0054680Y0188314D02*
X0040733Y0188314D01*
X0041933Y0189912D02*
X0053481Y0189912D01*
X0053481Y0191511D02*
X0041933Y0191511D01*
X0041933Y0193109D02*
X0053481Y0193109D01*
X0053481Y0194708D02*
X0041933Y0194708D01*
X0041933Y0196306D02*
X0053481Y0196306D01*
X0053481Y0197905D02*
X0041933Y0197905D01*
X0041933Y0199503D02*
X0053481Y0199503D01*
X0053481Y0201102D02*
X0041933Y0201102D01*
X0041933Y0202700D02*
X0053481Y0202700D01*
X0053481Y0204299D02*
X0041933Y0204299D01*
X0041933Y0205897D02*
X0053481Y0205897D01*
X0053481Y0207496D02*
X0041933Y0207496D01*
X0041933Y0209094D02*
X0053481Y0209094D01*
X0053481Y0210693D02*
X0041933Y0210693D01*
X0041933Y0212291D02*
X0053481Y0212291D01*
X0053481Y0213890D02*
X0041933Y0213890D01*
X0041933Y0215488D02*
X0053481Y0215488D01*
X0053481Y0217087D02*
X0041933Y0217087D01*
X0041933Y0218685D02*
X0053481Y0218685D01*
X0053481Y0220284D02*
X0041933Y0220284D01*
X0041933Y0221882D02*
X0053481Y0221882D01*
X0052977Y0223481D02*
X0041933Y0223481D01*
X0041933Y0225079D02*
X0051379Y0225079D01*
X0049780Y0226678D02*
X0041933Y0226678D01*
X0041933Y0228276D02*
X0048182Y0228276D01*
X0046583Y0229875D02*
X0041933Y0229875D01*
X0041933Y0231473D02*
X0044985Y0231473D01*
X0037733Y0201102D02*
X0028526Y0201102D01*
X0106469Y0055637D02*
X0107140Y0055637D01*
X0105813Y0054039D02*
X0108738Y0054039D01*
X0110337Y0052440D02*
X0104666Y0052440D01*
X0102435Y0050842D02*
X0111935Y0050842D01*
X0113534Y0049243D02*
X0104771Y0049243D01*
X0105857Y0047645D02*
X0115132Y0047645D01*
X0116731Y0046046D02*
X0106469Y0046046D01*
X0106469Y0044448D02*
X0118329Y0044448D01*
X0119928Y0042849D02*
X0106149Y0042849D01*
X0105476Y0041251D02*
X0121526Y0041251D01*
X0123125Y0039652D02*
X0103877Y0039652D01*
X0096260Y0039652D02*
X0024948Y0039652D01*
X0024948Y0038054D02*
X0124723Y0038054D01*
X0097703Y0050842D02*
X0024948Y0050842D01*
X0024948Y0049243D02*
X0095367Y0049243D01*
X0094281Y0047645D02*
X0024948Y0047645D01*
X0024948Y0046046D02*
X0093669Y0046046D01*
X0093669Y0044448D02*
X0024948Y0044448D01*
X0024948Y0042849D02*
X0093989Y0042849D01*
X0094662Y0041251D02*
X0024948Y0041251D01*
X0024948Y0036455D02*
X0402356Y0036455D01*
X0402356Y0034856D02*
X0024948Y0034856D01*
X0024948Y0033258D02*
X0402356Y0033258D01*
X0402356Y0031659D02*
X0399585Y0031659D01*
X0401392Y0030061D02*
X0402356Y0030061D01*
X0389529Y0031659D02*
X0034529Y0031659D01*
X0038007Y0030061D02*
X0387722Y0030061D01*
X0386343Y0028462D02*
X0039605Y0028462D01*
X0040739Y0026864D02*
X0385681Y0026864D01*
X0385052Y0025265D02*
X0041401Y0025265D01*
X0041858Y0023667D02*
X0385052Y0023667D01*
X0385052Y0022068D02*
X0041858Y0022068D01*
X0041858Y0020470D02*
X0385504Y0020470D01*
X0386166Y0018871D02*
X0041232Y0018871D01*
X0040570Y0017273D02*
X0387295Y0017273D01*
X0388893Y0015674D02*
X0039197Y0015674D01*
X0030176Y0031659D02*
X0024948Y0031659D01*
X0024948Y0030061D02*
X0026698Y0030061D01*
X0025100Y0028462D02*
X0024948Y0028462D01*
D24*
X0080778Y0133296D03*
X0079990Y0140514D03*
X0119754Y0176209D03*
X0131368Y0164005D03*
X0113061Y0217548D03*
X0104400Y0215973D03*
X0087470Y0216367D03*
X0078022Y0206918D03*
X0085896Y0241170D03*
X0026129Y0203769D03*
X0185108Y0268335D03*
X0247313Y0220304D03*
X0322116Y0206131D03*
X0333533Y0195107D03*
X0355581Y0195107D03*
X0374872Y0176603D03*
D25*
X0195837Y0298158D02*
X0195738Y0298257D01*
X0175659Y0298257D01*
D26*
X0033140Y0383690D03*
X0394557Y0385265D03*
X0394557Y0023454D03*
X0032352Y0022272D03*
M02*
