%
M48
M72
T01C0.01575
T02C0.02362
T03C0.02400
T04C0.03200
T05C0.03346
T06C0.04000
T07C0.04724
T08C0.05118
T09C0.11811
%
T01
X68967Y101013
X66998Y111643
X66604Y123060
X147313Y108887
X204819Y108526
X210699Y97469
X217986Y101213
X220541Y94713
X224478Y90383
X227234Y108493
X229848Y111500
X224872Y119910
X219754Y119517
X213455Y133690
X216965Y138414
X209911Y141957
X231204Y160677
X251250Y156918
X272904Y151013
X278809Y156131
X283533Y160855
X292195Y150619
X280778Y143926
X279990Y139951
X292195Y140776
X292622Y121482
X296094Y119334
X300069Y119334
X287044Y117730
X284551Y120859
X287110Y109674
X279170Y99865
X299708Y78965
X296919Y74241
X333533Y106131
X328809Y113578
X332746Y116367
X336256Y130934
X339045Y134477
X338652Y159280
X346919Y101013
X342589Y73454
X253219Y120337
X246919Y117548
X246919Y101013
X241014Y178965
X240686Y186806
X235108Y189595
X231962Y192741
X240620Y195501
X236289Y202981
X247707Y203375
X267760Y194713
X264242Y186446
X260305Y183690
X271522Y180733
X216604Y189202
X192589Y208887
X166998Y245501
T02
X185108Y268335
X247313Y220304
X322116Y206131
X333533Y195107
X355581Y195107
X374872Y176603
X131368Y164005
X119754Y176209
X113061Y217548
X104400Y215973
X87470Y216367
X78022Y206918
X85896Y241170
X26129Y203769
X79990Y140514
X80778Y133296
T03
X77234Y145107
X69360Y143139
X79203Y166761
X83140Y174635
X92982Y166761
X104793Y178572
X108730Y174635
X126447Y170698
X127923Y177095
X136289Y172666
X116604Y149044
X122510Y143139
X123494Y137725
X130384Y144123
X128907Y128375
X117096Y122961
X117096Y115087
X125463Y108198
X100364Y92942
X100364Y85068
X87569Y108198
X62963Y93434
X49675Y87036
X33927Y184477
X59518Y198257
X69360Y184477
X94951Y192351
X112667Y198257
X122018Y207115
X129400Y208099
X118081Y216957
X113652Y223847
X123494Y239595
X131860Y245009
X138750Y245501
X147608Y239595
X147608Y234674
X149577Y226800
X159911Y229261
X171230Y236643
X194360Y258296
X211093Y258788
X205679Y242056
X205679Y237135
X233238Y246977
X241112Y246977
X249478Y243532
X257844Y250422
X233238Y259772
X235699Y276013
X235207Y281918
X235207Y286839
X235207Y291761
X235207Y296682
X213061Y277981
X207156Y282410
X209616Y290284
X195837Y298158
X148593Y268631
X136781Y229261
X112667Y244517
X77234Y241564
X61486Y245501
X49675Y255343
X43770Y241564
X43770Y235658
X144163Y202194
X173691Y215481
X183041Y179556
X191407Y168729
X198297Y157410
X206663Y129851
X205187Y113119
X199774Y112627
X196329Y91465
X198789Y71780
X191407Y64398
X170738Y57509
X159419Y71780
X175167Y91465
X155482Y42253
X150561Y44221
X234715Y112135
X238159Y117056
X246033Y112135
X245541Y107213
X239144Y90973
X269656Y64398
X314439Y120009
X301644Y131820
X314439Y132804
X293770Y157410
X303612Y159871
X314439Y169221
X320344Y165284
X323789Y168729
X317884Y157902
X340522Y165284
X342490Y174143
X352825Y174143
X358238Y184477
X359715Y202686
X350856Y211544
X359715Y218926
X350856Y223355
X338553Y236643
X333140Y236150
X328219Y235658
X322313Y236643
X310502Y238611
X304596Y237627
X308041Y217942
X326250Y214497
X339045Y189398
X349872Y145599
X353317Y142154
X361191Y138217
X361191Y125914
X353317Y128375
X349380Y119517
X341998Y110166
X327234Y105737
X328711Y93926
X358730Y110166
X376939Y103276
X360699Y87036
X360207Y81623
X341998Y144615
X279498Y163316
X268179Y171190
X269163Y176111
X247510Y194320
X262274Y205146
X262274Y215481
X237667Y208591
X272608Y146583
X256860Y143631
X256860Y133788
X253415Y130343
X242589Y127391
X268179Y130343
X377923Y235658
X379400Y240580
X373494Y262233
X386781Y262233
X359715Y262233
X354793Y262233
X256368Y274536
T04
X100069Y56894
X100069Y44894
T05
X38652Y107312
X38652Y122272
T06
X221329Y76603
X231329Y76603
X241329Y76603
X241329Y59674
X231329Y59674
X221329Y59674
X385896Y96249
X385896Y106249
X385896Y116249
X385896Y126249
X257943Y282351
X257943Y292351
X257943Y302351
T07
X269754Y333690
X237470Y333690
T08
X175659Y352587
X175659Y298257
T09
X32352Y22272
X82352Y288020
X151250Y288020
X151250Y362430
X81959Y362430
X33140Y383690
X226841Y384871
X226841Y347076
X279990Y345107
X279990Y383690
X394557Y385265
X394557Y23454
M30
